<?xml version="1.0" encoding="UTF-8" standalone="no"?>
<!DOCTYPE svg PUBLIC "-//W3C//DTD SVG 1.1//EN"
 "http://www.w3.org/Graphics/SVG/1.1/DTD/svg11.dtd">
<!-- Generated by graphviz version 2.38.0 (20140413.2041)
 -->
<!-- Title: G Pages: 1 -->
<svg width="242pt" height="188pt"
 viewBox="0.00 0.00 242.00 188.00" xmlns="http://www.w3.org/2000/svg" xmlns:xlink="http://www.w3.org/1999/xlink">
<g id="graph0" class="graph" transform="scale(1 1) rotate(0) translate(4 184)">
<title>G</title>
<polygon fill="white" stroke="none" points="-4,4 -4,-184 238,-184 238,4 -4,4"/>
<!-- 44a4061e&#45;c074&#45;4d91&#45;bd9a&#45;797d524183c1 -->
<g id="node1" class="node"><title>44a4061e&#45;c074&#45;4d91&#45;bd9a&#45;797d524183c1</title>
<ellipse fill="none" stroke="black" cx="135" cy="-162" rx="44.393" ry="18"/>
<text text-anchor="middle" x="135" y="-158.3" font-family="Times,serif" font-size="14.00">IF&#45;EXPR</text>
</g>
<!-- c9a53719&#45;d5ac&#45;41bd&#45;a64a&#45;a76f20e14ec0 -->
<g id="node2" class="node"><title>c9a53719&#45;d5ac&#45;41bd&#45;a64a&#45;a76f20e14ec0</title>
<ellipse fill="none" stroke="black" cx="63" cy="-90" rx="27" ry="18"/>
<text text-anchor="middle" x="63" y="-86.3" font-family="Times,serif" font-size="14.00">&lt;=</text>
</g>
<!-- 44a4061e&#45;c074&#45;4d91&#45;bd9a&#45;797d524183c1&#45;&gt;c9a53719&#45;d5ac&#45;41bd&#45;a64a&#45;a76f20e14ec0 -->
<g id="edge1" class="edge"><title>44a4061e&#45;c074&#45;4d91&#45;bd9a&#45;797d524183c1&#45;&gt;c9a53719&#45;d5ac&#45;41bd&#45;a64a&#45;a76f20e14ec0</title>
<path fill="none" stroke="black" d="M118.662,-145.116C108.78,-135.508 96.0456,-123.128 85.2519,-112.634"/>
<polygon fill="black" stroke="black" points="87.4137,-109.854 77.8039,-105.393 82.5341,-114.873 87.4137,-109.854"/>
</g>
<!-- fd81e53a&#45;e95d&#45;4bf1&#45;8c52&#45;4cce65a017e2 -->
<g id="node5" class="node"><title>fd81e53a&#45;e95d&#45;4bf1&#45;8c52&#45;4cce65a017e2</title>
<ellipse fill="none" stroke="black" cx="135" cy="-90" rx="27" ry="18"/>
<text text-anchor="middle" x="135" y="-86.3" font-family="Times,serif" font-size="14.00">b</text>
</g>
<!-- 44a4061e&#45;c074&#45;4d91&#45;bd9a&#45;797d524183c1&#45;&gt;fd81e53a&#45;e95d&#45;4bf1&#45;8c52&#45;4cce65a017e2 -->
<g id="edge4" class="edge"><title>44a4061e&#45;c074&#45;4d91&#45;bd9a&#45;797d524183c1&#45;&gt;fd81e53a&#45;e95d&#45;4bf1&#45;8c52&#45;4cce65a017e2</title>
<path fill="none" stroke="black" d="M135,-143.697C135,-135.983 135,-126.712 135,-118.112"/>
<polygon fill="black" stroke="black" points="138.5,-118.104 135,-108.104 131.5,-118.104 138.5,-118.104"/>
</g>
<!-- 10ea8d06&#45;4cd2&#45;4cc6&#45;849d&#45;c98cc4c39d10 -->
<g id="node6" class="node"><title>10ea8d06&#45;4cd2&#45;4cc6&#45;849d&#45;c98cc4c39d10</title>
<ellipse fill="none" stroke="black" cx="207" cy="-90" rx="27" ry="18"/>
<text text-anchor="middle" x="207" y="-86.3" font-family="Times,serif" font-size="14.00">c</text>
</g>
<!-- 44a4061e&#45;c074&#45;4d91&#45;bd9a&#45;797d524183c1&#45;&gt;10ea8d06&#45;4cd2&#45;4cc6&#45;849d&#45;c98cc4c39d10 -->
<g id="edge5" class="edge"><title>44a4061e&#45;c074&#45;4d91&#45;bd9a&#45;797d524183c1&#45;&gt;10ea8d06&#45;4cd2&#45;4cc6&#45;849d&#45;c98cc4c39d10</title>
<path fill="none" stroke="black" d="M151.338,-145.116C161.22,-135.508 173.954,-123.128 184.748,-112.634"/>
<polygon fill="black" stroke="black" points="187.466,-114.873 192.196,-105.393 182.586,-109.854 187.466,-114.873"/>
</g>
<!-- 9040298a&#45;0ec2&#45;49d2&#45;a2c6&#45;e710b1e317ab -->
<g id="node3" class="node"><title>9040298a&#45;0ec2&#45;49d2&#45;a2c6&#45;e710b1e317ab</title>
<ellipse fill="none" stroke="black" cx="27" cy="-18" rx="27" ry="18"/>
<text text-anchor="middle" x="27" y="-14.3" font-family="Times,serif" font-size="14.00">a</text>
</g>
<!-- c9a53719&#45;d5ac&#45;41bd&#45;a64a&#45;a76f20e14ec0&#45;&gt;9040298a&#45;0ec2&#45;49d2&#45;a2c6&#45;e710b1e317ab -->
<g id="edge2" class="edge"><title>c9a53719&#45;d5ac&#45;41bd&#45;a64a&#45;a76f20e14ec0&#45;&gt;9040298a&#45;0ec2&#45;49d2&#45;a2c6&#45;e710b1e317ab</title>
<path fill="none" stroke="black" d="M54.6504,-72.7646C50.2885,-64.2831 44.8531,-53.7144 39.9587,-44.1974"/>
<polygon fill="black" stroke="black" points="42.9904,-42.4395 35.3043,-35.1473 36.7654,-45.6409 42.9904,-42.4395"/>
</g>
<!-- 1dd2a70b&#45;42dd&#45;4e0a&#45;8f04&#45;c89d7ee22d6f -->
<g id="node4" class="node"><title>1dd2a70b&#45;42dd&#45;4e0a&#45;8f04&#45;c89d7ee22d6f</title>
<ellipse fill="none" stroke="black" cx="99" cy="-18" rx="27" ry="18"/>
<text text-anchor="middle" x="99" y="-14.3" font-family="Times,serif" font-size="14.00">0</text>
</g>
<!-- c9a53719&#45;d5ac&#45;41bd&#45;a64a&#45;a76f20e14ec0&#45;&gt;1dd2a70b&#45;42dd&#45;4e0a&#45;8f04&#45;c89d7ee22d6f -->
<g id="edge3" class="edge"><title>c9a53719&#45;d5ac&#45;41bd&#45;a64a&#45;a76f20e14ec0&#45;&gt;1dd2a70b&#45;42dd&#45;4e0a&#45;8f04&#45;c89d7ee22d6f</title>
<path fill="none" stroke="black" d="M71.3496,-72.7646C75.7115,-64.2831 81.1469,-53.7144 86.0413,-44.1974"/>
<polygon fill="black" stroke="black" points="89.2346,-45.6409 90.6957,-35.1473 83.0096,-42.4395 89.2346,-45.6409"/>
</g>
</g>
</svg>
