<?xml version="1.0" encoding="UTF-8" standalone="no"?>
<!DOCTYPE svg PUBLIC "-//W3C//DTD SVG 1.1//EN"
 "http://www.w3.org/Graphics/SVG/1.1/DTD/svg11.dtd">
<!-- Generated by graphviz version 2.38.0 (20140413.2041)
 -->
<!-- Title: G Pages: 1 -->
<svg width="372pt" height="620pt"
 viewBox="0.00 0.00 371.60 620.00" xmlns="http://www.w3.org/2000/svg" xmlns:xlink="http://www.w3.org/1999/xlink">
<g id="graph0" class="graph" transform="scale(1 1) rotate(0) translate(4 616)">
<title>G</title>
<polygon fill="white" stroke="none" points="-4,4 -4,-616 367.597,-616 367.597,4 -4,4"/>
<!-- 130c44c0&#45;3f5e&#45;4890&#45;bab5&#45;b8a4d10a8e60 -->
<g id="node1" class="node"><title>130c44c0&#45;3f5e&#45;4890&#45;bab5&#45;b8a4d10a8e60</title>
<ellipse fill="none" stroke="black" cx="137.597" cy="-594" rx="27" ry="18"/>
<text text-anchor="middle" x="137.597" y="-590.3" font-family="Times,serif" font-size="14.00">E</text>
</g>
<!-- befe225d&#45;1c82&#45;446d&#45;8323&#45;aafbd764328a -->
<g id="node2" class="node"><title>befe225d&#45;1c82&#45;446d&#45;8323&#45;aafbd764328a</title>
<ellipse fill="none" stroke="black" cx="101.597" cy="-522" rx="27" ry="18"/>
<text text-anchor="middle" x="101.597" y="-518.3" font-family="Times,serif" font-size="14.00">T</text>
</g>
<!-- 130c44c0&#45;3f5e&#45;4890&#45;bab5&#45;b8a4d10a8e60&#45;&gt;befe225d&#45;1c82&#45;446d&#45;8323&#45;aafbd764328a -->
<g id="edge1" class="edge"><title>130c44c0&#45;3f5e&#45;4890&#45;bab5&#45;b8a4d10a8e60&#45;&gt;befe225d&#45;1c82&#45;446d&#45;8323&#45;aafbd764328a</title>
<path fill="none" stroke="black" d="M129.248,-576.765C124.886,-568.283 119.451,-557.714 114.556,-548.197"/>
<polygon fill="black" stroke="black" points="117.588,-546.439 109.902,-539.147 111.363,-549.641 117.588,-546.439"/>
</g>
<!-- 77d52dcf&#45;9bc7&#45;469f&#45;a5b4&#45;e0b837107df2 -->
<g id="node23" class="node"><title>77d52dcf&#45;9bc7&#45;469f&#45;a5b4&#45;e0b837107df2</title>
<ellipse fill="none" stroke="black" cx="173.597" cy="-522" rx="27" ry="18"/>
<text text-anchor="middle" x="173.597" y="-518.3" font-family="Times,serif" font-size="14.00">X</text>
</g>
<!-- 130c44c0&#45;3f5e&#45;4890&#45;bab5&#45;b8a4d10a8e60&#45;&gt;77d52dcf&#45;9bc7&#45;469f&#45;a5b4&#45;e0b837107df2 -->
<g id="edge22" class="edge"><title>130c44c0&#45;3f5e&#45;4890&#45;bab5&#45;b8a4d10a8e60&#45;&gt;77d52dcf&#45;9bc7&#45;469f&#45;a5b4&#45;e0b837107df2</title>
<path fill="none" stroke="black" d="M145.947,-576.765C150.309,-568.283 155.744,-557.714 160.639,-548.197"/>
<polygon fill="black" stroke="black" points="163.832,-549.641 165.293,-539.147 157.607,-546.439 163.832,-549.641"/>
</g>
<!-- 05eae3be&#45;d79a&#45;4f06&#45;aaf2&#45;eb6d1effa06e -->
<g id="node3" class="node"><title>05eae3be&#45;d79a&#45;4f06&#45;aaf2&#45;eb6d1effa06e</title>
<ellipse fill="none" stroke="black" cx="65.5975" cy="-450" rx="27" ry="18"/>
<text text-anchor="middle" x="65.5975" y="-446.3" font-family="Times,serif" font-size="14.00">F</text>
</g>
<!-- befe225d&#45;1c82&#45;446d&#45;8323&#45;aafbd764328a&#45;&gt;05eae3be&#45;d79a&#45;4f06&#45;aaf2&#45;eb6d1effa06e -->
<g id="edge2" class="edge"><title>befe225d&#45;1c82&#45;446d&#45;8323&#45;aafbd764328a&#45;&gt;05eae3be&#45;d79a&#45;4f06&#45;aaf2&#45;eb6d1effa06e</title>
<path fill="none" stroke="black" d="M93.2479,-504.765C88.8859,-496.283 83.4506,-485.714 78.5561,-476.197"/>
<polygon fill="black" stroke="black" points="81.5878,-474.439 73.9018,-467.147 75.3628,-477.641 81.5878,-474.439"/>
</g>
<!-- e65582a6&#45;9d94&#45;4d16&#45;bd85&#45;102abac75054 -->
<g id="node5" class="node"><title>e65582a6&#45;9d94&#45;4d16&#45;bd85&#45;102abac75054</title>
<ellipse fill="none" stroke="black" cx="138.597" cy="-450" rx="27" ry="18"/>
<text text-anchor="middle" x="138.597" y="-446.3" font-family="Times,serif" font-size="14.00">Y</text>
</g>
<!-- befe225d&#45;1c82&#45;446d&#45;8323&#45;aafbd764328a&#45;&gt;e65582a6&#45;9d94&#45;4d16&#45;bd85&#45;102abac75054 -->
<g id="edge4" class="edge"><title>befe225d&#45;1c82&#45;446d&#45;8323&#45;aafbd764328a&#45;&gt;e65582a6&#45;9d94&#45;4d16&#45;bd85&#45;102abac75054</title>
<path fill="none" stroke="black" d="M110.179,-504.765C114.662,-496.283 120.248,-485.714 125.279,-476.197"/>
<polygon fill="black" stroke="black" points="128.484,-477.624 130.062,-467.147 122.295,-474.353 128.484,-477.624"/>
</g>
<!-- ab192c43&#45;b710&#45;483d&#45;adcb&#45;789961d61f8d -->
<g id="node4" class="node"><title>ab192c43&#45;b710&#45;483d&#45;adcb&#45;789961d61f8d</title>
<ellipse fill="none" stroke="black" cx="28.5975" cy="-378" rx="28.6953" ry="18"/>
<text text-anchor="middle" x="28.5975" y="-374.3" font-family="Times,serif" font-size="14.00">i {3}</text>
</g>
<!-- 05eae3be&#45;d79a&#45;4f06&#45;aaf2&#45;eb6d1effa06e&#45;&gt;ab192c43&#45;b710&#45;483d&#45;adcb&#45;789961d61f8d -->
<g id="edge3" class="edge"><title>05eae3be&#45;d79a&#45;4f06&#45;aaf2&#45;eb6d1effa06e&#45;&gt;ab192c43&#45;b710&#45;483d&#45;adcb&#45;789961d61f8d</title>
<path fill="none" stroke="black" d="M57.0159,-432.765C52.5969,-424.404 47.1059,-414.016 42.132,-404.606"/>
<polygon fill="black" stroke="black" points="45.1569,-402.839 37.3894,-395.633 38.9682,-406.11 45.1569,-402.839"/>
</g>
<!-- 1d731bdd&#45;092d&#45;4120&#45;810b&#45;7c503218b75d -->
<g id="node6" class="node"><title>1d731bdd&#45;092d&#45;4120&#45;810b&#45;7c503218b75d</title>
<ellipse fill="none" stroke="black" cx="102.597" cy="-378" rx="27" ry="18"/>
<text text-anchor="middle" x="102.597" y="-374.3" font-family="Times,serif" font-size="14.00">*</text>
</g>
<!-- e65582a6&#45;9d94&#45;4d16&#45;bd85&#45;102abac75054&#45;&gt;1d731bdd&#45;092d&#45;4120&#45;810b&#45;7c503218b75d -->
<g id="edge5" class="edge"><title>e65582a6&#45;9d94&#45;4d16&#45;bd85&#45;102abac75054&#45;&gt;1d731bdd&#45;092d&#45;4120&#45;810b&#45;7c503218b75d</title>
<path fill="none" stroke="black" d="M130.248,-432.765C125.886,-424.283 120.451,-413.714 115.556,-404.197"/>
<polygon fill="black" stroke="black" points="118.588,-402.439 110.902,-395.147 112.363,-405.641 118.588,-402.439"/>
</g>
<!-- 3a862978&#45;1309&#45;4803&#45;a694&#45;5bcdbb7c80d3 -->
<g id="node7" class="node"><title>3a862978&#45;1309&#45;4803&#45;a694&#45;5bcdbb7c80d3</title>
<ellipse fill="none" stroke="black" cx="174.597" cy="-378" rx="27" ry="18"/>
<text text-anchor="middle" x="174.597" y="-374.3" font-family="Times,serif" font-size="14.00">F</text>
</g>
<!-- e65582a6&#45;9d94&#45;4d16&#45;bd85&#45;102abac75054&#45;&gt;3a862978&#45;1309&#45;4803&#45;a694&#45;5bcdbb7c80d3 -->
<g id="edge6" class="edge"><title>e65582a6&#45;9d94&#45;4d16&#45;bd85&#45;102abac75054&#45;&gt;3a862978&#45;1309&#45;4803&#45;a694&#45;5bcdbb7c80d3</title>
<path fill="none" stroke="black" d="M146.947,-432.765C151.309,-424.283 156.744,-413.714 161.639,-404.197"/>
<polygon fill="black" stroke="black" points="164.832,-405.641 166.293,-395.147 158.607,-402.439 164.832,-405.641"/>
</g>
<!-- e1f81960&#45;ded0&#45;4082&#45;a4ca&#45;ccc545d7cf74 -->
<g id="node22" class="node"><title>e1f81960&#45;ded0&#45;4082&#45;a4ca&#45;ccc545d7cf74</title>
<ellipse fill="none" stroke="black" cx="246.597" cy="-378" rx="27" ry="18"/>
<text text-anchor="middle" x="246.597" y="-374.3" font-family="Times,serif" font-size="14.00">Y</text>
</g>
<!-- e65582a6&#45;9d94&#45;4d16&#45;bd85&#45;102abac75054&#45;&gt;e1f81960&#45;ded0&#45;4082&#45;a4ca&#45;ccc545d7cf74 -->
<g id="edge21" class="edge"><title>e65582a6&#45;9d94&#45;4d16&#45;bd85&#45;102abac75054&#45;&gt;e1f81960&#45;ded0&#45;4082&#45;a4ca&#45;ccc545d7cf74</title>
<path fill="none" stroke="black" d="M157.41,-436.807C174.6,-425.665 200.216,-409.062 219.591,-396.504"/>
<polygon fill="black" stroke="black" points="221.513,-399.429 228.001,-391.053 217.706,-393.555 221.513,-399.429"/>
</g>
<!-- 81d91d3e&#45;3da6&#45;46ce&#45;bb25&#45;b9c908c9f3f2 -->
<g id="node8" class="node"><title>81d91d3e&#45;3da6&#45;46ce&#45;bb25&#45;b9c908c9f3f2</title>
<ellipse fill="none" stroke="black" cx="102.597" cy="-306" rx="27" ry="18"/>
<text text-anchor="middle" x="102.597" y="-302.3" font-family="Times,serif" font-size="14.00">(</text>
</g>
<!-- 3a862978&#45;1309&#45;4803&#45;a694&#45;5bcdbb7c80d3&#45;&gt;81d91d3e&#45;3da6&#45;46ce&#45;bb25&#45;b9c908c9f3f2 -->
<g id="edge7" class="edge"><title>3a862978&#45;1309&#45;4803&#45;a694&#45;5bcdbb7c80d3&#45;&gt;81d91d3e&#45;3da6&#45;46ce&#45;bb25&#45;b9c908c9f3f2</title>
<path fill="none" stroke="black" d="M160.027,-362.834C149.848,-352.938 136.074,-339.546 124.567,-328.359"/>
<polygon fill="black" stroke="black" points="127.003,-325.846 117.393,-321.385 122.123,-330.865 127.003,-325.846"/>
</g>
<!-- 77f89a68&#45;aea6&#45;4ed7&#45;bc23&#45;21a3e318026c -->
<g id="node9" class="node"><title>77f89a68&#45;aea6&#45;4ed7&#45;bc23&#45;21a3e318026c</title>
<ellipse fill="none" stroke="black" cx="174.597" cy="-306" rx="27" ry="18"/>
<text text-anchor="middle" x="174.597" y="-302.3" font-family="Times,serif" font-size="14.00">E</text>
</g>
<!-- 3a862978&#45;1309&#45;4803&#45;a694&#45;5bcdbb7c80d3&#45;&gt;77f89a68&#45;aea6&#45;4ed7&#45;bc23&#45;21a3e318026c -->
<g id="edge8" class="edge"><title>3a862978&#45;1309&#45;4803&#45;a694&#45;5bcdbb7c80d3&#45;&gt;77f89a68&#45;aea6&#45;4ed7&#45;bc23&#45;21a3e318026c</title>
<path fill="none" stroke="black" d="M174.597,-359.697C174.597,-351.983 174.597,-342.712 174.597,-334.112"/>
<polygon fill="black" stroke="black" points="178.098,-334.104 174.597,-324.104 171.098,-334.104 178.098,-334.104"/>
</g>
<!-- 8ac35d41&#45;9a4a&#45;4292&#45;bdda&#45;c97d2114546a -->
<g id="node21" class="node"><title>8ac35d41&#45;9a4a&#45;4292&#45;bdda&#45;c97d2114546a</title>
<ellipse fill="none" stroke="black" cx="246.597" cy="-306" rx="27" ry="18"/>
<text text-anchor="middle" x="246.597" y="-302.3" font-family="Times,serif" font-size="14.00">)</text>
</g>
<!-- 3a862978&#45;1309&#45;4803&#45;a694&#45;5bcdbb7c80d3&#45;&gt;8ac35d41&#45;9a4a&#45;4292&#45;bdda&#45;c97d2114546a -->
<g id="edge20" class="edge"><title>3a862978&#45;1309&#45;4803&#45;a694&#45;5bcdbb7c80d3&#45;&gt;8ac35d41&#45;9a4a&#45;4292&#45;bdda&#45;c97d2114546a</title>
<path fill="none" stroke="black" d="M189.168,-362.834C199.347,-352.938 213.121,-339.546 224.628,-328.359"/>
<polygon fill="black" stroke="black" points="227.072,-330.865 231.802,-321.385 222.192,-325.846 227.072,-330.865"/>
</g>
<!-- b00fde9d&#45;2ae1&#45;45de&#45;9fc7&#45;3f0a726dfe66 -->
<g id="node10" class="node"><title>b00fde9d&#45;2ae1&#45;45de&#45;9fc7&#45;3f0a726dfe66</title>
<ellipse fill="none" stroke="black" cx="120.597" cy="-234" rx="27" ry="18"/>
<text text-anchor="middle" x="120.597" y="-230.3" font-family="Times,serif" font-size="14.00">T</text>
</g>
<!-- 77f89a68&#45;aea6&#45;4ed7&#45;bc23&#45;21a3e318026c&#45;&gt;b00fde9d&#45;2ae1&#45;45de&#45;9fc7&#45;3f0a726dfe66 -->
<g id="edge9" class="edge"><title>77f89a68&#45;aea6&#45;4ed7&#45;bc23&#45;21a3e318026c&#45;&gt;b00fde9d&#45;2ae1&#45;45de&#45;9fc7&#45;3f0a726dfe66</title>
<path fill="none" stroke="black" d="M162.613,-289.465C155.622,-280.402 146.661,-268.786 138.812,-258.612"/>
<polygon fill="black" stroke="black" points="141.428,-256.272 132.548,-250.492 135.885,-260.548 141.428,-256.272"/>
</g>
<!-- e3d79a8b&#45;4204&#45;4318&#45;a790&#45;6f888814f4b8 -->
<g id="node14" class="node"><title>e3d79a8b&#45;4204&#45;4318&#45;a790&#45;6f888814f4b8</title>
<ellipse fill="none" stroke="black" cx="228.597" cy="-234" rx="27" ry="18"/>
<text text-anchor="middle" x="228.597" y="-230.3" font-family="Times,serif" font-size="14.00">X</text>
</g>
<!-- 77f89a68&#45;aea6&#45;4ed7&#45;bc23&#45;21a3e318026c&#45;&gt;e3d79a8b&#45;4204&#45;4318&#45;a790&#45;6f888814f4b8 -->
<g id="edge13" class="edge"><title>77f89a68&#45;aea6&#45;4ed7&#45;bc23&#45;21a3e318026c&#45;&gt;e3d79a8b&#45;4204&#45;4318&#45;a790&#45;6f888814f4b8</title>
<path fill="none" stroke="black" d="M186.582,-289.465C193.573,-280.402 202.534,-268.786 210.383,-258.612"/>
<polygon fill="black" stroke="black" points="213.31,-260.548 216.647,-250.492 207.767,-256.272 213.31,-260.548"/>
</g>
<!-- fdd495f3&#45;a601&#45;4275&#45;85fe&#45;82d527532ea3 -->
<g id="node11" class="node"><title>fdd495f3&#45;a601&#45;4275&#45;85fe&#45;82d527532ea3</title>
<ellipse fill="none" stroke="black" cx="48.5975" cy="-162" rx="27" ry="18"/>
<text text-anchor="middle" x="48.5975" y="-158.3" font-family="Times,serif" font-size="14.00">F</text>
</g>
<!-- b00fde9d&#45;2ae1&#45;45de&#45;9fc7&#45;3f0a726dfe66&#45;&gt;fdd495f3&#45;a601&#45;4275&#45;85fe&#45;82d527532ea3 -->
<g id="edge10" class="edge"><title>b00fde9d&#45;2ae1&#45;45de&#45;9fc7&#45;3f0a726dfe66&#45;&gt;fdd495f3&#45;a601&#45;4275&#45;85fe&#45;82d527532ea3</title>
<path fill="none" stroke="black" d="M106.027,-218.834C95.8475,-208.938 82.0736,-195.546 70.5668,-184.359"/>
<polygon fill="black" stroke="black" points="73.003,-181.846 63.3932,-177.385 68.1234,-186.865 73.003,-181.846"/>
</g>
<!-- 32eef377&#45;7df7&#45;44b8&#45;9020&#45;8dd6c9e06ea3 -->
<g id="node13" class="node"><title>32eef377&#45;7df7&#45;44b8&#45;9020&#45;8dd6c9e06ea3</title>
<ellipse fill="none" stroke="black" cx="120.597" cy="-162" rx="27" ry="18"/>
<text text-anchor="middle" x="120.597" y="-158.3" font-family="Times,serif" font-size="14.00">Y</text>
</g>
<!-- b00fde9d&#45;2ae1&#45;45de&#45;9fc7&#45;3f0a726dfe66&#45;&gt;32eef377&#45;7df7&#45;44b8&#45;9020&#45;8dd6c9e06ea3 -->
<g id="edge12" class="edge"><title>b00fde9d&#45;2ae1&#45;45de&#45;9fc7&#45;3f0a726dfe66&#45;&gt;32eef377&#45;7df7&#45;44b8&#45;9020&#45;8dd6c9e06ea3</title>
<path fill="none" stroke="black" d="M120.597,-215.697C120.597,-207.983 120.597,-198.712 120.597,-190.112"/>
<polygon fill="black" stroke="black" points="124.098,-190.104 120.597,-180.104 117.098,-190.104 124.098,-190.104"/>
</g>
<!-- 67e117cb&#45;09a4&#45;4f63&#45;9def&#45;c98ff9d83eca -->
<g id="node12" class="node"><title>67e117cb&#45;09a4&#45;4f63&#45;9def&#45;c98ff9d83eca</title>
<ellipse fill="none" stroke="black" cx="48.5975" cy="-90" rx="28.6953" ry="18"/>
<text text-anchor="middle" x="48.5975" y="-86.3" font-family="Times,serif" font-size="14.00">i {2}</text>
</g>
<!-- fdd495f3&#45;a601&#45;4275&#45;85fe&#45;82d527532ea3&#45;&gt;67e117cb&#45;09a4&#45;4f63&#45;9def&#45;c98ff9d83eca -->
<g id="edge11" class="edge"><title>fdd495f3&#45;a601&#45;4275&#45;85fe&#45;82d527532ea3&#45;&gt;67e117cb&#45;09a4&#45;4f63&#45;9def&#45;c98ff9d83eca</title>
<path fill="none" stroke="black" d="M48.5975,-143.697C48.5975,-135.983 48.5975,-126.712 48.5975,-118.112"/>
<polygon fill="black" stroke="black" points="52.0976,-118.104 48.5975,-108.104 45.0976,-118.104 52.0976,-118.104"/>
</g>
<!-- 3857f948&#45;2d14&#45;4b8c&#45;9566&#45;4cba6ec0f06d -->
<g id="node15" class="node"><title>3857f948&#45;2d14&#45;4b8c&#45;9566&#45;4cba6ec0f06d</title>
<ellipse fill="none" stroke="black" cx="192.597" cy="-162" rx="27" ry="18"/>
<text text-anchor="middle" x="192.597" y="-158.3" font-family="Times,serif" font-size="14.00">+</text>
</g>
<!-- e3d79a8b&#45;4204&#45;4318&#45;a790&#45;6f888814f4b8&#45;&gt;3857f948&#45;2d14&#45;4b8c&#45;9566&#45;4cba6ec0f06d -->
<g id="edge14" class="edge"><title>e3d79a8b&#45;4204&#45;4318&#45;a790&#45;6f888814f4b8&#45;&gt;3857f948&#45;2d14&#45;4b8c&#45;9566&#45;4cba6ec0f06d</title>
<path fill="none" stroke="black" d="M220.248,-216.765C215.886,-208.283 210.451,-197.714 205.556,-188.197"/>
<polygon fill="black" stroke="black" points="208.588,-186.439 200.902,-179.147 202.363,-189.641 208.588,-186.439"/>
</g>
<!-- d8578b33&#45;9ac2&#45;4a9c&#45;a9a9&#45;623fdb511fb2 -->
<g id="node16" class="node"><title>d8578b33&#45;9ac2&#45;4a9c&#45;a9a9&#45;623fdb511fb2</title>
<ellipse fill="none" stroke="black" cx="264.597" cy="-162" rx="27" ry="18"/>
<text text-anchor="middle" x="264.597" y="-158.3" font-family="Times,serif" font-size="14.00">T</text>
</g>
<!-- e3d79a8b&#45;4204&#45;4318&#45;a790&#45;6f888814f4b8&#45;&gt;d8578b33&#45;9ac2&#45;4a9c&#45;a9a9&#45;623fdb511fb2 -->
<g id="edge15" class="edge"><title>e3d79a8b&#45;4204&#45;4318&#45;a790&#45;6f888814f4b8&#45;&gt;d8578b33&#45;9ac2&#45;4a9c&#45;a9a9&#45;623fdb511fb2</title>
<path fill="none" stroke="black" d="M236.947,-216.765C241.309,-208.283 246.744,-197.714 251.639,-188.197"/>
<polygon fill="black" stroke="black" points="254.832,-189.641 256.293,-179.147 248.607,-186.439 254.832,-189.641"/>
</g>
<!-- 4ddbf522&#45;5c0c&#45;4a17&#45;a0ef&#45;df349e5e2eeb -->
<g id="node20" class="node"><title>4ddbf522&#45;5c0c&#45;4a17&#45;a0ef&#45;df349e5e2eeb</title>
<ellipse fill="none" stroke="black" cx="336.597" cy="-162" rx="27" ry="18"/>
<text text-anchor="middle" x="336.597" y="-158.3" font-family="Times,serif" font-size="14.00">X</text>
</g>
<!-- e3d79a8b&#45;4204&#45;4318&#45;a790&#45;6f888814f4b8&#45;&gt;4ddbf522&#45;5c0c&#45;4a17&#45;a0ef&#45;df349e5e2eeb -->
<g id="edge19" class="edge"><title>e3d79a8b&#45;4204&#45;4318&#45;a790&#45;6f888814f4b8&#45;&gt;4ddbf522&#45;5c0c&#45;4a17&#45;a0ef&#45;df349e5e2eeb</title>
<path fill="none" stroke="black" d="M247.41,-220.807C264.6,-209.665 290.216,-193.062 309.591,-180.504"/>
<polygon fill="black" stroke="black" points="311.513,-183.429 318.001,-175.053 307.706,-177.555 311.513,-183.429"/>
</g>
<!-- 0ce968c5&#45;4afa&#45;4305&#45;aea5&#45;746d17e2b245 -->
<g id="node17" class="node"><title>0ce968c5&#45;4afa&#45;4305&#45;aea5&#45;746d17e2b245</title>
<ellipse fill="none" stroke="black" cx="228.597" cy="-90" rx="27" ry="18"/>
<text text-anchor="middle" x="228.597" y="-86.3" font-family="Times,serif" font-size="14.00">F</text>
</g>
<!-- d8578b33&#45;9ac2&#45;4a9c&#45;a9a9&#45;623fdb511fb2&#45;&gt;0ce968c5&#45;4afa&#45;4305&#45;aea5&#45;746d17e2b245 -->
<g id="edge16" class="edge"><title>d8578b33&#45;9ac2&#45;4a9c&#45;a9a9&#45;623fdb511fb2&#45;&gt;0ce968c5&#45;4afa&#45;4305&#45;aea5&#45;746d17e2b245</title>
<path fill="none" stroke="black" d="M256.248,-144.765C251.886,-136.283 246.451,-125.714 241.556,-116.197"/>
<polygon fill="black" stroke="black" points="244.588,-114.439 236.902,-107.147 238.363,-117.641 244.588,-114.439"/>
</g>
<!-- e84a6135&#45;a9b1&#45;44ab&#45;8f2c&#45;fccf09ccff33 -->
<g id="node19" class="node"><title>e84a6135&#45;a9b1&#45;44ab&#45;8f2c&#45;fccf09ccff33</title>
<ellipse fill="none" stroke="black" cx="300.597" cy="-90" rx="27" ry="18"/>
<text text-anchor="middle" x="300.597" y="-86.3" font-family="Times,serif" font-size="14.00">Y</text>
</g>
<!-- d8578b33&#45;9ac2&#45;4a9c&#45;a9a9&#45;623fdb511fb2&#45;&gt;e84a6135&#45;a9b1&#45;44ab&#45;8f2c&#45;fccf09ccff33 -->
<g id="edge18" class="edge"><title>d8578b33&#45;9ac2&#45;4a9c&#45;a9a9&#45;623fdb511fb2&#45;&gt;e84a6135&#45;a9b1&#45;44ab&#45;8f2c&#45;fccf09ccff33</title>
<path fill="none" stroke="black" d="M272.947,-144.765C277.309,-136.283 282.744,-125.714 287.639,-116.197"/>
<polygon fill="black" stroke="black" points="290.832,-117.641 292.293,-107.147 284.607,-114.439 290.832,-117.641"/>
</g>
<!-- a6e6d62a&#45;d10d&#45;4cb4&#45;8bea&#45;8a87071712fd -->
<g id="node18" class="node"><title>a6e6d62a&#45;d10d&#45;4cb4&#45;8bea&#45;8a87071712fd</title>
<ellipse fill="none" stroke="black" cx="228.597" cy="-18" rx="28.6953" ry="18"/>
<text text-anchor="middle" x="228.597" y="-14.3" font-family="Times,serif" font-size="14.00">i {5}</text>
</g>
<!-- 0ce968c5&#45;4afa&#45;4305&#45;aea5&#45;746d17e2b245&#45;&gt;a6e6d62a&#45;d10d&#45;4cb4&#45;8bea&#45;8a87071712fd -->
<g id="edge17" class="edge"><title>0ce968c5&#45;4afa&#45;4305&#45;aea5&#45;746d17e2b245&#45;&gt;a6e6d62a&#45;d10d&#45;4cb4&#45;8bea&#45;8a87071712fd</title>
<path fill="none" stroke="black" d="M228.597,-71.6966C228.597,-63.9827 228.597,-54.7125 228.597,-46.1124"/>
<polygon fill="black" stroke="black" points="232.098,-46.1043 228.597,-36.1043 225.098,-46.1044 232.098,-46.1043"/>
</g>
</g>
</svg>
