<?xml version="1.0" encoding="UTF-8" standalone="no"?>
<!DOCTYPE svg PUBLIC "-//W3C//DTD SVG 1.1//EN"
 "http://www.w3.org/Graphics/SVG/1.1/DTD/svg11.dtd">
<!-- Generated by graphviz version 2.38.0 (20140413.2041)
 -->
<!-- Title: G Pages: 1 -->
<svg width="235pt" height="91pt"
 viewBox="7.20 7.20 227.49 84.20" xmlns="http://www.w3.org/2000/svg" xmlns:xlink="http://www.w3.org/1999/xlink">
<g id="graph0" class="graph" transform="scale(1 1) rotate(0) translate(11.2 80.2)">
<title>G</title>
<polygon fill="white" stroke="none" points="-4,4 -4,-73 216.288,-73 216.288,4 -4,4"/>
<!-- start -->
<g id="node1" class="node"><title>start</title>
</g>
<!-- q0q1 -->
<g id="node2" class="node"><title>q0q1</title>
<ellipse fill="none" stroke="black" cx="66.5975" cy="-18" rx="28.6953" ry="18"/>
<text text-anchor="middle" x="66.5975" y="-14.3" font-family="Times,serif" font-size="14.00">q0q1</text>
</g>
<!-- start&#45;&gt;q0q1 -->
<g id="edge3" class="edge"><title>start&#45;&gt;q0q1</title>
<path fill="none" stroke="black" stroke-dasharray="5,2" d="M1.04682,-18C1.89532,-18 14.1537,-18 27.7636,-18"/>
<polygon fill="black" stroke="black" points="27.7688,-21.5001 37.7688,-18 27.7688,-14.5001 27.7688,-21.5001"/>
</g>
<!-- q0q1&#45;&gt;q0q1 -->
<g id="edge2" class="edge"><title>q0q1&#45;&gt;q0q1</title>
<path fill="none" stroke="black" d="M58.3852,-35.4099C56.8522,-45.0879 59.5897,-54 66.5975,-54 70.9773,-54 73.6891,-50.5187 74.7328,-45.5449"/>
<polygon fill="black" stroke="black" points="78.2336,-45.4362 74.8097,-35.4099 71.2338,-45.383 78.2336,-45.4362"/>
<text text-anchor="middle" x="66.5975" y="-57.8" font-family="Times,serif" font-size="14.00">b</text>
</g>
<!-- q0q1q2 -->
<g id="node3" class="node"><title>q0q1q2</title>
<ellipse fill="none" stroke="black" cx="175.242" cy="-18" rx="37.0935" ry="18"/>
<text text-anchor="middle" x="175.242" y="-14.3" font-family="Times,serif" font-size="14.00">q0q1q2</text>
</g>
<!-- q0q1&#45;&gt;q0q1q2 -->
<g id="edge1" class="edge"><title>q0q1&#45;&gt;q0q1q2</title>
<path fill="none" stroke="black" d="M95.3386,-18C105.356,-18 116.951,-18 128.118,-18"/>
<polygon fill="black" stroke="black" points="128.195,-21.5001 138.195,-18 128.195,-14.5001 128.195,-21.5001"/>
<text text-anchor="middle" x="116.695" y="-21.8" font-family="Times,serif" font-size="14.00">a</text>
</g>
</g>
</svg>
