<?xml version="1.0" encoding="UTF-8" standalone="no"?>
<!DOCTYPE svg PUBLIC "-//W3C//DTD SVG 1.1//EN"
 "http://www.w3.org/Graphics/SVG/1.1/DTD/svg11.dtd">
<!-- Generated by graphviz version 2.38.0 (20140413.2041)
 -->
<!-- Title: G Pages: 1 -->
<svg width="370pt" height="118pt"
 viewBox="7.20 7.20 362.78 111.20" xmlns="http://www.w3.org/2000/svg" xmlns:xlink="http://www.w3.org/1999/xlink">
<g id="graph0" class="graph" transform="scale(1 1) rotate(0) translate(11.2 107.2)">
<title>G</title>
<polygon fill="white" stroke="none" points="-4,4 -4,-100 351.58,-100 351.58,4 -4,4"/>
<!-- start -->
<g id="node1" class="node"><title>start</title>
</g>
<!-- q0q1 -->
<g id="node2" class="node"><title>q0q1</title>
<ellipse fill="none" stroke="black" cx="66.5975" cy="-45" rx="28.6953" ry="18"/>
<text text-anchor="middle" x="66.5975" y="-41.3" font-family="Times,serif" font-size="14.00">q0q1</text>
</g>
<!-- start&#45;&gt;q0q1 -->
<g id="edge5" class="edge"><title>start&#45;&gt;q0q1</title>
<path fill="none" stroke="black" stroke-dasharray="5,2" d="M1.04682,-45C1.89532,-45 14.1537,-45 27.7636,-45"/>
<polygon fill="black" stroke="black" points="27.7688,-48.5001 37.7688,-45 27.7688,-41.5001 27.7688,-48.5001"/>
</g>
<!-- q0q1&#45;&gt;q0q1 -->
<g id="edge2" class="edge"><title>q0q1&#45;&gt;q0q1</title>
<path fill="none" stroke="black" d="M58.3852,-62.4099C56.8522,-72.0879 59.5897,-81 66.5975,-81 70.9773,-81 73.6891,-77.5187 74.7328,-72.5449"/>
<polygon fill="black" stroke="black" points="78.2336,-72.4362 74.8097,-62.4099 71.2338,-72.383 78.2336,-72.4362"/>
<text text-anchor="middle" x="66.5975" y="-84.8" font-family="Times,serif" font-size="14.00">b</text>
</g>
<!-- q0q1q2 -->
<g id="node3" class="node"><title>q0q1q2</title>
<ellipse fill="none" stroke="black" cx="175.242" cy="-45" rx="37.0935" ry="18"/>
<text text-anchor="middle" x="175.242" y="-41.3" font-family="Times,serif" font-size="14.00">q0q1q2</text>
</g>
<!-- q0q1&#45;&gt;q0q1q2 -->
<g id="edge1" class="edge"><title>q0q1&#45;&gt;q0q1q2</title>
<path fill="none" stroke="black" d="M95.3386,-45C105.356,-45 116.951,-45 128.118,-45"/>
<polygon fill="black" stroke="black" points="128.195,-48.5001 138.195,-45 128.195,-41.5001 128.195,-48.5001"/>
<text text-anchor="middle" x="116.695" y="-48.8" font-family="Times,serif" font-size="14.00">a</text>
</g>
<!-- q0q1q2q3 -->
<g id="node4" class="node"><title>q0q1q2q3</title>
<ellipse fill="none" stroke="black" cx="301.434" cy="-72" rx="46.2923" ry="18"/>
<text text-anchor="middle" x="301.434" y="-68.3" font-family="Times,serif" font-size="14.00">q0q1q2q3</text>
</g>
<!-- q0q1q2&#45;&gt;q0q1q2q3 -->
<g id="edge3" class="edge"><title>q0q1q2&#45;&gt;q0q1q2q3</title>
<path fill="none" stroke="black" d="M209.523,-52.2355C222.243,-55.0008 237.035,-58.2168 250.946,-61.2411"/>
<polygon fill="black" stroke="black" points="250.362,-64.6958 260.878,-63.4002 251.849,-57.8556 250.362,-64.6958"/>
<text text-anchor="middle" x="233.788" y="-60.8" font-family="Times,serif" font-size="14.00">a</text>
</g>
<!-- q0q1q3 -->
<g id="node5" class="node"><title>q0q1q3</title>
<ellipse fill="none" stroke="black" cx="301.434" cy="-18" rx="37.0935" ry="18"/>
<text text-anchor="middle" x="301.434" y="-14.3" font-family="Times,serif" font-size="14.00">q0q1q3</text>
</g>
<!-- q0q1q2&#45;&gt;q0q1q3 -->
<g id="edge4" class="edge"><title>q0q1q2&#45;&gt;q0q1q3</title>
<path fill="none" stroke="black" d="M209.523,-37.7645C224.14,-34.5867 241.494,-30.8138 257.103,-27.4205"/>
<polygon fill="black" stroke="black" points="258.033,-30.8001 267.061,-25.2555 256.546,-23.9599 258.033,-30.8001"/>
<text text-anchor="middle" x="233.788" y="-36.8" font-family="Times,serif" font-size="14.00">b</text>
</g>
</g>
</svg>
