<?xml version="1.0" encoding="UTF-8" standalone="no"?>
<!DOCTYPE svg PUBLIC "-//W3C//DTD SVG 1.1//EN"
 "http://www.w3.org/Graphics/SVG/1.1/DTD/svg11.dtd">
<!-- Generated by graphviz version 2.38.0 (20140413.2041)
 -->
<!-- Title: G Pages: 1 -->
<svg width="487pt" height="147pt"
 viewBox="7.20 7.20 479.87 139.82" xmlns="http://www.w3.org/2000/svg" xmlns:xlink="http://www.w3.org/1999/xlink">
<g id="graph0" class="graph" transform="scale(1 1) rotate(0) translate(11.2 135.82)">
<title>G</title>
<polygon fill="white" stroke="none" points="-4,4 -4,-128.62 468.674,-128.62 468.674,4 -4,4"/>
<!-- start -->
<g id="node1" class="node"><title>start</title>
</g>
<!-- q0q1 -->
<g id="node2" class="node"><title>q0q1</title>
<ellipse fill="none" stroke="black" cx="66.5975" cy="-22.62" rx="28.6953" ry="18"/>
<text text-anchor="middle" x="66.5975" y="-18.92" font-family="Times,serif" font-size="14.00">q0q1</text>
</g>
<!-- start&#45;&gt;q0q1 -->
<g id="edge8" class="edge"><title>start&#45;&gt;q0q1</title>
<path fill="none" stroke="black" stroke-dasharray="5,2" d="M1.04682,-22.62C1.89532,-22.62 14.1537,-22.62 27.7636,-22.62"/>
<polygon fill="black" stroke="black" points="27.7688,-26.1201 37.7688,-22.62 27.7688,-19.1201 27.7688,-26.1201"/>
</g>
<!-- q0q1&#45;&gt;q0q1 -->
<g id="edge2" class="edge"><title>q0q1&#45;&gt;q0q1</title>
<path fill="none" stroke="black" d="M58.3852,-40.0299C56.8522,-49.7079 59.5897,-58.62 66.5975,-58.62 70.9773,-58.62 73.6891,-55.1387 74.7328,-50.165"/>
<polygon fill="black" stroke="black" points="78.2336,-50.0563 74.8097,-40.0299 71.2338,-50.003 78.2336,-50.0563"/>
<text text-anchor="middle" x="66.5975" y="-62.42" font-family="Times,serif" font-size="14.00">b</text>
</g>
<!-- q0q1q2 -->
<g id="node3" class="node"><title>q0q1q2</title>
<ellipse fill="none" stroke="black" cx="175.242" cy="-22.62" rx="37.0935" ry="18"/>
<text text-anchor="middle" x="175.242" y="-18.92" font-family="Times,serif" font-size="14.00">q0q1q2</text>
</g>
<!-- q0q1&#45;&gt;q0q1q2 -->
<g id="edge1" class="edge"><title>q0q1&#45;&gt;q0q1q2</title>
<path fill="none" stroke="black" d="M95.3386,-22.62C105.356,-22.62 116.951,-22.62 128.118,-22.62"/>
<polygon fill="black" stroke="black" points="128.195,-26.1201 138.195,-22.62 128.195,-19.1201 128.195,-26.1201"/>
<text text-anchor="middle" x="116.695" y="-26.42" font-family="Times,serif" font-size="14.00">a</text>
</g>
<!-- q0q1q2q3 -->
<g id="node4" class="node"><title>q0q1q2q3</title>
<ellipse fill="none" stroke="black" cx="301.434" cy="-73.62" rx="46.2923" ry="18"/>
<text text-anchor="middle" x="301.434" y="-69.92" font-family="Times,serif" font-size="14.00">q0q1q2q3</text>
</g>
<!-- q0q1q2&#45;&gt;q0q1q2q3 -->
<g id="edge3" class="edge"><title>q0q1q2&#45;&gt;q0q1q2q3</title>
<path fill="none" stroke="black" d="M204.113,-34.0654C220.284,-40.7063 240.96,-49.1966 259.006,-56.6074"/>
<polygon fill="black" stroke="black" points="258.136,-60.0338 268.716,-60.5949 260.795,-53.5585 258.136,-60.0338"/>
<text text-anchor="middle" x="233.788" y="-49.42" font-family="Times,serif" font-size="14.00">a</text>
</g>
<!-- q0q1q3 -->
<g id="node5" class="node"><title>q0q1q3</title>
<ellipse fill="none" stroke="black" cx="427.627" cy="-22.62" rx="37.0935" ry="18"/>
<text text-anchor="middle" x="427.627" y="-18.92" font-family="Times,serif" font-size="14.00">q0q1q3</text>
</g>
<!-- q0q1q2&#45;&gt;q0q1q3 -->
<g id="edge4" class="edge"><title>q0q1q2&#45;&gt;q0q1q3</title>
<path fill="none" stroke="black" d="M212.382,-22.62C256.668,-22.62 331.779,-22.62 380.274,-22.62"/>
<polygon fill="black" stroke="black" points="380.497,-26.1201 390.497,-22.62 380.497,-19.1201 380.497,-26.1201"/>
<text text-anchor="middle" x="301.434" y="-26.42" font-family="Times,serif" font-size="14.00">b</text>
</g>
<!-- q0q1q2q3&#45;&gt;q0q1q2q3 -->
<g id="edge5" class="edge"><title>q0q1q2q3&#45;&gt;q0q1q2q3</title>
<path fill="none" stroke="black" d="M289.651,-91.0299C287.452,-100.708 291.38,-109.62 301.434,-109.62 307.718,-109.62 311.609,-106.139 313.107,-101.165"/>
<polygon fill="black" stroke="black" points="316.608,-101.068 313.217,-91.0299 309.608,-100.991 316.608,-101.068"/>
<text text-anchor="middle" x="301.434" y="-113.42" font-family="Times,serif" font-size="14.00">a</text>
</g>
<!-- q0q1q2q3&#45;&gt;q0q1q3 -->
<g id="edge6" class="edge"><title>q0q1q2q3&#45;&gt;q0q1q3</title>
<path fill="none" stroke="black" d="M333.773,-60.7506C350.628,-53.829 371.528,-45.2464 389.229,-37.9775"/>
<polygon fill="black" stroke="black" points="390.767,-41.1296 398.688,-34.0932 388.108,-34.6544 390.767,-41.1296"/>
<text text-anchor="middle" x="369.08" y="-49.42" font-family="Times,serif" font-size="14.00">b</text>
</g>
<!-- q0q1q3&#45;&gt;q0q1q2 -->
<g id="edge7" class="edge"><title>q0q1q3&#45;&gt;q0q1q2</title>
<path fill="none" stroke="black" d="M395.772,-13.416C381.287,-9.55814 363.699,-5.53001 347.58,-3.62004 306.847,1.20668 296.022,1.20668 255.288,-3.62004 242.696,-5.1122 229.206,-7.89719 217,-10.8838"/>
<polygon fill="black" stroke="black" points="215.917,-7.5478 207.096,-13.416 217.652,-14.3296 215.917,-7.5478"/>
<text text-anchor="middle" x="301.434" y="-7.42004" font-family="Times,serif" font-size="14.00">a</text>
</g>
</g>
</svg>
