<?xml version="1.0" encoding="UTF-8" standalone="no"?>
<!DOCTYPE svg PUBLIC "-//W3C//DTD SVG 1.1//EN"
 "http://www.w3.org/Graphics/SVG/1.1/DTD/svg11.dtd">
<!-- Generated by graphviz version 2.38.0 (20140413.2041)
 -->
<!-- Title: G Pages: 1 -->
<svg width="176pt" height="332pt"
 viewBox="0.00 0.00 176.19 332.00" xmlns="http://www.w3.org/2000/svg" xmlns:xlink="http://www.w3.org/1999/xlink">
<g id="graph0" class="graph" transform="scale(1 1) rotate(0) translate(4 328)">
<title>G</title>
<polygon fill="white" stroke="none" points="-4,4 -4,-328 172.195,-328 172.195,4 -4,4"/>
<!-- 76dc9d8a&#45;b345&#45;495d&#45;ba90&#45;683bd1d5599f -->
<g id="node1" class="node"><title>76dc9d8a&#45;b345&#45;495d&#45;ba90&#45;683bd1d5599f</title>
<ellipse fill="none" stroke="black" cx="65.5975" cy="-306" rx="27" ry="18"/>
<text text-anchor="middle" x="65.5975" y="-302.3" font-family="Times,serif" font-size="14.00">E</text>
</g>
<!-- aa033158&#45;b0f3&#45;4948&#45;bc24&#45;f0791152a68c -->
<g id="node2" class="node"><title>aa033158&#45;b0f3&#45;4948&#45;bc24&#45;f0791152a68c</title>
<ellipse fill="none" stroke="black" cx="28.5975" cy="-234" rx="28.6953" ry="18"/>
<text text-anchor="middle" x="28.5975" y="-230.3" font-family="Times,serif" font-size="14.00">i {3}</text>
</g>
<!-- 76dc9d8a&#45;b345&#45;495d&#45;ba90&#45;683bd1d5599f&#45;&gt;aa033158&#45;b0f3&#45;4948&#45;bc24&#45;f0791152a68c -->
<g id="edge1" class="edge"><title>76dc9d8a&#45;b345&#45;495d&#45;ba90&#45;683bd1d5599f&#45;&gt;aa033158&#45;b0f3&#45;4948&#45;bc24&#45;f0791152a68c</title>
<path fill="none" stroke="black" d="M57.0159,-288.765C52.5969,-280.404 47.1059,-270.016 42.132,-260.606"/>
<polygon fill="black" stroke="black" points="45.1569,-258.839 37.3894,-251.633 38.9682,-262.11 45.1569,-258.839"/>
</g>
<!-- 5b1546dd&#45;9844&#45;4e07&#45;8825&#45;2fb3817208a0 -->
<g id="node3" class="node"><title>5b1546dd&#45;9844&#45;4e07&#45;8825&#45;2fb3817208a0</title>
<ellipse fill="none" stroke="black" cx="102.597" cy="-234" rx="27" ry="18"/>
<text text-anchor="middle" x="102.597" y="-230.3" font-family="Times,serif" font-size="14.00">*</text>
</g>
<!-- 76dc9d8a&#45;b345&#45;495d&#45;ba90&#45;683bd1d5599f&#45;&gt;5b1546dd&#45;9844&#45;4e07&#45;8825&#45;2fb3817208a0 -->
<g id="edge2" class="edge"><title>76dc9d8a&#45;b345&#45;495d&#45;ba90&#45;683bd1d5599f&#45;&gt;5b1546dd&#45;9844&#45;4e07&#45;8825&#45;2fb3817208a0</title>
<path fill="none" stroke="black" d="M74.179,-288.765C78.6621,-280.283 84.2484,-269.714 89.2788,-260.197"/>
<polygon fill="black" stroke="black" points="92.4837,-261.624 94.0625,-251.147 86.295,-258.353 92.4837,-261.624"/>
</g>
<!-- 902fa7cc&#45;f95b&#45;4b5d&#45;aa47&#45;fd63d9f726bd -->
<g id="node4" class="node"><title>902fa7cc&#45;f95b&#45;4b5d&#45;aa47&#45;fd63d9f726bd</title>
<ellipse fill="none" stroke="black" cx="102.597" cy="-162" rx="27" ry="18"/>
<text text-anchor="middle" x="102.597" y="-158.3" font-family="Times,serif" font-size="14.00">E</text>
</g>
<!-- 5b1546dd&#45;9844&#45;4e07&#45;8825&#45;2fb3817208a0&#45;&gt;902fa7cc&#45;f95b&#45;4b5d&#45;aa47&#45;fd63d9f726bd -->
<g id="edge3" class="edge"><title>5b1546dd&#45;9844&#45;4e07&#45;8825&#45;2fb3817208a0&#45;&gt;902fa7cc&#45;f95b&#45;4b5d&#45;aa47&#45;fd63d9f726bd</title>
<path fill="none" stroke="black" d="M102.597,-215.697C102.597,-207.983 102.597,-198.712 102.597,-190.112"/>
<polygon fill="black" stroke="black" points="106.098,-190.104 102.597,-180.104 99.0976,-190.104 106.098,-190.104"/>
</g>
<!-- 144c8406&#45;5a1e&#45;4e3f&#45;8778&#45;173c0f9f4666 -->
<g id="node5" class="node"><title>144c8406&#45;5a1e&#45;4e3f&#45;8778&#45;173c0f9f4666</title>
<ellipse fill="none" stroke="black" cx="65.5975" cy="-90" rx="28.6953" ry="18"/>
<text text-anchor="middle" x="65.5975" y="-86.3" font-family="Times,serif" font-size="14.00">i {2}</text>
</g>
<!-- 902fa7cc&#45;f95b&#45;4b5d&#45;aa47&#45;fd63d9f726bd&#45;&gt;144c8406&#45;5a1e&#45;4e3f&#45;8778&#45;173c0f9f4666 -->
<g id="edge4" class="edge"><title>902fa7cc&#45;f95b&#45;4b5d&#45;aa47&#45;fd63d9f726bd&#45;&gt;144c8406&#45;5a1e&#45;4e3f&#45;8778&#45;173c0f9f4666</title>
<path fill="none" stroke="black" d="M94.0159,-144.765C89.5969,-136.404 84.1059,-126.016 79.132,-116.606"/>
<polygon fill="black" stroke="black" points="82.1569,-114.839 74.3894,-107.633 75.9682,-118.11 82.1569,-114.839"/>
</g>
<!-- 92a806da&#45;3ae2&#45;476f&#45;947d&#45;ed82fbedc220 -->
<g id="node6" class="node"><title>92a806da&#45;3ae2&#45;476f&#45;947d&#45;ed82fbedc220</title>
<ellipse fill="none" stroke="black" cx="139.597" cy="-90" rx="27" ry="18"/>
<text text-anchor="middle" x="139.597" y="-86.3" font-family="Times,serif" font-size="14.00">+</text>
</g>
<!-- 902fa7cc&#45;f95b&#45;4b5d&#45;aa47&#45;fd63d9f726bd&#45;&gt;92a806da&#45;3ae2&#45;476f&#45;947d&#45;ed82fbedc220 -->
<g id="edge5" class="edge"><title>902fa7cc&#45;f95b&#45;4b5d&#45;aa47&#45;fd63d9f726bd&#45;&gt;92a806da&#45;3ae2&#45;476f&#45;947d&#45;ed82fbedc220</title>
<path fill="none" stroke="black" d="M111.179,-144.765C115.662,-136.283 121.248,-125.714 126.279,-116.197"/>
<polygon fill="black" stroke="black" points="129.484,-117.624 131.062,-107.147 123.295,-114.353 129.484,-117.624"/>
</g>
<!-- 00a74119&#45;5c25&#45;46de&#45;b8ef&#45;c2b47ab087ee -->
<g id="node7" class="node"><title>00a74119&#45;5c25&#45;46de&#45;b8ef&#45;c2b47ab087ee</title>
<ellipse fill="none" stroke="black" cx="139.597" cy="-18" rx="28.6953" ry="18"/>
<text text-anchor="middle" x="139.597" y="-14.3" font-family="Times,serif" font-size="14.00">i {5}</text>
</g>
<!-- 92a806da&#45;3ae2&#45;476f&#45;947d&#45;ed82fbedc220&#45;&gt;00a74119&#45;5c25&#45;46de&#45;b8ef&#45;c2b47ab087ee -->
<g id="edge6" class="edge"><title>92a806da&#45;3ae2&#45;476f&#45;947d&#45;ed82fbedc220&#45;&gt;00a74119&#45;5c25&#45;46de&#45;b8ef&#45;c2b47ab087ee</title>
<path fill="none" stroke="black" d="M139.597,-71.6966C139.597,-63.9827 139.597,-54.7125 139.597,-46.1124"/>
<polygon fill="black" stroke="black" points="143.098,-46.1043 139.597,-36.1043 136.098,-46.1044 143.098,-46.1043"/>
</g>
</g>
</svg>
