<?xml version="1.0" encoding="UTF-8" standalone="no"?>
<!DOCTYPE svg PUBLIC "-//W3C//DTD SVG 1.1//EN"
 "http://www.w3.org/Graphics/SVG/1.1/DTD/svg11.dtd">
<!-- Generated by graphviz version 2.38.0 (20140413.2041)
 -->
<!-- Title: G Pages: 1 -->
<svg width="278pt" height="188pt"
 viewBox="0.00 0.00 278.00 188.00" xmlns="http://www.w3.org/2000/svg" xmlns:xlink="http://www.w3.org/1999/xlink">
<g id="graph0" class="graph" transform="scale(1 1) rotate(0) translate(4 184)">
<title>G</title>
<polygon fill="white" stroke="none" points="-4,4 -4,-184 274,-184 274,4 -4,4"/>
<!-- e77b6eee&#45;c0cb&#45;4e59&#45;8444&#45;ced1ba392721 -->
<g id="node1" class="node"><title>e77b6eee&#45;c0cb&#45;4e59&#45;8444&#45;ced1ba392721</title>
<ellipse fill="none" stroke="black" cx="135" cy="-162" rx="50.0912" ry="18"/>
<text text-anchor="start" x="104.5" y="-158.3" font-family="Times,serif" font-size="14.00">decl&#45;assign</text>
</g>
<!-- de8a5e78&#45;0b29&#45;4b5e&#45;b55c&#45;9670da81bc27 -->
<g id="node2" class="node"><title>de8a5e78&#45;0b29&#45;4b5e&#45;b55c&#45;9670da81bc27</title>
<ellipse fill="none" stroke="black" cx="27" cy="-90" rx="27" ry="18"/>
<text text-anchor="start" x="15" y="-86.3" font-family="Times,serif" font-size="14.00">type</text>
</g>
<!-- e77b6eee&#45;c0cb&#45;4e59&#45;8444&#45;ced1ba392721&#45;&gt;de8a5e78&#45;0b29&#45;4b5e&#45;b55c&#45;9670da81bc27 -->
<g id="edge1" class="edge"><title>e77b6eee&#45;c0cb&#45;4e59&#45;8444&#45;ced1ba392721&#45;&gt;de8a5e78&#45;0b29&#45;4b5e&#45;b55c&#45;9670da81bc27</title>
<path fill="none" stroke="black" d="M111.831,-145.983C95.0472,-135.105 72.287,-120.353 54.5673,-108.868"/>
<polygon fill="black" stroke="black" points="56.1141,-105.699 45.8189,-103.197 52.3068,-111.573 56.1141,-105.699"/>
</g>
<!-- 0a578791&#45;2ff3&#45;421f&#45;a31e&#45;1f055f22278d -->
<g id="node3" class="node"><title>0a578791&#45;2ff3&#45;421f&#45;a31e&#45;1f055f22278d</title>
<ellipse fill="none" stroke="black" cx="99" cy="-90" rx="27" ry="18"/>
<text text-anchor="start" x="93.5" y="-86.3" font-family="Times,serif" font-size="14.00">id</text>
</g>
<!-- e77b6eee&#45;c0cb&#45;4e59&#45;8444&#45;ced1ba392721&#45;&gt;0a578791&#45;2ff3&#45;421f&#45;a31e&#45;1f055f22278d -->
<g id="edge2" class="edge"><title>e77b6eee&#45;c0cb&#45;4e59&#45;8444&#45;ced1ba392721&#45;&gt;0a578791&#45;2ff3&#45;421f&#45;a31e&#45;1f055f22278d</title>
<path fill="none" stroke="black" d="M126.285,-144.055C122.023,-135.767 116.803,-125.618 112.075,-116.424"/>
<polygon fill="black" stroke="black" points="115.073,-114.599 107.386,-107.307 108.847,-117.801 115.073,-114.599"/>
</g>
<!-- dd53435a&#45;d47b&#45;410e&#45;a563&#45;f6fa43aaa1b4 -->
<g id="node4" class="node"><title>dd53435a&#45;d47b&#45;410e&#45;a563&#45;f6fa43aaa1b4</title>
<ellipse fill="none" stroke="black" cx="171" cy="-90" rx="27" ry="18"/>
<text text-anchor="middle" x="171" y="-86.3" font-family="Times,serif" font-size="14.00">=</text>
</g>
<!-- e77b6eee&#45;c0cb&#45;4e59&#45;8444&#45;ced1ba392721&#45;&gt;dd53435a&#45;d47b&#45;410e&#45;a563&#45;f6fa43aaa1b4 -->
<g id="edge3" class="edge"><title>e77b6eee&#45;c0cb&#45;4e59&#45;8444&#45;ced1ba392721&#45;&gt;dd53435a&#45;d47b&#45;410e&#45;a563&#45;f6fa43aaa1b4</title>
<path fill="none" stroke="black" d="M143.715,-144.055C147.977,-135.767 153.197,-125.618 157.925,-116.424"/>
<polygon fill="black" stroke="black" points="161.153,-117.801 162.614,-107.307 154.927,-114.599 161.153,-117.801"/>
</g>
<!-- 84e6da2f&#45;55c9&#45;4050&#45;8ea1&#45;5181f3ec7169 -->
<g id="node5" class="node"><title>84e6da2f&#45;55c9&#45;4050&#45;8ea1&#45;5181f3ec7169</title>
<ellipse fill="none" stroke="black" cx="243" cy="-90" rx="27" ry="18"/>
<text text-anchor="start" x="230.5" y="-86.3" font-family="Times,serif" font-size="14.00">expr</text>
</g>
<!-- e77b6eee&#45;c0cb&#45;4e59&#45;8444&#45;ced1ba392721&#45;&gt;84e6da2f&#45;55c9&#45;4050&#45;8ea1&#45;5181f3ec7169 -->
<g id="edge4" class="edge"><title>e77b6eee&#45;c0cb&#45;4e59&#45;8444&#45;ced1ba392721&#45;&gt;84e6da2f&#45;55c9&#45;4050&#45;8ea1&#45;5181f3ec7169</title>
<path fill="none" stroke="black" d="M158.169,-145.983C174.953,-135.105 197.713,-120.353 215.433,-108.868"/>
<polygon fill="black" stroke="black" points="217.693,-111.573 224.181,-103.197 213.886,-105.699 217.693,-111.573"/>
</g>
<!-- d1351eeb&#45;97f7&#45;44df&#45;a2ee&#45;be695d590a61 -->
<g id="node6" class="node"><title>d1351eeb&#45;97f7&#45;44df&#45;a2ee&#45;be695d590a61</title>
<ellipse fill="none" stroke="black" cx="243" cy="-18" rx="27" ry="18"/>
<text text-anchor="middle" x="243" y="-14.3" font-family="Times,serif" font-size="14.00">int</text>
</g>
<!-- 84e6da2f&#45;55c9&#45;4050&#45;8ea1&#45;5181f3ec7169&#45;&gt;d1351eeb&#45;97f7&#45;44df&#45;a2ee&#45;be695d590a61 -->
<g id="edge5" class="edge"><title>84e6da2f&#45;55c9&#45;4050&#45;8ea1&#45;5181f3ec7169&#45;&gt;d1351eeb&#45;97f7&#45;44df&#45;a2ee&#45;be695d590a61</title>
<path fill="none" stroke="black" d="M243,-71.6966C243,-63.9827 243,-54.7125 243,-46.1124"/>
<polygon fill="black" stroke="black" points="246.5,-46.1043 243,-36.1043 239.5,-46.1044 246.5,-46.1043"/>
</g>
</g>
</svg>
