<?xml version="1.0" encoding="UTF-8" standalone="no"?>
<!DOCTYPE svg PUBLIC "-//W3C//DTD SVG 1.1//EN"
 "http://www.w3.org/Graphics/SVG/1.1/DTD/svg11.dtd">
<!-- Generated by graphviz version 2.38.0 (20140413.2041)
 -->
<!-- Title: G Pages: 1 -->
<svg width="390pt" height="620pt"
 viewBox="0.00 0.00 389.99 620.00" xmlns="http://www.w3.org/2000/svg" xmlns:xlink="http://www.w3.org/1999/xlink">
<g id="graph0" class="graph" transform="scale(1 1) rotate(0) translate(4 616)">
<title>G</title>
<polygon fill="white" stroke="none" points="-4,4 -4,-616 385.994,-616 385.994,4 -4,4"/>
<!-- 5bb6f619&#45;f115&#45;4e6e&#45;aae3&#45;b3c3c8546d7b -->
<g id="node1" class="node"><title>5bb6f619&#45;f115&#45;4e6e&#45;aae3&#45;b3c3c8546d7b</title>
<ellipse fill="none" stroke="black" cx="225.597" cy="-594" rx="27" ry="18"/>
<text text-anchor="middle" x="225.597" y="-590.3" font-family="Times,serif" font-size="14.00">E</text>
</g>
<!-- c314d882&#45;d08e&#45;42de&#45;8e13&#45;0e74b64d20a8 -->
<g id="node2" class="node"><title>c314d882&#45;d08e&#45;42de&#45;8e13&#45;0e74b64d20a8</title>
<ellipse fill="none" stroke="black" cx="187.597" cy="-522" rx="27" ry="18"/>
<text text-anchor="middle" x="187.597" y="-518.3" font-family="Times,serif" font-size="14.00">T</text>
</g>
<!-- 5bb6f619&#45;f115&#45;4e6e&#45;aae3&#45;b3c3c8546d7b&#45;&gt;c314d882&#45;d08e&#45;42de&#45;8e13&#45;0e74b64d20a8 -->
<g id="edge1" class="edge"><title>5bb6f619&#45;f115&#45;4e6e&#45;aae3&#45;b3c3c8546d7b&#45;&gt;c314d882&#45;d08e&#45;42de&#45;8e13&#45;0e74b64d20a8</title>
<path fill="none" stroke="black" d="M216.784,-576.765C212.18,-568.283 206.442,-557.714 201.276,-548.197"/>
<polygon fill="black" stroke="black" points="204.21,-546.266 196.363,-539.147 198.058,-549.606 204.21,-546.266"/>
</g>
<!-- 56ae0a39&#45;fdf7&#45;4716&#45;bbfb&#45;1fe5ee310859 -->
<g id="node27" class="node"><title>56ae0a39&#45;fdf7&#45;4716&#45;bbfb&#45;1fe5ee310859</title>
<ellipse fill="none" stroke="black" cx="263.597" cy="-522" rx="27" ry="18"/>
<text text-anchor="middle" x="263.597" y="-518.3" font-family="Times,serif" font-size="14.00">X</text>
</g>
<!-- 5bb6f619&#45;f115&#45;4e6e&#45;aae3&#45;b3c3c8546d7b&#45;&gt;56ae0a39&#45;fdf7&#45;4716&#45;bbfb&#45;1fe5ee310859 -->
<g id="edge26" class="edge"><title>5bb6f619&#45;f115&#45;4e6e&#45;aae3&#45;b3c3c8546d7b&#45;&gt;56ae0a39&#45;fdf7&#45;4716&#45;bbfb&#45;1fe5ee310859</title>
<path fill="none" stroke="black" d="M234.411,-576.765C239.015,-568.283 244.753,-557.714 249.919,-548.197"/>
<polygon fill="black" stroke="black" points="253.137,-549.606 254.832,-539.147 246.985,-546.266 253.137,-549.606"/>
</g>
<!-- b2f5901c&#45;4b14&#45;4d0c&#45;9ce3&#45;cb3434ce4b86 -->
<g id="node3" class="node"><title>b2f5901c&#45;4b14&#45;4d0c&#45;9ce3&#45;cb3434ce4b86</title>
<ellipse fill="none" stroke="black" cx="114.597" cy="-450" rx="27" ry="18"/>
<text text-anchor="middle" x="114.597" y="-446.3" font-family="Times,serif" font-size="14.00">F</text>
</g>
<!-- c314d882&#45;d08e&#45;42de&#45;8e13&#45;0e74b64d20a8&#45;&gt;b2f5901c&#45;4b14&#45;4d0c&#45;9ce3&#45;cb3434ce4b86 -->
<g id="edge2" class="edge"><title>c314d882&#45;d08e&#45;42de&#45;8e13&#45;0e74b64d20a8&#45;&gt;b2f5901c&#45;4b14&#45;4d0c&#45;9ce3&#45;cb3434ce4b86</title>
<path fill="none" stroke="black" d="M172.825,-506.834C162.435,-496.872 148.353,-483.369 136.64,-472.137"/>
<polygon fill="black" stroke="black" points="138.988,-469.539 129.348,-465.144 134.144,-474.592 138.988,-469.539"/>
</g>
<!-- 42752e7e&#45;54c1&#45;4988&#45;8516&#45;4af6913b77bd -->
<g id="node5" class="node"><title>42752e7e&#45;54c1&#45;4988&#45;8516&#45;4af6913b77bd</title>
<ellipse fill="none" stroke="black" cx="187.597" cy="-450" rx="27" ry="18"/>
<text text-anchor="middle" x="187.597" y="-446.3" font-family="Times,serif" font-size="14.00">Y</text>
</g>
<!-- c314d882&#45;d08e&#45;42de&#45;8e13&#45;0e74b64d20a8&#45;&gt;42752e7e&#45;54c1&#45;4988&#45;8516&#45;4af6913b77bd -->
<g id="edge4" class="edge"><title>c314d882&#45;d08e&#45;42de&#45;8e13&#45;0e74b64d20a8&#45;&gt;42752e7e&#45;54c1&#45;4988&#45;8516&#45;4af6913b77bd</title>
<path fill="none" stroke="black" d="M187.597,-503.697C187.597,-495.983 187.597,-486.712 187.597,-478.112"/>
<polygon fill="black" stroke="black" points="191.098,-478.104 187.597,-468.104 184.098,-478.104 191.098,-478.104"/>
</g>
<!-- 44db18ef&#45;76e2&#45;49b9&#45;af72&#45;9508dc224942 -->
<g id="node4" class="node"><title>44db18ef&#45;76e2&#45;49b9&#45;af72&#45;9508dc224942</title>
<ellipse fill="none" stroke="black" cx="77.5975" cy="-378" rx="28.6953" ry="18"/>
<text text-anchor="middle" x="77.5975" y="-374.3" font-family="Times,serif" font-size="14.00">i {3}</text>
</g>
<!-- b2f5901c&#45;4b14&#45;4d0c&#45;9ce3&#45;cb3434ce4b86&#45;&gt;44db18ef&#45;76e2&#45;49b9&#45;af72&#45;9508dc224942 -->
<g id="edge3" class="edge"><title>b2f5901c&#45;4b14&#45;4d0c&#45;9ce3&#45;cb3434ce4b86&#45;&gt;44db18ef&#45;76e2&#45;49b9&#45;af72&#45;9508dc224942</title>
<path fill="none" stroke="black" d="M106.016,-432.765C101.597,-424.404 96.1059,-414.016 91.132,-404.606"/>
<polygon fill="black" stroke="black" points="94.1569,-402.839 86.3894,-395.633 87.9682,-406.11 94.1569,-402.839"/>
</g>
<!-- 96a05b24&#45;cde3&#45;4901&#45;aa10&#45;73b1797c4bc9 -->
<g id="node6" class="node"><title>96a05b24&#45;cde3&#45;4901&#45;aa10&#45;73b1797c4bc9</title>
<ellipse fill="none" stroke="black" cx="151.597" cy="-378" rx="27" ry="18"/>
<text text-anchor="middle" x="151.597" y="-374.3" font-family="Times,serif" font-size="14.00">*</text>
</g>
<!-- 42752e7e&#45;54c1&#45;4988&#45;8516&#45;4af6913b77bd&#45;&gt;96a05b24&#45;cde3&#45;4901&#45;aa10&#45;73b1797c4bc9 -->
<g id="edge5" class="edge"><title>42752e7e&#45;54c1&#45;4988&#45;8516&#45;4af6913b77bd&#45;&gt;96a05b24&#45;cde3&#45;4901&#45;aa10&#45;73b1797c4bc9</title>
<path fill="none" stroke="black" d="M179.248,-432.765C174.886,-424.283 169.451,-413.714 164.556,-404.197"/>
<polygon fill="black" stroke="black" points="167.588,-402.439 159.902,-395.147 161.363,-405.641 167.588,-402.439"/>
</g>
<!-- eb4a4038&#45;7821&#45;44e8&#45;9fdb&#45;96ec24694e85 -->
<g id="node7" class="node"><title>eb4a4038&#45;7821&#45;44e8&#45;9fdb&#45;96ec24694e85</title>
<ellipse fill="none" stroke="black" cx="223.597" cy="-378" rx="27" ry="18"/>
<text text-anchor="middle" x="223.597" y="-374.3" font-family="Times,serif" font-size="14.00">F</text>
</g>
<!-- 42752e7e&#45;54c1&#45;4988&#45;8516&#45;4af6913b77bd&#45;&gt;eb4a4038&#45;7821&#45;44e8&#45;9fdb&#45;96ec24694e85 -->
<g id="edge6" class="edge"><title>42752e7e&#45;54c1&#45;4988&#45;8516&#45;4af6913b77bd&#45;&gt;eb4a4038&#45;7821&#45;44e8&#45;9fdb&#45;96ec24694e85</title>
<path fill="none" stroke="black" d="M195.947,-432.765C200.309,-424.283 205.744,-413.714 210.639,-404.197"/>
<polygon fill="black" stroke="black" points="213.832,-405.641 215.293,-395.147 207.607,-402.439 213.832,-405.641"/>
</g>
<!-- 18dfcfb7&#45;b9bc&#45;479a&#45;8dc0&#45;42609e3e22ff -->
<g id="node25" class="node"><title>18dfcfb7&#45;b9bc&#45;479a&#45;8dc0&#45;42609e3e22ff</title>
<ellipse fill="none" stroke="black" cx="336.597" cy="-378" rx="27" ry="18"/>
<text text-anchor="middle" x="336.597" y="-374.3" font-family="Times,serif" font-size="14.00">Y</text>
</g>
<!-- 42752e7e&#45;54c1&#45;4988&#45;8516&#45;4af6913b77bd&#45;&gt;18dfcfb7&#45;b9bc&#45;479a&#45;8dc0&#45;42609e3e22ff -->
<g id="edge24" class="edge"><title>42752e7e&#45;54c1&#45;4988&#45;8516&#45;4af6913b77bd&#45;&gt;18dfcfb7&#45;b9bc&#45;479a&#45;8dc0&#45;42609e3e22ff</title>
<path fill="none" stroke="black" d="M208.913,-438.923C213.741,-436.644 218.845,-434.237 223.597,-432 251.389,-418.921 283.049,-404.076 305.772,-393.431"/>
<polygon fill="black" stroke="black" points="307.355,-396.555 314.927,-389.144 304.386,-390.216 307.355,-396.555"/>
</g>
<!-- 1fe26536&#45;8239&#45;4fd5&#45;8d02&#45;1dcffa269e8c -->
<g id="node8" class="node"><title>1fe26536&#45;8239&#45;4fd5&#45;8d02&#45;1dcffa269e8c</title>
<ellipse fill="none" stroke="black" cx="115.597" cy="-306" rx="27" ry="18"/>
<text text-anchor="middle" x="115.597" y="-302.3" font-family="Times,serif" font-size="14.00">(</text>
</g>
<!-- eb4a4038&#45;7821&#45;44e8&#45;9fdb&#45;96ec24694e85&#45;&gt;1fe26536&#45;8239&#45;4fd5&#45;8d02&#45;1dcffa269e8c -->
<g id="edge7" class="edge"><title>eb4a4038&#45;7821&#45;44e8&#45;9fdb&#45;96ec24694e85&#45;&gt;1fe26536&#45;8239&#45;4fd5&#45;8d02&#45;1dcffa269e8c</title>
<path fill="none" stroke="black" d="M204.785,-364.807C187.595,-353.665 161.979,-337.062 142.604,-324.504"/>
<polygon fill="black" stroke="black" points="144.489,-321.555 134.194,-319.053 140.682,-327.429 144.489,-321.555"/>
</g>
<!-- ff66b103&#45;8a54&#45;4cd6&#45;920b&#45;47d58631cd9b -->
<g id="node9" class="node"><title>ff66b103&#45;8a54&#45;4cd6&#45;920b&#45;47d58631cd9b</title>
<ellipse fill="none" stroke="black" cx="187.597" cy="-306" rx="27" ry="18"/>
<text text-anchor="middle" x="187.597" y="-302.3" font-family="Times,serif" font-size="14.00">E</text>
</g>
<!-- eb4a4038&#45;7821&#45;44e8&#45;9fdb&#45;96ec24694e85&#45;&gt;ff66b103&#45;8a54&#45;4cd6&#45;920b&#45;47d58631cd9b -->
<g id="edge8" class="edge"><title>eb4a4038&#45;7821&#45;44e8&#45;9fdb&#45;96ec24694e85&#45;&gt;ff66b103&#45;8a54&#45;4cd6&#45;920b&#45;47d58631cd9b</title>
<path fill="none" stroke="black" d="M215.248,-360.765C210.886,-352.283 205.451,-341.714 200.556,-332.197"/>
<polygon fill="black" stroke="black" points="203.588,-330.439 195.902,-323.147 197.363,-333.641 203.588,-330.439"/>
</g>
<!-- dec87deb&#45;7a77&#45;4c21&#45;80e3&#45;406d9254b8b7 -->
<g id="node24" class="node"><title>dec87deb&#45;7a77&#45;4c21&#45;80e3&#45;406d9254b8b7</title>
<ellipse fill="none" stroke="black" cx="259.597" cy="-306" rx="27" ry="18"/>
<text text-anchor="middle" x="259.597" y="-302.3" font-family="Times,serif" font-size="14.00">)</text>
</g>
<!-- eb4a4038&#45;7821&#45;44e8&#45;9fdb&#45;96ec24694e85&#45;&gt;dec87deb&#45;7a77&#45;4c21&#45;80e3&#45;406d9254b8b7 -->
<g id="edge23" class="edge"><title>eb4a4038&#45;7821&#45;44e8&#45;9fdb&#45;96ec24694e85&#45;&gt;dec87deb&#45;7a77&#45;4c21&#45;80e3&#45;406d9254b8b7</title>
<path fill="none" stroke="black" d="M231.947,-360.765C236.309,-352.283 241.744,-341.714 246.639,-332.197"/>
<polygon fill="black" stroke="black" points="249.832,-333.641 251.293,-323.147 243.607,-330.439 249.832,-333.641"/>
</g>
<!-- 35e538fb&#45;0083&#45;448e&#45;ae3d&#45;e431f89cbc21 -->
<g id="node10" class="node"><title>35e538fb&#45;0083&#45;448e&#45;ae3d&#45;e431f89cbc21</title>
<ellipse fill="none" stroke="black" cx="111.597" cy="-234" rx="27" ry="18"/>
<text text-anchor="middle" x="111.597" y="-230.3" font-family="Times,serif" font-size="14.00">T</text>
</g>
<!-- ff66b103&#45;8a54&#45;4cd6&#45;920b&#45;47d58631cd9b&#45;&gt;35e538fb&#45;0083&#45;448e&#45;ae3d&#45;e431f89cbc21 -->
<g id="edge9" class="edge"><title>ff66b103&#45;8a54&#45;4cd6&#45;920b&#45;47d58631cd9b&#45;&gt;35e538fb&#45;0083&#45;448e&#45;ae3d&#45;e431f89cbc21</title>
<path fill="none" stroke="black" d="M172.218,-290.834C161.401,-280.872 146.741,-267.369 134.546,-256.137"/>
<polygon fill="black" stroke="black" points="136.681,-253.345 126.954,-249.144 131.939,-258.494 136.681,-253.345"/>
</g>
<!-- c4778684&#45;f38d&#45;4f86&#45;a4f6&#45;5bf97418f15d -->
<g id="node15" class="node"><title>c4778684&#45;f38d&#45;4f86&#45;a4f6&#45;5bf97418f15d</title>
<ellipse fill="none" stroke="black" cx="223.597" cy="-234" rx="27" ry="18"/>
<text text-anchor="middle" x="223.597" y="-230.3" font-family="Times,serif" font-size="14.00">X</text>
</g>
<!-- ff66b103&#45;8a54&#45;4cd6&#45;920b&#45;47d58631cd9b&#45;&gt;c4778684&#45;f38d&#45;4f86&#45;a4f6&#45;5bf97418f15d -->
<g id="edge14" class="edge"><title>ff66b103&#45;8a54&#45;4cd6&#45;920b&#45;47d58631cd9b&#45;&gt;c4778684&#45;f38d&#45;4f86&#45;a4f6&#45;5bf97418f15d</title>
<path fill="none" stroke="black" d="M195.947,-288.765C200.309,-280.283 205.744,-269.714 210.639,-260.197"/>
<polygon fill="black" stroke="black" points="213.832,-261.641 215.293,-251.147 207.607,-258.439 213.832,-261.641"/>
</g>
<!-- 82d61806&#45;119a&#45;4d98&#45;b2fd&#45;f7d9b0586b00 -->
<g id="node11" class="node"><title>82d61806&#45;119a&#45;4d98&#45;b2fd&#45;f7d9b0586b00</title>
<ellipse fill="none" stroke="black" cx="33.5975" cy="-162" rx="27" ry="18"/>
<text text-anchor="middle" x="33.5975" y="-158.3" font-family="Times,serif" font-size="14.00">F</text>
</g>
<!-- 35e538fb&#45;0083&#45;448e&#45;ae3d&#45;e431f89cbc21&#45;&gt;82d61806&#45;119a&#45;4d98&#45;b2fd&#45;f7d9b0586b00 -->
<g id="edge10" class="edge"><title>35e538fb&#45;0083&#45;448e&#45;ae3d&#45;e431f89cbc21&#45;&gt;82d61806&#45;119a&#45;4d98&#45;b2fd&#45;f7d9b0586b00</title>
<path fill="none" stroke="black" d="M96.1872,-219.17C84.863,-209.008 69.2885,-195.03 56.5088,-183.561"/>
<polygon fill="black" stroke="black" points="58.7559,-180.875 48.9757,-176.801 54.0805,-186.085 58.7559,-180.875"/>
</g>
<!-- 0b94232e&#45;e367&#45;4e03&#45;a4a2&#45;55ca725c4937 -->
<g id="node13" class="node"><title>0b94232e&#45;e367&#45;4e03&#45;a4a2&#45;55ca725c4937</title>
<ellipse fill="none" stroke="black" cx="111.597" cy="-162" rx="27" ry="18"/>
<text text-anchor="middle" x="111.597" y="-158.3" font-family="Times,serif" font-size="14.00">Y</text>
</g>
<!-- 35e538fb&#45;0083&#45;448e&#45;ae3d&#45;e431f89cbc21&#45;&gt;0b94232e&#45;e367&#45;4e03&#45;a4a2&#45;55ca725c4937 -->
<g id="edge12" class="edge"><title>35e538fb&#45;0083&#45;448e&#45;ae3d&#45;e431f89cbc21&#45;&gt;0b94232e&#45;e367&#45;4e03&#45;a4a2&#45;55ca725c4937</title>
<path fill="none" stroke="black" d="M111.597,-215.697C111.597,-207.983 111.597,-198.712 111.597,-190.112"/>
<polygon fill="black" stroke="black" points="115.098,-190.104 111.597,-180.104 108.098,-190.104 115.098,-190.104"/>
</g>
<!-- b315bd5b&#45;97be&#45;43b1&#45;ad39&#45;840c0bcf25af -->
<g id="node12" class="node"><title>b315bd5b&#45;97be&#45;43b1&#45;ad39&#45;840c0bcf25af</title>
<ellipse fill="none" stroke="black" cx="28.5975" cy="-90" rx="28.6953" ry="18"/>
<text text-anchor="middle" x="28.5975" y="-86.3" font-family="Times,serif" font-size="14.00">i {2}</text>
</g>
<!-- 82d61806&#45;119a&#45;4d98&#45;b2fd&#45;f7d9b0586b00&#45;&gt;b315bd5b&#45;97be&#45;43b1&#45;ad39&#45;840c0bcf25af -->
<g id="edge11" class="edge"><title>82d61806&#45;119a&#45;4d98&#45;b2fd&#45;f7d9b0586b00&#45;&gt;b315bd5b&#45;97be&#45;43b1&#45;ad39&#45;840c0bcf25af</title>
<path fill="none" stroke="black" d="M32.3615,-143.697C31.8105,-135.983 31.1484,-126.712 30.5341,-118.112"/>
<polygon fill="black" stroke="black" points="34.0229,-117.83 29.8192,-108.104 27.0407,-118.328 34.0229,-117.83"/>
</g>
<!-- e5672c4f&#45;24d1&#45;44c9&#45;9c2d&#45;6b1439472c23 -->
<g id="node14" class="node"><title>e5672c4f&#45;24d1&#45;44c9&#45;9c2d&#45;6b1439472c23</title>
<ellipse fill="none" stroke="black" cx="111.597" cy="-90" rx="36.2938" ry="18"/>
<text text-anchor="middle" x="111.597" y="-86.3" font-family="Times,serif" font-size="14.00">epsilon</text>
</g>
<!-- 0b94232e&#45;e367&#45;4e03&#45;a4a2&#45;55ca725c4937&#45;&gt;e5672c4f&#45;24d1&#45;44c9&#45;9c2d&#45;6b1439472c23 -->
<g id="edge13" class="edge"><title>0b94232e&#45;e367&#45;4e03&#45;a4a2&#45;55ca725c4937&#45;&gt;e5672c4f&#45;24d1&#45;44c9&#45;9c2d&#45;6b1439472c23</title>
<path fill="none" stroke="black" d="M111.597,-143.697C111.597,-135.983 111.597,-126.712 111.597,-118.112"/>
<polygon fill="black" stroke="black" points="115.098,-118.104 111.597,-108.104 108.098,-118.104 115.098,-118.104"/>
</g>
<!-- 00d7f221&#45;7bb9&#45;447c&#45;9882&#45;46fda964606e -->
<g id="node16" class="node"><title>00d7f221&#45;7bb9&#45;447c&#45;9882&#45;46fda964606e</title>
<ellipse fill="none" stroke="black" cx="187.597" cy="-162" rx="27" ry="18"/>
<text text-anchor="middle" x="187.597" y="-158.3" font-family="Times,serif" font-size="14.00">+</text>
</g>
<!-- c4778684&#45;f38d&#45;4f86&#45;a4f6&#45;5bf97418f15d&#45;&gt;00d7f221&#45;7bb9&#45;447c&#45;9882&#45;46fda964606e -->
<g id="edge15" class="edge"><title>c4778684&#45;f38d&#45;4f86&#45;a4f6&#45;5bf97418f15d&#45;&gt;00d7f221&#45;7bb9&#45;447c&#45;9882&#45;46fda964606e</title>
<path fill="none" stroke="black" d="M215.248,-216.765C210.886,-208.283 205.451,-197.714 200.556,-188.197"/>
<polygon fill="black" stroke="black" points="203.588,-186.439 195.902,-179.147 197.363,-189.641 203.588,-186.439"/>
</g>
<!-- 63e2dae9&#45;1c33&#45;4931&#45;a4e5&#45;4cf02cb9c514 -->
<g id="node17" class="node"><title>63e2dae9&#45;1c33&#45;4931&#45;a4e5&#45;4cf02cb9c514</title>
<ellipse fill="none" stroke="black" cx="259.597" cy="-162" rx="27" ry="18"/>
<text text-anchor="middle" x="259.597" y="-158.3" font-family="Times,serif" font-size="14.00">T</text>
</g>
<!-- c4778684&#45;f38d&#45;4f86&#45;a4f6&#45;5bf97418f15d&#45;&gt;63e2dae9&#45;1c33&#45;4931&#45;a4e5&#45;4cf02cb9c514 -->
<g id="edge16" class="edge"><title>c4778684&#45;f38d&#45;4f86&#45;a4f6&#45;5bf97418f15d&#45;&gt;63e2dae9&#45;1c33&#45;4931&#45;a4e5&#45;4cf02cb9c514</title>
<path fill="none" stroke="black" d="M231.947,-216.765C236.309,-208.283 241.744,-197.714 246.639,-188.197"/>
<polygon fill="black" stroke="black" points="249.832,-189.641 251.293,-179.147 243.607,-186.439 249.832,-189.641"/>
</g>
<!-- 21763c51&#45;7063&#45;4b98&#45;9dc9&#45;76088d0a750c -->
<g id="node22" class="node"><title>21763c51&#45;7063&#45;4b98&#45;9dc9&#45;76088d0a750c</title>
<ellipse fill="none" stroke="black" cx="338.597" cy="-162" rx="27" ry="18"/>
<text text-anchor="middle" x="338.597" y="-158.3" font-family="Times,serif" font-size="14.00">X</text>
</g>
<!-- c4778684&#45;f38d&#45;4f86&#45;a4f6&#45;5bf97418f15d&#45;&gt;21763c51&#45;7063&#45;4b98&#45;9dc9&#45;76088d0a750c -->
<g id="edge21" class="edge"><title>c4778684&#45;f38d&#45;4f86&#45;a4f6&#45;5bf97418f15d&#45;&gt;21763c51&#45;7063&#45;4b98&#45;9dc9&#45;76088d0a750c</title>
<path fill="none" stroke="black" d="M242.846,-221.284C261.338,-210.028 289.489,-192.892 310.488,-180.11"/>
<polygon fill="black" stroke="black" points="312.564,-182.944 319.286,-174.755 308.924,-176.964 312.564,-182.944"/>
</g>
<!-- b245a7b7&#45;2796&#45;447f&#45;b88a&#45;23695d7dd92e -->
<g id="node18" class="node"><title>b245a7b7&#45;2796&#45;447f&#45;b88a&#45;23695d7dd92e</title>
<ellipse fill="none" stroke="black" cx="192.597" cy="-90" rx="27" ry="18"/>
<text text-anchor="middle" x="192.597" y="-86.3" font-family="Times,serif" font-size="14.00">F</text>
</g>
<!-- 63e2dae9&#45;1c33&#45;4931&#45;a4e5&#45;4cf02cb9c514&#45;&gt;b245a7b7&#45;2796&#45;447f&#45;b88a&#45;23695d7dd92e -->
<g id="edge17" class="edge"><title>63e2dae9&#45;1c33&#45;4931&#45;a4e5&#45;4cf02cb9c514&#45;&gt;b245a7b7&#45;2796&#45;447f&#45;b88a&#45;23695d7dd92e</title>
<path fill="none" stroke="black" d="M245.715,-146.496C236.462,-136.829 224.126,-123.94 213.671,-113.017"/>
<polygon fill="black" stroke="black" points="215.905,-110.29 206.462,-105.485 210.848,-115.13 215.905,-110.29"/>
</g>
<!-- 07b8c05a&#45;6b6b&#45;48ad&#45;a293&#45;34ce3b716ae2 -->
<g id="node20" class="node"><title>07b8c05a&#45;6b6b&#45;48ad&#45;a293&#45;34ce3b716ae2</title>
<ellipse fill="none" stroke="black" cx="264.597" cy="-90" rx="27" ry="18"/>
<text text-anchor="middle" x="264.597" y="-86.3" font-family="Times,serif" font-size="14.00">Y</text>
</g>
<!-- 63e2dae9&#45;1c33&#45;4931&#45;a4e5&#45;4cf02cb9c514&#45;&gt;07b8c05a&#45;6b6b&#45;48ad&#45;a293&#45;34ce3b716ae2 -->
<g id="edge19" class="edge"><title>63e2dae9&#45;1c33&#45;4931&#45;a4e5&#45;4cf02cb9c514&#45;&gt;07b8c05a&#45;6b6b&#45;48ad&#45;a293&#45;34ce3b716ae2</title>
<path fill="none" stroke="black" d="M260.833,-143.697C261.384,-135.983 262.047,-126.712 262.661,-118.112"/>
<polygon fill="black" stroke="black" points="266.154,-118.328 263.376,-108.104 259.172,-117.83 266.154,-118.328"/>
</g>
<!-- 7c221b6b&#45;490e&#45;431b&#45;b235&#45;166d9682fb5f -->
<g id="node19" class="node"><title>7c221b6b&#45;490e&#45;431b&#45;b235&#45;166d9682fb5f</title>
<ellipse fill="none" stroke="black" cx="186.597" cy="-18" rx="28.6953" ry="18"/>
<text text-anchor="middle" x="186.597" y="-14.3" font-family="Times,serif" font-size="14.00">i {5}</text>
</g>
<!-- b245a7b7&#45;2796&#45;447f&#45;b88a&#45;23695d7dd92e&#45;&gt;7c221b6b&#45;490e&#45;431b&#45;b235&#45;166d9682fb5f -->
<g id="edge18" class="edge"><title>b245a7b7&#45;2796&#45;447f&#45;b88a&#45;23695d7dd92e&#45;&gt;7c221b6b&#45;490e&#45;431b&#45;b235&#45;166d9682fb5f</title>
<path fill="none" stroke="black" d="M191.114,-71.6966C190.453,-63.9827 189.659,-54.7125 188.921,-46.1124"/>
<polygon fill="black" stroke="black" points="192.405,-45.7689 188.064,-36.1043 185.43,-46.3667 192.405,-45.7689"/>
</g>
<!-- b3ee4cc8&#45;0994&#45;4102&#45;92a1&#45;69639d4fe436 -->
<g id="node21" class="node"><title>b3ee4cc8&#45;0994&#45;4102&#45;92a1&#45;69639d4fe436</title>
<ellipse fill="none" stroke="black" cx="269.597" cy="-18" rx="36.2938" ry="18"/>
<text text-anchor="middle" x="269.597" y="-14.3" font-family="Times,serif" font-size="14.00">epsilon</text>
</g>
<!-- 07b8c05a&#45;6b6b&#45;48ad&#45;a293&#45;34ce3b716ae2&#45;&gt;b3ee4cc8&#45;0994&#45;4102&#45;92a1&#45;69639d4fe436 -->
<g id="edge20" class="edge"><title>07b8c05a&#45;6b6b&#45;48ad&#45;a293&#45;34ce3b716ae2&#45;&gt;b3ee4cc8&#45;0994&#45;4102&#45;92a1&#45;69639d4fe436</title>
<path fill="none" stroke="black" d="M265.833,-71.6966C266.384,-63.9827 267.047,-54.7125 267.661,-46.1124"/>
<polygon fill="black" stroke="black" points="271.154,-46.3283 268.376,-36.1043 264.172,-45.8295 271.154,-46.3283"/>
</g>
<!-- e7893f06&#45;04ad&#45;41bb&#45;8e3a&#45;e1ccf5dc4445 -->
<g id="node23" class="node"><title>e7893f06&#45;04ad&#45;41bb&#45;8e3a&#45;e1ccf5dc4445</title>
<ellipse fill="none" stroke="black" cx="345.597" cy="-90" rx="36.2938" ry="18"/>
<text text-anchor="middle" x="345.597" y="-86.3" font-family="Times,serif" font-size="14.00">epsilon</text>
</g>
<!-- 21763c51&#45;7063&#45;4b98&#45;9dc9&#45;76088d0a750c&#45;&gt;e7893f06&#45;04ad&#45;41bb&#45;8e3a&#45;e1ccf5dc4445 -->
<g id="edge22" class="edge"><title>21763c51&#45;7063&#45;4b98&#45;9dc9&#45;76088d0a750c&#45;&gt;e7893f06&#45;04ad&#45;41bb&#45;8e3a&#45;e1ccf5dc4445</title>
<path fill="none" stroke="black" d="M340.328,-143.697C341.099,-135.983 342.026,-126.712 342.886,-118.112"/>
<polygon fill="black" stroke="black" points="346.375,-118.403 343.887,-108.104 339.409,-117.706 346.375,-118.403"/>
</g>
<!-- 08263fc4&#45;05a4&#45;46f8&#45;9ec8&#45;b21170c64052 -->
<g id="node26" class="node"><title>08263fc4&#45;05a4&#45;46f8&#45;9ec8&#45;b21170c64052</title>
<ellipse fill="none" stroke="black" cx="340.597" cy="-306" rx="36.2938" ry="18"/>
<text text-anchor="middle" x="340.597" y="-302.3" font-family="Times,serif" font-size="14.00">epsilon</text>
</g>
<!-- 18dfcfb7&#45;b9bc&#45;479a&#45;8dc0&#45;42609e3e22ff&#45;&gt;08263fc4&#45;05a4&#45;46f8&#45;9ec8&#45;b21170c64052 -->
<g id="edge25" class="edge"><title>18dfcfb7&#45;b9bc&#45;479a&#45;8dc0&#45;42609e3e22ff&#45;&gt;08263fc4&#45;05a4&#45;46f8&#45;9ec8&#45;b21170c64052</title>
<path fill="none" stroke="black" d="M337.586,-359.697C338.027,-351.983 338.557,-342.712 339.048,-334.112"/>
<polygon fill="black" stroke="black" points="342.544,-334.288 339.62,-324.104 335.555,-333.888 342.544,-334.288"/>
</g>
<!-- 37a0898e&#45;797b&#45;4eb1&#45;b858&#45;5082b09cb63b -->
<g id="node28" class="node"><title>37a0898e&#45;797b&#45;4eb1&#45;b858&#45;5082b09cb63b</title>
<ellipse fill="none" stroke="black" cx="268.597" cy="-450" rx="36.2938" ry="18"/>
<text text-anchor="middle" x="268.597" y="-446.3" font-family="Times,serif" font-size="14.00">epsilon</text>
</g>
<!-- 56ae0a39&#45;fdf7&#45;4716&#45;bbfb&#45;1fe5ee310859&#45;&gt;37a0898e&#45;797b&#45;4eb1&#45;b858&#45;5082b09cb63b -->
<g id="edge27" class="edge"><title>56ae0a39&#45;fdf7&#45;4716&#45;bbfb&#45;1fe5ee310859&#45;&gt;37a0898e&#45;797b&#45;4eb1&#45;b858&#45;5082b09cb63b</title>
<path fill="none" stroke="black" d="M264.833,-503.697C265.384,-495.983 266.047,-486.712 266.661,-478.112"/>
<polygon fill="black" stroke="black" points="270.154,-478.328 267.376,-468.104 263.172,-477.83 270.154,-478.328"/>
</g>
</g>
</svg>
