<?xml version="1.0" encoding="UTF-8" standalone="no"?>
<!DOCTYPE svg PUBLIC "-//W3C//DTD SVG 1.1//EN"
 "http://www.w3.org/Graphics/SVG/1.1/DTD/svg11.dtd">
<!-- Generated by graphviz version 2.38.0 (20140413.2041)
 -->
<!-- Title: G Pages: 1 -->
<svg width="249pt" height="332pt"
 viewBox="0.00 0.00 249.19 332.00" xmlns="http://www.w3.org/2000/svg" xmlns:xlink="http://www.w3.org/1999/xlink">
<g id="graph0" class="graph" transform="scale(1 1) rotate(0) translate(4 328)">
<title>G</title>
<polygon fill="white" stroke="none" points="-4,4 -4,-328 245.195,-328 245.195,4 -4,4"/>
<!-- 1907197c&#45;d3cf&#45;4fab&#45;8a11&#45;40c3eff419fc -->
<g id="node1" class="node"><title>1907197c&#45;d3cf&#45;4fab&#45;8a11&#45;40c3eff419fc</title>
<ellipse fill="none" stroke="black" cx="65.5975" cy="-306" rx="27" ry="18"/>
<text text-anchor="middle" x="65.5975" y="-302.3" font-family="Times,serif" font-size="14.00">E</text>
</g>
<!-- 67e174c5&#45;997b&#45;42d3&#45;a667&#45;4c952d308f1f -->
<g id="node2" class="node"><title>67e174c5&#45;997b&#45;42d3&#45;a667&#45;4c952d308f1f</title>
<ellipse fill="none" stroke="black" cx="28.5975" cy="-234" rx="28.6953" ry="18"/>
<text text-anchor="middle" x="28.5975" y="-230.3" font-family="Times,serif" font-size="14.00">i {3}</text>
</g>
<!-- 1907197c&#45;d3cf&#45;4fab&#45;8a11&#45;40c3eff419fc&#45;&gt;67e174c5&#45;997b&#45;42d3&#45;a667&#45;4c952d308f1f -->
<g id="edge1" class="edge"><title>1907197c&#45;d3cf&#45;4fab&#45;8a11&#45;40c3eff419fc&#45;&gt;67e174c5&#45;997b&#45;42d3&#45;a667&#45;4c952d308f1f</title>
<path fill="none" stroke="black" d="M57.0159,-288.765C52.5969,-280.404 47.1059,-270.016 42.132,-260.606"/>
<polygon fill="black" stroke="black" points="45.1569,-258.839 37.3894,-251.633 38.9682,-262.11 45.1569,-258.839"/>
</g>
<!-- ba328aec&#45;2d1d&#45;48da&#45;99ac&#45;795db8ef685f -->
<g id="node3" class="node"><title>ba328aec&#45;2d1d&#45;48da&#45;99ac&#45;795db8ef685f</title>
<ellipse fill="none" stroke="black" cx="102.597" cy="-234" rx="27" ry="18"/>
<text text-anchor="middle" x="102.597" y="-230.3" font-family="Times,serif" font-size="14.00">Y</text>
</g>
<!-- 1907197c&#45;d3cf&#45;4fab&#45;8a11&#45;40c3eff419fc&#45;&gt;ba328aec&#45;2d1d&#45;48da&#45;99ac&#45;795db8ef685f -->
<g id="edge2" class="edge"><title>1907197c&#45;d3cf&#45;4fab&#45;8a11&#45;40c3eff419fc&#45;&gt;ba328aec&#45;2d1d&#45;48da&#45;99ac&#45;795db8ef685f</title>
<path fill="none" stroke="black" d="M74.179,-288.765C78.6621,-280.283 84.2484,-269.714 89.2788,-260.197"/>
<polygon fill="black" stroke="black" points="92.4837,-261.624 94.0625,-251.147 86.295,-258.353 92.4837,-261.624"/>
</g>
<!-- 2ecc4f92&#45;262e&#45;4671&#45;83f4&#45;0b317fe8e18a -->
<g id="node4" class="node"><title>2ecc4f92&#45;262e&#45;4671&#45;83f4&#45;0b317fe8e18a</title>
<ellipse fill="none" stroke="black" cx="66.5975" cy="-162" rx="27" ry="18"/>
<text text-anchor="middle" x="66.5975" y="-158.3" font-family="Times,serif" font-size="14.00">*</text>
</g>
<!-- ba328aec&#45;2d1d&#45;48da&#45;99ac&#45;795db8ef685f&#45;&gt;2ecc4f92&#45;262e&#45;4671&#45;83f4&#45;0b317fe8e18a -->
<g id="edge3" class="edge"><title>ba328aec&#45;2d1d&#45;48da&#45;99ac&#45;795db8ef685f&#45;&gt;2ecc4f92&#45;262e&#45;4671&#45;83f4&#45;0b317fe8e18a</title>
<path fill="none" stroke="black" d="M94.2479,-216.765C89.8859,-208.283 84.4506,-197.714 79.5561,-188.197"/>
<polygon fill="black" stroke="black" points="82.5878,-186.439 74.9018,-179.147 76.3628,-189.641 82.5878,-186.439"/>
</g>
<!-- da5d8164&#45;3829&#45;4689&#45;a374&#45;da81212ba80b -->
<g id="node5" class="node"><title>da5d8164&#45;3829&#45;4689&#45;a374&#45;da81212ba80b</title>
<ellipse fill="none" stroke="black" cx="138.597" cy="-162" rx="27" ry="18"/>
<text text-anchor="middle" x="138.597" y="-158.3" font-family="Times,serif" font-size="14.00">E</text>
</g>
<!-- ba328aec&#45;2d1d&#45;48da&#45;99ac&#45;795db8ef685f&#45;&gt;da5d8164&#45;3829&#45;4689&#45;a374&#45;da81212ba80b -->
<g id="edge4" class="edge"><title>ba328aec&#45;2d1d&#45;48da&#45;99ac&#45;795db8ef685f&#45;&gt;da5d8164&#45;3829&#45;4689&#45;a374&#45;da81212ba80b</title>
<path fill="none" stroke="black" d="M110.947,-216.765C115.309,-208.283 120.744,-197.714 125.639,-188.197"/>
<polygon fill="black" stroke="black" points="128.832,-189.641 130.293,-179.147 122.607,-186.439 128.832,-189.641"/>
</g>
<!-- ee3fae59&#45;5495&#45;41e6&#45;b2aa&#45;e7346cb31fd8 -->
<g id="node6" class="node"><title>ee3fae59&#45;5495&#45;41e6&#45;b2aa&#45;e7346cb31fd8</title>
<ellipse fill="none" stroke="black" cx="101.597" cy="-90" rx="28.6953" ry="18"/>
<text text-anchor="middle" x="101.597" y="-86.3" font-family="Times,serif" font-size="14.00">i {2}</text>
</g>
<!-- da5d8164&#45;3829&#45;4689&#45;a374&#45;da81212ba80b&#45;&gt;ee3fae59&#45;5495&#45;41e6&#45;b2aa&#45;e7346cb31fd8 -->
<g id="edge5" class="edge"><title>da5d8164&#45;3829&#45;4689&#45;a374&#45;da81212ba80b&#45;&gt;ee3fae59&#45;5495&#45;41e6&#45;b2aa&#45;e7346cb31fd8</title>
<path fill="none" stroke="black" d="M130.016,-144.765C125.597,-136.404 120.106,-126.016 115.132,-116.606"/>
<polygon fill="black" stroke="black" points="118.157,-114.839 110.389,-107.633 111.968,-118.11 118.157,-114.839"/>
</g>
<!-- f32ffc8b&#45;01cc&#45;4abe&#45;851e&#45;317f54fe03c4 -->
<g id="node7" class="node"><title>f32ffc8b&#45;01cc&#45;4abe&#45;851e&#45;317f54fe03c4</title>
<ellipse fill="none" stroke="black" cx="175.597" cy="-90" rx="27" ry="18"/>
<text text-anchor="middle" x="175.597" y="-86.3" font-family="Times,serif" font-size="14.00">X</text>
</g>
<!-- da5d8164&#45;3829&#45;4689&#45;a374&#45;da81212ba80b&#45;&gt;f32ffc8b&#45;01cc&#45;4abe&#45;851e&#45;317f54fe03c4 -->
<g id="edge6" class="edge"><title>da5d8164&#45;3829&#45;4689&#45;a374&#45;da81212ba80b&#45;&gt;f32ffc8b&#45;01cc&#45;4abe&#45;851e&#45;317f54fe03c4</title>
<path fill="none" stroke="black" d="M147.179,-144.765C151.662,-136.283 157.248,-125.714 162.279,-116.197"/>
<polygon fill="black" stroke="black" points="165.484,-117.624 167.062,-107.147 159.295,-114.353 165.484,-117.624"/>
</g>
<!-- 87c2a595&#45;b3ad&#45;4ca8&#45;ab92&#45;c6c1675d471d -->
<g id="node8" class="node"><title>87c2a595&#45;b3ad&#45;4ca8&#45;ab92&#45;c6c1675d471d</title>
<ellipse fill="none" stroke="black" cx="138.597" cy="-18" rx="27" ry="18"/>
<text text-anchor="middle" x="138.597" y="-14.3" font-family="Times,serif" font-size="14.00">+</text>
</g>
<!-- f32ffc8b&#45;01cc&#45;4abe&#45;851e&#45;317f54fe03c4&#45;&gt;87c2a595&#45;b3ad&#45;4ca8&#45;ab92&#45;c6c1675d471d -->
<g id="edge7" class="edge"><title>f32ffc8b&#45;01cc&#45;4abe&#45;851e&#45;317f54fe03c4&#45;&gt;87c2a595&#45;b3ad&#45;4ca8&#45;ab92&#45;c6c1675d471d</title>
<path fill="none" stroke="black" d="M167.016,-72.7646C162.533,-64.2831 156.947,-53.7144 151.916,-44.1974"/>
<polygon fill="black" stroke="black" points="154.9,-42.3527 147.132,-35.1473 148.711,-45.6239 154.9,-42.3527"/>
</g>
<!-- c555ec9d&#45;ed78&#45;410d&#45;b2ba&#45;b8a0f7f5a9a3 -->
<g id="node9" class="node"><title>c555ec9d&#45;ed78&#45;410d&#45;b2ba&#45;b8a0f7f5a9a3</title>
<ellipse fill="none" stroke="black" cx="212.597" cy="-18" rx="28.6953" ry="18"/>
<text text-anchor="middle" x="212.597" y="-14.3" font-family="Times,serif" font-size="14.00">i {5}</text>
</g>
<!-- f32ffc8b&#45;01cc&#45;4abe&#45;851e&#45;317f54fe03c4&#45;&gt;c555ec9d&#45;ed78&#45;410d&#45;b2ba&#45;b8a0f7f5a9a3 -->
<g id="edge8" class="edge"><title>f32ffc8b&#45;01cc&#45;4abe&#45;851e&#45;317f54fe03c4&#45;&gt;c555ec9d&#45;ed78&#45;410d&#45;b2ba&#45;b8a0f7f5a9a3</title>
<path fill="none" stroke="black" d="M184.179,-72.7646C188.598,-64.4043 194.089,-54.0159 199.063,-44.6059"/>
<polygon fill="black" stroke="black" points="202.227,-46.11 203.806,-35.6334 196.038,-42.8388 202.227,-46.11"/>
</g>
</g>
</svg>
