<?xml version="1.0" encoding="UTF-8" standalone="no"?>
<!DOCTYPE svg PUBLIC "-//W3C//DTD SVG 1.1//EN"
 "http://www.w3.org/Graphics/SVG/1.1/DTD/svg11.dtd">
<!-- Generated by graphviz version 2.38.0 (20140413.2041)
 -->
<!-- Title: G Pages: 1 -->
<svg width="370pt" height="145pt"
 viewBox="7.20 7.20 362.78 138.20" xmlns="http://www.w3.org/2000/svg" xmlns:xlink="http://www.w3.org/1999/xlink">
<g id="graph0" class="graph" transform="scale(1 1) rotate(0) translate(11.2 134.2)">
<title>G</title>
<polygon fill="white" stroke="none" points="-4,4 -4,-127 351.58,-127 351.58,4 -4,4"/>
<!-- start -->
<g id="node1" class="node"><title>start</title>
</g>
<!-- q0q1 -->
<g id="node2" class="node"><title>q0q1</title>
<ellipse fill="none" stroke="black" cx="66.5975" cy="-41" rx="28.6953" ry="18"/>
<text text-anchor="middle" x="66.5975" y="-37.3" font-family="Times,serif" font-size="14.00">q0q1</text>
</g>
<!-- start&#45;&gt;q0q1 -->
<g id="edge6" class="edge"><title>start&#45;&gt;q0q1</title>
<path fill="none" stroke="black" stroke-dasharray="5,2" d="M1.04682,-41C1.89532,-41 14.1537,-41 27.7636,-41"/>
<polygon fill="black" stroke="black" points="27.7688,-44.5001 37.7688,-41 27.7688,-37.5001 27.7688,-44.5001"/>
</g>
<!-- q0q1&#45;&gt;q0q1 -->
<g id="edge2" class="edge"><title>q0q1&#45;&gt;q0q1</title>
<path fill="none" stroke="black" d="M58.3852,-58.4099C56.8522,-68.0879 59.5897,-77 66.5975,-77 70.9773,-77 73.6891,-73.5187 74.7328,-68.5449"/>
<polygon fill="black" stroke="black" points="78.2336,-68.4362 74.8097,-58.4099 71.2338,-68.383 78.2336,-68.4362"/>
<text text-anchor="middle" x="66.5975" y="-80.8" font-family="Times,serif" font-size="14.00">b</text>
</g>
<!-- q0q1q2 -->
<g id="node3" class="node"><title>q0q1q2</title>
<ellipse fill="none" stroke="black" cx="175.242" cy="-41" rx="37.0935" ry="18"/>
<text text-anchor="middle" x="175.242" y="-37.3" font-family="Times,serif" font-size="14.00">q0q1q2</text>
</g>
<!-- q0q1&#45;&gt;q0q1q2 -->
<g id="edge1" class="edge"><title>q0q1&#45;&gt;q0q1q2</title>
<path fill="none" stroke="black" d="M95.3386,-41C105.356,-41 116.951,-41 128.118,-41"/>
<polygon fill="black" stroke="black" points="128.195,-44.5001 138.195,-41 128.195,-37.5001 128.195,-44.5001"/>
<text text-anchor="middle" x="116.695" y="-44.8" font-family="Times,serif" font-size="14.00">a</text>
</g>
<!-- q0q1q2q3 -->
<g id="node4" class="node"><title>q0q1q2q3</title>
<ellipse fill="none" stroke="black" cx="301.434" cy="-72" rx="46.2923" ry="18"/>
<text text-anchor="middle" x="301.434" y="-68.3" font-family="Times,serif" font-size="14.00">q0q1q2q3</text>
</g>
<!-- q0q1q2&#45;&gt;q0q1q2q3 -->
<g id="edge3" class="edge"><title>q0q1q2&#45;&gt;q0q1q2q3</title>
<path fill="none" stroke="black" d="M208.548,-49.064C221.862,-52.3873 237.57,-56.3083 252.198,-59.9595"/>
<polygon fill="black" stroke="black" points="251.559,-63.4074 262.109,-62.4335 253.254,-56.6158 251.559,-63.4074"/>
<text text-anchor="middle" x="233.788" y="-58.8" font-family="Times,serif" font-size="14.00">a</text>
</g>
<!-- q0q1q3 -->
<g id="node5" class="node"><title>q0q1q3</title>
<ellipse fill="none" stroke="black" cx="301.434" cy="-18" rx="37.0935" ry="18"/>
<text text-anchor="middle" x="301.434" y="-14.3" font-family="Times,serif" font-size="14.00">q0q1q3</text>
</g>
<!-- q0q1q2&#45;&gt;q0q1q3 -->
<g id="edge4" class="edge"><title>q0q1q2&#45;&gt;q0q1q3</title>
<path fill="none" stroke="black" d="M207.812,-32.1109C215.15,-30.2432 222.96,-28.4135 230.288,-27 238.172,-25.4795 246.604,-24.1486 254.792,-23.0095"/>
<polygon fill="black" stroke="black" points="255.513,-26.4449 264.971,-21.6696 254.599,-19.5047 255.513,-26.4449"/>
<text text-anchor="middle" x="233.788" y="-30.8" font-family="Times,serif" font-size="14.00">b</text>
</g>
<!-- q0q1q2q3&#45;&gt;q0q1q2q3 -->
<g id="edge5" class="edge"><title>q0q1q2q3&#45;&gt;q0q1q2q3</title>
<path fill="none" stroke="black" d="M289.651,-89.4099C287.452,-99.0879 291.38,-108 301.434,-108 307.718,-108 311.609,-104.519 313.107,-99.5449"/>
<polygon fill="black" stroke="black" points="316.608,-99.4475 313.217,-89.4099 309.608,-99.3711 316.608,-99.4475"/>
<text text-anchor="middle" x="301.434" y="-111.8" font-family="Times,serif" font-size="14.00">a</text>
</g>
</g>
</svg>
