<?xml version="1.0" encoding="UTF-8" standalone="no"?>
<!DOCTYPE svg PUBLIC "-//W3C//DTD SVG 1.1//EN"
 "http://www.w3.org/Graphics/SVG/1.1/DTD/svg11.dtd">
<!-- Generated by graphviz version 2.38.0 (20140413.2041)
 -->
<!-- Title: G Pages: 1 -->
<svg width="464pt" height="268pt"
 viewBox="7.20 7.20 456.58 261.30" xmlns="http://www.w3.org/2000/svg" xmlns:xlink="http://www.w3.org/1999/xlink">
<g id="graph0" class="graph" transform="scale(1 1) rotate(0) translate(11.2 257.296)">
<title>G</title>
<polygon fill="white" stroke="none" points="-4,4 -4,-250.096 445.379,-250.096 445.379,4 -4,4"/>
<!-- start -->
<g id="node1" class="node"><title>start</title>
</g>
<!-- q0 -->
<g id="node2" class="node"><title>q0</title>
<ellipse fill="none" stroke="black" cx="57.4983" cy="-123.048" rx="19.4965" ry="19.4965"/>
<text text-anchor="middle" x="57.4983" y="-119.348" font-family="Times,serif" font-size="14.00">q0</text>
</g>
<!-- start&#45;&gt;q0 -->
<g id="edge13" class="edge"><title>start&#45;&gt;q0</title>
<path fill="none" stroke="black" stroke-dasharray="5,2" d="M1.15921,-123.048C2.69434,-123.048 15.0887,-123.048 27.7588,-123.048"/>
<polygon fill="black" stroke="black" points="27.7768,-126.548 37.7768,-123.048 27.7768,-119.548 27.7768,-126.548"/>
</g>
<!-- q01 -->
<g id="node3" class="node"><title>q01</title>
<ellipse fill="none" stroke="black" cx="144.044" cy="-222.048" rx="24.0958" ry="24.0958"/>
<text text-anchor="middle" x="144.044" y="-218.348" font-family="Times,serif" font-size="14.00">q01</text>
</g>
<!-- q0&#45;&gt;q01 -->
<g id="edge1" class="edge"><title>q0&#45;&gt;q01</title>
<path fill="none" stroke="black" d="M70.9733,-137.656C84.0974,-153.023 105.018,-177.52 120.946,-196.172"/>
<polygon fill="black" stroke="black" points="118.492,-198.688 127.648,-204.019 123.815,-194.142 118.492,-198.688"/>
<text text-anchor="middle" x="98.4965" y="-175.848" font-family="Times,serif" font-size="14.00">i</text>
</g>
<!-- q03 -->
<g id="node5" class="node"><title>q03</title>
<ellipse fill="none" stroke="black" cx="144.044" cy="-156.048" rx="24.0958" ry="24.0958"/>
<text text-anchor="middle" x="144.044" y="-152.348" font-family="Times,serif" font-size="14.00">q03</text>
</g>
<!-- q0&#45;&gt;q03 -->
<g id="edge3" class="edge"><title>q0&#45;&gt;q03</title>
<path fill="none" stroke="black" d="M76.0163,-129.885C86.3971,-133.937 99.8531,-139.189 111.982,-143.924"/>
<polygon fill="black" stroke="black" points="110.752,-147.201 121.34,-147.576 113.297,-140.68 110.752,-147.201"/>
<text text-anchor="middle" x="98.4965" y="-142.848" font-family="Times,serif" font-size="14.00">t</text>
</g>
<!-- q07 -->
<g id="node9" class="node"><title>q07</title>
<ellipse fill="none" stroke="black" cx="144.044" cy="-90.0479" rx="24.0958" ry="24.0958"/>
<text text-anchor="middle" x="144.044" y="-86.3479" font-family="Times,serif" font-size="14.00">q07</text>
</g>
<!-- q0&#45;&gt;q07 -->
<g id="edge7" class="edge"><title>q0&#45;&gt;q07</title>
<path fill="none" stroke="black" d="M76.0163,-116.21C86.3971,-112.158 99.8531,-106.906 111.982,-102.172"/>
<polygon fill="black" stroke="black" points="113.297,-105.416 121.34,-98.5194 110.752,-98.8951 113.297,-105.416"/>
<text text-anchor="middle" x="98.4965" y="-111.848" font-family="Times,serif" font-size="14.00">e</text>
</g>
<!-- q11 -->
<g id="node13" class="node"><title>q11</title>
<ellipse fill="none" stroke="black" cx="144.044" cy="-24.0479" rx="24.0958" ry="24.0958"/>
<text text-anchor="middle" x="144.044" y="-20.3479" font-family="Times,serif" font-size="14.00">q11</text>
</g>
<!-- q0&#45;&gt;q11 -->
<g id="edge11" class="edge"><title>q0&#45;&gt;q11</title>
<path fill="none" stroke="black" d="M70.9733,-108.44C84.0974,-93.0724 105.018,-68.5755 120.946,-49.9241"/>
<polygon fill="black" stroke="black" points="123.815,-51.9538 127.648,-42.0765 118.492,-47.4079 123.815,-51.9538"/>
<text text-anchor="middle" x="98.4965" y="-83.8479" font-family="Times,serif" font-size="14.00">f</text>
</g>
<!-- q02 -->
<g id="node4" class="node"><title>q02</title>
<ellipse fill="none" stroke="black" stroke-width="2" cx="235.14" cy="-222.048" rx="24.0958" ry="24.0958"/>
<text text-anchor="middle" x="235.14" y="-218.348" font-family="Times,serif" font-size="14.00">q02</text>
</g>
<!-- q01&#45;&gt;q02 -->
<g id="edge2" class="edge"><title>q01&#45;&gt;q02</title>
<path fill="none" stroke="black" d="M168.453,-222.048C178.275,-222.048 189.881,-222.048 200.585,-222.048"/>
<polygon fill="black" stroke="black" points="200.888,-225.548 210.888,-222.048 200.888,-218.548 200.888,-225.548"/>
<text text-anchor="middle" x="189.592" y="-225.848" font-family="Times,serif" font-size="14.00">f</text>
</g>
<!-- q04 -->
<g id="node6" class="node"><title>q04</title>
<ellipse fill="none" stroke="black" cx="235.14" cy="-156.048" rx="24.0958" ry="24.0958"/>
<text text-anchor="middle" x="235.14" y="-152.348" font-family="Times,serif" font-size="14.00">q04</text>
</g>
<!-- q03&#45;&gt;q04 -->
<g id="edge4" class="edge"><title>q03&#45;&gt;q04</title>
<path fill="none" stroke="black" d="M168.453,-156.048C178.275,-156.048 189.881,-156.048 200.585,-156.048"/>
<polygon fill="black" stroke="black" points="200.888,-159.548 210.888,-156.048 200.888,-152.548 200.888,-159.548"/>
<text text-anchor="middle" x="189.592" y="-159.848" font-family="Times,serif" font-size="14.00">h</text>
</g>
<!-- q05 -->
<g id="node7" class="node"><title>q05</title>
<ellipse fill="none" stroke="black" cx="326.236" cy="-156.048" rx="24.0958" ry="24.0958"/>
<text text-anchor="middle" x="326.236" y="-152.348" font-family="Times,serif" font-size="14.00">q05</text>
</g>
<!-- q04&#45;&gt;q05 -->
<g id="edge5" class="edge"><title>q04&#45;&gt;q05</title>
<path fill="none" stroke="black" d="M259.549,-156.048C269.371,-156.048 280.977,-156.048 291.681,-156.048"/>
<polygon fill="black" stroke="black" points="291.983,-159.548 301.983,-156.048 291.983,-152.548 291.983,-159.548"/>
<text text-anchor="middle" x="280.688" y="-159.848" font-family="Times,serif" font-size="14.00">e</text>
</g>
<!-- q06 -->
<g id="node8" class="node"><title>q06</title>
<ellipse fill="none" stroke="black" stroke-width="2" cx="417.332" cy="-156.048" rx="24.0958" ry="24.0958"/>
<text text-anchor="middle" x="417.332" y="-152.348" font-family="Times,serif" font-size="14.00">q06</text>
</g>
<!-- q05&#45;&gt;q06 -->
<g id="edge6" class="edge"><title>q05&#45;&gt;q06</title>
<path fill="none" stroke="black" d="M350.645,-156.048C360.466,-156.048 372.073,-156.048 382.776,-156.048"/>
<polygon fill="black" stroke="black" points="383.079,-159.548 393.079,-156.048 383.079,-152.548 383.079,-159.548"/>
<text text-anchor="middle" x="371.784" y="-159.848" font-family="Times,serif" font-size="14.00">n</text>
</g>
<!-- q08 -->
<g id="node10" class="node"><title>q08</title>
<ellipse fill="none" stroke="black" cx="235.14" cy="-90.0479" rx="24.0958" ry="24.0958"/>
<text text-anchor="middle" x="235.14" y="-86.3479" font-family="Times,serif" font-size="14.00">q08</text>
</g>
<!-- q07&#45;&gt;q08 -->
<g id="edge8" class="edge"><title>q07&#45;&gt;q08</title>
<path fill="none" stroke="black" d="M168.453,-90.0479C178.275,-90.0479 189.881,-90.0479 200.585,-90.0479"/>
<polygon fill="black" stroke="black" points="200.888,-93.548 210.888,-90.0479 200.888,-86.548 200.888,-93.548"/>
<text text-anchor="middle" x="189.592" y="-93.8479" font-family="Times,serif" font-size="14.00">l</text>
</g>
<!-- q09 -->
<g id="node11" class="node"><title>q09</title>
<ellipse fill="none" stroke="black" cx="326.236" cy="-90.0479" rx="24.0958" ry="24.0958"/>
<text text-anchor="middle" x="326.236" y="-86.3479" font-family="Times,serif" font-size="14.00">q09</text>
</g>
<!-- q08&#45;&gt;q09 -->
<g id="edge9" class="edge"><title>q08&#45;&gt;q09</title>
<path fill="none" stroke="black" d="M259.549,-90.0479C269.371,-90.0479 280.977,-90.0479 291.681,-90.0479"/>
<polygon fill="black" stroke="black" points="291.983,-93.548 301.983,-90.0479 291.983,-86.548 291.983,-93.548"/>
<text text-anchor="middle" x="280.688" y="-93.8479" font-family="Times,serif" font-size="14.00">s</text>
</g>
<!-- q10 -->
<g id="node12" class="node"><title>q10</title>
<ellipse fill="none" stroke="black" stroke-width="2" cx="417.332" cy="-90.0479" rx="24.0958" ry="24.0958"/>
<text text-anchor="middle" x="417.332" y="-86.3479" font-family="Times,serif" font-size="14.00">q10</text>
</g>
<!-- q09&#45;&gt;q10 -->
<g id="edge10" class="edge"><title>q09&#45;&gt;q10</title>
<path fill="none" stroke="black" d="M350.645,-90.0479C360.466,-90.0479 372.073,-90.0479 382.776,-90.0479"/>
<polygon fill="black" stroke="black" points="383.079,-93.548 393.079,-90.0479 383.079,-86.548 383.079,-93.548"/>
<text text-anchor="middle" x="371.784" y="-93.8479" font-family="Times,serif" font-size="14.00">e</text>
</g>
<!-- q12 -->
<g id="node14" class="node"><title>q12</title>
<ellipse fill="none" stroke="black" stroke-width="2" cx="235.14" cy="-24.0479" rx="24.0958" ry="24.0958"/>
<text text-anchor="middle" x="235.14" y="-20.3479" font-family="Times,serif" font-size="14.00">q12</text>
</g>
<!-- q11&#45;&gt;q12 -->
<g id="edge12" class="edge"><title>q11&#45;&gt;q12</title>
<path fill="none" stroke="black" d="M168.453,-24.0479C178.275,-24.0479 189.881,-24.0479 200.585,-24.0479"/>
<polygon fill="black" stroke="black" points="200.888,-27.548 210.888,-24.0479 200.888,-20.548 200.888,-27.548"/>
<text text-anchor="middle" x="189.592" y="-27.8479" font-family="Times,serif" font-size="14.00">i</text>
</g>
</g>
</svg>
