<?xml version="1.0" encoding="UTF-8" standalone="no"?>
<!DOCTYPE svg PUBLIC "-//W3C//DTD SVG 1.1//EN"
 "http://www.w3.org/Graphics/SVG/1.1/DTD/svg11.dtd">
<!-- Generated by graphviz version 2.38.0 (20140413.2041)
 -->
<!-- Title: G Pages: 1 -->
<svg width="278pt" height="188pt"
 viewBox="0.00 0.00 278.00 188.00" xmlns="http://www.w3.org/2000/svg" xmlns:xlink="http://www.w3.org/1999/xlink">
<g id="graph0" class="graph" transform="scale(1 1) rotate(0) translate(4 184)">
<title>G</title>
<polygon fill="white" stroke="none" points="-4,4 -4,-184 274,-184 274,4 -4,4"/>
<!-- 76084c0a&#45;cfb4&#45;44f0&#45;ab7f&#45;4018f5610661 -->
<g id="node1" class="node"><title>76084c0a&#45;cfb4&#45;44f0&#45;ab7f&#45;4018f5610661</title>
<ellipse fill="none" stroke="black" cx="99" cy="-162" rx="27" ry="18"/>
<text text-anchor="middle" x="99" y="-158.3" font-family="Times,serif" font-size="14.00">T</text>
</g>
<!-- dc4470cc&#45;a9de&#45;4a38&#45;b73a&#45;725b1dc00448 -->
<g id="node2" class="node"><title>dc4470cc&#45;a9de&#45;4a38&#45;b73a&#45;725b1dc00448</title>
<ellipse fill="none" stroke="black" cx="27" cy="-90" rx="27" ry="18"/>
<text text-anchor="middle" x="27" y="-86.3" font-family="Times,serif" font-size="14.00">int</text>
</g>
<!-- 76084c0a&#45;cfb4&#45;44f0&#45;ab7f&#45;4018f5610661&#45;&gt;dc4470cc&#45;a9de&#45;4a38&#45;b73a&#45;725b1dc00448 -->
<g id="edge1" class="edge"><title>76084c0a&#45;cfb4&#45;44f0&#45;ab7f&#45;4018f5610661&#45;&gt;dc4470cc&#45;a9de&#45;4a38&#45;b73a&#45;725b1dc00448</title>
<path fill="none" stroke="black" d="M84.4297,-146.834C74.2501,-136.938 60.4761,-123.546 48.9694,-112.359"/>
<polygon fill="black" stroke="black" points="51.4055,-109.846 41.7957,-105.385 46.5259,-114.865 51.4055,-109.846"/>
</g>
<!-- 15d1c263&#45;cf5d&#45;4b11&#45;bfc6&#45;5a57a5a216ce -->
<g id="node3" class="node"><title>15d1c263&#45;cf5d&#45;4b11&#45;bfc6&#45;5a57a5a216ce</title>
<ellipse fill="none" stroke="black" cx="99" cy="-90" rx="27" ry="18"/>
<text text-anchor="middle" x="99" y="-86.3" font-family="Times,serif" font-size="14.00">*</text>
</g>
<!-- 76084c0a&#45;cfb4&#45;44f0&#45;ab7f&#45;4018f5610661&#45;&gt;15d1c263&#45;cf5d&#45;4b11&#45;bfc6&#45;5a57a5a216ce -->
<g id="edge2" class="edge"><title>76084c0a&#45;cfb4&#45;44f0&#45;ab7f&#45;4018f5610661&#45;&gt;15d1c263&#45;cf5d&#45;4b11&#45;bfc6&#45;5a57a5a216ce</title>
<path fill="none" stroke="black" d="M99,-143.697C99,-135.983 99,-126.712 99,-118.112"/>
<polygon fill="black" stroke="black" points="102.5,-118.104 99,-108.104 95.5001,-118.104 102.5,-118.104"/>
</g>
<!-- 50d91523&#45;932c&#45;4cb3&#45;b58c&#45;6f1632a9cd2c -->
<g id="node4" class="node"><title>50d91523&#45;932c&#45;4cb3&#45;b58c&#45;6f1632a9cd2c</title>
<ellipse fill="none" stroke="black" cx="171" cy="-90" rx="27" ry="18"/>
<text text-anchor="middle" x="171" y="-86.3" font-family="Times,serif" font-size="14.00">E</text>
</g>
<!-- 76084c0a&#45;cfb4&#45;44f0&#45;ab7f&#45;4018f5610661&#45;&gt;50d91523&#45;932c&#45;4cb3&#45;b58c&#45;6f1632a9cd2c -->
<g id="edge3" class="edge"><title>76084c0a&#45;cfb4&#45;44f0&#45;ab7f&#45;4018f5610661&#45;&gt;50d91523&#45;932c&#45;4cb3&#45;b58c&#45;6f1632a9cd2c</title>
<path fill="none" stroke="black" d="M113.57,-146.834C123.75,-136.938 137.524,-123.546 149.031,-112.359"/>
<polygon fill="black" stroke="black" points="151.474,-114.865 156.204,-105.385 146.595,-109.846 151.474,-114.865"/>
</g>
<!-- 173b23f7&#45;abd1&#45;4cdb&#45;a574&#45;301934ad5ad5 -->
<g id="node5" class="node"><title>173b23f7&#45;abd1&#45;4cdb&#45;a574&#45;301934ad5ad5</title>
<ellipse fill="none" stroke="black" cx="99" cy="-18" rx="27" ry="18"/>
<text text-anchor="middle" x="99" y="-14.3" font-family="Times,serif" font-size="14.00">int</text>
</g>
<!-- 50d91523&#45;932c&#45;4cb3&#45;b58c&#45;6f1632a9cd2c&#45;&gt;173b23f7&#45;abd1&#45;4cdb&#45;a574&#45;301934ad5ad5 -->
<g id="edge4" class="edge"><title>50d91523&#45;932c&#45;4cb3&#45;b58c&#45;6f1632a9cd2c&#45;&gt;173b23f7&#45;abd1&#45;4cdb&#45;a574&#45;301934ad5ad5</title>
<path fill="none" stroke="black" d="M156.43,-74.8345C146.25,-64.9376 132.476,-51.5462 120.969,-40.3591"/>
<polygon fill="black" stroke="black" points="123.405,-37.8461 113.796,-33.3847 118.526,-42.865 123.405,-37.8461"/>
</g>
<!-- 276f795d&#45;95f8&#45;4acc&#45;929d&#45;ce1bed8b5f22 -->
<g id="node6" class="node"><title>276f795d&#45;95f8&#45;4acc&#45;929d&#45;ce1bed8b5f22</title>
<ellipse fill="none" stroke="black" cx="171" cy="-18" rx="27" ry="18"/>
<text text-anchor="middle" x="171" y="-14.3" font-family="Times,serif" font-size="14.00">+</text>
</g>
<!-- 50d91523&#45;932c&#45;4cb3&#45;b58c&#45;6f1632a9cd2c&#45;&gt;276f795d&#45;95f8&#45;4acc&#45;929d&#45;ce1bed8b5f22 -->
<g id="edge5" class="edge"><title>50d91523&#45;932c&#45;4cb3&#45;b58c&#45;6f1632a9cd2c&#45;&gt;276f795d&#45;95f8&#45;4acc&#45;929d&#45;ce1bed8b5f22</title>
<path fill="none" stroke="black" d="M171,-71.6966C171,-63.9827 171,-54.7125 171,-46.1124"/>
<polygon fill="black" stroke="black" points="174.5,-46.1043 171,-36.1043 167.5,-46.1044 174.5,-46.1043"/>
</g>
<!-- 62946911&#45;36a7&#45;4d3e&#45;86bc&#45;d6de923c7e7c -->
<g id="node7" class="node"><title>62946911&#45;36a7&#45;4d3e&#45;86bc&#45;d6de923c7e7c</title>
<ellipse fill="none" stroke="black" cx="243" cy="-18" rx="27" ry="18"/>
<text text-anchor="middle" x="243" y="-14.3" font-family="Times,serif" font-size="14.00">int</text>
</g>
<!-- 50d91523&#45;932c&#45;4cb3&#45;b58c&#45;6f1632a9cd2c&#45;&gt;62946911&#45;36a7&#45;4d3e&#45;86bc&#45;d6de923c7e7c -->
<g id="edge6" class="edge"><title>50d91523&#45;932c&#45;4cb3&#45;b58c&#45;6f1632a9cd2c&#45;&gt;62946911&#45;36a7&#45;4d3e&#45;86bc&#45;d6de923c7e7c</title>
<path fill="none" stroke="black" d="M185.57,-74.8345C195.75,-64.9376 209.524,-51.5462 221.031,-40.3591"/>
<polygon fill="black" stroke="black" points="223.474,-42.865 228.204,-33.3847 218.595,-37.8461 223.474,-42.865"/>
</g>
</g>
</svg>
