<?xml version="1.0" encoding="UTF-8" standalone="no"?>
<!DOCTYPE svg PUBLIC "-//W3C//DTD SVG 1.1//EN"
 "http://www.w3.org/Graphics/SVG/1.1/DTD/svg11.dtd">
<!-- Generated by graphviz version 2.38.0 (20140413.2041)
 -->
<!-- Title: G Pages: 1 -->
<svg width="319pt" height="620pt"
 viewBox="0.00 0.00 319.19 620.00" xmlns="http://www.w3.org/2000/svg" xmlns:xlink="http://www.w3.org/1999/xlink">
<g id="graph0" class="graph" transform="scale(1 1) rotate(0) translate(4 616)">
<title>G</title>
<polygon fill="white" stroke="none" points="-4,4 -4,-616 315.195,-616 315.195,4 -4,4"/>
<!-- 55e1b24a&#45;6537&#45;4200&#45;a016&#45;defa10d5f19a -->
<g id="node1" class="node"><title>55e1b24a&#45;6537&#45;4200&#45;a016&#45;defa10d5f19a</title>
<ellipse fill="none" stroke="black" cx="65.5975" cy="-594" rx="27" ry="18"/>
<text text-anchor="middle" x="65.5975" y="-590.3" font-family="Times,serif" font-size="14.00">E</text>
</g>
<!-- 3aa485e3&#45;f316&#45;4037&#45;809e&#45;c0ba181b94b8 -->
<g id="node2" class="node"><title>3aa485e3&#45;f316&#45;4037&#45;809e&#45;c0ba181b94b8</title>
<ellipse fill="none" stroke="black" cx="65.5975" cy="-522" rx="27" ry="18"/>
<text text-anchor="middle" x="65.5975" y="-518.3" font-family="Times,serif" font-size="14.00">T</text>
</g>
<!-- 55e1b24a&#45;6537&#45;4200&#45;a016&#45;defa10d5f19a&#45;&gt;3aa485e3&#45;f316&#45;4037&#45;809e&#45;c0ba181b94b8 -->
<g id="edge1" class="edge"><title>55e1b24a&#45;6537&#45;4200&#45;a016&#45;defa10d5f19a&#45;&gt;3aa485e3&#45;f316&#45;4037&#45;809e&#45;c0ba181b94b8</title>
<path fill="none" stroke="black" d="M65.5975,-575.697C65.5975,-567.983 65.5975,-558.712 65.5975,-550.112"/>
<polygon fill="black" stroke="black" points="69.0976,-550.104 65.5975,-540.104 62.0976,-550.104 69.0976,-550.104"/>
</g>
<!-- dc1c8c9c&#45;28b6&#45;4061&#45;8527&#45;6cef49ea0caf -->
<g id="node3" class="node"><title>dc1c8c9c&#45;28b6&#45;4061&#45;8527&#45;6cef49ea0caf</title>
<ellipse fill="none" stroke="black" cx="29.5975" cy="-450" rx="27" ry="18"/>
<text text-anchor="middle" x="29.5975" y="-446.3" font-family="Times,serif" font-size="14.00">F</text>
</g>
<!-- 3aa485e3&#45;f316&#45;4037&#45;809e&#45;c0ba181b94b8&#45;&gt;dc1c8c9c&#45;28b6&#45;4061&#45;8527&#45;6cef49ea0caf -->
<g id="edge2" class="edge"><title>3aa485e3&#45;f316&#45;4037&#45;809e&#45;c0ba181b94b8&#45;&gt;dc1c8c9c&#45;28b6&#45;4061&#45;8527&#45;6cef49ea0caf</title>
<path fill="none" stroke="black" d="M57.2479,-504.765C52.8859,-496.283 47.4506,-485.714 42.5561,-476.197"/>
<polygon fill="black" stroke="black" points="45.5878,-474.439 37.9018,-467.147 39.3628,-477.641 45.5878,-474.439"/>
</g>
<!-- 19548f47&#45;8d69&#45;4a10&#45;b174&#45;0e33e27f11ec -->
<g id="node5" class="node"><title>19548f47&#45;8d69&#45;4a10&#45;b174&#45;0e33e27f11ec</title>
<ellipse fill="none" stroke="black" cx="102.597" cy="-450" rx="27" ry="18"/>
<text text-anchor="middle" x="102.597" y="-446.3" font-family="Times,serif" font-size="14.00">Y</text>
</g>
<!-- 3aa485e3&#45;f316&#45;4037&#45;809e&#45;c0ba181b94b8&#45;&gt;19548f47&#45;8d69&#45;4a10&#45;b174&#45;0e33e27f11ec -->
<g id="edge4" class="edge"><title>3aa485e3&#45;f316&#45;4037&#45;809e&#45;c0ba181b94b8&#45;&gt;19548f47&#45;8d69&#45;4a10&#45;b174&#45;0e33e27f11ec</title>
<path fill="none" stroke="black" d="M74.179,-504.765C78.6621,-496.283 84.2484,-485.714 89.2788,-476.197"/>
<polygon fill="black" stroke="black" points="92.4837,-477.624 94.0625,-467.147 86.295,-474.353 92.4837,-477.624"/>
</g>
<!-- 9b011923&#45;1939&#45;4894&#45;ba6d&#45;fe315f9080aa -->
<g id="node4" class="node"><title>9b011923&#45;1939&#45;4894&#45;ba6d&#45;fe315f9080aa</title>
<ellipse fill="none" stroke="black" cx="28.5975" cy="-378" rx="28.6953" ry="18"/>
<text text-anchor="middle" x="28.5975" y="-374.3" font-family="Times,serif" font-size="14.00">i {3}</text>
</g>
<!-- dc1c8c9c&#45;28b6&#45;4061&#45;8527&#45;6cef49ea0caf&#45;&gt;9b011923&#45;1939&#45;4894&#45;ba6d&#45;fe315f9080aa -->
<g id="edge3" class="edge"><title>dc1c8c9c&#45;28b6&#45;4061&#45;8527&#45;6cef49ea0caf&#45;&gt;9b011923&#45;1939&#45;4894&#45;ba6d&#45;fe315f9080aa</title>
<path fill="none" stroke="black" d="M29.3503,-431.697C29.2401,-423.983 29.1076,-414.712 28.9848,-406.112"/>
<polygon fill="black" stroke="black" points="32.4844,-406.053 28.8418,-396.104 25.4851,-406.153 32.4844,-406.053"/>
</g>
<!-- fe7fcfde&#45;5734&#45;4b80&#45;8ed1&#45;956250d12bf1 -->
<g id="node6" class="node"><title>fe7fcfde&#45;5734&#45;4b80&#45;8ed1&#45;956250d12bf1</title>
<ellipse fill="none" stroke="black" cx="102.597" cy="-378" rx="27" ry="18"/>
<text text-anchor="middle" x="102.597" y="-374.3" font-family="Times,serif" font-size="14.00">*</text>
</g>
<!-- 19548f47&#45;8d69&#45;4a10&#45;b174&#45;0e33e27f11ec&#45;&gt;fe7fcfde&#45;5734&#45;4b80&#45;8ed1&#45;956250d12bf1 -->
<g id="edge5" class="edge"><title>19548f47&#45;8d69&#45;4a10&#45;b174&#45;0e33e27f11ec&#45;&gt;fe7fcfde&#45;5734&#45;4b80&#45;8ed1&#45;956250d12bf1</title>
<path fill="none" stroke="black" d="M102.597,-431.697C102.597,-423.983 102.597,-414.712 102.597,-406.112"/>
<polygon fill="black" stroke="black" points="106.098,-406.104 102.597,-396.104 99.0976,-406.104 106.098,-406.104"/>
</g>
<!-- 614cf9b0&#45;aee1&#45;4ae6&#45;9ba4&#45;d378111a9143 -->
<g id="node7" class="node"><title>614cf9b0&#45;aee1&#45;4ae6&#45;9ba4&#45;d378111a9143</title>
<ellipse fill="none" stroke="black" cx="174.597" cy="-378" rx="27" ry="18"/>
<text text-anchor="middle" x="174.597" y="-374.3" font-family="Times,serif" font-size="14.00">F</text>
</g>
<!-- 19548f47&#45;8d69&#45;4a10&#45;b174&#45;0e33e27f11ec&#45;&gt;614cf9b0&#45;aee1&#45;4ae6&#45;9ba4&#45;d378111a9143 -->
<g id="edge6" class="edge"><title>19548f47&#45;8d69&#45;4a10&#45;b174&#45;0e33e27f11ec&#45;&gt;614cf9b0&#45;aee1&#45;4ae6&#45;9ba4&#45;d378111a9143</title>
<path fill="none" stroke="black" d="M117.168,-434.834C127.347,-424.938 141.121,-411.546 152.628,-400.359"/>
<polygon fill="black" stroke="black" points="155.072,-402.865 159.802,-393.385 150.192,-397.846 155.072,-402.865"/>
</g>
<!-- cf78bf6e&#45;49b7&#45;4ca2&#45;9a67&#45;6ddfbd832418 -->
<g id="node8" class="node"><title>cf78bf6e&#45;49b7&#45;4ca2&#45;9a67&#45;6ddfbd832418</title>
<ellipse fill="none" stroke="black" cx="102.597" cy="-306" rx="27" ry="18"/>
<text text-anchor="middle" x="102.597" y="-302.3" font-family="Times,serif" font-size="14.00">(</text>
</g>
<!-- 614cf9b0&#45;aee1&#45;4ae6&#45;9ba4&#45;d378111a9143&#45;&gt;cf78bf6e&#45;49b7&#45;4ca2&#45;9a67&#45;6ddfbd832418 -->
<g id="edge7" class="edge"><title>614cf9b0&#45;aee1&#45;4ae6&#45;9ba4&#45;d378111a9143&#45;&gt;cf78bf6e&#45;49b7&#45;4ca2&#45;9a67&#45;6ddfbd832418</title>
<path fill="none" stroke="black" d="M160.027,-362.834C149.848,-352.938 136.074,-339.546 124.567,-328.359"/>
<polygon fill="black" stroke="black" points="127.003,-325.846 117.393,-321.385 122.123,-330.865 127.003,-325.846"/>
</g>
<!-- 3e274a83&#45;15a7&#45;493e&#45;85d0&#45;81e9144d6a47 -->
<g id="node9" class="node"><title>3e274a83&#45;15a7&#45;493e&#45;85d0&#45;81e9144d6a47</title>
<ellipse fill="none" stroke="black" cx="174.597" cy="-306" rx="27" ry="18"/>
<text text-anchor="middle" x="174.597" y="-302.3" font-family="Times,serif" font-size="14.00">E</text>
</g>
<!-- 614cf9b0&#45;aee1&#45;4ae6&#45;9ba4&#45;d378111a9143&#45;&gt;3e274a83&#45;15a7&#45;493e&#45;85d0&#45;81e9144d6a47 -->
<g id="edge8" class="edge"><title>614cf9b0&#45;aee1&#45;4ae6&#45;9ba4&#45;d378111a9143&#45;&gt;3e274a83&#45;15a7&#45;493e&#45;85d0&#45;81e9144d6a47</title>
<path fill="none" stroke="black" d="M174.597,-359.697C174.597,-351.983 174.597,-342.712 174.597,-334.112"/>
<polygon fill="black" stroke="black" points="178.098,-334.104 174.597,-324.104 171.098,-334.104 178.098,-334.104"/>
</g>
<!-- ef944a17&#45;812e&#45;47c4&#45;937d&#45;dace5c7a2352 -->
<g id="node18" class="node"><title>ef944a17&#45;812e&#45;47c4&#45;937d&#45;dace5c7a2352</title>
<ellipse fill="none" stroke="black" cx="246.597" cy="-306" rx="27" ry="18"/>
<text text-anchor="middle" x="246.597" y="-302.3" font-family="Times,serif" font-size="14.00">)</text>
</g>
<!-- 614cf9b0&#45;aee1&#45;4ae6&#45;9ba4&#45;d378111a9143&#45;&gt;ef944a17&#45;812e&#45;47c4&#45;937d&#45;dace5c7a2352 -->
<g id="edge17" class="edge"><title>614cf9b0&#45;aee1&#45;4ae6&#45;9ba4&#45;d378111a9143&#45;&gt;ef944a17&#45;812e&#45;47c4&#45;937d&#45;dace5c7a2352</title>
<path fill="none" stroke="black" d="M189.168,-362.834C199.347,-352.938 213.121,-339.546 224.628,-328.359"/>
<polygon fill="black" stroke="black" points="227.072,-330.865 231.802,-321.385 222.192,-325.846 227.072,-330.865"/>
</g>
<!-- ab5a48f8&#45;c9ec&#45;4db8&#45;9a2a&#45;36ee7a1c9bb5 -->
<g id="node10" class="node"><title>ab5a48f8&#45;c9ec&#45;4db8&#45;9a2a&#45;36ee7a1c9bb5</title>
<ellipse fill="none" stroke="black" cx="138.597" cy="-234" rx="27" ry="18"/>
<text text-anchor="middle" x="138.597" y="-230.3" font-family="Times,serif" font-size="14.00">T</text>
</g>
<!-- 3e274a83&#45;15a7&#45;493e&#45;85d0&#45;81e9144d6a47&#45;&gt;ab5a48f8&#45;c9ec&#45;4db8&#45;9a2a&#45;36ee7a1c9bb5 -->
<g id="edge9" class="edge"><title>3e274a83&#45;15a7&#45;493e&#45;85d0&#45;81e9144d6a47&#45;&gt;ab5a48f8&#45;c9ec&#45;4db8&#45;9a2a&#45;36ee7a1c9bb5</title>
<path fill="none" stroke="black" d="M166.248,-288.765C161.886,-280.283 156.451,-269.714 151.556,-260.197"/>
<polygon fill="black" stroke="black" points="154.588,-258.439 146.902,-251.147 148.363,-261.641 154.588,-258.439"/>
</g>
<!-- b35c758b&#45;a0d8&#45;4948&#45;bcb7&#45;c6960d74ca76 -->
<g id="node13" class="node"><title>b35c758b&#45;a0d8&#45;4948&#45;bcb7&#45;c6960d74ca76</title>
<ellipse fill="none" stroke="black" cx="210.597" cy="-234" rx="27" ry="18"/>
<text text-anchor="middle" x="210.597" y="-230.3" font-family="Times,serif" font-size="14.00">X</text>
</g>
<!-- 3e274a83&#45;15a7&#45;493e&#45;85d0&#45;81e9144d6a47&#45;&gt;b35c758b&#45;a0d8&#45;4948&#45;bcb7&#45;c6960d74ca76 -->
<g id="edge12" class="edge"><title>3e274a83&#45;15a7&#45;493e&#45;85d0&#45;81e9144d6a47&#45;&gt;b35c758b&#45;a0d8&#45;4948&#45;bcb7&#45;c6960d74ca76</title>
<path fill="none" stroke="black" d="M182.947,-288.765C187.309,-280.283 192.744,-269.714 197.639,-260.197"/>
<polygon fill="black" stroke="black" points="200.832,-261.641 202.293,-251.147 194.607,-258.439 200.832,-261.641"/>
</g>
<!-- bb6963e1&#45;97d2&#45;4b27&#45;801d&#45;04f8e10a40c4 -->
<g id="node11" class="node"><title>bb6963e1&#45;97d2&#45;4b27&#45;801d&#45;04f8e10a40c4</title>
<ellipse fill="none" stroke="black" cx="138.597" cy="-162" rx="27" ry="18"/>
<text text-anchor="middle" x="138.597" y="-158.3" font-family="Times,serif" font-size="14.00">F</text>
</g>
<!-- ab5a48f8&#45;c9ec&#45;4db8&#45;9a2a&#45;36ee7a1c9bb5&#45;&gt;bb6963e1&#45;97d2&#45;4b27&#45;801d&#45;04f8e10a40c4 -->
<g id="edge10" class="edge"><title>ab5a48f8&#45;c9ec&#45;4db8&#45;9a2a&#45;36ee7a1c9bb5&#45;&gt;bb6963e1&#45;97d2&#45;4b27&#45;801d&#45;04f8e10a40c4</title>
<path fill="none" stroke="black" d="M138.597,-215.697C138.597,-207.983 138.597,-198.712 138.597,-190.112"/>
<polygon fill="black" stroke="black" points="142.098,-190.104 138.597,-180.104 135.098,-190.104 142.098,-190.104"/>
</g>
<!-- b5ad970c&#45;8955&#45;4b63&#45;a909&#45;7a657b058df0 -->
<g id="node12" class="node"><title>b5ad970c&#45;8955&#45;4b63&#45;a909&#45;7a657b058df0</title>
<ellipse fill="none" stroke="black" cx="138.597" cy="-90" rx="28.6953" ry="18"/>
<text text-anchor="middle" x="138.597" y="-86.3" font-family="Times,serif" font-size="14.00">i {2}</text>
</g>
<!-- bb6963e1&#45;97d2&#45;4b27&#45;801d&#45;04f8e10a40c4&#45;&gt;b5ad970c&#45;8955&#45;4b63&#45;a909&#45;7a657b058df0 -->
<g id="edge11" class="edge"><title>bb6963e1&#45;97d2&#45;4b27&#45;801d&#45;04f8e10a40c4&#45;&gt;b5ad970c&#45;8955&#45;4b63&#45;a909&#45;7a657b058df0</title>
<path fill="none" stroke="black" d="M138.597,-143.697C138.597,-135.983 138.597,-126.712 138.597,-118.112"/>
<polygon fill="black" stroke="black" points="142.098,-118.104 138.597,-108.104 135.098,-118.104 142.098,-118.104"/>
</g>
<!-- 8e370fbb&#45;e4ea&#45;4e0e&#45;b6c8&#45;5eeb2b963dbe -->
<g id="node14" class="node"><title>8e370fbb&#45;e4ea&#45;4e0e&#45;b6c8&#45;5eeb2b963dbe</title>
<ellipse fill="none" stroke="black" cx="210.597" cy="-162" rx="27" ry="18"/>
<text text-anchor="middle" x="210.597" y="-158.3" font-family="Times,serif" font-size="14.00">+</text>
</g>
<!-- b35c758b&#45;a0d8&#45;4948&#45;bcb7&#45;c6960d74ca76&#45;&gt;8e370fbb&#45;e4ea&#45;4e0e&#45;b6c8&#45;5eeb2b963dbe -->
<g id="edge13" class="edge"><title>b35c758b&#45;a0d8&#45;4948&#45;bcb7&#45;c6960d74ca76&#45;&gt;8e370fbb&#45;e4ea&#45;4e0e&#45;b6c8&#45;5eeb2b963dbe</title>
<path fill="none" stroke="black" d="M210.597,-215.697C210.597,-207.983 210.597,-198.712 210.597,-190.112"/>
<polygon fill="black" stroke="black" points="214.098,-190.104 210.597,-180.104 207.098,-190.104 214.098,-190.104"/>
</g>
<!-- f9354639&#45;204a&#45;428a&#45;ad64&#45;3e8e1d053217 -->
<g id="node15" class="node"><title>f9354639&#45;204a&#45;428a&#45;ad64&#45;3e8e1d053217</title>
<ellipse fill="none" stroke="black" cx="282.597" cy="-162" rx="27" ry="18"/>
<text text-anchor="middle" x="282.597" y="-158.3" font-family="Times,serif" font-size="14.00">T</text>
</g>
<!-- b35c758b&#45;a0d8&#45;4948&#45;bcb7&#45;c6960d74ca76&#45;&gt;f9354639&#45;204a&#45;428a&#45;ad64&#45;3e8e1d053217 -->
<g id="edge14" class="edge"><title>b35c758b&#45;a0d8&#45;4948&#45;bcb7&#45;c6960d74ca76&#45;&gt;f9354639&#45;204a&#45;428a&#45;ad64&#45;3e8e1d053217</title>
<path fill="none" stroke="black" d="M225.168,-218.834C235.347,-208.938 249.121,-195.546 260.628,-184.359"/>
<polygon fill="black" stroke="black" points="263.072,-186.865 267.802,-177.385 258.192,-181.846 263.072,-186.865"/>
</g>
<!-- b6f7ba86&#45;3242&#45;4953&#45;8134&#45;8e8afacb9445 -->
<g id="node16" class="node"><title>b6f7ba86&#45;3242&#45;4953&#45;8134&#45;8e8afacb9445</title>
<ellipse fill="none" stroke="black" cx="282.597" cy="-90" rx="27" ry="18"/>
<text text-anchor="middle" x="282.597" y="-86.3" font-family="Times,serif" font-size="14.00">F</text>
</g>
<!-- f9354639&#45;204a&#45;428a&#45;ad64&#45;3e8e1d053217&#45;&gt;b6f7ba86&#45;3242&#45;4953&#45;8134&#45;8e8afacb9445 -->
<g id="edge15" class="edge"><title>f9354639&#45;204a&#45;428a&#45;ad64&#45;3e8e1d053217&#45;&gt;b6f7ba86&#45;3242&#45;4953&#45;8134&#45;8e8afacb9445</title>
<path fill="none" stroke="black" d="M282.597,-143.697C282.597,-135.983 282.597,-126.712 282.597,-118.112"/>
<polygon fill="black" stroke="black" points="286.098,-118.104 282.597,-108.104 279.098,-118.104 286.098,-118.104"/>
</g>
<!-- 1bff1a69&#45;8397&#45;49e4&#45;b7e9&#45;f42575e93292 -->
<g id="node17" class="node"><title>1bff1a69&#45;8397&#45;49e4&#45;b7e9&#45;f42575e93292</title>
<ellipse fill="none" stroke="black" cx="282.597" cy="-18" rx="28.6953" ry="18"/>
<text text-anchor="middle" x="282.597" y="-14.3" font-family="Times,serif" font-size="14.00">i {5}</text>
</g>
<!-- b6f7ba86&#45;3242&#45;4953&#45;8134&#45;8e8afacb9445&#45;&gt;1bff1a69&#45;8397&#45;49e4&#45;b7e9&#45;f42575e93292 -->
<g id="edge16" class="edge"><title>b6f7ba86&#45;3242&#45;4953&#45;8134&#45;8e8afacb9445&#45;&gt;1bff1a69&#45;8397&#45;49e4&#45;b7e9&#45;f42575e93292</title>
<path fill="none" stroke="black" d="M282.597,-71.6966C282.597,-63.9827 282.597,-54.7125 282.597,-46.1124"/>
<polygon fill="black" stroke="black" points="286.098,-46.1043 282.597,-36.1043 279.098,-46.1044 286.098,-46.1043"/>
</g>
</g>
</svg>
