<?xml version="1.0" encoding="UTF-8" standalone="no"?>
<!DOCTYPE svg PUBLIC "-//W3C//DTD SVG 1.1//EN"
 "http://www.w3.org/Graphics/SVG/1.1/DTD/svg11.dtd">
<!-- Generated by graphviz version 2.38.0 (20140413.2041)
 -->
<!-- Title: G Pages: 1 -->
<svg width="278pt" height="476pt"
 viewBox="0.00 0.00 278.00 476.00" xmlns="http://www.w3.org/2000/svg" xmlns:xlink="http://www.w3.org/1999/xlink">
<g id="graph0" class="graph" transform="scale(1 1) rotate(0) translate(4 472)">
<title>G</title>
<polygon fill="white" stroke="none" points="-4,4 -4,-472 274,-472 274,4 -4,4"/>
<!-- 2aa540a5&#45;42dd&#45;425a&#45;b82c&#45;cb321549b0f3 -->
<g id="node1" class="node"><title>2aa540a5&#45;42dd&#45;425a&#45;b82c&#45;cb321549b0f3</title>
<ellipse fill="none" stroke="black" cx="99" cy="-450" rx="27" ry="18"/>
<text text-anchor="middle" x="99" y="-446.3" font-family="Times,serif" font-size="14.00">E</text>
</g>
<!-- 7ca9a0cf&#45;c99a&#45;4cd7&#45;832a&#45;cbcb45f709a9 -->
<g id="node2" class="node"><title>7ca9a0cf&#45;c99a&#45;4cd7&#45;832a&#45;cbcb45f709a9</title>
<ellipse fill="none" stroke="black" cx="99" cy="-378" rx="27" ry="18"/>
<text text-anchor="middle" x="99" y="-374.3" font-family="Times,serif" font-size="14.00">T</text>
</g>
<!-- 2aa540a5&#45;42dd&#45;425a&#45;b82c&#45;cb321549b0f3&#45;&gt;7ca9a0cf&#45;c99a&#45;4cd7&#45;832a&#45;cbcb45f709a9 -->
<g id="edge1" class="edge"><title>2aa540a5&#45;42dd&#45;425a&#45;b82c&#45;cb321549b0f3&#45;&gt;7ca9a0cf&#45;c99a&#45;4cd7&#45;832a&#45;cbcb45f709a9</title>
<path fill="none" stroke="black" d="M99,-431.697C99,-423.983 99,-414.712 99,-406.112"/>
<polygon fill="black" stroke="black" points="102.5,-406.104 99,-396.104 95.5001,-406.104 102.5,-406.104"/>
</g>
<!-- 4fec81e8&#45;9940&#45;45a0&#45;a0a2&#45;7def5a2b41a3 -->
<g id="node3" class="node"><title>4fec81e8&#45;9940&#45;45a0&#45;a0a2&#45;7def5a2b41a3</title>
<ellipse fill="none" stroke="black" cx="27" cy="-306" rx="27" ry="18"/>
<text text-anchor="middle" x="27" y="-302.3" font-family="Times,serif" font-size="14.00">int</text>
</g>
<!-- 7ca9a0cf&#45;c99a&#45;4cd7&#45;832a&#45;cbcb45f709a9&#45;&gt;4fec81e8&#45;9940&#45;45a0&#45;a0a2&#45;7def5a2b41a3 -->
<g id="edge2" class="edge"><title>7ca9a0cf&#45;c99a&#45;4cd7&#45;832a&#45;cbcb45f709a9&#45;&gt;4fec81e8&#45;9940&#45;45a0&#45;a0a2&#45;7def5a2b41a3</title>
<path fill="none" stroke="black" d="M84.4297,-362.834C74.2501,-352.938 60.4761,-339.546 48.9694,-328.359"/>
<polygon fill="black" stroke="black" points="51.4055,-325.846 41.7957,-321.385 46.5259,-330.865 51.4055,-325.846"/>
</g>
<!-- bc634265&#45;9c82&#45;4225&#45;a4f3&#45;05fbbaa0c106 -->
<g id="node4" class="node"><title>bc634265&#45;9c82&#45;4225&#45;a4f3&#45;05fbbaa0c106</title>
<ellipse fill="none" stroke="black" cx="99" cy="-306" rx="27" ry="18"/>
<text text-anchor="middle" x="99" y="-302.3" font-family="Times,serif" font-size="14.00">*</text>
</g>
<!-- 7ca9a0cf&#45;c99a&#45;4cd7&#45;832a&#45;cbcb45f709a9&#45;&gt;bc634265&#45;9c82&#45;4225&#45;a4f3&#45;05fbbaa0c106 -->
<g id="edge3" class="edge"><title>7ca9a0cf&#45;c99a&#45;4cd7&#45;832a&#45;cbcb45f709a9&#45;&gt;bc634265&#45;9c82&#45;4225&#45;a4f3&#45;05fbbaa0c106</title>
<path fill="none" stroke="black" d="M99,-359.697C99,-351.983 99,-342.712 99,-334.112"/>
<polygon fill="black" stroke="black" points="102.5,-334.104 99,-324.104 95.5001,-334.104 102.5,-334.104"/>
</g>
<!-- 56804680&#45;a9c7&#45;45f8&#45;848f&#45;4fec327cf110 -->
<g id="node5" class="node"><title>56804680&#45;a9c7&#45;45f8&#45;848f&#45;4fec327cf110</title>
<ellipse fill="none" stroke="black" cx="171" cy="-306" rx="27" ry="18"/>
<text text-anchor="middle" x="171" y="-302.3" font-family="Times,serif" font-size="14.00">T</text>
</g>
<!-- 7ca9a0cf&#45;c99a&#45;4cd7&#45;832a&#45;cbcb45f709a9&#45;&gt;56804680&#45;a9c7&#45;45f8&#45;848f&#45;4fec327cf110 -->
<g id="edge4" class="edge"><title>7ca9a0cf&#45;c99a&#45;4cd7&#45;832a&#45;cbcb45f709a9&#45;&gt;56804680&#45;a9c7&#45;45f8&#45;848f&#45;4fec327cf110</title>
<path fill="none" stroke="black" d="M113.57,-362.834C123.75,-352.938 137.524,-339.546 149.031,-328.359"/>
<polygon fill="black" stroke="black" points="151.474,-330.865 156.204,-321.385 146.595,-325.846 151.474,-330.865"/>
</g>
<!-- 67378cbb&#45;be8a&#45;4eff&#45;957c&#45;da6e7fa829f0 -->
<g id="node6" class="node"><title>67378cbb&#45;be8a&#45;4eff&#45;957c&#45;da6e7fa829f0</title>
<ellipse fill="none" stroke="black" cx="99" cy="-234" rx="27" ry="18"/>
<text text-anchor="middle" x="99" y="-230.3" font-family="Times,serif" font-size="14.00">(</text>
</g>
<!-- 56804680&#45;a9c7&#45;45f8&#45;848f&#45;4fec327cf110&#45;&gt;67378cbb&#45;be8a&#45;4eff&#45;957c&#45;da6e7fa829f0 -->
<g id="edge5" class="edge"><title>56804680&#45;a9c7&#45;45f8&#45;848f&#45;4fec327cf110&#45;&gt;67378cbb&#45;be8a&#45;4eff&#45;957c&#45;da6e7fa829f0</title>
<path fill="none" stroke="black" d="M156.43,-290.834C146.25,-280.938 132.476,-267.546 120.969,-256.359"/>
<polygon fill="black" stroke="black" points="123.405,-253.846 113.796,-249.385 118.526,-258.865 123.405,-253.846"/>
</g>
<!-- 51108a39&#45;eb83&#45;4a0a&#45;bf05&#45;975c2867b73f -->
<g id="node7" class="node"><title>51108a39&#45;eb83&#45;4a0a&#45;bf05&#45;975c2867b73f</title>
<ellipse fill="none" stroke="black" cx="171" cy="-234" rx="27" ry="18"/>
<text text-anchor="middle" x="171" y="-230.3" font-family="Times,serif" font-size="14.00">E</text>
</g>
<!-- 56804680&#45;a9c7&#45;45f8&#45;848f&#45;4fec327cf110&#45;&gt;51108a39&#45;eb83&#45;4a0a&#45;bf05&#45;975c2867b73f -->
<g id="edge6" class="edge"><title>56804680&#45;a9c7&#45;45f8&#45;848f&#45;4fec327cf110&#45;&gt;51108a39&#45;eb83&#45;4a0a&#45;bf05&#45;975c2867b73f</title>
<path fill="none" stroke="black" d="M171,-287.697C171,-279.983 171,-270.712 171,-262.112"/>
<polygon fill="black" stroke="black" points="174.5,-262.104 171,-252.104 167.5,-262.104 174.5,-262.104"/>
</g>
<!-- 8d83f791&#45;c8ef&#45;4e9a&#45;8a00&#45;50a7364eec99 -->
<g id="node14" class="node"><title>8d83f791&#45;c8ef&#45;4e9a&#45;8a00&#45;50a7364eec99</title>
<ellipse fill="none" stroke="black" cx="243" cy="-234" rx="27" ry="18"/>
<text text-anchor="middle" x="243" y="-230.3" font-family="Times,serif" font-size="14.00">)</text>
</g>
<!-- 56804680&#45;a9c7&#45;45f8&#45;848f&#45;4fec327cf110&#45;&gt;8d83f791&#45;c8ef&#45;4e9a&#45;8a00&#45;50a7364eec99 -->
<g id="edge13" class="edge"><title>56804680&#45;a9c7&#45;45f8&#45;848f&#45;4fec327cf110&#45;&gt;8d83f791&#45;c8ef&#45;4e9a&#45;8a00&#45;50a7364eec99</title>
<path fill="none" stroke="black" d="M185.57,-290.834C195.75,-280.938 209.524,-267.546 221.031,-256.359"/>
<polygon fill="black" stroke="black" points="223.474,-258.865 228.204,-249.385 218.595,-253.846 223.474,-258.865"/>
</g>
<!-- e442d09f&#45;6ab4&#45;45a6&#45;9b74&#45;3c4ad4c2225b -->
<g id="node8" class="node"><title>e442d09f&#45;6ab4&#45;45a6&#45;9b74&#45;3c4ad4c2225b</title>
<ellipse fill="none" stroke="black" cx="99" cy="-162" rx="27" ry="18"/>
<text text-anchor="middle" x="99" y="-158.3" font-family="Times,serif" font-size="14.00">T</text>
</g>
<!-- 51108a39&#45;eb83&#45;4a0a&#45;bf05&#45;975c2867b73f&#45;&gt;e442d09f&#45;6ab4&#45;45a6&#45;9b74&#45;3c4ad4c2225b -->
<g id="edge7" class="edge"><title>51108a39&#45;eb83&#45;4a0a&#45;bf05&#45;975c2867b73f&#45;&gt;e442d09f&#45;6ab4&#45;45a6&#45;9b74&#45;3c4ad4c2225b</title>
<path fill="none" stroke="black" d="M156.43,-218.834C146.25,-208.938 132.476,-195.546 120.969,-184.359"/>
<polygon fill="black" stroke="black" points="123.405,-181.846 113.796,-177.385 118.526,-186.865 123.405,-181.846"/>
</g>
<!-- 0eaea29c&#45;6d82&#45;4fee&#45;b3ed&#45;954d9169a1a4 -->
<g id="node10" class="node"><title>0eaea29c&#45;6d82&#45;4fee&#45;b3ed&#45;954d9169a1a4</title>
<ellipse fill="none" stroke="black" cx="171" cy="-162" rx="27" ry="18"/>
<text text-anchor="middle" x="171" y="-158.3" font-family="Times,serif" font-size="14.00">+</text>
</g>
<!-- 51108a39&#45;eb83&#45;4a0a&#45;bf05&#45;975c2867b73f&#45;&gt;0eaea29c&#45;6d82&#45;4fee&#45;b3ed&#45;954d9169a1a4 -->
<g id="edge9" class="edge"><title>51108a39&#45;eb83&#45;4a0a&#45;bf05&#45;975c2867b73f&#45;&gt;0eaea29c&#45;6d82&#45;4fee&#45;b3ed&#45;954d9169a1a4</title>
<path fill="none" stroke="black" d="M171,-215.697C171,-207.983 171,-198.712 171,-190.112"/>
<polygon fill="black" stroke="black" points="174.5,-190.104 171,-180.104 167.5,-190.104 174.5,-190.104"/>
</g>
<!-- 95024816&#45;15da&#45;46f1&#45;b811&#45;fb870fc5f586 -->
<g id="node11" class="node"><title>95024816&#45;15da&#45;46f1&#45;b811&#45;fb870fc5f586</title>
<ellipse fill="none" stroke="black" cx="243" cy="-162" rx="27" ry="18"/>
<text text-anchor="middle" x="243" y="-158.3" font-family="Times,serif" font-size="14.00">E</text>
</g>
<!-- 51108a39&#45;eb83&#45;4a0a&#45;bf05&#45;975c2867b73f&#45;&gt;95024816&#45;15da&#45;46f1&#45;b811&#45;fb870fc5f586 -->
<g id="edge10" class="edge"><title>51108a39&#45;eb83&#45;4a0a&#45;bf05&#45;975c2867b73f&#45;&gt;95024816&#45;15da&#45;46f1&#45;b811&#45;fb870fc5f586</title>
<path fill="none" stroke="black" d="M185.57,-218.834C195.75,-208.938 209.524,-195.546 221.031,-184.359"/>
<polygon fill="black" stroke="black" points="223.474,-186.865 228.204,-177.385 218.595,-181.846 223.474,-186.865"/>
</g>
<!-- 989db0f6&#45;8b38&#45;4931&#45;a4cd&#45;cf07f219f009 -->
<g id="node9" class="node"><title>989db0f6&#45;8b38&#45;4931&#45;a4cd&#45;cf07f219f009</title>
<ellipse fill="none" stroke="black" cx="99" cy="-90" rx="27" ry="18"/>
<text text-anchor="middle" x="99" y="-86.3" font-family="Times,serif" font-size="14.00">int</text>
</g>
<!-- e442d09f&#45;6ab4&#45;45a6&#45;9b74&#45;3c4ad4c2225b&#45;&gt;989db0f6&#45;8b38&#45;4931&#45;a4cd&#45;cf07f219f009 -->
<g id="edge8" class="edge"><title>e442d09f&#45;6ab4&#45;45a6&#45;9b74&#45;3c4ad4c2225b&#45;&gt;989db0f6&#45;8b38&#45;4931&#45;a4cd&#45;cf07f219f009</title>
<path fill="none" stroke="black" d="M99,-143.697C99,-135.983 99,-126.712 99,-118.112"/>
<polygon fill="black" stroke="black" points="102.5,-118.104 99,-108.104 95.5001,-118.104 102.5,-118.104"/>
</g>
<!-- 439c947a&#45;e55e&#45;4bb3&#45;af6b&#45;d5434a27c45a -->
<g id="node12" class="node"><title>439c947a&#45;e55e&#45;4bb3&#45;af6b&#45;d5434a27c45a</title>
<ellipse fill="none" stroke="black" cx="243" cy="-90" rx="27" ry="18"/>
<text text-anchor="middle" x="243" y="-86.3" font-family="Times,serif" font-size="14.00">T</text>
</g>
<!-- 95024816&#45;15da&#45;46f1&#45;b811&#45;fb870fc5f586&#45;&gt;439c947a&#45;e55e&#45;4bb3&#45;af6b&#45;d5434a27c45a -->
<g id="edge11" class="edge"><title>95024816&#45;15da&#45;46f1&#45;b811&#45;fb870fc5f586&#45;&gt;439c947a&#45;e55e&#45;4bb3&#45;af6b&#45;d5434a27c45a</title>
<path fill="none" stroke="black" d="M243,-143.697C243,-135.983 243,-126.712 243,-118.112"/>
<polygon fill="black" stroke="black" points="246.5,-118.104 243,-108.104 239.5,-118.104 246.5,-118.104"/>
</g>
<!-- 6218c7d6&#45;2109&#45;4ab0&#45;ab3b&#45;554e69d9747d -->
<g id="node13" class="node"><title>6218c7d6&#45;2109&#45;4ab0&#45;ab3b&#45;554e69d9747d</title>
<ellipse fill="none" stroke="black" cx="243" cy="-18" rx="27" ry="18"/>
<text text-anchor="middle" x="243" y="-14.3" font-family="Times,serif" font-size="14.00">int</text>
</g>
<!-- 439c947a&#45;e55e&#45;4bb3&#45;af6b&#45;d5434a27c45a&#45;&gt;6218c7d6&#45;2109&#45;4ab0&#45;ab3b&#45;554e69d9747d -->
<g id="edge12" class="edge"><title>439c947a&#45;e55e&#45;4bb3&#45;af6b&#45;d5434a27c45a&#45;&gt;6218c7d6&#45;2109&#45;4ab0&#45;ab3b&#45;554e69d9747d</title>
<path fill="none" stroke="black" d="M243,-71.6966C243,-63.9827 243,-54.7125 243,-46.1124"/>
<polygon fill="black" stroke="black" points="246.5,-46.1043 243,-36.1043 239.5,-46.1044 246.5,-46.1043"/>
</g>
</g>
</svg>
