<?xml version="1.0" encoding="UTF-8" standalone="no"?>
<!DOCTYPE svg PUBLIC "-//W3C//DTD SVG 1.1//EN"
 "http://www.w3.org/Graphics/SVG/1.1/DTD/svg11.dtd">
<!-- Generated by graphviz version 2.38.0 (20140413.2041)
 -->
<!-- Title: G Pages: 1 -->
<svg width="390pt" height="620pt"
 viewBox="0.00 0.00 389.99 620.00" xmlns="http://www.w3.org/2000/svg" xmlns:xlink="http://www.w3.org/1999/xlink">
<g id="graph0" class="graph" transform="scale(1 1) rotate(0) translate(4 616)">
<title>G</title>
<polygon fill="white" stroke="none" points="-4,4 -4,-616 385.994,-616 385.994,4 -4,4"/>
<!-- d04ee41e&#45;b3ba&#45;4086&#45;9f62&#45;1a1e8c508c48 -->
<g id="node1" class="node"><title>d04ee41e&#45;b3ba&#45;4086&#45;9f62&#45;1a1e8c508c48</title>
<ellipse fill="none" stroke="black" cx="225.597" cy="-594" rx="27" ry="18"/>
<text text-anchor="middle" x="225.597" y="-590.3" font-family="Times,serif" font-size="14.00">E</text>
</g>
<!-- 9d93428d&#45;322e&#45;451a&#45;87a7&#45;47fb264fc775 -->
<g id="node2" class="node"><title>9d93428d&#45;322e&#45;451a&#45;87a7&#45;47fb264fc775</title>
<ellipse fill="none" stroke="black" cx="187.597" cy="-522" rx="27" ry="18"/>
<text text-anchor="middle" x="187.597" y="-518.3" font-family="Times,serif" font-size="14.00">T</text>
</g>
<!-- d04ee41e&#45;b3ba&#45;4086&#45;9f62&#45;1a1e8c508c48&#45;&gt;9d93428d&#45;322e&#45;451a&#45;87a7&#45;47fb264fc775 -->
<g id="edge1" class="edge"><title>d04ee41e&#45;b3ba&#45;4086&#45;9f62&#45;1a1e8c508c48&#45;&gt;9d93428d&#45;322e&#45;451a&#45;87a7&#45;47fb264fc775</title>
<path fill="none" stroke="black" d="M216.784,-576.765C212.18,-568.283 206.442,-557.714 201.276,-548.197"/>
<polygon fill="black" stroke="black" points="204.21,-546.266 196.363,-539.147 198.058,-549.606 204.21,-546.266"/>
</g>
<!-- 2a691b0d&#45;06cc&#45;4e0c&#45;b24f&#45;916cc149a514 -->
<g id="node27" class="node"><title>2a691b0d&#45;06cc&#45;4e0c&#45;b24f&#45;916cc149a514</title>
<ellipse fill="none" stroke="black" cx="263.597" cy="-522" rx="27" ry="18"/>
<text text-anchor="middle" x="263.597" y="-518.3" font-family="Times,serif" font-size="14.00">X</text>
</g>
<!-- d04ee41e&#45;b3ba&#45;4086&#45;9f62&#45;1a1e8c508c48&#45;&gt;2a691b0d&#45;06cc&#45;4e0c&#45;b24f&#45;916cc149a514 -->
<g id="edge26" class="edge"><title>d04ee41e&#45;b3ba&#45;4086&#45;9f62&#45;1a1e8c508c48&#45;&gt;2a691b0d&#45;06cc&#45;4e0c&#45;b24f&#45;916cc149a514</title>
<path fill="none" stroke="black" d="M234.411,-576.765C239.015,-568.283 244.753,-557.714 249.919,-548.197"/>
<polygon fill="black" stroke="black" points="253.137,-549.606 254.832,-539.147 246.985,-546.266 253.137,-549.606"/>
</g>
<!-- e23dce8c&#45;7931&#45;4a44&#45;8134&#45;f4618984b833 -->
<g id="node3" class="node"><title>e23dce8c&#45;7931&#45;4a44&#45;8134&#45;f4618984b833</title>
<ellipse fill="none" stroke="black" cx="114.597" cy="-450" rx="27" ry="18"/>
<text text-anchor="middle" x="114.597" y="-446.3" font-family="Times,serif" font-size="14.00">F</text>
</g>
<!-- 9d93428d&#45;322e&#45;451a&#45;87a7&#45;47fb264fc775&#45;&gt;e23dce8c&#45;7931&#45;4a44&#45;8134&#45;f4618984b833 -->
<g id="edge2" class="edge"><title>9d93428d&#45;322e&#45;451a&#45;87a7&#45;47fb264fc775&#45;&gt;e23dce8c&#45;7931&#45;4a44&#45;8134&#45;f4618984b833</title>
<path fill="none" stroke="black" d="M172.825,-506.834C162.435,-496.872 148.353,-483.369 136.64,-472.137"/>
<polygon fill="black" stroke="black" points="138.988,-469.539 129.348,-465.144 134.144,-474.592 138.988,-469.539"/>
</g>
<!-- 4bbd9eac&#45;667e&#45;4da0&#45;8365&#45;67d12eecb12b -->
<g id="node5" class="node"><title>4bbd9eac&#45;667e&#45;4da0&#45;8365&#45;67d12eecb12b</title>
<ellipse fill="none" stroke="black" cx="187.597" cy="-450" rx="27" ry="18"/>
<text text-anchor="middle" x="187.597" y="-446.3" font-family="Times,serif" font-size="14.00">Y</text>
</g>
<!-- 9d93428d&#45;322e&#45;451a&#45;87a7&#45;47fb264fc775&#45;&gt;4bbd9eac&#45;667e&#45;4da0&#45;8365&#45;67d12eecb12b -->
<g id="edge4" class="edge"><title>9d93428d&#45;322e&#45;451a&#45;87a7&#45;47fb264fc775&#45;&gt;4bbd9eac&#45;667e&#45;4da0&#45;8365&#45;67d12eecb12b</title>
<path fill="none" stroke="black" d="M187.597,-503.697C187.597,-495.983 187.597,-486.712 187.597,-478.112"/>
<polygon fill="black" stroke="black" points="191.098,-478.104 187.597,-468.104 184.098,-478.104 191.098,-478.104"/>
</g>
<!-- 3bca50f5&#45;119f&#45;4bae&#45;8ac4&#45;10578d42ef70 -->
<g id="node4" class="node"><title>3bca50f5&#45;119f&#45;4bae&#45;8ac4&#45;10578d42ef70</title>
<ellipse fill="none" stroke="black" cx="77.5975" cy="-378" rx="28.6953" ry="18"/>
<text text-anchor="middle" x="77.5975" y="-374.3" font-family="Times,serif" font-size="14.00">i {3}</text>
</g>
<!-- e23dce8c&#45;7931&#45;4a44&#45;8134&#45;f4618984b833&#45;&gt;3bca50f5&#45;119f&#45;4bae&#45;8ac4&#45;10578d42ef70 -->
<g id="edge3" class="edge"><title>e23dce8c&#45;7931&#45;4a44&#45;8134&#45;f4618984b833&#45;&gt;3bca50f5&#45;119f&#45;4bae&#45;8ac4&#45;10578d42ef70</title>
<path fill="none" stroke="black" d="M106.016,-432.765C101.597,-424.404 96.1059,-414.016 91.132,-404.606"/>
<polygon fill="black" stroke="black" points="94.1569,-402.839 86.3894,-395.633 87.9682,-406.11 94.1569,-402.839"/>
</g>
<!-- 748d0830&#45;b931&#45;4e77&#45;84f7&#45;c8f5a9a97199 -->
<g id="node6" class="node"><title>748d0830&#45;b931&#45;4e77&#45;84f7&#45;c8f5a9a97199</title>
<ellipse fill="none" stroke="black" cx="151.597" cy="-378" rx="27" ry="18"/>
<text text-anchor="middle" x="151.597" y="-374.3" font-family="Times,serif" font-size="14.00">*</text>
</g>
<!-- 4bbd9eac&#45;667e&#45;4da0&#45;8365&#45;67d12eecb12b&#45;&gt;748d0830&#45;b931&#45;4e77&#45;84f7&#45;c8f5a9a97199 -->
<g id="edge5" class="edge"><title>4bbd9eac&#45;667e&#45;4da0&#45;8365&#45;67d12eecb12b&#45;&gt;748d0830&#45;b931&#45;4e77&#45;84f7&#45;c8f5a9a97199</title>
<path fill="none" stroke="black" d="M179.248,-432.765C174.886,-424.283 169.451,-413.714 164.556,-404.197"/>
<polygon fill="black" stroke="black" points="167.588,-402.439 159.902,-395.147 161.363,-405.641 167.588,-402.439"/>
</g>
<!-- 19da9a6c&#45;093f&#45;488f&#45;8720&#45;ca71c3539b42 -->
<g id="node7" class="node"><title>19da9a6c&#45;093f&#45;488f&#45;8720&#45;ca71c3539b42</title>
<ellipse fill="none" stroke="black" cx="223.597" cy="-378" rx="27" ry="18"/>
<text text-anchor="middle" x="223.597" y="-374.3" font-family="Times,serif" font-size="14.00">F</text>
</g>
<!-- 4bbd9eac&#45;667e&#45;4da0&#45;8365&#45;67d12eecb12b&#45;&gt;19da9a6c&#45;093f&#45;488f&#45;8720&#45;ca71c3539b42 -->
<g id="edge6" class="edge"><title>4bbd9eac&#45;667e&#45;4da0&#45;8365&#45;67d12eecb12b&#45;&gt;19da9a6c&#45;093f&#45;488f&#45;8720&#45;ca71c3539b42</title>
<path fill="none" stroke="black" d="M195.947,-432.765C200.309,-424.283 205.744,-413.714 210.639,-404.197"/>
<polygon fill="black" stroke="black" points="213.832,-405.641 215.293,-395.147 207.607,-402.439 213.832,-405.641"/>
</g>
<!-- f6a12d9c&#45;c2c1&#45;4858&#45;9d1b&#45;3db5510e8b71 -->
<g id="node25" class="node"><title>f6a12d9c&#45;c2c1&#45;4858&#45;9d1b&#45;3db5510e8b71</title>
<ellipse fill="none" stroke="black" cx="336.597" cy="-378" rx="27" ry="18"/>
<text text-anchor="middle" x="336.597" y="-374.3" font-family="Times,serif" font-size="14.00">Y</text>
</g>
<!-- 4bbd9eac&#45;667e&#45;4da0&#45;8365&#45;67d12eecb12b&#45;&gt;f6a12d9c&#45;c2c1&#45;4858&#45;9d1b&#45;3db5510e8b71 -->
<g id="edge24" class="edge"><title>4bbd9eac&#45;667e&#45;4da0&#45;8365&#45;67d12eecb12b&#45;&gt;f6a12d9c&#45;c2c1&#45;4858&#45;9d1b&#45;3db5510e8b71</title>
<path fill="none" stroke="black" d="M208.913,-438.923C213.741,-436.644 218.845,-434.237 223.597,-432 251.389,-418.921 283.049,-404.076 305.772,-393.431"/>
<polygon fill="black" stroke="black" points="307.355,-396.555 314.927,-389.144 304.386,-390.216 307.355,-396.555"/>
</g>
<!-- f2e22d87&#45;38f3&#45;4dba&#45;b45d&#45;884a24999505 -->
<g id="node8" class="node"><title>f2e22d87&#45;38f3&#45;4dba&#45;b45d&#45;884a24999505</title>
<ellipse fill="none" stroke="black" cx="115.597" cy="-306" rx="27" ry="18"/>
<text text-anchor="middle" x="115.597" y="-302.3" font-family="Times,serif" font-size="14.00">(</text>
</g>
<!-- 19da9a6c&#45;093f&#45;488f&#45;8720&#45;ca71c3539b42&#45;&gt;f2e22d87&#45;38f3&#45;4dba&#45;b45d&#45;884a24999505 -->
<g id="edge7" class="edge"><title>19da9a6c&#45;093f&#45;488f&#45;8720&#45;ca71c3539b42&#45;&gt;f2e22d87&#45;38f3&#45;4dba&#45;b45d&#45;884a24999505</title>
<path fill="none" stroke="black" d="M204.785,-364.807C187.595,-353.665 161.979,-337.062 142.604,-324.504"/>
<polygon fill="black" stroke="black" points="144.489,-321.555 134.194,-319.053 140.682,-327.429 144.489,-321.555"/>
</g>
<!-- 7b08fee1&#45;3810&#45;424c&#45;90cc&#45;8e91dfdc41a0 -->
<g id="node9" class="node"><title>7b08fee1&#45;3810&#45;424c&#45;90cc&#45;8e91dfdc41a0</title>
<ellipse fill="none" stroke="black" cx="187.597" cy="-306" rx="27" ry="18"/>
<text text-anchor="middle" x="187.597" y="-302.3" font-family="Times,serif" font-size="14.00">E</text>
</g>
<!-- 19da9a6c&#45;093f&#45;488f&#45;8720&#45;ca71c3539b42&#45;&gt;7b08fee1&#45;3810&#45;424c&#45;90cc&#45;8e91dfdc41a0 -->
<g id="edge8" class="edge"><title>19da9a6c&#45;093f&#45;488f&#45;8720&#45;ca71c3539b42&#45;&gt;7b08fee1&#45;3810&#45;424c&#45;90cc&#45;8e91dfdc41a0</title>
<path fill="none" stroke="black" d="M215.248,-360.765C210.886,-352.283 205.451,-341.714 200.556,-332.197"/>
<polygon fill="black" stroke="black" points="203.588,-330.439 195.902,-323.147 197.363,-333.641 203.588,-330.439"/>
</g>
<!-- 3bd6725a&#45;bb02&#45;42bf&#45;8c96&#45;7d5e2f189f3e -->
<g id="node24" class="node"><title>3bd6725a&#45;bb02&#45;42bf&#45;8c96&#45;7d5e2f189f3e</title>
<ellipse fill="none" stroke="black" cx="259.597" cy="-306" rx="27" ry="18"/>
<text text-anchor="middle" x="259.597" y="-302.3" font-family="Times,serif" font-size="14.00">)</text>
</g>
<!-- 19da9a6c&#45;093f&#45;488f&#45;8720&#45;ca71c3539b42&#45;&gt;3bd6725a&#45;bb02&#45;42bf&#45;8c96&#45;7d5e2f189f3e -->
<g id="edge23" class="edge"><title>19da9a6c&#45;093f&#45;488f&#45;8720&#45;ca71c3539b42&#45;&gt;3bd6725a&#45;bb02&#45;42bf&#45;8c96&#45;7d5e2f189f3e</title>
<path fill="none" stroke="black" d="M231.947,-360.765C236.309,-352.283 241.744,-341.714 246.639,-332.197"/>
<polygon fill="black" stroke="black" points="249.832,-333.641 251.293,-323.147 243.607,-330.439 249.832,-333.641"/>
</g>
<!-- 3db7d29a&#45;1d66&#45;42fc&#45;a3ac&#45;607fbdb170eb -->
<g id="node10" class="node"><title>3db7d29a&#45;1d66&#45;42fc&#45;a3ac&#45;607fbdb170eb</title>
<ellipse fill="none" stroke="black" cx="111.597" cy="-234" rx="27" ry="18"/>
<text text-anchor="middle" x="111.597" y="-230.3" font-family="Times,serif" font-size="14.00">T</text>
</g>
<!-- 7b08fee1&#45;3810&#45;424c&#45;90cc&#45;8e91dfdc41a0&#45;&gt;3db7d29a&#45;1d66&#45;42fc&#45;a3ac&#45;607fbdb170eb -->
<g id="edge9" class="edge"><title>7b08fee1&#45;3810&#45;424c&#45;90cc&#45;8e91dfdc41a0&#45;&gt;3db7d29a&#45;1d66&#45;42fc&#45;a3ac&#45;607fbdb170eb</title>
<path fill="none" stroke="black" d="M172.218,-290.834C161.401,-280.872 146.741,-267.369 134.546,-256.137"/>
<polygon fill="black" stroke="black" points="136.681,-253.345 126.954,-249.144 131.939,-258.494 136.681,-253.345"/>
</g>
<!-- c5e98368&#45;9fc1&#45;476e&#45;a550&#45;c54c0bea339d -->
<g id="node15" class="node"><title>c5e98368&#45;9fc1&#45;476e&#45;a550&#45;c54c0bea339d</title>
<ellipse fill="none" stroke="black" cx="223.597" cy="-234" rx="27" ry="18"/>
<text text-anchor="middle" x="223.597" y="-230.3" font-family="Times,serif" font-size="14.00">X</text>
</g>
<!-- 7b08fee1&#45;3810&#45;424c&#45;90cc&#45;8e91dfdc41a0&#45;&gt;c5e98368&#45;9fc1&#45;476e&#45;a550&#45;c54c0bea339d -->
<g id="edge14" class="edge"><title>7b08fee1&#45;3810&#45;424c&#45;90cc&#45;8e91dfdc41a0&#45;&gt;c5e98368&#45;9fc1&#45;476e&#45;a550&#45;c54c0bea339d</title>
<path fill="none" stroke="black" d="M195.947,-288.765C200.309,-280.283 205.744,-269.714 210.639,-260.197"/>
<polygon fill="black" stroke="black" points="213.832,-261.641 215.293,-251.147 207.607,-258.439 213.832,-261.641"/>
</g>
<!-- c14ce819&#45;4b16&#45;48c6&#45;bd2d&#45;e617958fc56f -->
<g id="node11" class="node"><title>c14ce819&#45;4b16&#45;48c6&#45;bd2d&#45;e617958fc56f</title>
<ellipse fill="none" stroke="black" cx="33.5975" cy="-162" rx="27" ry="18"/>
<text text-anchor="middle" x="33.5975" y="-158.3" font-family="Times,serif" font-size="14.00">F</text>
</g>
<!-- 3db7d29a&#45;1d66&#45;42fc&#45;a3ac&#45;607fbdb170eb&#45;&gt;c14ce819&#45;4b16&#45;48c6&#45;bd2d&#45;e617958fc56f -->
<g id="edge10" class="edge"><title>3db7d29a&#45;1d66&#45;42fc&#45;a3ac&#45;607fbdb170eb&#45;&gt;c14ce819&#45;4b16&#45;48c6&#45;bd2d&#45;e617958fc56f</title>
<path fill="none" stroke="black" d="M96.1872,-219.17C84.863,-209.008 69.2885,-195.03 56.5088,-183.561"/>
<polygon fill="black" stroke="black" points="58.7559,-180.875 48.9757,-176.801 54.0805,-186.085 58.7559,-180.875"/>
</g>
<!-- 0534df2d&#45;df45&#45;424e&#45;9921&#45;8e9ba624c7f4 -->
<g id="node13" class="node"><title>0534df2d&#45;df45&#45;424e&#45;9921&#45;8e9ba624c7f4</title>
<ellipse fill="none" stroke="black" cx="111.597" cy="-162" rx="27" ry="18"/>
<text text-anchor="middle" x="111.597" y="-158.3" font-family="Times,serif" font-size="14.00">Y</text>
</g>
<!-- 3db7d29a&#45;1d66&#45;42fc&#45;a3ac&#45;607fbdb170eb&#45;&gt;0534df2d&#45;df45&#45;424e&#45;9921&#45;8e9ba624c7f4 -->
<g id="edge12" class="edge"><title>3db7d29a&#45;1d66&#45;42fc&#45;a3ac&#45;607fbdb170eb&#45;&gt;0534df2d&#45;df45&#45;424e&#45;9921&#45;8e9ba624c7f4</title>
<path fill="none" stroke="black" d="M111.597,-215.697C111.597,-207.983 111.597,-198.712 111.597,-190.112"/>
<polygon fill="black" stroke="black" points="115.098,-190.104 111.597,-180.104 108.098,-190.104 115.098,-190.104"/>
</g>
<!-- 1295992d&#45;9118&#45;4959&#45;9534&#45;a1744ecd3dc7 -->
<g id="node12" class="node"><title>1295992d&#45;9118&#45;4959&#45;9534&#45;a1744ecd3dc7</title>
<ellipse fill="none" stroke="black" cx="28.5975" cy="-90" rx="28.6953" ry="18"/>
<text text-anchor="middle" x="28.5975" y="-86.3" font-family="Times,serif" font-size="14.00">i {2}</text>
</g>
<!-- c14ce819&#45;4b16&#45;48c6&#45;bd2d&#45;e617958fc56f&#45;&gt;1295992d&#45;9118&#45;4959&#45;9534&#45;a1744ecd3dc7 -->
<g id="edge11" class="edge"><title>c14ce819&#45;4b16&#45;48c6&#45;bd2d&#45;e617958fc56f&#45;&gt;1295992d&#45;9118&#45;4959&#45;9534&#45;a1744ecd3dc7</title>
<path fill="none" stroke="black" d="M32.3615,-143.697C31.8105,-135.983 31.1484,-126.712 30.5341,-118.112"/>
<polygon fill="black" stroke="black" points="34.0229,-117.83 29.8192,-108.104 27.0407,-118.328 34.0229,-117.83"/>
</g>
<!-- 8d1b8cbe&#45;3179&#45;44c4&#45;875d&#45;05891e6f818f -->
<g id="node14" class="node"><title>8d1b8cbe&#45;3179&#45;44c4&#45;875d&#45;05891e6f818f</title>
<ellipse fill="none" stroke="black" cx="111.597" cy="-90" rx="36.2938" ry="18"/>
<text text-anchor="middle" x="111.597" y="-86.3" font-family="Times,serif" font-size="14.00">epsilon</text>
</g>
<!-- 0534df2d&#45;df45&#45;424e&#45;9921&#45;8e9ba624c7f4&#45;&gt;8d1b8cbe&#45;3179&#45;44c4&#45;875d&#45;05891e6f818f -->
<g id="edge13" class="edge"><title>0534df2d&#45;df45&#45;424e&#45;9921&#45;8e9ba624c7f4&#45;&gt;8d1b8cbe&#45;3179&#45;44c4&#45;875d&#45;05891e6f818f</title>
<path fill="none" stroke="black" d="M111.597,-143.697C111.597,-135.983 111.597,-126.712 111.597,-118.112"/>
<polygon fill="black" stroke="black" points="115.098,-118.104 111.597,-108.104 108.098,-118.104 115.098,-118.104"/>
</g>
<!-- d7146a06&#45;5f0b&#45;4ece&#45;9d89&#45;0e6b6a31312a -->
<g id="node16" class="node"><title>d7146a06&#45;5f0b&#45;4ece&#45;9d89&#45;0e6b6a31312a</title>
<ellipse fill="none" stroke="black" cx="187.597" cy="-162" rx="27" ry="18"/>
<text text-anchor="middle" x="187.597" y="-158.3" font-family="Times,serif" font-size="14.00">+</text>
</g>
<!-- c5e98368&#45;9fc1&#45;476e&#45;a550&#45;c54c0bea339d&#45;&gt;d7146a06&#45;5f0b&#45;4ece&#45;9d89&#45;0e6b6a31312a -->
<g id="edge15" class="edge"><title>c5e98368&#45;9fc1&#45;476e&#45;a550&#45;c54c0bea339d&#45;&gt;d7146a06&#45;5f0b&#45;4ece&#45;9d89&#45;0e6b6a31312a</title>
<path fill="none" stroke="black" d="M215.248,-216.765C210.886,-208.283 205.451,-197.714 200.556,-188.197"/>
<polygon fill="black" stroke="black" points="203.588,-186.439 195.902,-179.147 197.363,-189.641 203.588,-186.439"/>
</g>
<!-- f9c56c1c&#45;36c8&#45;4156&#45;8543&#45;c5fc1edf8514 -->
<g id="node17" class="node"><title>f9c56c1c&#45;36c8&#45;4156&#45;8543&#45;c5fc1edf8514</title>
<ellipse fill="none" stroke="black" cx="259.597" cy="-162" rx="27" ry="18"/>
<text text-anchor="middle" x="259.597" y="-158.3" font-family="Times,serif" font-size="14.00">T</text>
</g>
<!-- c5e98368&#45;9fc1&#45;476e&#45;a550&#45;c54c0bea339d&#45;&gt;f9c56c1c&#45;36c8&#45;4156&#45;8543&#45;c5fc1edf8514 -->
<g id="edge16" class="edge"><title>c5e98368&#45;9fc1&#45;476e&#45;a550&#45;c54c0bea339d&#45;&gt;f9c56c1c&#45;36c8&#45;4156&#45;8543&#45;c5fc1edf8514</title>
<path fill="none" stroke="black" d="M231.947,-216.765C236.309,-208.283 241.744,-197.714 246.639,-188.197"/>
<polygon fill="black" stroke="black" points="249.832,-189.641 251.293,-179.147 243.607,-186.439 249.832,-189.641"/>
</g>
<!-- a70aabd0&#45;2a24&#45;4b62&#45;b490&#45;6762cbe93ea1 -->
<g id="node22" class="node"><title>a70aabd0&#45;2a24&#45;4b62&#45;b490&#45;6762cbe93ea1</title>
<ellipse fill="none" stroke="black" cx="338.597" cy="-162" rx="27" ry="18"/>
<text text-anchor="middle" x="338.597" y="-158.3" font-family="Times,serif" font-size="14.00">X</text>
</g>
<!-- c5e98368&#45;9fc1&#45;476e&#45;a550&#45;c54c0bea339d&#45;&gt;a70aabd0&#45;2a24&#45;4b62&#45;b490&#45;6762cbe93ea1 -->
<g id="edge21" class="edge"><title>c5e98368&#45;9fc1&#45;476e&#45;a550&#45;c54c0bea339d&#45;&gt;a70aabd0&#45;2a24&#45;4b62&#45;b490&#45;6762cbe93ea1</title>
<path fill="none" stroke="black" d="M242.846,-221.284C261.338,-210.028 289.489,-192.892 310.488,-180.11"/>
<polygon fill="black" stroke="black" points="312.564,-182.944 319.286,-174.755 308.924,-176.964 312.564,-182.944"/>
</g>
<!-- 5a37924a&#45;9deb&#45;4955&#45;8afe&#45;579efff60f50 -->
<g id="node18" class="node"><title>5a37924a&#45;9deb&#45;4955&#45;8afe&#45;579efff60f50</title>
<ellipse fill="none" stroke="black" cx="192.597" cy="-90" rx="27" ry="18"/>
<text text-anchor="middle" x="192.597" y="-86.3" font-family="Times,serif" font-size="14.00">F</text>
</g>
<!-- f9c56c1c&#45;36c8&#45;4156&#45;8543&#45;c5fc1edf8514&#45;&gt;5a37924a&#45;9deb&#45;4955&#45;8afe&#45;579efff60f50 -->
<g id="edge17" class="edge"><title>f9c56c1c&#45;36c8&#45;4156&#45;8543&#45;c5fc1edf8514&#45;&gt;5a37924a&#45;9deb&#45;4955&#45;8afe&#45;579efff60f50</title>
<path fill="none" stroke="black" d="M245.715,-146.496C236.462,-136.829 224.126,-123.94 213.671,-113.017"/>
<polygon fill="black" stroke="black" points="215.905,-110.29 206.462,-105.485 210.848,-115.13 215.905,-110.29"/>
</g>
<!-- a2e72d75&#45;6445&#45;4c52&#45;87ab&#45;bde2db5eaa83 -->
<g id="node20" class="node"><title>a2e72d75&#45;6445&#45;4c52&#45;87ab&#45;bde2db5eaa83</title>
<ellipse fill="none" stroke="black" cx="264.597" cy="-90" rx="27" ry="18"/>
<text text-anchor="middle" x="264.597" y="-86.3" font-family="Times,serif" font-size="14.00">Y</text>
</g>
<!-- f9c56c1c&#45;36c8&#45;4156&#45;8543&#45;c5fc1edf8514&#45;&gt;a2e72d75&#45;6445&#45;4c52&#45;87ab&#45;bde2db5eaa83 -->
<g id="edge19" class="edge"><title>f9c56c1c&#45;36c8&#45;4156&#45;8543&#45;c5fc1edf8514&#45;&gt;a2e72d75&#45;6445&#45;4c52&#45;87ab&#45;bde2db5eaa83</title>
<path fill="none" stroke="black" d="M260.833,-143.697C261.384,-135.983 262.047,-126.712 262.661,-118.112"/>
<polygon fill="black" stroke="black" points="266.154,-118.328 263.376,-108.104 259.172,-117.83 266.154,-118.328"/>
</g>
<!-- 4cc878f2&#45;419f&#45;4c89&#45;9102&#45;bdfe02760ef5 -->
<g id="node19" class="node"><title>4cc878f2&#45;419f&#45;4c89&#45;9102&#45;bdfe02760ef5</title>
<ellipse fill="none" stroke="black" cx="186.597" cy="-18" rx="28.6953" ry="18"/>
<text text-anchor="middle" x="186.597" y="-14.3" font-family="Times,serif" font-size="14.00">i {5}</text>
</g>
<!-- 5a37924a&#45;9deb&#45;4955&#45;8afe&#45;579efff60f50&#45;&gt;4cc878f2&#45;419f&#45;4c89&#45;9102&#45;bdfe02760ef5 -->
<g id="edge18" class="edge"><title>5a37924a&#45;9deb&#45;4955&#45;8afe&#45;579efff60f50&#45;&gt;4cc878f2&#45;419f&#45;4c89&#45;9102&#45;bdfe02760ef5</title>
<path fill="none" stroke="black" d="M191.114,-71.6966C190.453,-63.9827 189.659,-54.7125 188.921,-46.1124"/>
<polygon fill="black" stroke="black" points="192.405,-45.7689 188.064,-36.1043 185.43,-46.3667 192.405,-45.7689"/>
</g>
<!-- 3d72f672&#45;c6d2&#45;4b8c&#45;9b34&#45;b101c06c2257 -->
<g id="node21" class="node"><title>3d72f672&#45;c6d2&#45;4b8c&#45;9b34&#45;b101c06c2257</title>
<ellipse fill="none" stroke="black" cx="269.597" cy="-18" rx="36.2938" ry="18"/>
<text text-anchor="middle" x="269.597" y="-14.3" font-family="Times,serif" font-size="14.00">epsilon</text>
</g>
<!-- a2e72d75&#45;6445&#45;4c52&#45;87ab&#45;bde2db5eaa83&#45;&gt;3d72f672&#45;c6d2&#45;4b8c&#45;9b34&#45;b101c06c2257 -->
<g id="edge20" class="edge"><title>a2e72d75&#45;6445&#45;4c52&#45;87ab&#45;bde2db5eaa83&#45;&gt;3d72f672&#45;c6d2&#45;4b8c&#45;9b34&#45;b101c06c2257</title>
<path fill="none" stroke="black" d="M265.833,-71.6966C266.384,-63.9827 267.047,-54.7125 267.661,-46.1124"/>
<polygon fill="black" stroke="black" points="271.154,-46.3283 268.376,-36.1043 264.172,-45.8295 271.154,-46.3283"/>
</g>
<!-- 70142efe&#45;a6a1&#45;48bc&#45;b859&#45;9052cfe70f16 -->
<g id="node23" class="node"><title>70142efe&#45;a6a1&#45;48bc&#45;b859&#45;9052cfe70f16</title>
<ellipse fill="none" stroke="black" cx="345.597" cy="-90" rx="36.2938" ry="18"/>
<text text-anchor="middle" x="345.597" y="-86.3" font-family="Times,serif" font-size="14.00">epsilon</text>
</g>
<!-- a70aabd0&#45;2a24&#45;4b62&#45;b490&#45;6762cbe93ea1&#45;&gt;70142efe&#45;a6a1&#45;48bc&#45;b859&#45;9052cfe70f16 -->
<g id="edge22" class="edge"><title>a70aabd0&#45;2a24&#45;4b62&#45;b490&#45;6762cbe93ea1&#45;&gt;70142efe&#45;a6a1&#45;48bc&#45;b859&#45;9052cfe70f16</title>
<path fill="none" stroke="black" d="M340.328,-143.697C341.099,-135.983 342.026,-126.712 342.886,-118.112"/>
<polygon fill="black" stroke="black" points="346.375,-118.403 343.887,-108.104 339.409,-117.706 346.375,-118.403"/>
</g>
<!-- 17bfc445&#45;b93b&#45;47ec&#45;bfa2&#45;db83c9667eef -->
<g id="node26" class="node"><title>17bfc445&#45;b93b&#45;47ec&#45;bfa2&#45;db83c9667eef</title>
<ellipse fill="none" stroke="black" cx="340.597" cy="-306" rx="36.2938" ry="18"/>
<text text-anchor="middle" x="340.597" y="-302.3" font-family="Times,serif" font-size="14.00">epsilon</text>
</g>
<!-- f6a12d9c&#45;c2c1&#45;4858&#45;9d1b&#45;3db5510e8b71&#45;&gt;17bfc445&#45;b93b&#45;47ec&#45;bfa2&#45;db83c9667eef -->
<g id="edge25" class="edge"><title>f6a12d9c&#45;c2c1&#45;4858&#45;9d1b&#45;3db5510e8b71&#45;&gt;17bfc445&#45;b93b&#45;47ec&#45;bfa2&#45;db83c9667eef</title>
<path fill="none" stroke="black" d="M337.586,-359.697C338.027,-351.983 338.557,-342.712 339.048,-334.112"/>
<polygon fill="black" stroke="black" points="342.544,-334.288 339.62,-324.104 335.555,-333.888 342.544,-334.288"/>
</g>
<!-- 721acd55&#45;a4c1&#45;46e8&#45;b889&#45;dd483096406f -->
<g id="node28" class="node"><title>721acd55&#45;a4c1&#45;46e8&#45;b889&#45;dd483096406f</title>
<ellipse fill="none" stroke="black" cx="268.597" cy="-450" rx="36.2938" ry="18"/>
<text text-anchor="middle" x="268.597" y="-446.3" font-family="Times,serif" font-size="14.00">epsilon</text>
</g>
<!-- 2a691b0d&#45;06cc&#45;4e0c&#45;b24f&#45;916cc149a514&#45;&gt;721acd55&#45;a4c1&#45;46e8&#45;b889&#45;dd483096406f -->
<g id="edge27" class="edge"><title>2a691b0d&#45;06cc&#45;4e0c&#45;b24f&#45;916cc149a514&#45;&gt;721acd55&#45;a4c1&#45;46e8&#45;b889&#45;dd483096406f</title>
<path fill="none" stroke="black" d="M264.833,-503.697C265.384,-495.983 266.047,-486.712 266.661,-478.112"/>
<polygon fill="black" stroke="black" points="270.154,-478.328 267.376,-468.104 263.172,-477.83 270.154,-478.328"/>
</g>
</g>
</svg>
