<?xml version="1.0" encoding="UTF-8" standalone="no"?>
<!DOCTYPE svg PUBLIC "-//W3C//DTD SVG 1.1//EN"
 "http://www.w3.org/Graphics/SVG/1.1/DTD/svg11.dtd">
<!-- Generated by graphviz version 2.38.0 (20140413.2041)
 -->
<!-- Title: G Pages: 1 -->
<svg width="390pt" height="620pt"
 viewBox="0.00 0.00 389.99 620.00" xmlns="http://www.w3.org/2000/svg" xmlns:xlink="http://www.w3.org/1999/xlink">
<g id="graph0" class="graph" transform="scale(1 1) rotate(0) translate(4 616)">
<title>G</title>
<polygon fill="white" stroke="none" points="-4,4 -4,-616 385.994,-616 385.994,4 -4,4"/>
<!-- 0c499365&#45;c06a&#45;4bbe&#45;b9c2&#45;56a0ef4ec780 -->
<g id="node1" class="node"><title>0c499365&#45;c06a&#45;4bbe&#45;b9c2&#45;56a0ef4ec780</title>
<ellipse fill="none" stroke="black" cx="225.597" cy="-594" rx="27" ry="18"/>
<text text-anchor="middle" x="225.597" y="-590.3" font-family="Times,serif" font-size="14.00">E</text>
</g>
<!-- 188fde56&#45;108d&#45;4268&#45;91eb&#45;37674bfc35cf -->
<g id="node2" class="node"><title>188fde56&#45;108d&#45;4268&#45;91eb&#45;37674bfc35cf</title>
<ellipse fill="none" stroke="black" cx="187.597" cy="-522" rx="27" ry="18"/>
<text text-anchor="middle" x="187.597" y="-518.3" font-family="Times,serif" font-size="14.00">T</text>
</g>
<!-- 0c499365&#45;c06a&#45;4bbe&#45;b9c2&#45;56a0ef4ec780&#45;&gt;188fde56&#45;108d&#45;4268&#45;91eb&#45;37674bfc35cf -->
<g id="edge1" class="edge"><title>0c499365&#45;c06a&#45;4bbe&#45;b9c2&#45;56a0ef4ec780&#45;&gt;188fde56&#45;108d&#45;4268&#45;91eb&#45;37674bfc35cf</title>
<path fill="none" stroke="black" d="M216.784,-576.765C212.18,-568.283 206.442,-557.714 201.276,-548.197"/>
<polygon fill="black" stroke="black" points="204.21,-546.266 196.363,-539.147 198.058,-549.606 204.21,-546.266"/>
</g>
<!-- 894f0a24&#45;c4b3&#45;4a8b&#45;a42a&#45;6acf7e4d0942 -->
<g id="node27" class="node"><title>894f0a24&#45;c4b3&#45;4a8b&#45;a42a&#45;6acf7e4d0942</title>
<ellipse fill="none" stroke="black" cx="263.597" cy="-522" rx="27" ry="18"/>
<text text-anchor="middle" x="263.597" y="-518.3" font-family="Times,serif" font-size="14.00">X</text>
</g>
<!-- 0c499365&#45;c06a&#45;4bbe&#45;b9c2&#45;56a0ef4ec780&#45;&gt;894f0a24&#45;c4b3&#45;4a8b&#45;a42a&#45;6acf7e4d0942 -->
<g id="edge26" class="edge"><title>0c499365&#45;c06a&#45;4bbe&#45;b9c2&#45;56a0ef4ec780&#45;&gt;894f0a24&#45;c4b3&#45;4a8b&#45;a42a&#45;6acf7e4d0942</title>
<path fill="none" stroke="black" d="M234.411,-576.765C239.015,-568.283 244.753,-557.714 249.919,-548.197"/>
<polygon fill="black" stroke="black" points="253.137,-549.606 254.832,-539.147 246.985,-546.266 253.137,-549.606"/>
</g>
<!-- f93b5596&#45;c0b4&#45;4c94&#45;803a&#45;b093b301bb5e -->
<g id="node3" class="node"><title>f93b5596&#45;c0b4&#45;4c94&#45;803a&#45;b093b301bb5e</title>
<ellipse fill="none" stroke="black" cx="114.597" cy="-450" rx="27" ry="18"/>
<text text-anchor="middle" x="114.597" y="-446.3" font-family="Times,serif" font-size="14.00">F</text>
</g>
<!-- 188fde56&#45;108d&#45;4268&#45;91eb&#45;37674bfc35cf&#45;&gt;f93b5596&#45;c0b4&#45;4c94&#45;803a&#45;b093b301bb5e -->
<g id="edge2" class="edge"><title>188fde56&#45;108d&#45;4268&#45;91eb&#45;37674bfc35cf&#45;&gt;f93b5596&#45;c0b4&#45;4c94&#45;803a&#45;b093b301bb5e</title>
<path fill="none" stroke="black" d="M172.825,-506.834C162.435,-496.872 148.353,-483.369 136.64,-472.137"/>
<polygon fill="black" stroke="black" points="138.988,-469.539 129.348,-465.144 134.144,-474.592 138.988,-469.539"/>
</g>
<!-- d6655e8d&#45;402a&#45;4ddf&#45;8be3&#45;d0632ac04371 -->
<g id="node5" class="node"><title>d6655e8d&#45;402a&#45;4ddf&#45;8be3&#45;d0632ac04371</title>
<ellipse fill="none" stroke="black" cx="187.597" cy="-450" rx="27" ry="18"/>
<text text-anchor="middle" x="187.597" y="-446.3" font-family="Times,serif" font-size="14.00">Y</text>
</g>
<!-- 188fde56&#45;108d&#45;4268&#45;91eb&#45;37674bfc35cf&#45;&gt;d6655e8d&#45;402a&#45;4ddf&#45;8be3&#45;d0632ac04371 -->
<g id="edge4" class="edge"><title>188fde56&#45;108d&#45;4268&#45;91eb&#45;37674bfc35cf&#45;&gt;d6655e8d&#45;402a&#45;4ddf&#45;8be3&#45;d0632ac04371</title>
<path fill="none" stroke="black" d="M187.597,-503.697C187.597,-495.983 187.597,-486.712 187.597,-478.112"/>
<polygon fill="black" stroke="black" points="191.098,-478.104 187.597,-468.104 184.098,-478.104 191.098,-478.104"/>
</g>
<!-- 90d8499f&#45;e4c9&#45;4e3f&#45;9fb6&#45;229cec73d70c -->
<g id="node4" class="node"><title>90d8499f&#45;e4c9&#45;4e3f&#45;9fb6&#45;229cec73d70c</title>
<ellipse fill="none" stroke="black" cx="77.5975" cy="-378" rx="28.6953" ry="18"/>
<text text-anchor="middle" x="77.5975" y="-374.3" font-family="Times,serif" font-size="14.00">i {3}</text>
</g>
<!-- f93b5596&#45;c0b4&#45;4c94&#45;803a&#45;b093b301bb5e&#45;&gt;90d8499f&#45;e4c9&#45;4e3f&#45;9fb6&#45;229cec73d70c -->
<g id="edge3" class="edge"><title>f93b5596&#45;c0b4&#45;4c94&#45;803a&#45;b093b301bb5e&#45;&gt;90d8499f&#45;e4c9&#45;4e3f&#45;9fb6&#45;229cec73d70c</title>
<path fill="none" stroke="black" d="M106.016,-432.765C101.597,-424.404 96.1059,-414.016 91.132,-404.606"/>
<polygon fill="black" stroke="black" points="94.1569,-402.839 86.3894,-395.633 87.9682,-406.11 94.1569,-402.839"/>
</g>
<!-- 5a6296ce&#45;fd45&#45;44d4&#45;8831&#45;be2cddefffeb -->
<g id="node6" class="node"><title>5a6296ce&#45;fd45&#45;44d4&#45;8831&#45;be2cddefffeb</title>
<ellipse fill="none" stroke="black" cx="151.597" cy="-378" rx="27" ry="18"/>
<text text-anchor="middle" x="151.597" y="-374.3" font-family="Times,serif" font-size="14.00">*</text>
</g>
<!-- d6655e8d&#45;402a&#45;4ddf&#45;8be3&#45;d0632ac04371&#45;&gt;5a6296ce&#45;fd45&#45;44d4&#45;8831&#45;be2cddefffeb -->
<g id="edge5" class="edge"><title>d6655e8d&#45;402a&#45;4ddf&#45;8be3&#45;d0632ac04371&#45;&gt;5a6296ce&#45;fd45&#45;44d4&#45;8831&#45;be2cddefffeb</title>
<path fill="none" stroke="black" d="M179.248,-432.765C174.886,-424.283 169.451,-413.714 164.556,-404.197"/>
<polygon fill="black" stroke="black" points="167.588,-402.439 159.902,-395.147 161.363,-405.641 167.588,-402.439"/>
</g>
<!-- 32d4933b&#45;c124&#45;4b73&#45;84ce&#45;0409e46a3bb7 -->
<g id="node7" class="node"><title>32d4933b&#45;c124&#45;4b73&#45;84ce&#45;0409e46a3bb7</title>
<ellipse fill="none" stroke="black" cx="223.597" cy="-378" rx="27" ry="18"/>
<text text-anchor="middle" x="223.597" y="-374.3" font-family="Times,serif" font-size="14.00">F</text>
</g>
<!-- d6655e8d&#45;402a&#45;4ddf&#45;8be3&#45;d0632ac04371&#45;&gt;32d4933b&#45;c124&#45;4b73&#45;84ce&#45;0409e46a3bb7 -->
<g id="edge6" class="edge"><title>d6655e8d&#45;402a&#45;4ddf&#45;8be3&#45;d0632ac04371&#45;&gt;32d4933b&#45;c124&#45;4b73&#45;84ce&#45;0409e46a3bb7</title>
<path fill="none" stroke="black" d="M195.947,-432.765C200.309,-424.283 205.744,-413.714 210.639,-404.197"/>
<polygon fill="black" stroke="black" points="213.832,-405.641 215.293,-395.147 207.607,-402.439 213.832,-405.641"/>
</g>
<!-- 07c86ac8&#45;d9dd&#45;431b&#45;8049&#45;3c536465a822 -->
<g id="node25" class="node"><title>07c86ac8&#45;d9dd&#45;431b&#45;8049&#45;3c536465a822</title>
<ellipse fill="none" stroke="black" cx="336.597" cy="-378" rx="27" ry="18"/>
<text text-anchor="middle" x="336.597" y="-374.3" font-family="Times,serif" font-size="14.00">Y</text>
</g>
<!-- d6655e8d&#45;402a&#45;4ddf&#45;8be3&#45;d0632ac04371&#45;&gt;07c86ac8&#45;d9dd&#45;431b&#45;8049&#45;3c536465a822 -->
<g id="edge24" class="edge"><title>d6655e8d&#45;402a&#45;4ddf&#45;8be3&#45;d0632ac04371&#45;&gt;07c86ac8&#45;d9dd&#45;431b&#45;8049&#45;3c536465a822</title>
<path fill="none" stroke="black" d="M208.913,-438.923C213.741,-436.644 218.845,-434.237 223.597,-432 251.389,-418.921 283.049,-404.076 305.772,-393.431"/>
<polygon fill="black" stroke="black" points="307.355,-396.555 314.927,-389.144 304.386,-390.216 307.355,-396.555"/>
</g>
<!-- ab2ba668&#45;5ab2&#45;4257&#45;b293&#45;fd30b992fea3 -->
<g id="node8" class="node"><title>ab2ba668&#45;5ab2&#45;4257&#45;b293&#45;fd30b992fea3</title>
<ellipse fill="none" stroke="black" cx="115.597" cy="-306" rx="27" ry="18"/>
<text text-anchor="middle" x="115.597" y="-302.3" font-family="Times,serif" font-size="14.00">(</text>
</g>
<!-- 32d4933b&#45;c124&#45;4b73&#45;84ce&#45;0409e46a3bb7&#45;&gt;ab2ba668&#45;5ab2&#45;4257&#45;b293&#45;fd30b992fea3 -->
<g id="edge7" class="edge"><title>32d4933b&#45;c124&#45;4b73&#45;84ce&#45;0409e46a3bb7&#45;&gt;ab2ba668&#45;5ab2&#45;4257&#45;b293&#45;fd30b992fea3</title>
<path fill="none" stroke="black" d="M204.785,-364.807C187.595,-353.665 161.979,-337.062 142.604,-324.504"/>
<polygon fill="black" stroke="black" points="144.489,-321.555 134.194,-319.053 140.682,-327.429 144.489,-321.555"/>
</g>
<!-- dbd05b4f&#45;32fd&#45;4980&#45;8fc7&#45;ceafe084861c -->
<g id="node9" class="node"><title>dbd05b4f&#45;32fd&#45;4980&#45;8fc7&#45;ceafe084861c</title>
<ellipse fill="none" stroke="black" cx="187.597" cy="-306" rx="27" ry="18"/>
<text text-anchor="middle" x="187.597" y="-302.3" font-family="Times,serif" font-size="14.00">E</text>
</g>
<!-- 32d4933b&#45;c124&#45;4b73&#45;84ce&#45;0409e46a3bb7&#45;&gt;dbd05b4f&#45;32fd&#45;4980&#45;8fc7&#45;ceafe084861c -->
<g id="edge8" class="edge"><title>32d4933b&#45;c124&#45;4b73&#45;84ce&#45;0409e46a3bb7&#45;&gt;dbd05b4f&#45;32fd&#45;4980&#45;8fc7&#45;ceafe084861c</title>
<path fill="none" stroke="black" d="M215.248,-360.765C210.886,-352.283 205.451,-341.714 200.556,-332.197"/>
<polygon fill="black" stroke="black" points="203.588,-330.439 195.902,-323.147 197.363,-333.641 203.588,-330.439"/>
</g>
<!-- f2366525&#45;4195&#45;4c6b&#45;a8d4&#45;202a067b343a -->
<g id="node24" class="node"><title>f2366525&#45;4195&#45;4c6b&#45;a8d4&#45;202a067b343a</title>
<ellipse fill="none" stroke="black" cx="259.597" cy="-306" rx="27" ry="18"/>
<text text-anchor="middle" x="259.597" y="-302.3" font-family="Times,serif" font-size="14.00">)</text>
</g>
<!-- 32d4933b&#45;c124&#45;4b73&#45;84ce&#45;0409e46a3bb7&#45;&gt;f2366525&#45;4195&#45;4c6b&#45;a8d4&#45;202a067b343a -->
<g id="edge23" class="edge"><title>32d4933b&#45;c124&#45;4b73&#45;84ce&#45;0409e46a3bb7&#45;&gt;f2366525&#45;4195&#45;4c6b&#45;a8d4&#45;202a067b343a</title>
<path fill="none" stroke="black" d="M231.947,-360.765C236.309,-352.283 241.744,-341.714 246.639,-332.197"/>
<polygon fill="black" stroke="black" points="249.832,-333.641 251.293,-323.147 243.607,-330.439 249.832,-333.641"/>
</g>
<!-- e83fef11&#45;2b87&#45;4579&#45;904d&#45;cb8c66710b4a -->
<g id="node10" class="node"><title>e83fef11&#45;2b87&#45;4579&#45;904d&#45;cb8c66710b4a</title>
<ellipse fill="none" stroke="black" cx="111.597" cy="-234" rx="27" ry="18"/>
<text text-anchor="middle" x="111.597" y="-230.3" font-family="Times,serif" font-size="14.00">T</text>
</g>
<!-- dbd05b4f&#45;32fd&#45;4980&#45;8fc7&#45;ceafe084861c&#45;&gt;e83fef11&#45;2b87&#45;4579&#45;904d&#45;cb8c66710b4a -->
<g id="edge9" class="edge"><title>dbd05b4f&#45;32fd&#45;4980&#45;8fc7&#45;ceafe084861c&#45;&gt;e83fef11&#45;2b87&#45;4579&#45;904d&#45;cb8c66710b4a</title>
<path fill="none" stroke="black" d="M172.218,-290.834C161.401,-280.872 146.741,-267.369 134.546,-256.137"/>
<polygon fill="black" stroke="black" points="136.681,-253.345 126.954,-249.144 131.939,-258.494 136.681,-253.345"/>
</g>
<!-- 2ab05555&#45;28d3&#45;4676&#45;a74d&#45;59546626ebc9 -->
<g id="node15" class="node"><title>2ab05555&#45;28d3&#45;4676&#45;a74d&#45;59546626ebc9</title>
<ellipse fill="none" stroke="black" cx="223.597" cy="-234" rx="27" ry="18"/>
<text text-anchor="middle" x="223.597" y="-230.3" font-family="Times,serif" font-size="14.00">X</text>
</g>
<!-- dbd05b4f&#45;32fd&#45;4980&#45;8fc7&#45;ceafe084861c&#45;&gt;2ab05555&#45;28d3&#45;4676&#45;a74d&#45;59546626ebc9 -->
<g id="edge14" class="edge"><title>dbd05b4f&#45;32fd&#45;4980&#45;8fc7&#45;ceafe084861c&#45;&gt;2ab05555&#45;28d3&#45;4676&#45;a74d&#45;59546626ebc9</title>
<path fill="none" stroke="black" d="M195.947,-288.765C200.309,-280.283 205.744,-269.714 210.639,-260.197"/>
<polygon fill="black" stroke="black" points="213.832,-261.641 215.293,-251.147 207.607,-258.439 213.832,-261.641"/>
</g>
<!-- 463b3a0d&#45;e9ea&#45;4555&#45;afdd&#45;621c86789d74 -->
<g id="node11" class="node"><title>463b3a0d&#45;e9ea&#45;4555&#45;afdd&#45;621c86789d74</title>
<ellipse fill="none" stroke="black" cx="33.5975" cy="-162" rx="27" ry="18"/>
<text text-anchor="middle" x="33.5975" y="-158.3" font-family="Times,serif" font-size="14.00">F</text>
</g>
<!-- e83fef11&#45;2b87&#45;4579&#45;904d&#45;cb8c66710b4a&#45;&gt;463b3a0d&#45;e9ea&#45;4555&#45;afdd&#45;621c86789d74 -->
<g id="edge10" class="edge"><title>e83fef11&#45;2b87&#45;4579&#45;904d&#45;cb8c66710b4a&#45;&gt;463b3a0d&#45;e9ea&#45;4555&#45;afdd&#45;621c86789d74</title>
<path fill="none" stroke="black" d="M96.1872,-219.17C84.863,-209.008 69.2885,-195.03 56.5088,-183.561"/>
<polygon fill="black" stroke="black" points="58.7559,-180.875 48.9757,-176.801 54.0805,-186.085 58.7559,-180.875"/>
</g>
<!-- f49d9d5d&#45;c9be&#45;48cd&#45;8f49&#45;ca30b94edd83 -->
<g id="node13" class="node"><title>f49d9d5d&#45;c9be&#45;48cd&#45;8f49&#45;ca30b94edd83</title>
<ellipse fill="none" stroke="black" cx="111.597" cy="-162" rx="27" ry="18"/>
<text text-anchor="middle" x="111.597" y="-158.3" font-family="Times,serif" font-size="14.00">Y</text>
</g>
<!-- e83fef11&#45;2b87&#45;4579&#45;904d&#45;cb8c66710b4a&#45;&gt;f49d9d5d&#45;c9be&#45;48cd&#45;8f49&#45;ca30b94edd83 -->
<g id="edge12" class="edge"><title>e83fef11&#45;2b87&#45;4579&#45;904d&#45;cb8c66710b4a&#45;&gt;f49d9d5d&#45;c9be&#45;48cd&#45;8f49&#45;ca30b94edd83</title>
<path fill="none" stroke="black" d="M111.597,-215.697C111.597,-207.983 111.597,-198.712 111.597,-190.112"/>
<polygon fill="black" stroke="black" points="115.098,-190.104 111.597,-180.104 108.098,-190.104 115.098,-190.104"/>
</g>
<!-- d3665422&#45;4fd2&#45;4098&#45;8b21&#45;10123060e6b2 -->
<g id="node12" class="node"><title>d3665422&#45;4fd2&#45;4098&#45;8b21&#45;10123060e6b2</title>
<ellipse fill="none" stroke="black" cx="28.5975" cy="-90" rx="28.6953" ry="18"/>
<text text-anchor="middle" x="28.5975" y="-86.3" font-family="Times,serif" font-size="14.00">i {2}</text>
</g>
<!-- 463b3a0d&#45;e9ea&#45;4555&#45;afdd&#45;621c86789d74&#45;&gt;d3665422&#45;4fd2&#45;4098&#45;8b21&#45;10123060e6b2 -->
<g id="edge11" class="edge"><title>463b3a0d&#45;e9ea&#45;4555&#45;afdd&#45;621c86789d74&#45;&gt;d3665422&#45;4fd2&#45;4098&#45;8b21&#45;10123060e6b2</title>
<path fill="none" stroke="black" d="M32.3615,-143.697C31.8105,-135.983 31.1484,-126.712 30.5341,-118.112"/>
<polygon fill="black" stroke="black" points="34.0229,-117.83 29.8192,-108.104 27.0407,-118.328 34.0229,-117.83"/>
</g>
<!-- 5856168e&#45;6662&#45;4ef8&#45;80df&#45;ce98ea495046 -->
<g id="node14" class="node"><title>5856168e&#45;6662&#45;4ef8&#45;80df&#45;ce98ea495046</title>
<ellipse fill="none" stroke="black" cx="111.597" cy="-90" rx="36.2938" ry="18"/>
<text text-anchor="middle" x="111.597" y="-86.3" font-family="Times,serif" font-size="14.00">epsilon</text>
</g>
<!-- f49d9d5d&#45;c9be&#45;48cd&#45;8f49&#45;ca30b94edd83&#45;&gt;5856168e&#45;6662&#45;4ef8&#45;80df&#45;ce98ea495046 -->
<g id="edge13" class="edge"><title>f49d9d5d&#45;c9be&#45;48cd&#45;8f49&#45;ca30b94edd83&#45;&gt;5856168e&#45;6662&#45;4ef8&#45;80df&#45;ce98ea495046</title>
<path fill="none" stroke="black" d="M111.597,-143.697C111.597,-135.983 111.597,-126.712 111.597,-118.112"/>
<polygon fill="black" stroke="black" points="115.098,-118.104 111.597,-108.104 108.098,-118.104 115.098,-118.104"/>
</g>
<!-- 68874228&#45;d2b7&#45;4a21&#45;a63c&#45;962edb852708 -->
<g id="node16" class="node"><title>68874228&#45;d2b7&#45;4a21&#45;a63c&#45;962edb852708</title>
<ellipse fill="none" stroke="black" cx="187.597" cy="-162" rx="27" ry="18"/>
<text text-anchor="middle" x="187.597" y="-158.3" font-family="Times,serif" font-size="14.00">+</text>
</g>
<!-- 2ab05555&#45;28d3&#45;4676&#45;a74d&#45;59546626ebc9&#45;&gt;68874228&#45;d2b7&#45;4a21&#45;a63c&#45;962edb852708 -->
<g id="edge15" class="edge"><title>2ab05555&#45;28d3&#45;4676&#45;a74d&#45;59546626ebc9&#45;&gt;68874228&#45;d2b7&#45;4a21&#45;a63c&#45;962edb852708</title>
<path fill="none" stroke="black" d="M215.248,-216.765C210.886,-208.283 205.451,-197.714 200.556,-188.197"/>
<polygon fill="black" stroke="black" points="203.588,-186.439 195.902,-179.147 197.363,-189.641 203.588,-186.439"/>
</g>
<!-- 891b120b&#45;9bce&#45;4c8f&#45;907e&#45;d06b8b932294 -->
<g id="node17" class="node"><title>891b120b&#45;9bce&#45;4c8f&#45;907e&#45;d06b8b932294</title>
<ellipse fill="none" stroke="black" cx="259.597" cy="-162" rx="27" ry="18"/>
<text text-anchor="middle" x="259.597" y="-158.3" font-family="Times,serif" font-size="14.00">T</text>
</g>
<!-- 2ab05555&#45;28d3&#45;4676&#45;a74d&#45;59546626ebc9&#45;&gt;891b120b&#45;9bce&#45;4c8f&#45;907e&#45;d06b8b932294 -->
<g id="edge16" class="edge"><title>2ab05555&#45;28d3&#45;4676&#45;a74d&#45;59546626ebc9&#45;&gt;891b120b&#45;9bce&#45;4c8f&#45;907e&#45;d06b8b932294</title>
<path fill="none" stroke="black" d="M231.947,-216.765C236.309,-208.283 241.744,-197.714 246.639,-188.197"/>
<polygon fill="black" stroke="black" points="249.832,-189.641 251.293,-179.147 243.607,-186.439 249.832,-189.641"/>
</g>
<!-- 88e9dbbc&#45;65d9&#45;4eec&#45;a042&#45;fb59f5f1c7b0 -->
<g id="node22" class="node"><title>88e9dbbc&#45;65d9&#45;4eec&#45;a042&#45;fb59f5f1c7b0</title>
<ellipse fill="none" stroke="black" cx="338.597" cy="-162" rx="27" ry="18"/>
<text text-anchor="middle" x="338.597" y="-158.3" font-family="Times,serif" font-size="14.00">X</text>
</g>
<!-- 2ab05555&#45;28d3&#45;4676&#45;a74d&#45;59546626ebc9&#45;&gt;88e9dbbc&#45;65d9&#45;4eec&#45;a042&#45;fb59f5f1c7b0 -->
<g id="edge21" class="edge"><title>2ab05555&#45;28d3&#45;4676&#45;a74d&#45;59546626ebc9&#45;&gt;88e9dbbc&#45;65d9&#45;4eec&#45;a042&#45;fb59f5f1c7b0</title>
<path fill="none" stroke="black" d="M242.846,-221.284C261.338,-210.028 289.489,-192.892 310.488,-180.11"/>
<polygon fill="black" stroke="black" points="312.564,-182.944 319.286,-174.755 308.924,-176.964 312.564,-182.944"/>
</g>
<!-- 94b12a5a&#45;41cf&#45;46b0&#45;9da3&#45;07882c856626 -->
<g id="node18" class="node"><title>94b12a5a&#45;41cf&#45;46b0&#45;9da3&#45;07882c856626</title>
<ellipse fill="none" stroke="black" cx="192.597" cy="-90" rx="27" ry="18"/>
<text text-anchor="middle" x="192.597" y="-86.3" font-family="Times,serif" font-size="14.00">F</text>
</g>
<!-- 891b120b&#45;9bce&#45;4c8f&#45;907e&#45;d06b8b932294&#45;&gt;94b12a5a&#45;41cf&#45;46b0&#45;9da3&#45;07882c856626 -->
<g id="edge17" class="edge"><title>891b120b&#45;9bce&#45;4c8f&#45;907e&#45;d06b8b932294&#45;&gt;94b12a5a&#45;41cf&#45;46b0&#45;9da3&#45;07882c856626</title>
<path fill="none" stroke="black" d="M245.715,-146.496C236.462,-136.829 224.126,-123.94 213.671,-113.017"/>
<polygon fill="black" stroke="black" points="215.905,-110.29 206.462,-105.485 210.848,-115.13 215.905,-110.29"/>
</g>
<!-- 8b33567e&#45;7086&#45;4a67&#45;8bae&#45;edd48fdaaf7e -->
<g id="node20" class="node"><title>8b33567e&#45;7086&#45;4a67&#45;8bae&#45;edd48fdaaf7e</title>
<ellipse fill="none" stroke="black" cx="264.597" cy="-90" rx="27" ry="18"/>
<text text-anchor="middle" x="264.597" y="-86.3" font-family="Times,serif" font-size="14.00">Y</text>
</g>
<!-- 891b120b&#45;9bce&#45;4c8f&#45;907e&#45;d06b8b932294&#45;&gt;8b33567e&#45;7086&#45;4a67&#45;8bae&#45;edd48fdaaf7e -->
<g id="edge19" class="edge"><title>891b120b&#45;9bce&#45;4c8f&#45;907e&#45;d06b8b932294&#45;&gt;8b33567e&#45;7086&#45;4a67&#45;8bae&#45;edd48fdaaf7e</title>
<path fill="none" stroke="black" d="M260.833,-143.697C261.384,-135.983 262.047,-126.712 262.661,-118.112"/>
<polygon fill="black" stroke="black" points="266.154,-118.328 263.376,-108.104 259.172,-117.83 266.154,-118.328"/>
</g>
<!-- 68c72a6e&#45;5f55&#45;4d83&#45;b063&#45;005c39285826 -->
<g id="node19" class="node"><title>68c72a6e&#45;5f55&#45;4d83&#45;b063&#45;005c39285826</title>
<ellipse fill="none" stroke="black" cx="186.597" cy="-18" rx="28.6953" ry="18"/>
<text text-anchor="middle" x="186.597" y="-14.3" font-family="Times,serif" font-size="14.00">i {5}</text>
</g>
<!-- 94b12a5a&#45;41cf&#45;46b0&#45;9da3&#45;07882c856626&#45;&gt;68c72a6e&#45;5f55&#45;4d83&#45;b063&#45;005c39285826 -->
<g id="edge18" class="edge"><title>94b12a5a&#45;41cf&#45;46b0&#45;9da3&#45;07882c856626&#45;&gt;68c72a6e&#45;5f55&#45;4d83&#45;b063&#45;005c39285826</title>
<path fill="none" stroke="black" d="M191.114,-71.6966C190.453,-63.9827 189.659,-54.7125 188.921,-46.1124"/>
<polygon fill="black" stroke="black" points="192.405,-45.7689 188.064,-36.1043 185.43,-46.3667 192.405,-45.7689"/>
</g>
<!-- c936d577&#45;5d1c&#45;4067&#45;9edf&#45;a38bad9d6ef8 -->
<g id="node21" class="node"><title>c936d577&#45;5d1c&#45;4067&#45;9edf&#45;a38bad9d6ef8</title>
<ellipse fill="none" stroke="black" cx="269.597" cy="-18" rx="36.2938" ry="18"/>
<text text-anchor="middle" x="269.597" y="-14.3" font-family="Times,serif" font-size="14.00">epsilon</text>
</g>
<!-- 8b33567e&#45;7086&#45;4a67&#45;8bae&#45;edd48fdaaf7e&#45;&gt;c936d577&#45;5d1c&#45;4067&#45;9edf&#45;a38bad9d6ef8 -->
<g id="edge20" class="edge"><title>8b33567e&#45;7086&#45;4a67&#45;8bae&#45;edd48fdaaf7e&#45;&gt;c936d577&#45;5d1c&#45;4067&#45;9edf&#45;a38bad9d6ef8</title>
<path fill="none" stroke="black" d="M265.833,-71.6966C266.384,-63.9827 267.047,-54.7125 267.661,-46.1124"/>
<polygon fill="black" stroke="black" points="271.154,-46.3283 268.376,-36.1043 264.172,-45.8295 271.154,-46.3283"/>
</g>
<!-- 69c7c88b&#45;bcf3&#45;4ec5&#45;9aae&#45;65ae172c1ea6 -->
<g id="node23" class="node"><title>69c7c88b&#45;bcf3&#45;4ec5&#45;9aae&#45;65ae172c1ea6</title>
<ellipse fill="none" stroke="black" cx="345.597" cy="-90" rx="36.2938" ry="18"/>
<text text-anchor="middle" x="345.597" y="-86.3" font-family="Times,serif" font-size="14.00">epsilon</text>
</g>
<!-- 88e9dbbc&#45;65d9&#45;4eec&#45;a042&#45;fb59f5f1c7b0&#45;&gt;69c7c88b&#45;bcf3&#45;4ec5&#45;9aae&#45;65ae172c1ea6 -->
<g id="edge22" class="edge"><title>88e9dbbc&#45;65d9&#45;4eec&#45;a042&#45;fb59f5f1c7b0&#45;&gt;69c7c88b&#45;bcf3&#45;4ec5&#45;9aae&#45;65ae172c1ea6</title>
<path fill="none" stroke="black" d="M340.328,-143.697C341.099,-135.983 342.026,-126.712 342.886,-118.112"/>
<polygon fill="black" stroke="black" points="346.375,-118.403 343.887,-108.104 339.409,-117.706 346.375,-118.403"/>
</g>
<!-- a0c3ee6c&#45;93e8&#45;4ad8&#45;a833&#45;d5c5ac77086f -->
<g id="node26" class="node"><title>a0c3ee6c&#45;93e8&#45;4ad8&#45;a833&#45;d5c5ac77086f</title>
<ellipse fill="none" stroke="black" cx="340.597" cy="-306" rx="36.2938" ry="18"/>
<text text-anchor="middle" x="340.597" y="-302.3" font-family="Times,serif" font-size="14.00">epsilon</text>
</g>
<!-- 07c86ac8&#45;d9dd&#45;431b&#45;8049&#45;3c536465a822&#45;&gt;a0c3ee6c&#45;93e8&#45;4ad8&#45;a833&#45;d5c5ac77086f -->
<g id="edge25" class="edge"><title>07c86ac8&#45;d9dd&#45;431b&#45;8049&#45;3c536465a822&#45;&gt;a0c3ee6c&#45;93e8&#45;4ad8&#45;a833&#45;d5c5ac77086f</title>
<path fill="none" stroke="black" d="M337.586,-359.697C338.027,-351.983 338.557,-342.712 339.048,-334.112"/>
<polygon fill="black" stroke="black" points="342.544,-334.288 339.62,-324.104 335.555,-333.888 342.544,-334.288"/>
</g>
<!-- df2a8eb5&#45;494a&#45;4158&#45;814e&#45;8cda3766b337 -->
<g id="node28" class="node"><title>df2a8eb5&#45;494a&#45;4158&#45;814e&#45;8cda3766b337</title>
<ellipse fill="none" stroke="black" cx="268.597" cy="-450" rx="36.2938" ry="18"/>
<text text-anchor="middle" x="268.597" y="-446.3" font-family="Times,serif" font-size="14.00">epsilon</text>
</g>
<!-- 894f0a24&#45;c4b3&#45;4a8b&#45;a42a&#45;6acf7e4d0942&#45;&gt;df2a8eb5&#45;494a&#45;4158&#45;814e&#45;8cda3766b337 -->
<g id="edge27" class="edge"><title>894f0a24&#45;c4b3&#45;4a8b&#45;a42a&#45;6acf7e4d0942&#45;&gt;df2a8eb5&#45;494a&#45;4158&#45;814e&#45;8cda3766b337</title>
<path fill="none" stroke="black" d="M264.833,-503.697C265.384,-495.983 266.047,-486.712 266.661,-478.112"/>
<polygon fill="black" stroke="black" points="270.154,-478.328 267.376,-468.104 263.172,-477.83 270.154,-478.328"/>
</g>
</g>
</svg>
