<?xml version="1.0" encoding="UTF-8" standalone="no"?>
<!DOCTYPE svg PUBLIC "-//W3C//DTD SVG 1.1//EN"
 "http://www.w3.org/Graphics/SVG/1.1/DTD/svg11.dtd">
<!-- Generated by graphviz version 2.38.0 (20140413.2041)
 -->
<!-- Title: G Pages: 1 -->
<svg width="177pt" height="188pt"
 viewBox="0.00 0.00 177.19 188.00" xmlns="http://www.w3.org/2000/svg" xmlns:xlink="http://www.w3.org/1999/xlink">
<g id="graph0" class="graph" transform="scale(1 1) rotate(0) translate(4 184)">
<title>G</title>
<polygon fill="white" stroke="none" points="-4,4 -4,-184 173.195,-184 173.195,4 -4,4"/>
<!-- 4705fceb&#45;b389&#45;419a&#45;a1a7&#45;c3f9771b4f6d -->
<g id="node1" class="node"><title>4705fceb&#45;b389&#45;419a&#45;a1a7&#45;c3f9771b4f6d</title>
<ellipse fill="none" stroke="black" cx="65.5975" cy="-162" rx="27" ry="18"/>
<text text-anchor="middle" x="65.5975" y="-158.3" font-family="Times,serif" font-size="14.00">*</text>
</g>
<!-- 586c19ea&#45;071d&#45;49a2&#45;9051&#45;aada87c1588a -->
<g id="node2" class="node"><title>586c19ea&#45;071d&#45;49a2&#45;9051&#45;aada87c1588a</title>
<ellipse fill="none" stroke="black" cx="28.5975" cy="-90" rx="28.6953" ry="18"/>
<text text-anchor="middle" x="28.5975" y="-86.3" font-family="Times,serif" font-size="14.00">i {3}</text>
</g>
<!-- 4705fceb&#45;b389&#45;419a&#45;a1a7&#45;c3f9771b4f6d&#45;&gt;586c19ea&#45;071d&#45;49a2&#45;9051&#45;aada87c1588a -->
<g id="edge1" class="edge"><title>4705fceb&#45;b389&#45;419a&#45;a1a7&#45;c3f9771b4f6d&#45;&gt;586c19ea&#45;071d&#45;49a2&#45;9051&#45;aada87c1588a</title>
<path fill="none" stroke="black" d="M57.0159,-144.765C52.5969,-136.404 47.1059,-126.016 42.132,-116.606"/>
<polygon fill="black" stroke="black" points="45.1569,-114.839 37.3894,-107.633 38.9682,-118.11 45.1569,-114.839"/>
</g>
<!-- d0738761&#45;c6e5&#45;4e19&#45;8ff0&#45;185544d4bac8 -->
<g id="node3" class="node"><title>d0738761&#45;c6e5&#45;4e19&#45;8ff0&#45;185544d4bac8</title>
<ellipse fill="none" stroke="black" cx="102.597" cy="-90" rx="27" ry="18"/>
<text text-anchor="middle" x="102.597" y="-86.3" font-family="Times,serif" font-size="14.00">+</text>
</g>
<!-- 4705fceb&#45;b389&#45;419a&#45;a1a7&#45;c3f9771b4f6d&#45;&gt;d0738761&#45;c6e5&#45;4e19&#45;8ff0&#45;185544d4bac8 -->
<g id="edge2" class="edge"><title>4705fceb&#45;b389&#45;419a&#45;a1a7&#45;c3f9771b4f6d&#45;&gt;d0738761&#45;c6e5&#45;4e19&#45;8ff0&#45;185544d4bac8</title>
<path fill="none" stroke="black" d="M74.179,-144.765C78.6621,-136.283 84.2484,-125.714 89.2788,-116.197"/>
<polygon fill="black" stroke="black" points="92.4837,-117.624 94.0625,-107.147 86.295,-114.353 92.4837,-117.624"/>
</g>
<!-- 26349199&#45;8158&#45;4031&#45;b038&#45;54cf6a23e843 -->
<g id="node4" class="node"><title>26349199&#45;8158&#45;4031&#45;b038&#45;54cf6a23e843</title>
<ellipse fill="none" stroke="black" cx="65.5975" cy="-18" rx="28.6953" ry="18"/>
<text text-anchor="middle" x="65.5975" y="-14.3" font-family="Times,serif" font-size="14.00">i {2}</text>
</g>
<!-- d0738761&#45;c6e5&#45;4e19&#45;8ff0&#45;185544d4bac8&#45;&gt;26349199&#45;8158&#45;4031&#45;b038&#45;54cf6a23e843 -->
<g id="edge3" class="edge"><title>d0738761&#45;c6e5&#45;4e19&#45;8ff0&#45;185544d4bac8&#45;&gt;26349199&#45;8158&#45;4031&#45;b038&#45;54cf6a23e843</title>
<path fill="none" stroke="black" d="M94.0159,-72.7646C89.5969,-64.4043 84.1059,-54.0159 79.132,-44.6059"/>
<polygon fill="black" stroke="black" points="82.1569,-42.8388 74.3894,-35.6334 75.9682,-46.11 82.1569,-42.8388"/>
</g>
<!-- 9d70926f&#45;fd75&#45;46c2&#45;905b&#45;2fb886b015ce -->
<g id="node5" class="node"><title>9d70926f&#45;fd75&#45;46c2&#45;905b&#45;2fb886b015ce</title>
<ellipse fill="none" stroke="black" cx="140.597" cy="-18" rx="28.6953" ry="18"/>
<text text-anchor="middle" x="140.597" y="-14.3" font-family="Times,serif" font-size="14.00">i {5}</text>
</g>
<!-- d0738761&#45;c6e5&#45;4e19&#45;8ff0&#45;185544d4bac8&#45;&gt;9d70926f&#45;fd75&#45;46c2&#45;905b&#45;2fb886b015ce -->
<g id="edge4" class="edge"><title>d0738761&#45;c6e5&#45;4e19&#45;8ff0&#45;185544d4bac8&#45;&gt;9d70926f&#45;fd75&#45;46c2&#45;905b&#45;2fb886b015ce</title>
<path fill="none" stroke="black" d="M111.411,-72.7646C116.015,-64.2831 121.753,-53.7144 126.919,-44.1974"/>
<polygon fill="black" stroke="black" points="130.137,-45.6057 131.832,-35.1473 123.985,-42.266 130.137,-45.6057"/>
</g>
</g>
</svg>
