<?xml version="1.0" encoding="UTF-8" standalone="no"?>
<!DOCTYPE svg PUBLIC "-//W3C//DTD SVG 1.1//EN"
 "http://www.w3.org/Graphics/SVG/1.1/DTD/svg11.dtd">
<!-- Generated by graphviz version 2.38.0 (20140413.2041)
 -->
<!-- Title: G Pages: 1 -->
<svg width="206pt" height="188pt"
 viewBox="0.00 0.00 206.00 188.00" xmlns="http://www.w3.org/2000/svg" xmlns:xlink="http://www.w3.org/1999/xlink">
<g id="graph0" class="graph" transform="scale(1 1) rotate(0) translate(4 184)">
<title>G</title>
<polygon fill="white" stroke="none" points="-4,4 -4,-184 202,-184 202,4 -4,4"/>
<!-- e8bbb1f7&#45;1244&#45;4e3c&#45;a8c6&#45;48d0856de0f6 -->
<g id="node1" class="node"><title>e8bbb1f7&#45;1244&#45;4e3c&#45;a8c6&#45;48d0856de0f6</title>
<ellipse fill="none" stroke="black" cx="99" cy="-162" rx="27" ry="18"/>
<text text-anchor="middle" x="99" y="-158.3" font-family="Times,serif" font-size="14.00">S</text>
</g>
<!-- 86c28e56&#45;654f&#45;4226&#45;91bf&#45;8ab3f91e047c -->
<g id="node2" class="node"><title>86c28e56&#45;654f&#45;4226&#45;91bf&#45;8ab3f91e047c</title>
<ellipse fill="none" stroke="black" cx="27" cy="-90" rx="27" ry="18"/>
<text text-anchor="middle" x="27" y="-86.3" font-family="Times,serif" font-size="14.00">a</text>
</g>
<!-- e8bbb1f7&#45;1244&#45;4e3c&#45;a8c6&#45;48d0856de0f6&#45;&gt;86c28e56&#45;654f&#45;4226&#45;91bf&#45;8ab3f91e047c -->
<g id="edge1" class="edge"><title>e8bbb1f7&#45;1244&#45;4e3c&#45;a8c6&#45;48d0856de0f6&#45;&gt;86c28e56&#45;654f&#45;4226&#45;91bf&#45;8ab3f91e047c</title>
<path fill="none" stroke="black" d="M84.4297,-146.834C74.2501,-136.938 60.4761,-123.546 48.9694,-112.359"/>
<polygon fill="black" stroke="black" points="51.4055,-109.846 41.7957,-105.385 46.5259,-114.865 51.4055,-109.846"/>
</g>
<!-- 7cad03c6&#45;bf7b&#45;48bc&#45;beee&#45;af059bac9876 -->
<g id="node3" class="node"><title>7cad03c6&#45;bf7b&#45;48bc&#45;beee&#45;af059bac9876</title>
<ellipse fill="none" stroke="black" cx="99" cy="-90" rx="27" ry="18"/>
<text text-anchor="middle" x="99" y="-86.3" font-family="Times,serif" font-size="14.00">S</text>
</g>
<!-- e8bbb1f7&#45;1244&#45;4e3c&#45;a8c6&#45;48d0856de0f6&#45;&gt;7cad03c6&#45;bf7b&#45;48bc&#45;beee&#45;af059bac9876 -->
<g id="edge2" class="edge"><title>e8bbb1f7&#45;1244&#45;4e3c&#45;a8c6&#45;48d0856de0f6&#45;&gt;7cad03c6&#45;bf7b&#45;48bc&#45;beee&#45;af059bac9876</title>
<path fill="none" stroke="black" d="M99,-143.697C99,-135.983 99,-126.712 99,-118.112"/>
<polygon fill="black" stroke="black" points="102.5,-118.104 99,-108.104 95.5001,-118.104 102.5,-118.104"/>
</g>
<!-- 26ad6b8e&#45;924d&#45;4701&#45;a1d8&#45;8112c8961d4a -->
<g id="node6" class="node"><title>26ad6b8e&#45;924d&#45;4701&#45;a1d8&#45;8112c8961d4a</title>
<ellipse fill="none" stroke="black" cx="171" cy="-90" rx="27" ry="18"/>
<text text-anchor="middle" x="171" y="-86.3" font-family="Times,serif" font-size="14.00">b</text>
</g>
<!-- e8bbb1f7&#45;1244&#45;4e3c&#45;a8c6&#45;48d0856de0f6&#45;&gt;26ad6b8e&#45;924d&#45;4701&#45;a1d8&#45;8112c8961d4a -->
<g id="edge5" class="edge"><title>e8bbb1f7&#45;1244&#45;4e3c&#45;a8c6&#45;48d0856de0f6&#45;&gt;26ad6b8e&#45;924d&#45;4701&#45;a1d8&#45;8112c8961d4a</title>
<path fill="none" stroke="black" d="M113.57,-146.834C123.75,-136.938 137.524,-123.546 149.031,-112.359"/>
<polygon fill="black" stroke="black" points="151.474,-114.865 156.204,-105.385 146.595,-109.846 151.474,-114.865"/>
</g>
<!-- 3447d7c1&#45;c063&#45;460f&#45;a2af&#45;26baf88354f1 -->
<g id="node4" class="node"><title>3447d7c1&#45;c063&#45;460f&#45;a2af&#45;26baf88354f1</title>
<ellipse fill="none" stroke="black" cx="63" cy="-18" rx="27" ry="18"/>
<text text-anchor="middle" x="63" y="-14.3" font-family="Times,serif" font-size="14.00">a</text>
</g>
<!-- 7cad03c6&#45;bf7b&#45;48bc&#45;beee&#45;af059bac9876&#45;&gt;3447d7c1&#45;c063&#45;460f&#45;a2af&#45;26baf88354f1 -->
<g id="edge3" class="edge"><title>7cad03c6&#45;bf7b&#45;48bc&#45;beee&#45;af059bac9876&#45;&gt;3447d7c1&#45;c063&#45;460f&#45;a2af&#45;26baf88354f1</title>
<path fill="none" stroke="black" d="M90.6504,-72.7646C86.2885,-64.2831 80.8531,-53.7144 75.9587,-44.1974"/>
<polygon fill="black" stroke="black" points="78.9904,-42.4395 71.3043,-35.1473 72.7654,-45.6409 78.9904,-42.4395"/>
</g>
<!-- a85a78be&#45;a0a4&#45;4add&#45;8c4e&#45;4af07a899fd3 -->
<g id="node5" class="node"><title>a85a78be&#45;a0a4&#45;4add&#45;8c4e&#45;4af07a899fd3</title>
<ellipse fill="none" stroke="black" cx="135" cy="-18" rx="27" ry="18"/>
<text text-anchor="middle" x="135" y="-14.3" font-family="Times,serif" font-size="14.00">b</text>
</g>
<!-- 7cad03c6&#45;bf7b&#45;48bc&#45;beee&#45;af059bac9876&#45;&gt;a85a78be&#45;a0a4&#45;4add&#45;8c4e&#45;4af07a899fd3 -->
<g id="edge4" class="edge"><title>7cad03c6&#45;bf7b&#45;48bc&#45;beee&#45;af059bac9876&#45;&gt;a85a78be&#45;a0a4&#45;4add&#45;8c4e&#45;4af07a899fd3</title>
<path fill="none" stroke="black" d="M107.35,-72.7646C111.712,-64.2831 117.147,-53.7144 122.041,-44.1974"/>
<polygon fill="black" stroke="black" points="125.235,-45.6409 126.696,-35.1473 119.01,-42.4395 125.235,-45.6409"/>
</g>
</g>
</svg>
