<?xml version="1.0" encoding="UTF-8" standalone="no"?>
<!DOCTYPE svg PUBLIC "-//W3C//DTD SVG 1.1//EN"
 "http://www.w3.org/Graphics/SVG/1.1/DTD/svg11.dtd">
<!-- Generated by graphviz version 2.38.0 (20140413.2041)
 -->
<!-- Title: G Pages: 1 -->
<svg width="319pt" height="620pt"
 viewBox="0.00 0.00 319.19 620.00" xmlns="http://www.w3.org/2000/svg" xmlns:xlink="http://www.w3.org/1999/xlink">
<g id="graph0" class="graph" transform="scale(1 1) rotate(0) translate(4 616)">
<title>G</title>
<polygon fill="white" stroke="none" points="-4,4 -4,-616 315.195,-616 315.195,4 -4,4"/>
<!-- 38017aa0&#45;f3d1&#45;4170&#45;a4d7&#45;c33b3dbfd827 -->
<g id="node1" class="node"><title>38017aa0&#45;f3d1&#45;4170&#45;a4d7&#45;c33b3dbfd827</title>
<ellipse fill="none" stroke="black" cx="65.5975" cy="-594" rx="27" ry="18"/>
<text text-anchor="middle" x="65.5975" y="-590.3" font-family="Times,serif" font-size="14.00">E</text>
</g>
<!-- 78032467&#45;ce99&#45;43cf&#45;897c&#45;344ecb70d3b2 -->
<g id="node2" class="node"><title>78032467&#45;ce99&#45;43cf&#45;897c&#45;344ecb70d3b2</title>
<ellipse fill="none" stroke="black" cx="65.5975" cy="-522" rx="27" ry="18"/>
<text text-anchor="middle" x="65.5975" y="-518.3" font-family="Times,serif" font-size="14.00">T</text>
</g>
<!-- 38017aa0&#45;f3d1&#45;4170&#45;a4d7&#45;c33b3dbfd827&#45;&gt;78032467&#45;ce99&#45;43cf&#45;897c&#45;344ecb70d3b2 -->
<g id="edge1" class="edge"><title>38017aa0&#45;f3d1&#45;4170&#45;a4d7&#45;c33b3dbfd827&#45;&gt;78032467&#45;ce99&#45;43cf&#45;897c&#45;344ecb70d3b2</title>
<path fill="none" stroke="black" d="M65.5975,-575.697C65.5975,-567.983 65.5975,-558.712 65.5975,-550.112"/>
<polygon fill="black" stroke="black" points="69.0976,-550.104 65.5975,-540.104 62.0976,-550.104 69.0976,-550.104"/>
</g>
<!-- b6371451&#45;9cf0&#45;4ec6&#45;860c&#45;0109f84062b4 -->
<g id="node3" class="node"><title>b6371451&#45;9cf0&#45;4ec6&#45;860c&#45;0109f84062b4</title>
<ellipse fill="none" stroke="black" cx="29.5975" cy="-450" rx="27" ry="18"/>
<text text-anchor="middle" x="29.5975" y="-446.3" font-family="Times,serif" font-size="14.00">F</text>
</g>
<!-- 78032467&#45;ce99&#45;43cf&#45;897c&#45;344ecb70d3b2&#45;&gt;b6371451&#45;9cf0&#45;4ec6&#45;860c&#45;0109f84062b4 -->
<g id="edge2" class="edge"><title>78032467&#45;ce99&#45;43cf&#45;897c&#45;344ecb70d3b2&#45;&gt;b6371451&#45;9cf0&#45;4ec6&#45;860c&#45;0109f84062b4</title>
<path fill="none" stroke="black" d="M57.2479,-504.765C52.8859,-496.283 47.4506,-485.714 42.5561,-476.197"/>
<polygon fill="black" stroke="black" points="45.5878,-474.439 37.9018,-467.147 39.3628,-477.641 45.5878,-474.439"/>
</g>
<!-- 4dd75bee&#45;851e&#45;4bbf&#45;a2f3&#45;ad2919a1b031 -->
<g id="node5" class="node"><title>4dd75bee&#45;851e&#45;4bbf&#45;a2f3&#45;ad2919a1b031</title>
<ellipse fill="none" stroke="black" cx="102.597" cy="-450" rx="27" ry="18"/>
<text text-anchor="middle" x="102.597" y="-446.3" font-family="Times,serif" font-size="14.00">Y</text>
</g>
<!-- 78032467&#45;ce99&#45;43cf&#45;897c&#45;344ecb70d3b2&#45;&gt;4dd75bee&#45;851e&#45;4bbf&#45;a2f3&#45;ad2919a1b031 -->
<g id="edge4" class="edge"><title>78032467&#45;ce99&#45;43cf&#45;897c&#45;344ecb70d3b2&#45;&gt;4dd75bee&#45;851e&#45;4bbf&#45;a2f3&#45;ad2919a1b031</title>
<path fill="none" stroke="black" d="M74.179,-504.765C78.6621,-496.283 84.2484,-485.714 89.2788,-476.197"/>
<polygon fill="black" stroke="black" points="92.4837,-477.624 94.0625,-467.147 86.295,-474.353 92.4837,-477.624"/>
</g>
<!-- a57563e9&#45;8619&#45;46d8&#45;b436&#45;23ace6ae09ac -->
<g id="node4" class="node"><title>a57563e9&#45;8619&#45;46d8&#45;b436&#45;23ace6ae09ac</title>
<ellipse fill="none" stroke="black" cx="28.5975" cy="-378" rx="28.6953" ry="18"/>
<text text-anchor="middle" x="28.5975" y="-374.3" font-family="Times,serif" font-size="14.00">i {3}</text>
</g>
<!-- b6371451&#45;9cf0&#45;4ec6&#45;860c&#45;0109f84062b4&#45;&gt;a57563e9&#45;8619&#45;46d8&#45;b436&#45;23ace6ae09ac -->
<g id="edge3" class="edge"><title>b6371451&#45;9cf0&#45;4ec6&#45;860c&#45;0109f84062b4&#45;&gt;a57563e9&#45;8619&#45;46d8&#45;b436&#45;23ace6ae09ac</title>
<path fill="none" stroke="black" d="M29.3503,-431.697C29.2401,-423.983 29.1076,-414.712 28.9848,-406.112"/>
<polygon fill="black" stroke="black" points="32.4844,-406.053 28.8418,-396.104 25.4851,-406.153 32.4844,-406.053"/>
</g>
<!-- 4197b755&#45;7d3c&#45;4920&#45;9352&#45;4a76ddec47fa -->
<g id="node6" class="node"><title>4197b755&#45;7d3c&#45;4920&#45;9352&#45;4a76ddec47fa</title>
<ellipse fill="none" stroke="black" cx="102.597" cy="-378" rx="27" ry="18"/>
<text text-anchor="middle" x="102.597" y="-374.3" font-family="Times,serif" font-size="14.00">*</text>
</g>
<!-- 4dd75bee&#45;851e&#45;4bbf&#45;a2f3&#45;ad2919a1b031&#45;&gt;4197b755&#45;7d3c&#45;4920&#45;9352&#45;4a76ddec47fa -->
<g id="edge5" class="edge"><title>4dd75bee&#45;851e&#45;4bbf&#45;a2f3&#45;ad2919a1b031&#45;&gt;4197b755&#45;7d3c&#45;4920&#45;9352&#45;4a76ddec47fa</title>
<path fill="none" stroke="black" d="M102.597,-431.697C102.597,-423.983 102.597,-414.712 102.597,-406.112"/>
<polygon fill="black" stroke="black" points="106.098,-406.104 102.597,-396.104 99.0976,-406.104 106.098,-406.104"/>
</g>
<!-- c5ce52c3&#45;a1a3&#45;485a&#45;af0c&#45;71f3e9bcf663 -->
<g id="node7" class="node"><title>c5ce52c3&#45;a1a3&#45;485a&#45;af0c&#45;71f3e9bcf663</title>
<ellipse fill="none" stroke="black" cx="174.597" cy="-378" rx="27" ry="18"/>
<text text-anchor="middle" x="174.597" y="-374.3" font-family="Times,serif" font-size="14.00">F</text>
</g>
<!-- 4dd75bee&#45;851e&#45;4bbf&#45;a2f3&#45;ad2919a1b031&#45;&gt;c5ce52c3&#45;a1a3&#45;485a&#45;af0c&#45;71f3e9bcf663 -->
<g id="edge6" class="edge"><title>4dd75bee&#45;851e&#45;4bbf&#45;a2f3&#45;ad2919a1b031&#45;&gt;c5ce52c3&#45;a1a3&#45;485a&#45;af0c&#45;71f3e9bcf663</title>
<path fill="none" stroke="black" d="M117.168,-434.834C127.347,-424.938 141.121,-411.546 152.628,-400.359"/>
<polygon fill="black" stroke="black" points="155.072,-402.865 159.802,-393.385 150.192,-397.846 155.072,-402.865"/>
</g>
<!-- baa1b471&#45;2e28&#45;41dc&#45;9bc3&#45;fd37435a5061 -->
<g id="node8" class="node"><title>baa1b471&#45;2e28&#45;41dc&#45;9bc3&#45;fd37435a5061</title>
<ellipse fill="none" stroke="black" cx="174.597" cy="-306" rx="27" ry="18"/>
<text text-anchor="middle" x="174.597" y="-302.3" font-family="Times,serif" font-size="14.00">E</text>
</g>
<!-- c5ce52c3&#45;a1a3&#45;485a&#45;af0c&#45;71f3e9bcf663&#45;&gt;baa1b471&#45;2e28&#45;41dc&#45;9bc3&#45;fd37435a5061 -->
<g id="edge7" class="edge"><title>c5ce52c3&#45;a1a3&#45;485a&#45;af0c&#45;71f3e9bcf663&#45;&gt;baa1b471&#45;2e28&#45;41dc&#45;9bc3&#45;fd37435a5061</title>
<path fill="none" stroke="black" d="M174.597,-359.697C174.597,-351.983 174.597,-342.712 174.597,-334.112"/>
<polygon fill="black" stroke="black" points="178.098,-334.104 174.597,-324.104 171.098,-334.104 178.098,-334.104"/>
</g>
<!-- 3433022d&#45;fa67&#45;430f&#45;b0c8&#45;d018b77977cf -->
<g id="node9" class="node"><title>3433022d&#45;fa67&#45;430f&#45;b0c8&#45;d018b77977cf</title>
<ellipse fill="none" stroke="black" cx="138.597" cy="-234" rx="27" ry="18"/>
<text text-anchor="middle" x="138.597" y="-230.3" font-family="Times,serif" font-size="14.00">T</text>
</g>
<!-- baa1b471&#45;2e28&#45;41dc&#45;9bc3&#45;fd37435a5061&#45;&gt;3433022d&#45;fa67&#45;430f&#45;b0c8&#45;d018b77977cf -->
<g id="edge8" class="edge"><title>baa1b471&#45;2e28&#45;41dc&#45;9bc3&#45;fd37435a5061&#45;&gt;3433022d&#45;fa67&#45;430f&#45;b0c8&#45;d018b77977cf</title>
<path fill="none" stroke="black" d="M166.248,-288.765C161.886,-280.283 156.451,-269.714 151.556,-260.197"/>
<polygon fill="black" stroke="black" points="154.588,-258.439 146.902,-251.147 148.363,-261.641 154.588,-258.439"/>
</g>
<!-- 3bb0063b&#45;2a7b&#45;4a93&#45;9489&#45;db4eca040208 -->
<g id="node12" class="node"><title>3bb0063b&#45;2a7b&#45;4a93&#45;9489&#45;db4eca040208</title>
<ellipse fill="none" stroke="black" cx="210.597" cy="-234" rx="27" ry="18"/>
<text text-anchor="middle" x="210.597" y="-230.3" font-family="Times,serif" font-size="14.00">X</text>
</g>
<!-- baa1b471&#45;2e28&#45;41dc&#45;9bc3&#45;fd37435a5061&#45;&gt;3bb0063b&#45;2a7b&#45;4a93&#45;9489&#45;db4eca040208 -->
<g id="edge11" class="edge"><title>baa1b471&#45;2e28&#45;41dc&#45;9bc3&#45;fd37435a5061&#45;&gt;3bb0063b&#45;2a7b&#45;4a93&#45;9489&#45;db4eca040208</title>
<path fill="none" stroke="black" d="M182.947,-288.765C187.309,-280.283 192.744,-269.714 197.639,-260.197"/>
<polygon fill="black" stroke="black" points="200.832,-261.641 202.293,-251.147 194.607,-258.439 200.832,-261.641"/>
</g>
<!-- 153c88b6&#45;cf20&#45;4eb4&#45;93b6&#45;1097e131955b -->
<g id="node10" class="node"><title>153c88b6&#45;cf20&#45;4eb4&#45;93b6&#45;1097e131955b</title>
<ellipse fill="none" stroke="black" cx="138.597" cy="-162" rx="27" ry="18"/>
<text text-anchor="middle" x="138.597" y="-158.3" font-family="Times,serif" font-size="14.00">F</text>
</g>
<!-- 3433022d&#45;fa67&#45;430f&#45;b0c8&#45;d018b77977cf&#45;&gt;153c88b6&#45;cf20&#45;4eb4&#45;93b6&#45;1097e131955b -->
<g id="edge9" class="edge"><title>3433022d&#45;fa67&#45;430f&#45;b0c8&#45;d018b77977cf&#45;&gt;153c88b6&#45;cf20&#45;4eb4&#45;93b6&#45;1097e131955b</title>
<path fill="none" stroke="black" d="M138.597,-215.697C138.597,-207.983 138.597,-198.712 138.597,-190.112"/>
<polygon fill="black" stroke="black" points="142.098,-190.104 138.597,-180.104 135.098,-190.104 142.098,-190.104"/>
</g>
<!-- 3d999e1f&#45;cda2&#45;416e&#45;8b75&#45;cc6e650cddbc -->
<g id="node11" class="node"><title>3d999e1f&#45;cda2&#45;416e&#45;8b75&#45;cc6e650cddbc</title>
<ellipse fill="none" stroke="black" cx="138.597" cy="-90" rx="28.6953" ry="18"/>
<text text-anchor="middle" x="138.597" y="-86.3" font-family="Times,serif" font-size="14.00">i {2}</text>
</g>
<!-- 153c88b6&#45;cf20&#45;4eb4&#45;93b6&#45;1097e131955b&#45;&gt;3d999e1f&#45;cda2&#45;416e&#45;8b75&#45;cc6e650cddbc -->
<g id="edge10" class="edge"><title>153c88b6&#45;cf20&#45;4eb4&#45;93b6&#45;1097e131955b&#45;&gt;3d999e1f&#45;cda2&#45;416e&#45;8b75&#45;cc6e650cddbc</title>
<path fill="none" stroke="black" d="M138.597,-143.697C138.597,-135.983 138.597,-126.712 138.597,-118.112"/>
<polygon fill="black" stroke="black" points="142.098,-118.104 138.597,-108.104 135.098,-118.104 142.098,-118.104"/>
</g>
<!-- 32265111&#45;4f4b&#45;48d3&#45;8967&#45;20e753de64aa -->
<g id="node13" class="node"><title>32265111&#45;4f4b&#45;48d3&#45;8967&#45;20e753de64aa</title>
<ellipse fill="none" stroke="black" cx="210.597" cy="-162" rx="27" ry="18"/>
<text text-anchor="middle" x="210.597" y="-158.3" font-family="Times,serif" font-size="14.00">+</text>
</g>
<!-- 3bb0063b&#45;2a7b&#45;4a93&#45;9489&#45;db4eca040208&#45;&gt;32265111&#45;4f4b&#45;48d3&#45;8967&#45;20e753de64aa -->
<g id="edge12" class="edge"><title>3bb0063b&#45;2a7b&#45;4a93&#45;9489&#45;db4eca040208&#45;&gt;32265111&#45;4f4b&#45;48d3&#45;8967&#45;20e753de64aa</title>
<path fill="none" stroke="black" d="M210.597,-215.697C210.597,-207.983 210.597,-198.712 210.597,-190.112"/>
<polygon fill="black" stroke="black" points="214.098,-190.104 210.597,-180.104 207.098,-190.104 214.098,-190.104"/>
</g>
<!-- 6d403d3e&#45;7917&#45;4446&#45;9bd2&#45;a17ee9f83784 -->
<g id="node14" class="node"><title>6d403d3e&#45;7917&#45;4446&#45;9bd2&#45;a17ee9f83784</title>
<ellipse fill="none" stroke="black" cx="282.597" cy="-162" rx="27" ry="18"/>
<text text-anchor="middle" x="282.597" y="-158.3" font-family="Times,serif" font-size="14.00">T</text>
</g>
<!-- 3bb0063b&#45;2a7b&#45;4a93&#45;9489&#45;db4eca040208&#45;&gt;6d403d3e&#45;7917&#45;4446&#45;9bd2&#45;a17ee9f83784 -->
<g id="edge13" class="edge"><title>3bb0063b&#45;2a7b&#45;4a93&#45;9489&#45;db4eca040208&#45;&gt;6d403d3e&#45;7917&#45;4446&#45;9bd2&#45;a17ee9f83784</title>
<path fill="none" stroke="black" d="M225.168,-218.834C235.347,-208.938 249.121,-195.546 260.628,-184.359"/>
<polygon fill="black" stroke="black" points="263.072,-186.865 267.802,-177.385 258.192,-181.846 263.072,-186.865"/>
</g>
<!-- 0da29260&#45;e909&#45;4834&#45;9a01&#45;ce37f0bb1bbe -->
<g id="node15" class="node"><title>0da29260&#45;e909&#45;4834&#45;9a01&#45;ce37f0bb1bbe</title>
<ellipse fill="none" stroke="black" cx="282.597" cy="-90" rx="27" ry="18"/>
<text text-anchor="middle" x="282.597" y="-86.3" font-family="Times,serif" font-size="14.00">F</text>
</g>
<!-- 6d403d3e&#45;7917&#45;4446&#45;9bd2&#45;a17ee9f83784&#45;&gt;0da29260&#45;e909&#45;4834&#45;9a01&#45;ce37f0bb1bbe -->
<g id="edge14" class="edge"><title>6d403d3e&#45;7917&#45;4446&#45;9bd2&#45;a17ee9f83784&#45;&gt;0da29260&#45;e909&#45;4834&#45;9a01&#45;ce37f0bb1bbe</title>
<path fill="none" stroke="black" d="M282.597,-143.697C282.597,-135.983 282.597,-126.712 282.597,-118.112"/>
<polygon fill="black" stroke="black" points="286.098,-118.104 282.597,-108.104 279.098,-118.104 286.098,-118.104"/>
</g>
<!-- f423989c&#45;1df3&#45;49c0&#45;9dc8&#45;8ed5d232e85a -->
<g id="node16" class="node"><title>f423989c&#45;1df3&#45;49c0&#45;9dc8&#45;8ed5d232e85a</title>
<ellipse fill="none" stroke="black" cx="282.597" cy="-18" rx="28.6953" ry="18"/>
<text text-anchor="middle" x="282.597" y="-14.3" font-family="Times,serif" font-size="14.00">i {5}</text>
</g>
<!-- 0da29260&#45;e909&#45;4834&#45;9a01&#45;ce37f0bb1bbe&#45;&gt;f423989c&#45;1df3&#45;49c0&#45;9dc8&#45;8ed5d232e85a -->
<g id="edge15" class="edge"><title>0da29260&#45;e909&#45;4834&#45;9a01&#45;ce37f0bb1bbe&#45;&gt;f423989c&#45;1df3&#45;49c0&#45;9dc8&#45;8ed5d232e85a</title>
<path fill="none" stroke="black" d="M282.597,-71.6966C282.597,-63.9827 282.597,-54.7125 282.597,-46.1124"/>
<polygon fill="black" stroke="black" points="286.098,-46.1043 282.597,-36.1043 279.098,-46.1044 286.098,-46.1043"/>
</g>
</g>
</svg>
