<?xml version="1.0" encoding="UTF-8" standalone="no"?>
<!DOCTYPE svg PUBLIC "-//W3C//DTD SVG 1.1//EN"
 "http://www.w3.org/Graphics/SVG/1.1/DTD/svg11.dtd">
<!-- Generated by graphviz version 2.38.0 (20140413.2041)
 -->
<!-- Title: G Pages: 1 -->
<svg width="467pt" height="332pt"
 viewBox="0.00 0.00 467.40 332.00" xmlns="http://www.w3.org/2000/svg" xmlns:xlink="http://www.w3.org/1999/xlink">
<g id="graph0" class="graph" transform="scale(1 1) rotate(0) translate(4 328)">
<title>G</title>
<polygon fill="white" stroke="none" points="-4,4 -4,-328 463.397,-328 463.397,4 -4,4"/>
<!-- 7b606306&#45;db8b&#45;4499&#45;8c96&#45;5a759fa7f2d9 -->
<g id="node1" class="node"><title>7b606306&#45;db8b&#45;4499&#45;8c96&#45;5a759fa7f2d9</title>
<ellipse fill="none" stroke="black" cx="207" cy="-306" rx="27" ry="18"/>
<text text-anchor="middle" x="207" y="-302.3" font-family="Times,serif" font-size="14.00">S</text>
</g>
<!-- bd66640e&#45;79d6&#45;4d3f&#45;9f69&#45;1ec334bdf116 -->
<g id="node2" class="node"><title>bd66640e&#45;79d6&#45;4d3f&#45;9f69&#45;1ec334bdf116</title>
<ellipse fill="none" stroke="black" cx="99" cy="-234" rx="27" ry="18"/>
<text text-anchor="middle" x="99" y="-230.3" font-family="Times,serif" font-size="14.00">A</text>
</g>
<!-- 7b606306&#45;db8b&#45;4499&#45;8c96&#45;5a759fa7f2d9&#45;&gt;bd66640e&#45;79d6&#45;4d3f&#45;9f69&#45;1ec334bdf116 -->
<g id="edge1" class="edge"><title>7b606306&#45;db8b&#45;4499&#45;8c96&#45;5a759fa7f2d9&#45;&gt;bd66640e&#45;79d6&#45;4d3f&#45;9f69&#45;1ec334bdf116</title>
<path fill="none" stroke="black" d="M188.188,-292.807C170.998,-281.665 145.382,-265.062 126.007,-252.504"/>
<polygon fill="black" stroke="black" points="127.892,-249.555 117.597,-247.053 124.084,-255.429 127.892,-249.555"/>
</g>
<!-- a7f802d8&#45;0147&#45;4466&#45;b219&#45;38390779a137 -->
<g id="node8" class="node"><title>a7f802d8&#45;0147&#45;4466&#45;b219&#45;38390779a137</title>
<ellipse fill="none" stroke="black" cx="207" cy="-234" rx="27" ry="18"/>
<text text-anchor="middle" x="207" y="-230.3" font-family="Times,serif" font-size="14.00">B</text>
</g>
<!-- 7b606306&#45;db8b&#45;4499&#45;8c96&#45;5a759fa7f2d9&#45;&gt;a7f802d8&#45;0147&#45;4466&#45;b219&#45;38390779a137 -->
<g id="edge7" class="edge"><title>7b606306&#45;db8b&#45;4499&#45;8c96&#45;5a759fa7f2d9&#45;&gt;a7f802d8&#45;0147&#45;4466&#45;b219&#45;38390779a137</title>
<path fill="none" stroke="black" d="M207,-287.697C207,-279.983 207,-270.712 207,-262.112"/>
<polygon fill="black" stroke="black" points="210.5,-262.104 207,-252.104 203.5,-262.104 210.5,-262.104"/>
</g>
<!-- 8664440c&#45;ab8d&#45;4a8d&#45;8b12&#45;5c423c214828 -->
<g id="node14" class="node"><title>8664440c&#45;ab8d&#45;4a8d&#45;8b12&#45;5c423c214828</title>
<ellipse fill="none" stroke="black" cx="315" cy="-234" rx="27" ry="18"/>
<text text-anchor="middle" x="315" y="-230.3" font-family="Times,serif" font-size="14.00">C</text>
</g>
<!-- 7b606306&#45;db8b&#45;4499&#45;8c96&#45;5a759fa7f2d9&#45;&gt;8664440c&#45;ab8d&#45;4a8d&#45;8b12&#45;5c423c214828 -->
<g id="edge13" class="edge"><title>7b606306&#45;db8b&#45;4499&#45;8c96&#45;5a759fa7f2d9&#45;&gt;8664440c&#45;ab8d&#45;4a8d&#45;8b12&#45;5c423c214828</title>
<path fill="none" stroke="black" d="M225.812,-292.807C243.002,-281.665 268.618,-265.062 287.993,-252.504"/>
<polygon fill="black" stroke="black" points="289.916,-255.429 296.403,-247.053 286.108,-249.555 289.916,-255.429"/>
</g>
<!-- dd440cb6&#45;b484&#45;4998&#45;8658&#45;aa4fe8e5fdc2 -->
<g id="node3" class="node"><title>dd440cb6&#45;b484&#45;4998&#45;8658&#45;aa4fe8e5fdc2</title>
<ellipse fill="none" stroke="black" cx="27" cy="-162" rx="27" ry="18"/>
<text text-anchor="middle" x="27" y="-158.3" font-family="Times,serif" font-size="14.00">a</text>
</g>
<!-- bd66640e&#45;79d6&#45;4d3f&#45;9f69&#45;1ec334bdf116&#45;&gt;dd440cb6&#45;b484&#45;4998&#45;8658&#45;aa4fe8e5fdc2 -->
<g id="edge2" class="edge"><title>bd66640e&#45;79d6&#45;4d3f&#45;9f69&#45;1ec334bdf116&#45;&gt;dd440cb6&#45;b484&#45;4998&#45;8658&#45;aa4fe8e5fdc2</title>
<path fill="none" stroke="black" d="M84.4297,-218.834C74.2501,-208.938 60.4761,-195.546 48.9694,-184.359"/>
<polygon fill="black" stroke="black" points="51.4055,-181.846 41.7957,-177.385 46.5259,-186.865 51.4055,-181.846"/>
</g>
<!-- 5381507d&#45;be22&#45;4972&#45;8bb5&#45;583eb212d95b -->
<g id="node4" class="node"><title>5381507d&#45;be22&#45;4972&#45;8bb5&#45;583eb212d95b</title>
<ellipse fill="none" stroke="black" cx="99" cy="-162" rx="27" ry="18"/>
<text text-anchor="middle" x="99" y="-158.3" font-family="Times,serif" font-size="14.00">A</text>
</g>
<!-- bd66640e&#45;79d6&#45;4d3f&#45;9f69&#45;1ec334bdf116&#45;&gt;5381507d&#45;be22&#45;4972&#45;8bb5&#45;583eb212d95b -->
<g id="edge3" class="edge"><title>bd66640e&#45;79d6&#45;4d3f&#45;9f69&#45;1ec334bdf116&#45;&gt;5381507d&#45;be22&#45;4972&#45;8bb5&#45;583eb212d95b</title>
<path fill="none" stroke="black" d="M99,-215.697C99,-207.983 99,-198.712 99,-190.112"/>
<polygon fill="black" stroke="black" points="102.5,-190.104 99,-180.104 95.5001,-190.104 102.5,-190.104"/>
</g>
<!-- 2abd7dcc&#45;7171&#45;4543&#45;b450&#45;1153227fb2fa -->
<g id="node5" class="node"><title>2abd7dcc&#45;7171&#45;4543&#45;b450&#45;1153227fb2fa</title>
<ellipse fill="none" stroke="black" cx="63" cy="-90" rx="27" ry="18"/>
<text text-anchor="middle" x="63" y="-86.3" font-family="Times,serif" font-size="14.00">a</text>
</g>
<!-- 5381507d&#45;be22&#45;4972&#45;8bb5&#45;583eb212d95b&#45;&gt;2abd7dcc&#45;7171&#45;4543&#45;b450&#45;1153227fb2fa -->
<g id="edge4" class="edge"><title>5381507d&#45;be22&#45;4972&#45;8bb5&#45;583eb212d95b&#45;&gt;2abd7dcc&#45;7171&#45;4543&#45;b450&#45;1153227fb2fa</title>
<path fill="none" stroke="black" d="M90.6504,-144.765C86.2885,-136.283 80.8531,-125.714 75.9587,-116.197"/>
<polygon fill="black" stroke="black" points="78.9904,-114.439 71.3043,-107.147 72.7654,-117.641 78.9904,-114.439"/>
</g>
<!-- c73704f5&#45;a1a9&#45;4915&#45;8b25&#45;5bd6dde8b168 -->
<g id="node6" class="node"><title>c73704f5&#45;a1a9&#45;4915&#45;8b25&#45;5bd6dde8b168</title>
<ellipse fill="none" stroke="black" cx="135" cy="-90" rx="27" ry="18"/>
<text text-anchor="middle" x="135" y="-86.3" font-family="Times,serif" font-size="14.00">A</text>
</g>
<!-- 5381507d&#45;be22&#45;4972&#45;8bb5&#45;583eb212d95b&#45;&gt;c73704f5&#45;a1a9&#45;4915&#45;8b25&#45;5bd6dde8b168 -->
<g id="edge5" class="edge"><title>5381507d&#45;be22&#45;4972&#45;8bb5&#45;583eb212d95b&#45;&gt;c73704f5&#45;a1a9&#45;4915&#45;8b25&#45;5bd6dde8b168</title>
<path fill="none" stroke="black" d="M107.35,-144.765C111.712,-136.283 117.147,-125.714 122.041,-116.197"/>
<polygon fill="black" stroke="black" points="125.235,-117.641 126.696,-107.147 119.01,-114.439 125.235,-117.641"/>
</g>
<!-- db9e4e47&#45;bb4e&#45;4c04&#45;a67c&#45;4d66ba261914 -->
<g id="node7" class="node"><title>db9e4e47&#45;bb4e&#45;4c04&#45;a67c&#45;4d66ba261914</title>
<ellipse fill="none" stroke="black" cx="135" cy="-18" rx="36.2938" ry="18"/>
<text text-anchor="middle" x="135" y="-14.3" font-family="Times,serif" font-size="14.00">epsilon</text>
</g>
<!-- c73704f5&#45;a1a9&#45;4915&#45;8b25&#45;5bd6dde8b168&#45;&gt;db9e4e47&#45;bb4e&#45;4c04&#45;a67c&#45;4d66ba261914 -->
<g id="edge6" class="edge"><title>c73704f5&#45;a1a9&#45;4915&#45;8b25&#45;5bd6dde8b168&#45;&gt;db9e4e47&#45;bb4e&#45;4c04&#45;a67c&#45;4d66ba261914</title>
<path fill="none" stroke="black" d="M135,-71.6966C135,-63.9827 135,-54.7125 135,-46.1124"/>
<polygon fill="black" stroke="black" points="138.5,-46.1043 135,-36.1043 131.5,-46.1044 138.5,-46.1043"/>
</g>
<!-- 30adc8c7&#45;924b&#45;4467&#45;b77d&#45;9d0a8df060c5 -->
<g id="node9" class="node"><title>30adc8c7&#45;924b&#45;4467&#45;b77d&#45;9d0a8df060c5</title>
<ellipse fill="none" stroke="black" cx="171" cy="-162" rx="27" ry="18"/>
<text text-anchor="middle" x="171" y="-158.3" font-family="Times,serif" font-size="14.00">b</text>
</g>
<!-- a7f802d8&#45;0147&#45;4466&#45;b219&#45;38390779a137&#45;&gt;30adc8c7&#45;924b&#45;4467&#45;b77d&#45;9d0a8df060c5 -->
<g id="edge8" class="edge"><title>a7f802d8&#45;0147&#45;4466&#45;b219&#45;38390779a137&#45;&gt;30adc8c7&#45;924b&#45;4467&#45;b77d&#45;9d0a8df060c5</title>
<path fill="none" stroke="black" d="M198.65,-216.765C194.288,-208.283 188.853,-197.714 183.959,-188.197"/>
<polygon fill="black" stroke="black" points="186.99,-186.439 179.304,-179.147 180.765,-189.641 186.99,-186.439"/>
</g>
<!-- 332125dd&#45;2784&#45;4c40&#45;a00c&#45;e63b84a256c0 -->
<g id="node10" class="node"><title>332125dd&#45;2784&#45;4c40&#45;a00c&#45;e63b84a256c0</title>
<ellipse fill="none" stroke="black" cx="243" cy="-162" rx="27" ry="18"/>
<text text-anchor="middle" x="243" y="-158.3" font-family="Times,serif" font-size="14.00">B</text>
</g>
<!-- a7f802d8&#45;0147&#45;4466&#45;b219&#45;38390779a137&#45;&gt;332125dd&#45;2784&#45;4c40&#45;a00c&#45;e63b84a256c0 -->
<g id="edge9" class="edge"><title>a7f802d8&#45;0147&#45;4466&#45;b219&#45;38390779a137&#45;&gt;332125dd&#45;2784&#45;4c40&#45;a00c&#45;e63b84a256c0</title>
<path fill="none" stroke="black" d="M215.35,-216.765C219.712,-208.283 225.147,-197.714 230.041,-188.197"/>
<polygon fill="black" stroke="black" points="233.235,-189.641 234.696,-179.147 227.01,-186.439 233.235,-189.641"/>
</g>
<!-- fa413770&#45;e2b3&#45;465c&#45;ba8b&#45;2537b05dd59d -->
<g id="node11" class="node"><title>fa413770&#45;e2b3&#45;465c&#45;ba8b&#45;2537b05dd59d</title>
<ellipse fill="none" stroke="black" cx="207" cy="-90" rx="27" ry="18"/>
<text text-anchor="middle" x="207" y="-86.3" font-family="Times,serif" font-size="14.00">b</text>
</g>
<!-- 332125dd&#45;2784&#45;4c40&#45;a00c&#45;e63b84a256c0&#45;&gt;fa413770&#45;e2b3&#45;465c&#45;ba8b&#45;2537b05dd59d -->
<g id="edge10" class="edge"><title>332125dd&#45;2784&#45;4c40&#45;a00c&#45;e63b84a256c0&#45;&gt;fa413770&#45;e2b3&#45;465c&#45;ba8b&#45;2537b05dd59d</title>
<path fill="none" stroke="black" d="M234.65,-144.765C230.288,-136.283 224.853,-125.714 219.959,-116.197"/>
<polygon fill="black" stroke="black" points="222.99,-114.439 215.304,-107.147 216.765,-117.641 222.99,-114.439"/>
</g>
<!-- fc157ad0&#45;5005&#45;4969&#45;8a08&#45;f14876e4aeed -->
<g id="node12" class="node"><title>fc157ad0&#45;5005&#45;4969&#45;8a08&#45;f14876e4aeed</title>
<ellipse fill="none" stroke="black" cx="279" cy="-90" rx="27" ry="18"/>
<text text-anchor="middle" x="279" y="-86.3" font-family="Times,serif" font-size="14.00">B</text>
</g>
<!-- 332125dd&#45;2784&#45;4c40&#45;a00c&#45;e63b84a256c0&#45;&gt;fc157ad0&#45;5005&#45;4969&#45;8a08&#45;f14876e4aeed -->
<g id="edge11" class="edge"><title>332125dd&#45;2784&#45;4c40&#45;a00c&#45;e63b84a256c0&#45;&gt;fc157ad0&#45;5005&#45;4969&#45;8a08&#45;f14876e4aeed</title>
<path fill="none" stroke="black" d="M251.35,-144.765C255.712,-136.283 261.147,-125.714 266.041,-116.197"/>
<polygon fill="black" stroke="black" points="269.235,-117.641 270.696,-107.147 263.01,-114.439 269.235,-117.641"/>
</g>
<!-- bc7a4132&#45;7333&#45;48c4&#45;b6db&#45;9050867c5d5e -->
<g id="node13" class="node"><title>bc7a4132&#45;7333&#45;48c4&#45;b6db&#45;9050867c5d5e</title>
<ellipse fill="none" stroke="black" cx="279" cy="-18" rx="36.2938" ry="18"/>
<text text-anchor="middle" x="279" y="-14.3" font-family="Times,serif" font-size="14.00">epsilon</text>
</g>
<!-- fc157ad0&#45;5005&#45;4969&#45;8a08&#45;f14876e4aeed&#45;&gt;bc7a4132&#45;7333&#45;48c4&#45;b6db&#45;9050867c5d5e -->
<g id="edge12" class="edge"><title>fc157ad0&#45;5005&#45;4969&#45;8a08&#45;f14876e4aeed&#45;&gt;bc7a4132&#45;7333&#45;48c4&#45;b6db&#45;9050867c5d5e</title>
<path fill="none" stroke="black" d="M279,-71.6966C279,-63.9827 279,-54.7125 279,-46.1124"/>
<polygon fill="black" stroke="black" points="282.5,-46.1043 279,-36.1043 275.5,-46.1044 282.5,-46.1043"/>
</g>
<!-- cd5f4e7d&#45;0592&#45;43a7&#45;9a1c&#45;5cf3f4d6ae24 -->
<g id="node15" class="node"><title>cd5f4e7d&#45;0592&#45;43a7&#45;9a1c&#45;5cf3f4d6ae24</title>
<ellipse fill="none" stroke="black" cx="315" cy="-162" rx="27" ry="18"/>
<text text-anchor="middle" x="315" y="-158.3" font-family="Times,serif" font-size="14.00">c</text>
</g>
<!-- 8664440c&#45;ab8d&#45;4a8d&#45;8b12&#45;5c423c214828&#45;&gt;cd5f4e7d&#45;0592&#45;43a7&#45;9a1c&#45;5cf3f4d6ae24 -->
<g id="edge14" class="edge"><title>8664440c&#45;ab8d&#45;4a8d&#45;8b12&#45;5c423c214828&#45;&gt;cd5f4e7d&#45;0592&#45;43a7&#45;9a1c&#45;5cf3f4d6ae24</title>
<path fill="none" stroke="black" d="M315,-215.697C315,-207.983 315,-198.712 315,-190.112"/>
<polygon fill="black" stroke="black" points="318.5,-190.104 315,-180.104 311.5,-190.104 318.5,-190.104"/>
</g>
<!-- 99c96615&#45;62f0&#45;4995&#45;b597&#45;131bc68c11a4 -->
<g id="node16" class="node"><title>99c96615&#45;62f0&#45;4995&#45;b597&#45;131bc68c11a4</title>
<ellipse fill="none" stroke="black" cx="387" cy="-162" rx="27" ry="18"/>
<text text-anchor="middle" x="387" y="-158.3" font-family="Times,serif" font-size="14.00">C</text>
</g>
<!-- 8664440c&#45;ab8d&#45;4a8d&#45;8b12&#45;5c423c214828&#45;&gt;99c96615&#45;62f0&#45;4995&#45;b597&#45;131bc68c11a4 -->
<g id="edge15" class="edge"><title>8664440c&#45;ab8d&#45;4a8d&#45;8b12&#45;5c423c214828&#45;&gt;99c96615&#45;62f0&#45;4995&#45;b597&#45;131bc68c11a4</title>
<path fill="none" stroke="black" d="M329.57,-218.834C339.75,-208.938 353.524,-195.546 365.031,-184.359"/>
<polygon fill="black" stroke="black" points="367.474,-186.865 372.204,-177.385 362.595,-181.846 367.474,-186.865"/>
</g>
<!-- f3005d49&#45;1c42&#45;4c3a&#45;9101&#45;7c2d52a0318a -->
<g id="node17" class="node"><title>f3005d49&#45;1c42&#45;4c3a&#45;9101&#45;7c2d52a0318a</title>
<ellipse fill="none" stroke="black" cx="351" cy="-90" rx="27" ry="18"/>
<text text-anchor="middle" x="351" y="-86.3" font-family="Times,serif" font-size="14.00">c</text>
</g>
<!-- 99c96615&#45;62f0&#45;4995&#45;b597&#45;131bc68c11a4&#45;&gt;f3005d49&#45;1c42&#45;4c3a&#45;9101&#45;7c2d52a0318a -->
<g id="edge16" class="edge"><title>99c96615&#45;62f0&#45;4995&#45;b597&#45;131bc68c11a4&#45;&gt;f3005d49&#45;1c42&#45;4c3a&#45;9101&#45;7c2d52a0318a</title>
<path fill="none" stroke="black" d="M378.65,-144.765C374.288,-136.283 368.853,-125.714 363.959,-116.197"/>
<polygon fill="black" stroke="black" points="366.99,-114.439 359.304,-107.147 360.765,-117.641 366.99,-114.439"/>
</g>
<!-- adacd988&#45;693d&#45;4444&#45;bf5d&#45;770bb3d7776c -->
<g id="node18" class="node"><title>adacd988&#45;693d&#45;4444&#45;bf5d&#45;770bb3d7776c</title>
<ellipse fill="none" stroke="black" cx="423" cy="-90" rx="27" ry="18"/>
<text text-anchor="middle" x="423" y="-86.3" font-family="Times,serif" font-size="14.00">C</text>
</g>
<!-- 99c96615&#45;62f0&#45;4995&#45;b597&#45;131bc68c11a4&#45;&gt;adacd988&#45;693d&#45;4444&#45;bf5d&#45;770bb3d7776c -->
<g id="edge17" class="edge"><title>99c96615&#45;62f0&#45;4995&#45;b597&#45;131bc68c11a4&#45;&gt;adacd988&#45;693d&#45;4444&#45;bf5d&#45;770bb3d7776c</title>
<path fill="none" stroke="black" d="M395.35,-144.765C399.712,-136.283 405.147,-125.714 410.041,-116.197"/>
<polygon fill="black" stroke="black" points="413.235,-117.641 414.696,-107.147 407.01,-114.439 413.235,-117.641"/>
</g>
<!-- 53013805&#45;2a42&#45;423a&#45;84bf&#45;1e00788001c6 -->
<g id="node19" class="node"><title>53013805&#45;2a42&#45;423a&#45;84bf&#45;1e00788001c6</title>
<ellipse fill="none" stroke="black" cx="423" cy="-18" rx="36.2938" ry="18"/>
<text text-anchor="middle" x="423" y="-14.3" font-family="Times,serif" font-size="14.00">epsilon</text>
</g>
<!-- adacd988&#45;693d&#45;4444&#45;bf5d&#45;770bb3d7776c&#45;&gt;53013805&#45;2a42&#45;423a&#45;84bf&#45;1e00788001c6 -->
<g id="edge18" class="edge"><title>adacd988&#45;693d&#45;4444&#45;bf5d&#45;770bb3d7776c&#45;&gt;53013805&#45;2a42&#45;423a&#45;84bf&#45;1e00788001c6</title>
<path fill="none" stroke="black" d="M423,-71.6966C423,-63.9827 423,-54.7125 423,-46.1124"/>
<polygon fill="black" stroke="black" points="426.5,-46.1043 423,-36.1043 419.5,-46.1044 426.5,-46.1043"/>
</g>
</g>
</svg>
