<?xml version="1.0" encoding="UTF-8" standalone="no"?>
<!DOCTYPE svg PUBLIC "-//W3C//DTD SVG 1.1//EN"
 "http://www.w3.org/Graphics/SVG/1.1/DTD/svg11.dtd">
<!-- Generated by graphviz version 2.38.0 (20140413.2041)
 -->
<!-- Title: G Pages: 1 -->
<svg width="170pt" height="188pt"
 viewBox="0.00 0.00 170.00 188.00" xmlns="http://www.w3.org/2000/svg" xmlns:xlink="http://www.w3.org/1999/xlink">
<g id="graph0" class="graph" transform="scale(1 1) rotate(0) translate(4 184)">
<title>G</title>
<polygon fill="white" stroke="none" points="-4,4 -4,-184 166,-184 166,4 -4,4"/>
<!-- 784214f1&#45;6136&#45;42af&#45;8eb9&#45;d7ea0b90f2dc -->
<g id="node1" class="node"><title>784214f1&#45;6136&#45;42af&#45;8eb9&#45;d7ea0b90f2dc</title>
<ellipse fill="none" stroke="black" cx="63" cy="-162" rx="27" ry="18"/>
<text text-anchor="middle" x="63" y="-158.3" font-family="Times,serif" font-size="14.00">*</text>
</g>
<!-- c8b1ecd9&#45;cc11&#45;4923&#45;8fcc&#45;e884b1733b9d -->
<g id="node2" class="node"><title>c8b1ecd9&#45;cc11&#45;4923&#45;8fcc&#45;e884b1733b9d</title>
<ellipse fill="none" stroke="black" cx="27" cy="-90" rx="27" ry="18"/>
<text text-anchor="middle" x="27" y="-86.3" font-family="Times,serif" font-size="14.00">int</text>
</g>
<!-- 784214f1&#45;6136&#45;42af&#45;8eb9&#45;d7ea0b90f2dc&#45;&gt;c8b1ecd9&#45;cc11&#45;4923&#45;8fcc&#45;e884b1733b9d -->
<g id="edge1" class="edge"><title>784214f1&#45;6136&#45;42af&#45;8eb9&#45;d7ea0b90f2dc&#45;&gt;c8b1ecd9&#45;cc11&#45;4923&#45;8fcc&#45;e884b1733b9d</title>
<path fill="none" stroke="black" d="M54.6504,-144.765C50.2885,-136.283 44.8531,-125.714 39.9587,-116.197"/>
<polygon fill="black" stroke="black" points="42.9904,-114.439 35.3043,-107.147 36.7654,-117.641 42.9904,-114.439"/>
</g>
<!-- 9ef1285e&#45;0bd7&#45;4c4c&#45;a47a&#45;3184a48fe6b7 -->
<g id="node3" class="node"><title>9ef1285e&#45;0bd7&#45;4c4c&#45;a47a&#45;3184a48fe6b7</title>
<ellipse fill="none" stroke="black" cx="99" cy="-90" rx="27" ry="18"/>
<text text-anchor="middle" x="99" y="-86.3" font-family="Times,serif" font-size="14.00">+</text>
</g>
<!-- 784214f1&#45;6136&#45;42af&#45;8eb9&#45;d7ea0b90f2dc&#45;&gt;9ef1285e&#45;0bd7&#45;4c4c&#45;a47a&#45;3184a48fe6b7 -->
<g id="edge2" class="edge"><title>784214f1&#45;6136&#45;42af&#45;8eb9&#45;d7ea0b90f2dc&#45;&gt;9ef1285e&#45;0bd7&#45;4c4c&#45;a47a&#45;3184a48fe6b7</title>
<path fill="none" stroke="black" d="M71.3496,-144.765C75.7115,-136.283 81.1469,-125.714 86.0413,-116.197"/>
<polygon fill="black" stroke="black" points="89.2346,-117.641 90.6957,-107.147 83.0096,-114.439 89.2346,-117.641"/>
</g>
<!-- 89290ff8&#45;04a6&#45;4a9e&#45;913c&#45;ff88cc62c8d4 -->
<g id="node4" class="node"><title>89290ff8&#45;04a6&#45;4a9e&#45;913c&#45;ff88cc62c8d4</title>
<ellipse fill="none" stroke="black" cx="63" cy="-18" rx="27" ry="18"/>
<text text-anchor="middle" x="63" y="-14.3" font-family="Times,serif" font-size="14.00">int</text>
</g>
<!-- 9ef1285e&#45;0bd7&#45;4c4c&#45;a47a&#45;3184a48fe6b7&#45;&gt;89290ff8&#45;04a6&#45;4a9e&#45;913c&#45;ff88cc62c8d4 -->
<g id="edge3" class="edge"><title>9ef1285e&#45;0bd7&#45;4c4c&#45;a47a&#45;3184a48fe6b7&#45;&gt;89290ff8&#45;04a6&#45;4a9e&#45;913c&#45;ff88cc62c8d4</title>
<path fill="none" stroke="black" d="M90.6504,-72.7646C86.2885,-64.2831 80.8531,-53.7144 75.9587,-44.1974"/>
<polygon fill="black" stroke="black" points="78.9904,-42.4395 71.3043,-35.1473 72.7654,-45.6409 78.9904,-42.4395"/>
</g>
<!-- 28b83d66&#45;83bc&#45;4fe8&#45;a63c&#45;09125d7c0f15 -->
<g id="node5" class="node"><title>28b83d66&#45;83bc&#45;4fe8&#45;a63c&#45;09125d7c0f15</title>
<ellipse fill="none" stroke="black" cx="135" cy="-18" rx="27" ry="18"/>
<text text-anchor="middle" x="135" y="-14.3" font-family="Times,serif" font-size="14.00">int</text>
</g>
<!-- 9ef1285e&#45;0bd7&#45;4c4c&#45;a47a&#45;3184a48fe6b7&#45;&gt;28b83d66&#45;83bc&#45;4fe8&#45;a63c&#45;09125d7c0f15 -->
<g id="edge4" class="edge"><title>9ef1285e&#45;0bd7&#45;4c4c&#45;a47a&#45;3184a48fe6b7&#45;&gt;28b83d66&#45;83bc&#45;4fe8&#45;a63c&#45;09125d7c0f15</title>
<path fill="none" stroke="black" d="M107.35,-72.7646C111.712,-64.2831 117.147,-53.7144 122.041,-44.1974"/>
<polygon fill="black" stroke="black" points="125.235,-45.6409 126.696,-35.1473 119.01,-42.4395 125.235,-45.6409"/>
</g>
</g>
</svg>
