<?xml version="1.0" encoding="UTF-8" standalone="no"?>
<!DOCTYPE svg PUBLIC "-//W3C//DTD SVG 1.1//EN"
 "http://www.w3.org/Graphics/SVG/1.1/DTD/svg11.dtd">
<!-- Generated by graphviz version 2.38.0 (20140413.2041)
 -->
<!-- Title: G Pages: 1 -->
<svg width="249pt" height="476pt"
 viewBox="0.00 0.00 249.19 476.00" xmlns="http://www.w3.org/2000/svg" xmlns:xlink="http://www.w3.org/1999/xlink">
<g id="graph0" class="graph" transform="scale(1 1) rotate(0) translate(4 472)">
<title>G</title>
<polygon fill="white" stroke="none" points="-4,4 -4,-472 245.195,-472 245.195,4 -4,4"/>
<!-- 9de256ec&#45;ce87&#45;407b&#45;a384&#45;2799a939bac5 -->
<g id="node1" class="node"><title>9de256ec&#45;ce87&#45;407b&#45;a384&#45;2799a939bac5</title>
<ellipse fill="none" stroke="black" cx="65.5975" cy="-450" rx="27" ry="18"/>
<text text-anchor="middle" x="65.5975" y="-446.3" font-family="Times,serif" font-size="14.00">E</text>
</g>
<!-- 534a8c61&#45;1368&#45;4109&#45;8cf0&#45;e41ac98c9219 -->
<g id="node2" class="node"><title>534a8c61&#45;1368&#45;4109&#45;8cf0&#45;e41ac98c9219</title>
<ellipse fill="none" stroke="black" cx="65.5975" cy="-378" rx="27" ry="18"/>
<text text-anchor="middle" x="65.5975" y="-374.3" font-family="Times,serif" font-size="14.00">T</text>
</g>
<!-- 9de256ec&#45;ce87&#45;407b&#45;a384&#45;2799a939bac5&#45;&gt;534a8c61&#45;1368&#45;4109&#45;8cf0&#45;e41ac98c9219 -->
<g id="edge1" class="edge"><title>9de256ec&#45;ce87&#45;407b&#45;a384&#45;2799a939bac5&#45;&gt;534a8c61&#45;1368&#45;4109&#45;8cf0&#45;e41ac98c9219</title>
<path fill="none" stroke="black" d="M65.5975,-431.697C65.5975,-423.983 65.5975,-414.712 65.5975,-406.112"/>
<polygon fill="black" stroke="black" points="69.0976,-406.104 65.5975,-396.104 62.0976,-406.104 69.0976,-406.104"/>
</g>
<!-- 21238e91&#45;8f49&#45;4d09&#45;aeb5&#45;9cb3b3c64224 -->
<g id="node3" class="node"><title>21238e91&#45;8f49&#45;4d09&#45;aeb5&#45;9cb3b3c64224</title>
<ellipse fill="none" stroke="black" cx="28.5975" cy="-306" rx="28.6953" ry="18"/>
<text text-anchor="middle" x="28.5975" y="-302.3" font-family="Times,serif" font-size="14.00">i {3}</text>
</g>
<!-- 534a8c61&#45;1368&#45;4109&#45;8cf0&#45;e41ac98c9219&#45;&gt;21238e91&#45;8f49&#45;4d09&#45;aeb5&#45;9cb3b3c64224 -->
<g id="edge2" class="edge"><title>534a8c61&#45;1368&#45;4109&#45;8cf0&#45;e41ac98c9219&#45;&gt;21238e91&#45;8f49&#45;4d09&#45;aeb5&#45;9cb3b3c64224</title>
<path fill="none" stroke="black" d="M57.0159,-360.765C52.5969,-352.404 47.1059,-342.016 42.132,-332.606"/>
<polygon fill="black" stroke="black" points="45.1569,-330.839 37.3894,-323.633 38.9682,-334.11 45.1569,-330.839"/>
</g>
<!-- ea220445&#45;9a21&#45;44c4&#45;87ff&#45;eaf9e97ec430 -->
<g id="node4" class="node"><title>ea220445&#45;9a21&#45;44c4&#45;87ff&#45;eaf9e97ec430</title>
<ellipse fill="none" stroke="black" cx="102.597" cy="-306" rx="27" ry="18"/>
<text text-anchor="middle" x="102.597" y="-302.3" font-family="Times,serif" font-size="14.00">Y</text>
</g>
<!-- 534a8c61&#45;1368&#45;4109&#45;8cf0&#45;e41ac98c9219&#45;&gt;ea220445&#45;9a21&#45;44c4&#45;87ff&#45;eaf9e97ec430 -->
<g id="edge3" class="edge"><title>534a8c61&#45;1368&#45;4109&#45;8cf0&#45;e41ac98c9219&#45;&gt;ea220445&#45;9a21&#45;44c4&#45;87ff&#45;eaf9e97ec430</title>
<path fill="none" stroke="black" d="M74.179,-360.765C78.6621,-352.283 84.2484,-341.714 89.2788,-332.197"/>
<polygon fill="black" stroke="black" points="92.4837,-333.624 94.0625,-323.147 86.295,-330.353 92.4837,-333.624"/>
</g>
<!-- 702b8bfd&#45;9738&#45;4a91&#45;93a3&#45;020593df18ed -->
<g id="node5" class="node"><title>702b8bfd&#45;9738&#45;4a91&#45;93a3&#45;020593df18ed</title>
<ellipse fill="none" stroke="black" cx="66.5975" cy="-234" rx="27" ry="18"/>
<text text-anchor="middle" x="66.5975" y="-230.3" font-family="Times,serif" font-size="14.00">*</text>
</g>
<!-- ea220445&#45;9a21&#45;44c4&#45;87ff&#45;eaf9e97ec430&#45;&gt;702b8bfd&#45;9738&#45;4a91&#45;93a3&#45;020593df18ed -->
<g id="edge4" class="edge"><title>ea220445&#45;9a21&#45;44c4&#45;87ff&#45;eaf9e97ec430&#45;&gt;702b8bfd&#45;9738&#45;4a91&#45;93a3&#45;020593df18ed</title>
<path fill="none" stroke="black" d="M94.2479,-288.765C89.8859,-280.283 84.4506,-269.714 79.5561,-260.197"/>
<polygon fill="black" stroke="black" points="82.5878,-258.439 74.9018,-251.147 76.3628,-261.641 82.5878,-258.439"/>
</g>
<!-- 620b981c&#45;2729&#45;47fc&#45;8fd0&#45;c25cb4c42fea -->
<g id="node6" class="node"><title>620b981c&#45;2729&#45;47fc&#45;8fd0&#45;c25cb4c42fea</title>
<ellipse fill="none" stroke="black" cx="138.597" cy="-234" rx="27" ry="18"/>
<text text-anchor="middle" x="138.597" y="-230.3" font-family="Times,serif" font-size="14.00">F</text>
</g>
<!-- ea220445&#45;9a21&#45;44c4&#45;87ff&#45;eaf9e97ec430&#45;&gt;620b981c&#45;2729&#45;47fc&#45;8fd0&#45;c25cb4c42fea -->
<g id="edge5" class="edge"><title>ea220445&#45;9a21&#45;44c4&#45;87ff&#45;eaf9e97ec430&#45;&gt;620b981c&#45;2729&#45;47fc&#45;8fd0&#45;c25cb4c42fea</title>
<path fill="none" stroke="black" d="M110.947,-288.765C115.309,-280.283 120.744,-269.714 125.639,-260.197"/>
<polygon fill="black" stroke="black" points="128.832,-261.641 130.293,-251.147 122.607,-258.439 128.832,-261.641"/>
</g>
<!-- 00882404&#45;1901&#45;4aea&#45;8ecf&#45;5a1e350c6c35 -->
<g id="node7" class="node"><title>00882404&#45;1901&#45;4aea&#45;8ecf&#45;5a1e350c6c35</title>
<ellipse fill="none" stroke="black" cx="138.597" cy="-162" rx="27" ry="18"/>
<text text-anchor="middle" x="138.597" y="-158.3" font-family="Times,serif" font-size="14.00">E</text>
</g>
<!-- 620b981c&#45;2729&#45;47fc&#45;8fd0&#45;c25cb4c42fea&#45;&gt;00882404&#45;1901&#45;4aea&#45;8ecf&#45;5a1e350c6c35 -->
<g id="edge6" class="edge"><title>620b981c&#45;2729&#45;47fc&#45;8fd0&#45;c25cb4c42fea&#45;&gt;00882404&#45;1901&#45;4aea&#45;8ecf&#45;5a1e350c6c35</title>
<path fill="none" stroke="black" d="M138.597,-215.697C138.597,-207.983 138.597,-198.712 138.597,-190.112"/>
<polygon fill="black" stroke="black" points="142.098,-190.104 138.597,-180.104 135.098,-190.104 142.098,-190.104"/>
</g>
<!-- ebbe532e&#45;0fa7&#45;4c33&#45;bbf8&#45;b721de64c082 -->
<g id="node8" class="node"><title>ebbe532e&#45;0fa7&#45;4c33&#45;bbf8&#45;b721de64c082</title>
<ellipse fill="none" stroke="black" cx="101.597" cy="-90" rx="28.6953" ry="18"/>
<text text-anchor="middle" x="101.597" y="-86.3" font-family="Times,serif" font-size="14.00">i {2}</text>
</g>
<!-- 00882404&#45;1901&#45;4aea&#45;8ecf&#45;5a1e350c6c35&#45;&gt;ebbe532e&#45;0fa7&#45;4c33&#45;bbf8&#45;b721de64c082 -->
<g id="edge7" class="edge"><title>00882404&#45;1901&#45;4aea&#45;8ecf&#45;5a1e350c6c35&#45;&gt;ebbe532e&#45;0fa7&#45;4c33&#45;bbf8&#45;b721de64c082</title>
<path fill="none" stroke="black" d="M130.016,-144.765C125.597,-136.404 120.106,-126.016 115.132,-116.606"/>
<polygon fill="black" stroke="black" points="118.157,-114.839 110.389,-107.633 111.968,-118.11 118.157,-114.839"/>
</g>
<!-- 5fc9b422&#45;8ae8&#45;4fbf&#45;a7d3&#45;27950e8e5ca3 -->
<g id="node9" class="node"><title>5fc9b422&#45;8ae8&#45;4fbf&#45;a7d3&#45;27950e8e5ca3</title>
<ellipse fill="none" stroke="black" cx="175.597" cy="-90" rx="27" ry="18"/>
<text text-anchor="middle" x="175.597" y="-86.3" font-family="Times,serif" font-size="14.00">X</text>
</g>
<!-- 00882404&#45;1901&#45;4aea&#45;8ecf&#45;5a1e350c6c35&#45;&gt;5fc9b422&#45;8ae8&#45;4fbf&#45;a7d3&#45;27950e8e5ca3 -->
<g id="edge8" class="edge"><title>00882404&#45;1901&#45;4aea&#45;8ecf&#45;5a1e350c6c35&#45;&gt;5fc9b422&#45;8ae8&#45;4fbf&#45;a7d3&#45;27950e8e5ca3</title>
<path fill="none" stroke="black" d="M147.179,-144.765C151.662,-136.283 157.248,-125.714 162.279,-116.197"/>
<polygon fill="black" stroke="black" points="165.484,-117.624 167.062,-107.147 159.295,-114.353 165.484,-117.624"/>
</g>
<!-- b9a5f0db&#45;2496&#45;416e&#45;810b&#45;00031e2023e8 -->
<g id="node10" class="node"><title>b9a5f0db&#45;2496&#45;416e&#45;810b&#45;00031e2023e8</title>
<ellipse fill="none" stroke="black" cx="138.597" cy="-18" rx="27" ry="18"/>
<text text-anchor="middle" x="138.597" y="-14.3" font-family="Times,serif" font-size="14.00">+</text>
</g>
<!-- 5fc9b422&#45;8ae8&#45;4fbf&#45;a7d3&#45;27950e8e5ca3&#45;&gt;b9a5f0db&#45;2496&#45;416e&#45;810b&#45;00031e2023e8 -->
<g id="edge9" class="edge"><title>5fc9b422&#45;8ae8&#45;4fbf&#45;a7d3&#45;27950e8e5ca3&#45;&gt;b9a5f0db&#45;2496&#45;416e&#45;810b&#45;00031e2023e8</title>
<path fill="none" stroke="black" d="M167.016,-72.7646C162.533,-64.2831 156.947,-53.7144 151.916,-44.1974"/>
<polygon fill="black" stroke="black" points="154.9,-42.3527 147.132,-35.1473 148.711,-45.6239 154.9,-42.3527"/>
</g>
<!-- cd889368&#45;5abc&#45;4155&#45;9d37&#45;66a0ad35b887 -->
<g id="node11" class="node"><title>cd889368&#45;5abc&#45;4155&#45;9d37&#45;66a0ad35b887</title>
<ellipse fill="none" stroke="black" cx="212.597" cy="-18" rx="28.6953" ry="18"/>
<text text-anchor="middle" x="212.597" y="-14.3" font-family="Times,serif" font-size="14.00">i {5}</text>
</g>
<!-- 5fc9b422&#45;8ae8&#45;4fbf&#45;a7d3&#45;27950e8e5ca3&#45;&gt;cd889368&#45;5abc&#45;4155&#45;9d37&#45;66a0ad35b887 -->
<g id="edge10" class="edge"><title>5fc9b422&#45;8ae8&#45;4fbf&#45;a7d3&#45;27950e8e5ca3&#45;&gt;cd889368&#45;5abc&#45;4155&#45;9d37&#45;66a0ad35b887</title>
<path fill="none" stroke="black" d="M184.179,-72.7646C188.598,-64.4043 194.089,-54.0159 199.063,-44.6059"/>
<polygon fill="black" stroke="black" points="202.227,-46.11 203.806,-35.6334 196.038,-42.8388 202.227,-46.11"/>
</g>
</g>
</svg>
