<?xml version="1.0" encoding="UTF-8" standalone="no"?>
<!DOCTYPE svg PUBLIC "-//W3C//DTD SVG 1.1//EN"
 "http://www.w3.org/Graphics/SVG/1.1/DTD/svg11.dtd">
<!-- Generated by graphviz version 2.38.0 (20140413.2041)
 -->
<!-- Title: G Pages: 1 -->
<svg width="487pt" height="121pt"
 viewBox="7.20 7.20 479.87 114.20" xmlns="http://www.w3.org/2000/svg" xmlns:xlink="http://www.w3.org/1999/xlink">
<g id="graph0" class="graph" transform="scale(1 1) rotate(0) translate(11.2 110.2)">
<title>G</title>
<polygon fill="white" stroke="none" points="-4,4 -4,-103 468.674,-103 468.674,4 -4,4"/>
<!-- start -->
<g id="node1" class="node"><title>start</title>
</g>
<!-- q0q1 -->
<g id="node2" class="node"><title>q0q1</title>
<ellipse fill="none" stroke="black" cx="66.5975" cy="-18" rx="28.6953" ry="18"/>
<text text-anchor="middle" x="66.5975" y="-14.3" font-family="Times,serif" font-size="14.00">q0q1</text>
</g>
<!-- start&#45;&gt;q0q1 -->
<g id="edge7" class="edge"><title>start&#45;&gt;q0q1</title>
<path fill="none" stroke="black" stroke-dasharray="5,2" d="M1.04682,-18C1.89532,-18 14.1537,-18 27.7636,-18"/>
<polygon fill="black" stroke="black" points="27.7688,-21.5001 37.7688,-18 27.7688,-14.5001 27.7688,-21.5001"/>
</g>
<!-- q0q1&#45;&gt;q0q1 -->
<g id="edge2" class="edge"><title>q0q1&#45;&gt;q0q1</title>
<path fill="none" stroke="black" d="M58.3852,-35.4099C56.8522,-45.0879 59.5897,-54 66.5975,-54 70.9773,-54 73.6891,-50.5187 74.7328,-45.5449"/>
<polygon fill="black" stroke="black" points="78.2336,-45.4362 74.8097,-35.4099 71.2338,-45.383 78.2336,-45.4362"/>
<text text-anchor="middle" x="66.5975" y="-57.8" font-family="Times,serif" font-size="14.00">b</text>
</g>
<!-- q0q1q2 -->
<g id="node3" class="node"><title>q0q1q2</title>
<ellipse fill="none" stroke="black" cx="175.242" cy="-18" rx="37.0935" ry="18"/>
<text text-anchor="middle" x="175.242" y="-14.3" font-family="Times,serif" font-size="14.00">q0q1q2</text>
</g>
<!-- q0q1&#45;&gt;q0q1q2 -->
<g id="edge1" class="edge"><title>q0q1&#45;&gt;q0q1q2</title>
<path fill="none" stroke="black" d="M95.3386,-18C105.356,-18 116.951,-18 128.118,-18"/>
<polygon fill="black" stroke="black" points="128.195,-21.5001 138.195,-18 128.195,-14.5001 128.195,-21.5001"/>
<text text-anchor="middle" x="116.695" y="-21.8" font-family="Times,serif" font-size="14.00">a</text>
</g>
<!-- q0q1q2q3 -->
<g id="node4" class="node"><title>q0q1q2q3</title>
<ellipse fill="none" stroke="black" cx="301.434" cy="-48" rx="46.2923" ry="18"/>
<text text-anchor="middle" x="301.434" y="-44.3" font-family="Times,serif" font-size="14.00">q0q1q2q3</text>
</g>
<!-- q0q1q2&#45;&gt;q0q1q2q3 -->
<g id="edge3" class="edge"><title>q0q1q2&#45;&gt;q0q1q2q3</title>
<path fill="none" stroke="black" d="M208.872,-25.8821C222.068,-29.0699 237.577,-32.8161 252.041,-36.31"/>
<polygon fill="black" stroke="black" points="251.304,-39.7327 261.846,-38.6787 252.948,-32.9284 251.304,-39.7327"/>
<text text-anchor="middle" x="233.788" y="-35.8" font-family="Times,serif" font-size="14.00">a</text>
</g>
<!-- q0q1q3 -->
<g id="node5" class="node"><title>q0q1q3</title>
<ellipse fill="none" stroke="black" cx="427.627" cy="-18" rx="37.0935" ry="18"/>
<text text-anchor="middle" x="427.627" y="-14.3" font-family="Times,serif" font-size="14.00">q0q1q3</text>
</g>
<!-- q0q1q2&#45;&gt;q0q1q3 -->
<g id="edge4" class="edge"><title>q0q1q2&#45;&gt;q0q1q3</title>
<path fill="none" stroke="black" d="M210.353,-11.6726C224.239,-9.39751 240.478,-7.11775 255.288,-6 296.191,-2.91302 306.678,-2.91302 347.58,-6 358.919,-6.85578 371.096,-8.3927 382.413,-10.0872"/>
<polygon fill="black" stroke="black" points="382.094,-13.5799 392.516,-11.6726 383.179,-6.66454 382.094,-13.5799"/>
<text text-anchor="middle" x="301.434" y="-9.8" font-family="Times,serif" font-size="14.00">b</text>
</g>
<!-- q0q1q2q3&#45;&gt;q0q1q2q3 -->
<g id="edge5" class="edge"><title>q0q1q2q3&#45;&gt;q0q1q2q3</title>
<path fill="none" stroke="black" d="M289.651,-65.4099C287.452,-75.0879 291.38,-84 301.434,-84 307.718,-84 311.609,-80.5187 313.107,-75.5449"/>
<polygon fill="black" stroke="black" points="316.608,-75.4475 313.217,-65.4099 309.608,-75.3711 316.608,-75.4475"/>
<text text-anchor="middle" x="301.434" y="-87.8" font-family="Times,serif" font-size="14.00">a</text>
</g>
<!-- q0q1q2q3&#45;&gt;q0q1q3 -->
<g id="edge6" class="edge"><title>q0q1q2q3&#45;&gt;q0q1q3</title>
<path fill="none" stroke="black" d="M341.049,-38.6723C354.686,-35.3781 370.094,-31.656 384.042,-28.2869"/>
<polygon fill="black" stroke="black" points="384.994,-31.6576 393.893,-25.9073 383.35,-24.8533 384.994,-31.6576"/>
<text text-anchor="middle" x="369.08" y="-35.8" font-family="Times,serif" font-size="14.00">b</text>
</g>
</g>
</svg>
