<?xml version="1.0" encoding="UTF-8" standalone="no"?>
<!DOCTYPE svg PUBLIC "-//W3C//DTD SVG 1.1//EN"
 "http://www.w3.org/Graphics/SVG/1.1/DTD/svg11.dtd">
<!-- Generated by graphviz version 2.38.0 (20140413.2041)
 -->
<!-- Title: G Pages: 1 -->
<svg width="170pt" height="188pt"
 viewBox="0.00 0.00 170.00 188.00" xmlns="http://www.w3.org/2000/svg" xmlns:xlink="http://www.w3.org/1999/xlink">
<g id="graph0" class="graph" transform="scale(1 1) rotate(0) translate(4 184)">
<title>G</title>
<polygon fill="white" stroke="none" points="-4,4 -4,-184 166,-184 166,4 -4,4"/>
<!-- 664be15d&#45;1020&#45;4dbb&#45;b7bb&#45;6da0e7f9a6ea -->
<g id="node1" class="node"><title>664be15d&#45;1020&#45;4dbb&#45;b7bb&#45;6da0e7f9a6ea</title>
<ellipse fill="none" stroke="black" cx="63" cy="-162" rx="27" ry="18"/>
<text text-anchor="middle" x="63" y="-158.3" font-family="Times,serif" font-size="14.00">*</text>
</g>
<!-- 92e14551&#45;9c07&#45;4fb8&#45;8f6c&#45;a42dbefe371f -->
<g id="node2" class="node"><title>92e14551&#45;9c07&#45;4fb8&#45;8f6c&#45;a42dbefe371f</title>
<ellipse fill="none" stroke="black" cx="27" cy="-90" rx="27" ry="18"/>
<text text-anchor="middle" x="27" y="-86.3" font-family="Times,serif" font-size="14.00">3</text>
</g>
<!-- 664be15d&#45;1020&#45;4dbb&#45;b7bb&#45;6da0e7f9a6ea&#45;&gt;92e14551&#45;9c07&#45;4fb8&#45;8f6c&#45;a42dbefe371f -->
<g id="edge1" class="edge"><title>664be15d&#45;1020&#45;4dbb&#45;b7bb&#45;6da0e7f9a6ea&#45;&gt;92e14551&#45;9c07&#45;4fb8&#45;8f6c&#45;a42dbefe371f</title>
<path fill="none" stroke="black" d="M54.6504,-144.765C50.2885,-136.283 44.8531,-125.714 39.9587,-116.197"/>
<polygon fill="black" stroke="black" points="42.9904,-114.439 35.3043,-107.147 36.7654,-117.641 42.9904,-114.439"/>
</g>
<!-- f1900c41&#45;7ad2&#45;49ba&#45;95a7&#45;f5589aa6be5a -->
<g id="node3" class="node"><title>f1900c41&#45;7ad2&#45;49ba&#45;95a7&#45;f5589aa6be5a</title>
<ellipse fill="none" stroke="black" cx="99" cy="-90" rx="27" ry="18"/>
<text text-anchor="middle" x="99" y="-86.3" font-family="Times,serif" font-size="14.00">+</text>
</g>
<!-- 664be15d&#45;1020&#45;4dbb&#45;b7bb&#45;6da0e7f9a6ea&#45;&gt;f1900c41&#45;7ad2&#45;49ba&#45;95a7&#45;f5589aa6be5a -->
<g id="edge2" class="edge"><title>664be15d&#45;1020&#45;4dbb&#45;b7bb&#45;6da0e7f9a6ea&#45;&gt;f1900c41&#45;7ad2&#45;49ba&#45;95a7&#45;f5589aa6be5a</title>
<path fill="none" stroke="black" d="M71.3496,-144.765C75.7115,-136.283 81.1469,-125.714 86.0413,-116.197"/>
<polygon fill="black" stroke="black" points="89.2346,-117.641 90.6957,-107.147 83.0096,-114.439 89.2346,-117.641"/>
</g>
<!-- b8ae73ae&#45;9c6a&#45;4894&#45;9a5d&#45;c8822d515772 -->
<g id="node4" class="node"><title>b8ae73ae&#45;9c6a&#45;4894&#45;9a5d&#45;c8822d515772</title>
<ellipse fill="none" stroke="black" cx="63" cy="-18" rx="27" ry="18"/>
<text text-anchor="middle" x="63" y="-14.3" font-family="Times,serif" font-size="14.00">2</text>
</g>
<!-- f1900c41&#45;7ad2&#45;49ba&#45;95a7&#45;f5589aa6be5a&#45;&gt;b8ae73ae&#45;9c6a&#45;4894&#45;9a5d&#45;c8822d515772 -->
<g id="edge3" class="edge"><title>f1900c41&#45;7ad2&#45;49ba&#45;95a7&#45;f5589aa6be5a&#45;&gt;b8ae73ae&#45;9c6a&#45;4894&#45;9a5d&#45;c8822d515772</title>
<path fill="none" stroke="black" d="M90.6504,-72.7646C86.2885,-64.2831 80.8531,-53.7144 75.9587,-44.1974"/>
<polygon fill="black" stroke="black" points="78.9904,-42.4395 71.3043,-35.1473 72.7654,-45.6409 78.9904,-42.4395"/>
</g>
<!-- 3b505140&#45;b91c&#45;4fd8&#45;9c3e&#45;ab556ce59319 -->
<g id="node5" class="node"><title>3b505140&#45;b91c&#45;4fd8&#45;9c3e&#45;ab556ce59319</title>
<ellipse fill="none" stroke="black" cx="135" cy="-18" rx="27" ry="18"/>
<text text-anchor="middle" x="135" y="-14.3" font-family="Times,serif" font-size="14.00">5</text>
</g>
<!-- f1900c41&#45;7ad2&#45;49ba&#45;95a7&#45;f5589aa6be5a&#45;&gt;3b505140&#45;b91c&#45;4fd8&#45;9c3e&#45;ab556ce59319 -->
<g id="edge4" class="edge"><title>f1900c41&#45;7ad2&#45;49ba&#45;95a7&#45;f5589aa6be5a&#45;&gt;3b505140&#45;b91c&#45;4fd8&#45;9c3e&#45;ab556ce59319</title>
<path fill="none" stroke="black" d="M107.35,-72.7646C111.712,-64.2831 117.147,-53.7144 122.041,-44.1974"/>
<polygon fill="black" stroke="black" points="125.235,-45.6409 126.696,-35.1473 119.01,-42.4395 125.235,-45.6409"/>
</g>
</g>
</svg>
