<?xml version="1.0" encoding="UTF-8" standalone="no"?>
<!DOCTYPE svg PUBLIC "-//W3C//DTD SVG 1.1//EN"
 "http://www.w3.org/Graphics/SVG/1.1/DTD/svg11.dtd">
<!-- Generated by graphviz version 2.38.0 (20140413.2041)
 -->
<!-- Title: G Pages: 1 -->
<svg width="378pt" height="95pt"
 viewBox="7.20 7.20 371.19 87.56" xmlns="http://www.w3.org/2000/svg" xmlns:xlink="http://www.w3.org/1999/xlink">
<g id="graph0" class="graph" transform="scale(1 1) rotate(0) translate(11.2 83.5589)">
<title>G</title>
<polygon fill="white" stroke="none" points="-4,4 -4,-76.3589 359.986,-76.3589 359.986,4 -4,4"/>
<!-- start -->
<g id="node1" class="node"><title>start</title>
</g>
<!-- q0 -->
<g id="node2" class="node"><title>q0</title>
<ellipse fill="none" stroke="black" cx="57.4983" cy="-19.8606" rx="19.4965" ry="19.4965"/>
<text text-anchor="middle" x="57.4983" y="-16.1606" font-family="Times,serif" font-size="14.00">q0</text>
</g>
<!-- start&#45;&gt;q0 -->
<g id="edge6" class="edge"><title>start&#45;&gt;q0</title>
<path fill="none" stroke="black" stroke-dasharray="5,2" d="M1.15921,-19.8606C2.69434,-19.8606 15.0887,-19.8606 27.7588,-19.8606"/>
<polygon fill="black" stroke="black" points="27.7768,-23.3607 37.7768,-19.8606 27.7768,-16.3607 27.7768,-23.3607"/>
</g>
<!-- q0&#45;&gt;q0 -->
<g id="edge1" class="edge"><title>q0&#45;&gt;q0</title>
<path fill="none" stroke="black" d="M51.0268,-38.3824C49.927,-48.3124 52.0842,-57.3589 57.4983,-57.3589 60.8821,-57.3589 62.9936,-53.8251 63.833,-48.7505"/>
<polygon fill="black" stroke="black" points="67.3374,-48.4278 63.9698,-38.3824 60.338,-48.3353 67.3374,-48.4278"/>
<text text-anchor="middle" x="57.4983" y="-61.1589" font-family="Times,serif" font-size="14.00">a b</text>
</g>
<!-- q1 -->
<g id="node3" class="node"><title>q1</title>
<ellipse fill="none" stroke="black" cx="172.495" cy="-19.8606" rx="19.4965" ry="19.4965"/>
<text text-anchor="middle" x="172.495" y="-16.1606" font-family="Times,serif" font-size="14.00">q1</text>
</g>
<!-- q0&#45;&gt;q1 -->
<g id="edge2" class="edge"><title>q0&#45;&gt;q1</title>
<path fill="none" stroke="black" d="M77.1574,-19.8606C94.986,-19.8606 122.119,-19.8606 142.716,-19.8606"/>
<polygon fill="black" stroke="black" points="142.808,-23.3607 152.808,-19.8606 142.808,-16.3607 142.808,-23.3607"/>
<text text-anchor="middle" x="114.997" y="-23.6606" font-family="Times,serif" font-size="14.00">epsilon</text>
</g>
<!-- q2 -->
<g id="node4" class="node"><title>q2</title>
<ellipse fill="none" stroke="black" cx="254.491" cy="-19.8606" rx="19.4965" ry="19.4965"/>
<text text-anchor="middle" x="254.491" y="-16.1606" font-family="Times,serif" font-size="14.00">q2</text>
</g>
<!-- q1&#45;&gt;q2 -->
<g id="edge3" class="edge"><title>q1&#45;&gt;q2</title>
<path fill="none" stroke="black" d="M192.049,-19.8606C201.672,-19.8606 213.647,-19.8606 224.462,-19.8606"/>
<polygon fill="black" stroke="black" points="224.761,-23.3607 234.761,-19.8606 224.761,-16.3607 224.761,-23.3607"/>
<text text-anchor="middle" x="213.493" y="-23.6606" font-family="Times,serif" font-size="14.00">a</text>
</g>
<!-- q3 -->
<g id="node5" class="node"><title>q3</title>
<ellipse fill="none" stroke="black" stroke-width="2" cx="336.488" cy="-19.8606" rx="19.4965" ry="19.4965"/>
<text text-anchor="middle" x="336.488" y="-16.1606" font-family="Times,serif" font-size="14.00">q3</text>
</g>
<!-- q2&#45;&gt;q3 -->
<g id="edge4" class="edge"><title>q2&#45;&gt;q3</title>
<path fill="none" stroke="black" d="M274.045,-19.8606C283.669,-19.8606 295.644,-19.8606 306.459,-19.8606"/>
<polygon fill="black" stroke="black" points="306.758,-23.3607 316.758,-19.8606 306.757,-16.3607 306.758,-23.3607"/>
<text text-anchor="middle" x="295.49" y="-23.6606" font-family="Times,serif" font-size="14.00">a</text>
</g>
<!-- q2&#45;&gt;q3 -->
<g id="edge5" class="edge"><title>q2&#45;&gt;q3</title>
<path fill="none" stroke="black" d="M271.181,-9.5877C277.396,-6.09337 284.773,-2.62652 291.99,-0.860638 298.503,0.73328 305.271,-0.605922 311.473,-3.17459"/>
<polygon fill="black" stroke="black" points="310.155,-6.43495 320.636,-7.97822 313.405,-0.235223 310.155,-6.43495"/>
<text text-anchor="middle" x="295.49" y="-4.66064" font-family="Times,serif" font-size="14.00">b</text>
</g>
</g>
</svg>
