<?xml version="1.0" encoding="UTF-8" standalone="no"?>
<!DOCTYPE svg PUBLIC "-//W3C//DTD SVG 1.1//EN"
 "http://www.w3.org/Graphics/SVG/1.1/DTD/svg11.dtd">
<!-- Generated by graphviz version 2.38.0 (20140413.2041)
 -->
<!-- Title: G Pages: 1 -->
<svg width="345pt" height="95pt"
 viewBox="7.20 7.20 338.19 87.91" xmlns="http://www.w3.org/2000/svg" xmlns:xlink="http://www.w3.org/1999/xlink">
<g id="graph0" class="graph" transform="scale(1 1) rotate(0) translate(11.2 83.9127)">
<title>G</title>
<polygon fill="white" stroke="none" points="-4,4 -4,-76.7127 326.986,-76.7127 326.986,4 -4,4"/>
<!-- start -->
<g id="node1" class="node"><title>start</title>
</g>
<!-- q0 -->
<g id="node2" class="node"><title>q0</title>
<ellipse fill="none" stroke="black" cx="57.4983" cy="-20.2144" rx="19.4965" ry="19.4965"/>
<text text-anchor="middle" x="57.4983" y="-16.5144" font-family="Times,serif" font-size="14.00">q0</text>
</g>
<!-- start&#45;&gt;q0 -->
<g id="edge7" class="edge"><title>start&#45;&gt;q0</title>
<path fill="none" stroke="black" stroke-dasharray="5,2" d="M1.15921,-20.2144C2.69434,-20.2144 15.0887,-20.2144 27.7588,-20.2144"/>
<polygon fill="black" stroke="black" points="27.7768,-23.7145 37.7768,-20.2144 27.7768,-16.7145 27.7768,-23.7145"/>
</g>
<!-- q0&#45;&gt;q0 -->
<g id="edge1" class="edge"><title>q0&#45;&gt;q0</title>
<path fill="none" stroke="black" d="M51.0268,-38.7362C49.927,-48.6662 52.0842,-57.7127 57.4983,-57.7127 60.8821,-57.7127 62.9936,-54.1789 63.833,-49.1042"/>
<polygon fill="black" stroke="black" points="67.3374,-48.7815 63.9698,-38.7362 60.338,-48.6891 67.3374,-48.7815"/>
<text text-anchor="middle" x="57.4983" y="-61.5127" font-family="Times,serif" font-size="14.00">a b</text>
</g>
<!-- q1 -->
<g id="node3" class="node"><title>q1</title>
<ellipse fill="none" stroke="black" cx="139.495" cy="-20.2144" rx="19.4965" ry="19.4965"/>
<text text-anchor="middle" x="139.495" y="-16.5144" font-family="Times,serif" font-size="14.00">q1</text>
</g>
<!-- q0&#45;&gt;q1 -->
<g id="edge2" class="edge"><title>q0&#45;&gt;q1</title>
<path fill="none" stroke="black" d="M77.0522,-20.2144C86.6756,-20.2144 98.6505,-20.2144 109.466,-20.2144"/>
<polygon fill="black" stroke="black" points="109.764,-23.7145 119.764,-20.2144 109.764,-16.7145 109.764,-23.7145"/>
<text text-anchor="middle" x="98.4965" y="-24.0144" font-family="Times,serif" font-size="14.00">a</text>
</g>
<!-- q2 -->
<g id="node4" class="node"><title>q2</title>
<ellipse fill="none" stroke="black" cx="221.491" cy="-20.2144" rx="19.4965" ry="19.4965"/>
<text text-anchor="middle" x="221.491" y="-16.5144" font-family="Times,serif" font-size="14.00">q2</text>
</g>
<!-- q1&#45;&gt;q2 -->
<g id="edge3" class="edge"><title>q1&#45;&gt;q2</title>
<path fill="none" stroke="black" d="M159.049,-20.2144C168.672,-20.2144 180.647,-20.2144 191.462,-20.2144"/>
<polygon fill="black" stroke="black" points="191.761,-23.7145 201.761,-20.2144 191.761,-16.7145 191.761,-23.7145"/>
<text text-anchor="middle" x="180.493" y="-24.0144" font-family="Times,serif" font-size="14.00">a</text>
</g>
<!-- q1&#45;&gt;q2 -->
<g id="edge4" class="edge"><title>q1&#45;&gt;q2</title>
<path fill="none" stroke="black" d="M155.346,-8.332C163.552,-3.16745 174.067,1.21441 183.993,-1.21441 187.94,-2.18013 191.934,-3.65456 195.76,-5.36399"/>
<polygon fill="black" stroke="black" points="194.299,-8.5473 204.802,-9.94148 197.461,-2.30202 194.299,-8.5473"/>
<text text-anchor="middle" x="180.493" y="-5.01441" font-family="Times,serif" font-size="14.00">b</text>
</g>
<!-- q3 -->
<g id="node5" class="node"><title>q3</title>
<ellipse fill="none" stroke="black" stroke-width="2" cx="303.488" cy="-20.2144" rx="19.4965" ry="19.4965"/>
<text text-anchor="middle" x="303.488" y="-16.5144" font-family="Times,serif" font-size="14.00">q3</text>
</g>
<!-- q2&#45;&gt;q3 -->
<g id="edge5" class="edge"><title>q2&#45;&gt;q3</title>
<path fill="none" stroke="black" d="M241.045,-20.2144C250.669,-20.2144 262.644,-20.2144 273.459,-20.2144"/>
<polygon fill="black" stroke="black" points="273.758,-23.7145 283.758,-20.2144 273.757,-16.7145 273.758,-23.7145"/>
<text text-anchor="middle" x="262.49" y="-24.0144" font-family="Times,serif" font-size="14.00">a</text>
</g>
<!-- q2&#45;&gt;q3 -->
<g id="edge6" class="edge"><title>q2&#45;&gt;q3</title>
<path fill="none" stroke="black" d="M238.181,-9.94148C244.396,-6.44714 251.773,-2.9803 258.99,-1.21441 265.503,0.379504 272.271,-0.959697 278.473,-3.52836"/>
<polygon fill="black" stroke="black" points="277.155,-6.78872 287.636,-8.332 280.405,-0.588998 277.155,-6.78872"/>
<text text-anchor="middle" x="262.49" y="-5.01441" font-family="Times,serif" font-size="14.00">b</text>
</g>
</g>
</svg>
