<?xml version="1.0" encoding="UTF-8" standalone="no"?>
<!DOCTYPE svg PUBLIC "-//W3C//DTD SVG 1.1//EN"
 "http://www.w3.org/Graphics/SVG/1.1/DTD/svg11.dtd">
<!-- Generated by graphviz version 2.38.0 (20140413.2041)
 -->
<!-- Title: G Pages: 1 -->
<svg width="427pt" height="94pt"
 viewBox="7.20 7.20 420.18 87.20" xmlns="http://www.w3.org/2000/svg" xmlns:xlink="http://www.w3.org/1999/xlink">
<g id="graph0" class="graph" transform="scale(1 1) rotate(0) translate(11.2 83.1965)">
<title>G</title>
<polygon fill="white" stroke="none" points="-4,4 -4,-75.9965 408.983,-75.9965 408.983,4 -4,4"/>
<!-- start -->
<g id="node1" class="node"><title>start</title>
</g>
<!-- q0 -->
<g id="node2" class="node"><title>q0</title>
<ellipse fill="none" stroke="black" cx="57.4983" cy="-19.4983" rx="19.4965" ry="19.4965"/>
<text text-anchor="middle" x="57.4983" y="-15.7983" font-family="Times,serif" font-size="14.00">q0</text>
</g>
<!-- start&#45;&gt;q0 -->
<g id="edge10" class="edge"><title>start&#45;&gt;q0</title>
<path fill="none" stroke="black" stroke-dasharray="5,2" d="M1.15921,-19.4983C2.69434,-19.4983 15.0887,-19.4983 27.7588,-19.4983"/>
<polygon fill="black" stroke="black" points="27.7768,-22.9984 37.7768,-19.4983 27.7768,-15.9984 27.7768,-22.9984"/>
</g>
<!-- q0&#45;&gt;q0 -->
<g id="edge5" class="edge"><title>q0&#45;&gt;q0</title>
<path fill="none" stroke="black" d="M51.0268,-38.0201C49.927,-47.95 52.0842,-56.9965 57.4983,-56.9965 60.8821,-56.9965 62.9936,-53.4627 63.833,-48.3881"/>
<polygon fill="black" stroke="black" points="67.3374,-48.0654 63.9698,-38.0201 60.338,-47.973 67.3374,-48.0654"/>
<text text-anchor="middle" x="57.4983" y="-60.7965" font-family="Times,serif" font-size="14.00">b</text>
</g>
<!-- q1 -->
<g id="node3" class="node"><title>q1</title>
<ellipse fill="none" stroke="black" cx="139.495" cy="-19.4983" rx="19.4965" ry="19.4965"/>
<text text-anchor="middle" x="139.495" y="-15.7983" font-family="Times,serif" font-size="14.00">q1</text>
</g>
<!-- q0&#45;&gt;q1 -->
<g id="edge1" class="edge"><title>q0&#45;&gt;q1</title>
<path fill="none" stroke="black" d="M77.0522,-19.4983C86.6756,-19.4983 98.6505,-19.4983 109.466,-19.4983"/>
<polygon fill="black" stroke="black" points="109.764,-22.9984 119.764,-19.4983 109.764,-15.9984 109.764,-22.9984"/>
<text text-anchor="middle" x="98.4965" y="-23.2983" font-family="Times,serif" font-size="14.00">a</text>
</g>
<!-- q1&#45;&gt;q1 -->
<g id="edge6" class="edge"><title>q1&#45;&gt;q1</title>
<path fill="none" stroke="black" d="M132.304,-38.0201C131.082,-47.95 133.479,-56.9965 139.495,-56.9965 143.255,-56.9965 145.601,-53.4627 146.533,-48.3881"/>
<polygon fill="black" stroke="black" points="150.038,-48.0703 146.685,-38.0201 143.039,-47.9676 150.038,-48.0703"/>
<text text-anchor="middle" x="139.495" y="-60.7965" font-family="Times,serif" font-size="14.00">b</text>
</g>
<!-- q2 -->
<g id="node4" class="node"><title>q2</title>
<ellipse fill="none" stroke="black" cx="221.491" cy="-19.4983" rx="19.4965" ry="19.4965"/>
<text text-anchor="middle" x="221.491" y="-15.7983" font-family="Times,serif" font-size="14.00">q2</text>
</g>
<!-- q1&#45;&gt;q2 -->
<g id="edge2" class="edge"><title>q1&#45;&gt;q2</title>
<path fill="none" stroke="black" d="M159.049,-19.4983C168.672,-19.4983 180.647,-19.4983 191.462,-19.4983"/>
<polygon fill="black" stroke="black" points="191.761,-22.9984 201.761,-19.4983 191.761,-15.9984 191.761,-22.9984"/>
<text text-anchor="middle" x="180.493" y="-23.2983" font-family="Times,serif" font-size="14.00">a</text>
</g>
<!-- q2&#45;&gt;q2 -->
<g id="edge7" class="edge"><title>q2&#45;&gt;q2</title>
<path fill="none" stroke="black" d="M214.301,-38.0201C213.079,-47.95 215.476,-56.9965 221.491,-56.9965 225.251,-56.9965 227.597,-53.4627 228.53,-48.3881"/>
<polygon fill="black" stroke="black" points="232.035,-48.0703 228.682,-38.0201 225.036,-47.9676 232.035,-48.0703"/>
<text text-anchor="middle" x="221.491" y="-60.7965" font-family="Times,serif" font-size="14.00">b</text>
</g>
<!-- q3 -->
<g id="node5" class="node"><title>q3</title>
<ellipse fill="none" stroke="black" stroke-width="2" cx="303.488" cy="-19.4983" rx="19.4965" ry="19.4965"/>
<text text-anchor="middle" x="303.488" y="-15.7983" font-family="Times,serif" font-size="14.00">q3</text>
</g>
<!-- q2&#45;&gt;q3 -->
<g id="edge3" class="edge"><title>q2&#45;&gt;q3</title>
<path fill="none" stroke="black" d="M241.045,-19.4983C250.669,-19.4983 262.644,-19.4983 273.459,-19.4983"/>
<polygon fill="black" stroke="black" points="273.758,-22.9984 283.758,-19.4983 273.757,-15.9984 273.758,-22.9984"/>
<text text-anchor="middle" x="262.49" y="-23.2983" font-family="Times,serif" font-size="14.00">a</text>
</g>
<!-- q3&#45;&gt;q3 -->
<g id="edge8" class="edge"><title>q3&#45;&gt;q3</title>
<path fill="none" stroke="black" d="M296.297,-38.0201C295.075,-47.95 297.472,-56.9965 303.488,-56.9965 307.248,-56.9965 309.594,-53.4627 310.526,-48.3881"/>
<polygon fill="black" stroke="black" points="314.031,-48.0703 310.678,-38.0201 307.032,-47.9676 314.031,-48.0703"/>
<text text-anchor="middle" x="303.488" y="-60.7965" font-family="Times,serif" font-size="14.00">b</text>
</g>
<!-- q4 -->
<g id="node6" class="node"><title>q4</title>
<ellipse fill="none" stroke="black" cx="385.484" cy="-19.4983" rx="19.4965" ry="19.4965"/>
<text text-anchor="middle" x="385.484" y="-15.7983" font-family="Times,serif" font-size="14.00">q4</text>
</g>
<!-- q3&#45;&gt;q4 -->
<g id="edge4" class="edge"><title>q3&#45;&gt;q4</title>
<path fill="none" stroke="black" d="M323.042,-19.4983C332.665,-19.4983 344.64,-19.4983 355.455,-19.4983"/>
<polygon fill="black" stroke="black" points="355.754,-22.9984 365.754,-19.4983 355.754,-15.9984 355.754,-22.9984"/>
<text text-anchor="middle" x="344.486" y="-23.2983" font-family="Times,serif" font-size="14.00">a</text>
</g>
<!-- q4&#45;&gt;q4 -->
<g id="edge9" class="edge"><title>q4&#45;&gt;q4</title>
<path fill="none" stroke="black" d="M378.294,-38.0201C377.072,-47.95 379.469,-56.9965 385.484,-56.9965 389.244,-56.9965 391.59,-53.4627 392.523,-48.3881"/>
<polygon fill="black" stroke="black" points="396.028,-48.0703 392.675,-38.0201 389.029,-47.9676 396.028,-48.0703"/>
<text text-anchor="middle" x="385.484" y="-60.7965" font-family="Times,serif" font-size="14.00">b</text>
</g>
</g>
</svg>
