<?xml version="1.0" encoding="UTF-8" standalone="no"?>
<!DOCTYPE svg PUBLIC "-//W3C//DTD SVG 1.1//EN"
 "http://www.w3.org/Graphics/SVG/1.1/DTD/svg11.dtd">
<!-- Generated by graphviz version 2.38.0 (20140413.2041)
 -->
<!-- Title: G Pages: 1 -->
<svg width="284pt" height="548pt"
 viewBox="0.00 0.00 284.19 548.00" xmlns="http://www.w3.org/2000/svg" xmlns:xlink="http://www.w3.org/1999/xlink">
<g id="graph0" class="graph" transform="scale(1 1) rotate(0) translate(4 544)">
<title>G</title>
<polygon fill="white" stroke="none" points="-4,4 -4,-544 280.195,-544 280.195,4 -4,4"/>
<!-- 6d2b777f&#45;7e50&#45;41c5&#45;8495&#45;f221b7afbde7 -->
<g id="node1" class="node"><title>6d2b777f&#45;7e50&#45;41c5&#45;8495&#45;f221b7afbde7</title>
<ellipse fill="none" stroke="black" cx="65.5975" cy="-522" rx="27" ry="18"/>
<text text-anchor="middle" x="65.5975" y="-518.3" font-family="Times,serif" font-size="14.00">E</text>
</g>
<!-- b88ae313&#45;50d4&#45;4a61&#45;b728&#45;c65f5bf736b5 -->
<g id="node2" class="node"><title>b88ae313&#45;50d4&#45;4a61&#45;b728&#45;c65f5bf736b5</title>
<ellipse fill="none" stroke="black" cx="65.5975" cy="-450" rx="27" ry="18"/>
<text text-anchor="middle" x="65.5975" y="-446.3" font-family="Times,serif" font-size="14.00">T</text>
</g>
<!-- 6d2b777f&#45;7e50&#45;41c5&#45;8495&#45;f221b7afbde7&#45;&gt;b88ae313&#45;50d4&#45;4a61&#45;b728&#45;c65f5bf736b5 -->
<g id="edge1" class="edge"><title>6d2b777f&#45;7e50&#45;41c5&#45;8495&#45;f221b7afbde7&#45;&gt;b88ae313&#45;50d4&#45;4a61&#45;b728&#45;c65f5bf736b5</title>
<path fill="none" stroke="black" d="M65.5975,-503.697C65.5975,-495.983 65.5975,-486.712 65.5975,-478.112"/>
<polygon fill="black" stroke="black" points="69.0976,-478.104 65.5975,-468.104 62.0976,-478.104 69.0976,-478.104"/>
</g>
<!-- c1507ba1&#45;f7f4&#45;48e5&#45;86e0&#45;29006d4e4f93 -->
<g id="node3" class="node"><title>c1507ba1&#45;f7f4&#45;48e5&#45;86e0&#45;29006d4e4f93</title>
<ellipse fill="none" stroke="black" cx="28.5975" cy="-378" rx="28.6953" ry="18"/>
<text text-anchor="middle" x="28.5975" y="-374.3" font-family="Times,serif" font-size="14.00">i {3}</text>
</g>
<!-- b88ae313&#45;50d4&#45;4a61&#45;b728&#45;c65f5bf736b5&#45;&gt;c1507ba1&#45;f7f4&#45;48e5&#45;86e0&#45;29006d4e4f93 -->
<g id="edge2" class="edge"><title>b88ae313&#45;50d4&#45;4a61&#45;b728&#45;c65f5bf736b5&#45;&gt;c1507ba1&#45;f7f4&#45;48e5&#45;86e0&#45;29006d4e4f93</title>
<path fill="none" stroke="black" d="M57.0159,-432.765C52.5969,-424.404 47.1059,-414.016 42.132,-404.606"/>
<polygon fill="black" stroke="black" points="45.1569,-402.839 37.3894,-395.633 38.9682,-406.11 45.1569,-402.839"/>
</g>
<!-- 7ab29c9c&#45;8b5e&#45;4793&#45;8588&#45;8c3388b043b6 -->
<g id="node4" class="node"><title>7ab29c9c&#45;8b5e&#45;4793&#45;8588&#45;8c3388b043b6</title>
<ellipse fill="none" stroke="black" cx="102.597" cy="-378" rx="27" ry="18"/>
<text text-anchor="middle" x="102.597" y="-374.3" font-family="Times,serif" font-size="14.00">Y</text>
</g>
<!-- b88ae313&#45;50d4&#45;4a61&#45;b728&#45;c65f5bf736b5&#45;&gt;7ab29c9c&#45;8b5e&#45;4793&#45;8588&#45;8c3388b043b6 -->
<g id="edge3" class="edge"><title>b88ae313&#45;50d4&#45;4a61&#45;b728&#45;c65f5bf736b5&#45;&gt;7ab29c9c&#45;8b5e&#45;4793&#45;8588&#45;8c3388b043b6</title>
<path fill="none" stroke="black" d="M74.179,-432.765C78.6621,-424.283 84.2484,-413.714 89.2788,-404.197"/>
<polygon fill="black" stroke="black" points="92.4837,-405.624 94.0625,-395.147 86.295,-402.353 92.4837,-405.624"/>
</g>
<!-- 8ec3628c&#45;fbd4&#45;4bc4&#45;bc06&#45;f1a35635133d -->
<g id="node5" class="node"><title>8ec3628c&#45;fbd4&#45;4bc4&#45;bc06&#45;f1a35635133d</title>
<ellipse fill="none" stroke="black" cx="66.5975" cy="-306" rx="27" ry="18"/>
<text text-anchor="middle" x="66.5975" y="-302.3" font-family="Times,serif" font-size="14.00">*</text>
</g>
<!-- 7ab29c9c&#45;8b5e&#45;4793&#45;8588&#45;8c3388b043b6&#45;&gt;8ec3628c&#45;fbd4&#45;4bc4&#45;bc06&#45;f1a35635133d -->
<g id="edge4" class="edge"><title>7ab29c9c&#45;8b5e&#45;4793&#45;8588&#45;8c3388b043b6&#45;&gt;8ec3628c&#45;fbd4&#45;4bc4&#45;bc06&#45;f1a35635133d</title>
<path fill="none" stroke="black" d="M94.2479,-360.765C89.8859,-352.283 84.4506,-341.714 79.5561,-332.197"/>
<polygon fill="black" stroke="black" points="82.5878,-330.439 74.9018,-323.147 76.3628,-333.641 82.5878,-330.439"/>
</g>
<!-- c219d057&#45;4009&#45;44ed&#45;9480&#45;097c1a75d266 -->
<g id="node6" class="node"><title>c219d057&#45;4009&#45;44ed&#45;9480&#45;097c1a75d266</title>
<ellipse fill="none" stroke="black" cx="138.597" cy="-306" rx="27" ry="18"/>
<text text-anchor="middle" x="138.597" y="-302.3" font-family="Times,serif" font-size="14.00">F</text>
</g>
<!-- 7ab29c9c&#45;8b5e&#45;4793&#45;8588&#45;8c3388b043b6&#45;&gt;c219d057&#45;4009&#45;44ed&#45;9480&#45;097c1a75d266 -->
<g id="edge5" class="edge"><title>7ab29c9c&#45;8b5e&#45;4793&#45;8588&#45;8c3388b043b6&#45;&gt;c219d057&#45;4009&#45;44ed&#45;9480&#45;097c1a75d266</title>
<path fill="none" stroke="black" d="M110.947,-360.765C115.309,-352.283 120.744,-341.714 125.639,-332.197"/>
<polygon fill="black" stroke="black" points="128.832,-333.641 130.293,-323.147 122.607,-330.439 128.832,-333.641"/>
</g>
<!-- d5476902&#45;ba37&#45;491b&#45;85d4&#45;439a2ad661ef -->
<g id="node7" class="node"><title>d5476902&#45;ba37&#45;491b&#45;85d4&#45;439a2ad661ef</title>
<ellipse fill="none" stroke="black" cx="138.597" cy="-234" rx="27" ry="18"/>
<text text-anchor="middle" x="138.597" y="-230.3" font-family="Times,serif" font-size="14.00">E</text>
</g>
<!-- c219d057&#45;4009&#45;44ed&#45;9480&#45;097c1a75d266&#45;&gt;d5476902&#45;ba37&#45;491b&#45;85d4&#45;439a2ad661ef -->
<g id="edge6" class="edge"><title>c219d057&#45;4009&#45;44ed&#45;9480&#45;097c1a75d266&#45;&gt;d5476902&#45;ba37&#45;491b&#45;85d4&#45;439a2ad661ef</title>
<path fill="none" stroke="black" d="M138.597,-287.697C138.597,-279.983 138.597,-270.712 138.597,-262.112"/>
<polygon fill="black" stroke="black" points="142.098,-262.104 138.597,-252.104 135.098,-262.104 142.098,-262.104"/>
</g>
<!-- a42ac482&#45;ed89&#45;49cb&#45;a873&#45;1c22ec5ab90e -->
<g id="node8" class="node"><title>a42ac482&#45;ed89&#45;49cb&#45;a873&#45;1c22ec5ab90e</title>
<ellipse fill="none" stroke="black" cx="102.597" cy="-162" rx="27" ry="18"/>
<text text-anchor="middle" x="102.597" y="-158.3" font-family="Times,serif" font-size="14.00">T</text>
</g>
<!-- d5476902&#45;ba37&#45;491b&#45;85d4&#45;439a2ad661ef&#45;&gt;a42ac482&#45;ed89&#45;49cb&#45;a873&#45;1c22ec5ab90e -->
<g id="edge7" class="edge"><title>d5476902&#45;ba37&#45;491b&#45;85d4&#45;439a2ad661ef&#45;&gt;a42ac482&#45;ed89&#45;49cb&#45;a873&#45;1c22ec5ab90e</title>
<path fill="none" stroke="black" d="M130.248,-216.765C125.886,-208.283 120.451,-197.714 115.556,-188.197"/>
<polygon fill="black" stroke="black" points="118.588,-186.439 110.902,-179.147 112.363,-189.641 118.588,-186.439"/>
</g>
<!-- c540082e&#45;5e23&#45;4e88&#45;966b&#45;93441fa354f9 -->
<g id="node10" class="node"><title>c540082e&#45;5e23&#45;4e88&#45;966b&#45;93441fa354f9</title>
<ellipse fill="none" stroke="black" cx="175.597" cy="-162" rx="27" ry="18"/>
<text text-anchor="middle" x="175.597" y="-158.3" font-family="Times,serif" font-size="14.00">X</text>
</g>
<!-- d5476902&#45;ba37&#45;491b&#45;85d4&#45;439a2ad661ef&#45;&gt;c540082e&#45;5e23&#45;4e88&#45;966b&#45;93441fa354f9 -->
<g id="edge9" class="edge"><title>d5476902&#45;ba37&#45;491b&#45;85d4&#45;439a2ad661ef&#45;&gt;c540082e&#45;5e23&#45;4e88&#45;966b&#45;93441fa354f9</title>
<path fill="none" stroke="black" d="M147.179,-216.765C151.662,-208.283 157.248,-197.714 162.279,-188.197"/>
<polygon fill="black" stroke="black" points="165.484,-189.624 167.062,-179.147 159.295,-186.353 165.484,-189.624"/>
</g>
<!-- 65a2b308&#45;b008&#45;45e3&#45;a25a&#45;f0507490a3c3 -->
<g id="node9" class="node"><title>65a2b308&#45;b008&#45;45e3&#45;a25a&#45;f0507490a3c3</title>
<ellipse fill="none" stroke="black" cx="101.597" cy="-90" rx="28.6953" ry="18"/>
<text text-anchor="middle" x="101.597" y="-86.3" font-family="Times,serif" font-size="14.00">i {2}</text>
</g>
<!-- a42ac482&#45;ed89&#45;49cb&#45;a873&#45;1c22ec5ab90e&#45;&gt;65a2b308&#45;b008&#45;45e3&#45;a25a&#45;f0507490a3c3 -->
<g id="edge8" class="edge"><title>a42ac482&#45;ed89&#45;49cb&#45;a873&#45;1c22ec5ab90e&#45;&gt;65a2b308&#45;b008&#45;45e3&#45;a25a&#45;f0507490a3c3</title>
<path fill="none" stroke="black" d="M102.35,-143.697C102.24,-135.983 102.108,-126.712 101.985,-118.112"/>
<polygon fill="black" stroke="black" points="105.484,-118.053 101.842,-108.104 98.4851,-118.153 105.484,-118.053"/>
</g>
<!-- e8a047d4&#45;6f0d&#45;466e&#45;bdfb&#45;e1f0e172c6b8 -->
<g id="node11" class="node"><title>e8a047d4&#45;6f0d&#45;466e&#45;bdfb&#45;e1f0e172c6b8</title>
<ellipse fill="none" stroke="black" cx="175.597" cy="-90" rx="27" ry="18"/>
<text text-anchor="middle" x="175.597" y="-86.3" font-family="Times,serif" font-size="14.00">+</text>
</g>
<!-- c540082e&#45;5e23&#45;4e88&#45;966b&#45;93441fa354f9&#45;&gt;e8a047d4&#45;6f0d&#45;466e&#45;bdfb&#45;e1f0e172c6b8 -->
<g id="edge10" class="edge"><title>c540082e&#45;5e23&#45;4e88&#45;966b&#45;93441fa354f9&#45;&gt;e8a047d4&#45;6f0d&#45;466e&#45;bdfb&#45;e1f0e172c6b8</title>
<path fill="none" stroke="black" d="M175.597,-143.697C175.597,-135.983 175.597,-126.712 175.597,-118.112"/>
<polygon fill="black" stroke="black" points="179.098,-118.104 175.597,-108.104 172.098,-118.104 179.098,-118.104"/>
</g>
<!-- e0cae836&#45;8f36&#45;41dd&#45;8a61&#45;e8ddc633f01e -->
<g id="node12" class="node"><title>e0cae836&#45;8f36&#45;41dd&#45;8a61&#45;e8ddc633f01e</title>
<ellipse fill="none" stroke="black" cx="247.597" cy="-90" rx="27" ry="18"/>
<text text-anchor="middle" x="247.597" y="-86.3" font-family="Times,serif" font-size="14.00">T</text>
</g>
<!-- c540082e&#45;5e23&#45;4e88&#45;966b&#45;93441fa354f9&#45;&gt;e0cae836&#45;8f36&#45;41dd&#45;8a61&#45;e8ddc633f01e -->
<g id="edge11" class="edge"><title>c540082e&#45;5e23&#45;4e88&#45;966b&#45;93441fa354f9&#45;&gt;e0cae836&#45;8f36&#45;41dd&#45;8a61&#45;e8ddc633f01e</title>
<path fill="none" stroke="black" d="M190.168,-146.834C200.347,-136.938 214.121,-123.546 225.628,-112.359"/>
<polygon fill="black" stroke="black" points="228.072,-114.865 232.802,-105.385 223.192,-109.846 228.072,-114.865"/>
</g>
<!-- 404c8062&#45;8db6&#45;404b&#45;aa71&#45;a7a34e651a95 -->
<g id="node13" class="node"><title>404c8062&#45;8db6&#45;404b&#45;aa71&#45;a7a34e651a95</title>
<ellipse fill="none" stroke="black" cx="247.597" cy="-18" rx="28.6953" ry="18"/>
<text text-anchor="middle" x="247.597" y="-14.3" font-family="Times,serif" font-size="14.00">i {5}</text>
</g>
<!-- e0cae836&#45;8f36&#45;41dd&#45;8a61&#45;e8ddc633f01e&#45;&gt;404c8062&#45;8db6&#45;404b&#45;aa71&#45;a7a34e651a95 -->
<g id="edge12" class="edge"><title>e0cae836&#45;8f36&#45;41dd&#45;8a61&#45;e8ddc633f01e&#45;&gt;404c8062&#45;8db6&#45;404b&#45;aa71&#45;a7a34e651a95</title>
<path fill="none" stroke="black" d="M247.597,-71.6966C247.597,-63.9827 247.597,-54.7125 247.597,-46.1124"/>
<polygon fill="black" stroke="black" points="251.098,-46.1043 247.597,-36.1043 244.098,-46.1044 251.098,-46.1043"/>
</g>
</g>
</svg>
