<?xml version="1.0" encoding="UTF-8" standalone="no"?>
<!DOCTYPE svg PUBLIC "-//W3C//DTD SVG 1.1//EN"
 "http://www.w3.org/Graphics/SVG/1.1/DTD/svg11.dtd">
<!-- Generated by graphviz version 2.38.0 (20140413.2041)
 -->
<!-- Title: G Pages: 1 -->
<svg width="487pt" height="213pt"
 viewBox="7.20 7.20 479.87 206.20" xmlns="http://www.w3.org/2000/svg" xmlns:xlink="http://www.w3.org/1999/xlink">
<g id="graph0" class="graph" transform="scale(1 1) rotate(0) translate(11.2 202.2)">
<title>G</title>
<polygon fill="white" stroke="none" points="-4,4 -4,-195 468.674,-195 468.674,4 -4,4"/>
<!-- start -->
<g id="node1" class="node"><title>start</title>
</g>
<!-- q0q1 -->
<g id="node2" class="node"><title>q0q1</title>
<ellipse fill="none" stroke="black" cx="66.5975" cy="-18" rx="28.6953" ry="18"/>
<text text-anchor="middle" x="66.5975" y="-14.3" font-family="Times,serif" font-size="14.00">q0q1</text>
</g>
<!-- start&#45;&gt;q0q1 -->
<g id="edge9" class="edge"><title>start&#45;&gt;q0q1</title>
<path fill="none" stroke="black" stroke-dasharray="5,2" d="M1.04682,-18C1.89532,-18 14.1537,-18 27.7636,-18"/>
<polygon fill="black" stroke="black" points="27.7688,-21.5001 37.7688,-18 27.7688,-14.5001 27.7688,-21.5001"/>
</g>
<!-- q0q1&#45;&gt;q0q1 -->
<g id="edge2" class="edge"><title>q0q1&#45;&gt;q0q1</title>
<path fill="none" stroke="black" d="M58.3852,-35.4099C56.8522,-45.0879 59.5897,-54 66.5975,-54 70.9773,-54 73.6891,-50.5187 74.7328,-45.5449"/>
<polygon fill="black" stroke="black" points="78.2336,-45.4362 74.8097,-35.4099 71.2338,-45.383 78.2336,-45.4362"/>
<text text-anchor="middle" x="66.5975" y="-57.8" font-family="Times,serif" font-size="14.00">b</text>
</g>
<!-- q0q1q2 -->
<g id="node3" class="node"><title>q0q1q2</title>
<ellipse fill="none" stroke="black" cx="175.242" cy="-63" rx="37.0935" ry="18"/>
<text text-anchor="middle" x="175.242" y="-59.3" font-family="Times,serif" font-size="14.00">q0q1q2</text>
</g>
<!-- q0q1&#45;&gt;q0q1q2 -->
<g id="edge1" class="edge"><title>q0q1&#45;&gt;q0q1q2</title>
<path fill="none" stroke="black" d="M90.7377,-27.7643C104.333,-33.5013 121.833,-40.8853 137.297,-47.4105"/>
<polygon fill="black" stroke="black" points="136.035,-50.677 146.609,-51.34 138.756,-44.2276 136.035,-50.677"/>
<text text-anchor="middle" x="116.695" y="-42.8" font-family="Times,serif" font-size="14.00">a</text>
</g>
<!-- q0q1q2q3 -->
<g id="node4" class="node"><title>q0q1q2q3</title>
<ellipse fill="none" stroke="black" cx="301.434" cy="-140" rx="46.2923" ry="18"/>
<text text-anchor="middle" x="301.434" y="-136.3" font-family="Times,serif" font-size="14.00">q0q1q2q3</text>
</g>
<!-- q0q1q2&#45;&gt;q0q1q2q3 -->
<g id="edge3" class="edge"><title>q0q1q2&#45;&gt;q0q1q2q3</title>
<path fill="none" stroke="black" d="M195.254,-78.1747C205.392,-85.9801 218.232,-95.4199 230.288,-103 240.476,-109.405 251.883,-115.749 262.49,-121.327"/>
<polygon fill="black" stroke="black" points="261.064,-124.53 271.554,-126.015 264.279,-118.312 261.064,-124.53"/>
<text text-anchor="middle" x="233.788" y="-110.8" font-family="Times,serif" font-size="14.00">a</text>
</g>
<!-- q0q1q3 -->
<g id="node5" class="node"><title>q0q1q3</title>
<ellipse fill="none" stroke="black" cx="427.627" cy="-63" rx="37.0935" ry="18"/>
<text text-anchor="middle" x="427.627" y="-59.3" font-family="Times,serif" font-size="14.00">q0q1q3</text>
</g>
<!-- q0q1q2&#45;&gt;q0q1q3 -->
<g id="edge4" class="edge"><title>q0q1q2&#45;&gt;q0q1q3</title>
<path fill="none" stroke="black" d="M212.382,-63C256.668,-63 331.779,-63 380.274,-63"/>
<polygon fill="black" stroke="black" points="380.497,-66.5001 390.497,-63 380.497,-59.5001 380.497,-66.5001"/>
<text text-anchor="middle" x="301.434" y="-66.8" font-family="Times,serif" font-size="14.00">b</text>
</g>
<!-- q0q1q2q3&#45;&gt;q0q1q2q3 -->
<g id="edge5" class="edge"><title>q0q1q2q3&#45;&gt;q0q1q2q3</title>
<path fill="none" stroke="black" d="M289.651,-157.41C287.452,-167.088 291.38,-176 301.434,-176 307.718,-176 311.609,-172.519 313.107,-167.545"/>
<polygon fill="black" stroke="black" points="316.608,-167.447 313.217,-157.41 309.608,-167.371 316.608,-167.447"/>
<text text-anchor="middle" x="301.434" y="-179.8" font-family="Times,serif" font-size="14.00">a</text>
</g>
<!-- q0q1q2q3&#45;&gt;q0q1q3 -->
<g id="edge6" class="edge"><title>q0q1q2q3&#45;&gt;q0q1q3</title>
<path fill="none" stroke="black" d="M331.315,-126.015C344.198,-119.46 359.409,-111.281 372.58,-103 381.623,-97.3149 391.106,-90.5838 399.559,-84.2806"/>
<polygon fill="black" stroke="black" points="401.76,-87.0045 407.615,-78.1747 397.531,-81.4259 401.76,-87.0045"/>
<text text-anchor="middle" x="369.08" y="-109.8" font-family="Times,serif" font-size="14.00">b</text>
</g>
<!-- q0q1q3&#45;&gt;q0q1 -->
<g id="edge8" class="edge"><title>q0q1q3&#45;&gt;q0q1</title>
<path fill="none" stroke="black" d="M399.415,-51.131C384.438,-45.2614 365.337,-38.838 347.58,-36 261.68,-22.2712 159.368,-18.9372 105.35,-18.1763"/>
<polygon fill="black" stroke="black" points="105.251,-14.675 95.2099,-18.0561 105.168,-21.6745 105.251,-14.675"/>
<text text-anchor="middle" x="233.788" y="-26.8" font-family="Times,serif" font-size="14.00">b</text>
</g>
<!-- q0q1q3&#45;&gt;q0q1q2 -->
<g id="edge7" class="edge"><title>q0q1q3&#45;&gt;q0q1q2</title>
<path fill="none" stroke="black" d="M395.772,-53.7959C381.287,-49.9381 363.699,-45.91 347.58,-44 306.847,-39.1733 296.022,-39.1733 255.288,-44 242.696,-45.4922 229.206,-48.2772 217,-51.2637"/>
<polygon fill="black" stroke="black" points="215.917,-47.9278 207.096,-53.7959 217.652,-54.7096 215.917,-47.9278"/>
<text text-anchor="middle" x="301.434" y="-47.8" font-family="Times,serif" font-size="14.00">a</text>
</g>
</g>
</svg>
