<?xml version="1.0" encoding="UTF-8" standalone="no"?>
<!DOCTYPE svg PUBLIC "-//W3C//DTD SVG 1.1//EN"
 "http://www.w3.org/Graphics/SVG/1.1/DTD/svg11.dtd">
<!-- Generated by graphviz version 2.38.0 (20140413.2041)
 -->
<!-- Title: G Pages: 1 -->
<svg width="426pt" height="175pt"
 viewBox="7.20 7.20 419.18 168.20" xmlns="http://www.w3.org/2000/svg" xmlns:xlink="http://www.w3.org/1999/xlink">
<g id="graph0" class="graph" transform="scale(1 1) rotate(0) translate(11.2 164.197)">
<title>G</title>
<polygon fill="white" stroke="none" points="-4,4 -4,-156.997 407.983,-156.997 407.983,4 -4,4"/>
<!-- start -->
<g id="node1" class="node"><title>start</title>
</g>
<!-- q0 -->
<g id="node2" class="node"><title>q0</title>
<ellipse fill="none" stroke="black" cx="57.4983" cy="-76.4983" rx="19.4965" ry="19.4965"/>
<text text-anchor="middle" x="57.4983" y="-72.7983" font-family="Times,serif" font-size="14.00">q0</text>
</g>
<!-- start&#45;&gt;q0 -->
<g id="edge10" class="edge"><title>start&#45;&gt;q0</title>
<path fill="none" stroke="black" stroke-dasharray="5,2" d="M1.15921,-76.4983C2.69434,-76.4983 15.0887,-76.4983 27.7588,-76.4983"/>
<polygon fill="black" stroke="black" points="27.7768,-79.9984 37.7768,-76.4983 27.7768,-72.9984 27.7768,-79.9984"/>
</g>
<!-- q1 -->
<g id="node3" class="node"><title>q1</title>
<ellipse fill="none" stroke="black" cx="139.495" cy="-133.498" rx="19.4965" ry="19.4965"/>
<text text-anchor="middle" x="139.495" y="-129.798" font-family="Times,serif" font-size="14.00">q1</text>
</g>
<!-- q0&#45;&gt;q1 -->
<g id="edge1" class="edge"><title>q0&#45;&gt;q1</title>
<path fill="none" stroke="black" d="M73.9224,-87.4884C85.5426,-95.7682 101.681,-107.267 114.916,-116.698"/>
<polygon fill="black" stroke="black" points="112.943,-119.589 123.118,-122.542 117.005,-113.888 112.943,-119.589"/>
<text text-anchor="middle" x="98.4965" y="-110.298" font-family="Times,serif" font-size="14.00">l</text>
</g>
<!-- q4 -->
<g id="node6" class="node"><title>q4</title>
<ellipse fill="none" stroke="black" cx="139.495" cy="-76.4983" rx="19.4965" ry="19.4965"/>
<text text-anchor="middle" x="139.495" y="-72.7983" font-family="Times,serif" font-size="14.00">q4</text>
</g>
<!-- q0&#45;&gt;q4 -->
<g id="edge4" class="edge"><title>q0&#45;&gt;q4</title>
<path fill="none" stroke="black" d="M77.0522,-76.4983C86.6756,-76.4983 98.6505,-76.4983 109.466,-76.4983"/>
<polygon fill="black" stroke="black" points="109.764,-79.9984 119.764,-76.4983 109.764,-72.9984 109.764,-79.9984"/>
<text text-anchor="middle" x="98.4965" y="-80.2983" font-family="Times,serif" font-size="14.00">i</text>
</g>
<!-- q6 -->
<g id="node8" class="node"><title>q6</title>
<ellipse fill="none" stroke="black" cx="139.495" cy="-19.4983" rx="19.4965" ry="19.4965"/>
<text text-anchor="middle" x="139.495" y="-15.7983" font-family="Times,serif" font-size="14.00">q6</text>
</g>
<!-- q0&#45;&gt;q6 -->
<g id="edge6" class="edge"><title>q0&#45;&gt;q6</title>
<path fill="none" stroke="black" d="M73.9224,-65.5081C85.5426,-57.2283 101.681,-45.7295 114.916,-36.2988"/>
<polygon fill="black" stroke="black" points="117.005,-39.1081 123.118,-30.4547 112.943,-33.4072 117.005,-39.1081"/>
<text text-anchor="middle" x="98.4965" y="-54.2983" font-family="Times,serif" font-size="14.00">e</text>
</g>
<!-- q2 -->
<g id="node4" class="node"><title>q2</title>
<ellipse fill="none" stroke="black" cx="221.491" cy="-133.498" rx="19.4965" ry="19.4965"/>
<text text-anchor="middle" x="221.491" y="-129.798" font-family="Times,serif" font-size="14.00">q2</text>
</g>
<!-- q1&#45;&gt;q2 -->
<g id="edge2" class="edge"><title>q1&#45;&gt;q2</title>
<path fill="none" stroke="black" d="M159.049,-133.498C168.672,-133.498 180.647,-133.498 191.462,-133.498"/>
<polygon fill="black" stroke="black" points="191.761,-136.998 201.761,-133.498 191.761,-129.998 191.761,-136.998"/>
<text text-anchor="middle" x="180.493" y="-137.298" font-family="Times,serif" font-size="14.00">e</text>
</g>
<!-- q3 -->
<g id="node5" class="node"><title>q3</title>
<ellipse fill="none" stroke="black" stroke-width="2" cx="302.488" cy="-133.498" rx="19.4965" ry="19.4965"/>
<text text-anchor="middle" x="302.488" y="-129.798" font-family="Times,serif" font-size="14.00">q3</text>
</g>
<!-- q2&#45;&gt;q3 -->
<g id="edge3" class="edge"><title>q2&#45;&gt;q3</title>
<path fill="none" stroke="black" d="M241.212,-133.498C250.657,-133.498 262.317,-133.498 272.858,-133.498"/>
<polygon fill="black" stroke="black" points="272.901,-136.998 282.901,-133.498 272.901,-129.998 272.901,-136.998"/>
<text text-anchor="middle" x="261.99" y="-137.298" font-family="Times,serif" font-size="14.00">t</text>
</g>
<!-- q5 -->
<g id="node7" class="node"><title>q5</title>
<ellipse fill="none" stroke="black" stroke-width="2" cx="221.491" cy="-76.4983" rx="19.4965" ry="19.4965"/>
<text text-anchor="middle" x="221.491" y="-72.7983" font-family="Times,serif" font-size="14.00">q5</text>
</g>
<!-- q4&#45;&gt;q5 -->
<g id="edge5" class="edge"><title>q4&#45;&gt;q5</title>
<path fill="none" stroke="black" d="M159.049,-76.4983C168.672,-76.4983 180.647,-76.4983 191.462,-76.4983"/>
<polygon fill="black" stroke="black" points="191.761,-79.9984 201.761,-76.4983 191.761,-72.9984 191.761,-79.9984"/>
<text text-anchor="middle" x="180.493" y="-80.2983" font-family="Times,serif" font-size="14.00">f</text>
</g>
<!-- q7 -->
<g id="node9" class="node"><title>q7</title>
<ellipse fill="none" stroke="black" cx="221.491" cy="-19.4983" rx="19.4965" ry="19.4965"/>
<text text-anchor="middle" x="221.491" y="-15.7983" font-family="Times,serif" font-size="14.00">q7</text>
</g>
<!-- q6&#45;&gt;q7 -->
<g id="edge7" class="edge"><title>q6&#45;&gt;q7</title>
<path fill="none" stroke="black" d="M159.049,-19.4983C168.672,-19.4983 180.647,-19.4983 191.462,-19.4983"/>
<polygon fill="black" stroke="black" points="191.761,-22.9984 201.761,-19.4983 191.761,-15.9984 191.761,-22.9984"/>
<text text-anchor="middle" x="180.493" y="-23.2983" font-family="Times,serif" font-size="14.00">l</text>
</g>
<!-- q8 -->
<g id="node10" class="node"><title>q8</title>
<ellipse fill="none" stroke="black" cx="302.488" cy="-19.4983" rx="19.4965" ry="19.4965"/>
<text text-anchor="middle" x="302.488" y="-15.7983" font-family="Times,serif" font-size="14.00">q8</text>
</g>
<!-- q7&#45;&gt;q8 -->
<g id="edge8" class="edge"><title>q7&#45;&gt;q8</title>
<path fill="none" stroke="black" d="M241.212,-19.4983C250.657,-19.4983 262.317,-19.4983 272.858,-19.4983"/>
<polygon fill="black" stroke="black" points="272.901,-22.9984 282.901,-19.4983 272.901,-15.9984 272.901,-22.9984"/>
<text text-anchor="middle" x="261.99" y="-23.2983" font-family="Times,serif" font-size="14.00">s</text>
</g>
<!-- q9 -->
<g id="node11" class="node"><title>q9</title>
<ellipse fill="none" stroke="black" stroke-width="2" cx="384.484" cy="-19.4983" rx="19.4965" ry="19.4965"/>
<text text-anchor="middle" x="384.484" y="-15.7983" font-family="Times,serif" font-size="14.00">q9</text>
</g>
<!-- q8&#45;&gt;q9 -->
<g id="edge9" class="edge"><title>q8&#45;&gt;q9</title>
<path fill="none" stroke="black" d="M322.042,-19.4983C331.665,-19.4983 343.64,-19.4983 354.455,-19.4983"/>
<polygon fill="black" stroke="black" points="354.754,-22.9984 364.754,-19.4983 354.754,-15.9984 354.754,-22.9984"/>
<text text-anchor="middle" x="343.486" y="-23.2983" font-family="Times,serif" font-size="14.00">e</text>
</g>
</g>
</svg>
