<?xml version="1.0" encoding="UTF-8" standalone="no"?>
<!DOCTYPE svg PUBLIC "-//W3C//DTD SVG 1.1//EN"
 "http://www.w3.org/Graphics/SVG/1.1/DTD/svg11.dtd">
<!-- Generated by graphviz version 2.38.0 (20140413.2041)
 -->
<!-- Title: G Pages: 1 -->
<svg width="263pt" height="106pt"
 viewBox="7.20 7.20 256.19 99.20" xmlns="http://www.w3.org/2000/svg" xmlns:xlink="http://www.w3.org/1999/xlink">
<g id="graph0" class="graph" transform="scale(1 1) rotate(0) translate(11.2 95.1965)">
<title>G</title>
<polygon fill="white" stroke="none" points="-4,4 -4,-87.9965 244.99,-87.9965 244.99,4 -4,4"/>
<!-- start -->
<g id="node1" class="node"><title>start</title>
</g>
<!-- q0 -->
<g id="node2" class="node"><title>q0</title>
<ellipse fill="none" stroke="black" cx="57.4983" cy="-31.4983" rx="19.4965" ry="19.4965"/>
<text text-anchor="middle" x="57.4983" y="-27.7983" font-family="Times,serif" font-size="14.00">q0</text>
</g>
<!-- start&#45;&gt;q0 -->
<g id="edge7" class="edge"><title>start&#45;&gt;q0</title>
<path fill="none" stroke="black" stroke-dasharray="5,2" d="M1.15921,-31.4983C2.69434,-31.4983 15.0887,-31.4983 27.7588,-31.4983"/>
<polygon fill="black" stroke="black" points="27.7768,-34.9984 37.7768,-31.4983 27.7768,-27.9984 27.7768,-34.9984"/>
</g>
<!-- q0&#45;&gt;q0 -->
<g id="edge2" class="edge"><title>q0&#45;&gt;q0</title>
<path fill="none" stroke="black" d="M51.0268,-50.0201C49.927,-59.95 52.0842,-68.9965 57.4983,-68.9965 60.8821,-68.9965 62.9936,-65.4627 63.833,-60.3881"/>
<polygon fill="black" stroke="black" points="67.3374,-60.0654 63.9698,-50.0201 60.338,-59.973 67.3374,-60.0654"/>
<text text-anchor="middle" x="57.4983" y="-72.7965" font-family="Times,serif" font-size="14.00">b</text>
</g>
<!-- q1 -->
<g id="node3" class="node"><title>q1</title>
<ellipse fill="none" stroke="black" cx="139.495" cy="-50.4983" rx="19.4965" ry="19.4965"/>
<text text-anchor="middle" x="139.495" y="-46.7983" font-family="Times,serif" font-size="14.00">q1</text>
</g>
<!-- q0&#45;&gt;q1 -->
<g id="edge1" class="edge"><title>q0&#45;&gt;q1</title>
<path fill="none" stroke="black" d="M75.1552,-40.2418C81.239,-43.0443 88.2779,-45.847 94.9965,-47.4983 99.5863,-48.6263 104.525,-49.3826 109.369,-49.8813"/>
<polygon fill="black" stroke="black" points="109.429,-53.3941 119.65,-50.6061 109.921,-46.4115 109.429,-53.3941"/>
<text text-anchor="middle" x="98.4965" y="-52.2983" font-family="Times,serif" font-size="14.00">a</text>
</g>
<!-- q1&#45;&gt;q0 -->
<g id="edge4" class="edge"><title>q1&#45;&gt;q0</title>
<path fill="none" stroke="black" d="M123.369,-38.8543C117.109,-34.7324 109.552,-30.5994 101.997,-28.4983 97.2333,-27.1737 92.0692,-26.7203 87.0189,-26.7797"/>
<polygon fill="black" stroke="black" points="86.6979,-23.2937 76.977,-27.5072 87.2037,-30.2754 86.6979,-23.2937"/>
<text text-anchor="middle" x="98.4965" y="-32.2983" font-family="Times,serif" font-size="14.00">b</text>
</g>
<!-- q2 -->
<g id="node4" class="node"><title>q2</title>
<ellipse fill="none" stroke="black" stroke-width="2" cx="221.491" cy="-19.4983" rx="19.4965" ry="19.4965"/>
<text text-anchor="middle" x="221.491" y="-15.7983" font-family="Times,serif" font-size="14.00">q2</text>
</g>
<!-- q1&#45;&gt;q2 -->
<g id="edge3" class="edge"><title>q1&#45;&gt;q2</title>
<path fill="none" stroke="black" d="M157.853,-43.7717C168.336,-39.7094 181.912,-34.4483 193.745,-29.8631"/>
<polygon fill="black" stroke="black" points="195.107,-33.0886 203.167,-26.2117 192.578,-26.5616 195.107,-33.0886"/>
<text text-anchor="middle" x="180.493" y="-39.2983" font-family="Times,serif" font-size="14.00">a</text>
</g>
<!-- q2&#45;&gt;q0 -->
<g id="edge6" class="edge"><title>q2&#45;&gt;q0</title>
<path fill="none" stroke="black" d="M202.591,-14.0912C182.406,-8.7505 148.661,-2.10318 119.997,-7.49827 107.924,-9.77055 95.1794,-14.3475 84.4424,-18.9008"/>
<polygon fill="black" stroke="black" points="82.9327,-15.7417 75.2231,-23.0089 85.7819,-22.1356 82.9327,-15.7417"/>
<text text-anchor="middle" x="139.495" y="-11.2983" font-family="Times,serif" font-size="14.00">b</text>
</g>
<!-- q2&#45;&gt;q2 -->
<g id="edge5" class="edge"><title>q2&#45;&gt;q2</title>
<path fill="none" stroke="black" d="M214.301,-38.0201C213.079,-47.95 215.476,-56.9965 221.491,-56.9965 225.251,-56.9965 227.597,-53.4627 228.53,-48.3881"/>
<polygon fill="black" stroke="black" points="232.035,-48.0703 228.682,-38.0201 225.036,-47.9676 232.035,-48.0703"/>
<text text-anchor="middle" x="221.491" y="-60.7965" font-family="Times,serif" font-size="14.00">a</text>
</g>
</g>
</svg>
