<?xml version="1.0" encoding="UTF-8" standalone="no"?>
<!DOCTYPE svg PUBLIC "-//W3C//DTD SVG 1.1//EN"
 "http://www.w3.org/Graphics/SVG/1.1/DTD/svg11.dtd">
<!-- Generated by graphviz version 2.38.0 (20140413.2041)
 -->
<!-- Title: G Pages: 1 -->
<svg width="181pt" height="95pt"
 viewBox="7.20 7.20 174.19 87.91" xmlns="http://www.w3.org/2000/svg" xmlns:xlink="http://www.w3.org/1999/xlink">
<g id="graph0" class="graph" transform="scale(1 1) rotate(0) translate(11.2 83.9127)">
<title>G</title>
<polygon fill="white" stroke="none" points="-4,4 -4,-76.7127 162.993,-76.7127 162.993,4 -4,4"/>
<!-- start -->
<g id="node1" class="node"><title>start</title>
</g>
<!-- q0 -->
<g id="node2" class="node"><title>q0</title>
<ellipse fill="none" stroke="black" cx="57.4983" cy="-20.2144" rx="19.4965" ry="19.4965"/>
<text text-anchor="middle" x="57.4983" y="-16.5144" font-family="Times,serif" font-size="14.00">q0</text>
</g>
<!-- start&#45;&gt;q0 -->
<g id="edge5" class="edge"><title>start&#45;&gt;q0</title>
<path fill="none" stroke="black" stroke-dasharray="5,2" d="M1.15921,-20.2144C2.69434,-20.2144 15.0887,-20.2144 27.7588,-20.2144"/>
<polygon fill="black" stroke="black" points="27.7768,-23.7145 37.7768,-20.2144 27.7768,-16.7145 27.7768,-23.7145"/>
</g>
<!-- q0&#45;&gt;q0 -->
<g id="edge2" class="edge"><title>q0&#45;&gt;q0</title>
<path fill="none" stroke="black" d="M51.0268,-38.7362C49.927,-48.6662 52.0842,-57.7127 57.4983,-57.7127 60.8821,-57.7127 62.9936,-54.1789 63.833,-49.1042"/>
<polygon fill="black" stroke="black" points="67.3374,-48.7815 63.9698,-38.7362 60.338,-48.6891 67.3374,-48.7815"/>
<text text-anchor="middle" x="57.4983" y="-61.5127" font-family="Times,serif" font-size="14.00">b</text>
</g>
<!-- q1 -->
<g id="node3" class="node"><title>q1</title>
<ellipse fill="none" stroke="black" stroke-width="2" cx="139.495" cy="-20.2144" rx="19.4965" ry="19.4965"/>
<text text-anchor="middle" x="139.495" y="-16.5144" font-family="Times,serif" font-size="14.00">q1</text>
</g>
<!-- q0&#45;&gt;q1 -->
<g id="edge1" class="edge"><title>q0&#45;&gt;q1</title>
<path fill="none" stroke="black" d="M77.0522,-20.2144C86.6756,-20.2144 98.6505,-20.2144 109.466,-20.2144"/>
<polygon fill="black" stroke="black" points="109.764,-23.7145 119.764,-20.2144 109.764,-16.7145 109.764,-23.7145"/>
<text text-anchor="middle" x="98.4965" y="-24.0144" font-family="Times,serif" font-size="14.00">a</text>
</g>
<!-- q1&#45;&gt;q0 -->
<g id="edge3" class="edge"><title>q1&#45;&gt;q0</title>
<path fill="none" stroke="black" d="M123.643,-8.332C115.438,-3.16745 104.922,1.21441 94.9965,-1.21441 91.05,-2.18013 87.0556,-3.65456 83.2293,-5.36399"/>
<polygon fill="black" stroke="black" points="81.5285,-2.30202 74.1875,-9.94148 84.6902,-8.5473 81.5285,-2.30202"/>
<text text-anchor="middle" x="98.4965" y="-5.01441" font-family="Times,serif" font-size="14.00">a</text>
</g>
<!-- q1&#45;&gt;q1 -->
<g id="edge4" class="edge"><title>q1&#45;&gt;q1</title>
<path fill="none" stroke="black" d="M132.304,-38.7362C131.082,-48.6662 133.479,-57.7127 139.495,-57.7127 143.255,-57.7127 145.601,-54.1789 146.533,-49.1042"/>
<polygon fill="black" stroke="black" points="150.038,-48.7865 146.685,-38.7362 143.039,-48.6838 150.038,-48.7865"/>
<text text-anchor="middle" x="139.495" y="-61.5127" font-family="Times,serif" font-size="14.00">b</text>
</g>
</g>
</svg>
