<?xml version="1.0" encoding="UTF-8" standalone="no"?>
<!DOCTYPE svg PUBLIC "-//W3C//DTD SVG 1.1//EN"
 "http://www.w3.org/Graphics/SVG/1.1/DTD/svg11.dtd">
<!-- Generated by graphviz version 2.38.0 (20140413.2041)
 -->
<!-- Title: G Pages: 1 -->
<svg width="350pt" height="260pt"
 viewBox="0.00 0.00 350.30 260.00" xmlns="http://www.w3.org/2000/svg" xmlns:xlink="http://www.w3.org/1999/xlink">
<g id="graph0" class="graph" transform="scale(1 1) rotate(0) translate(4 256)">
<title>G</title>
<polygon fill="white" stroke="none" points="-4,4 -4,-256 346.298,-256 346.298,4 -4,4"/>
<!-- b7c7a483&#45;a1ca&#45;4741&#45;a811&#45;5a2d813af22b -->
<g id="node1" class="node"><title>b7c7a483&#45;a1ca&#45;4741&#45;a811&#45;5a2d813af22b</title>
<ellipse fill="none" stroke="black" cx="135" cy="-234" rx="50.0912" ry="18"/>
<text text-anchor="start" x="104.5" y="-230.3" font-family="Times,serif" font-size="14.00">decl&#45;assign</text>
</g>
<!-- 6c7f1101&#45;a88c&#45;44a5&#45;b20e&#45;e9739bb71698 -->
<g id="node2" class="node"><title>6c7f1101&#45;a88c&#45;44a5&#45;b20e&#45;e9739bb71698</title>
<ellipse fill="none" stroke="black" cx="27" cy="-162" rx="27" ry="18"/>
<text text-anchor="start" x="15" y="-158.3" font-family="Times,serif" font-size="14.00">type</text>
</g>
<!-- b7c7a483&#45;a1ca&#45;4741&#45;a811&#45;5a2d813af22b&#45;&gt;6c7f1101&#45;a88c&#45;44a5&#45;b20e&#45;e9739bb71698 -->
<g id="edge1" class="edge"><title>b7c7a483&#45;a1ca&#45;4741&#45;a811&#45;5a2d813af22b&#45;&gt;6c7f1101&#45;a88c&#45;44a5&#45;b20e&#45;e9739bb71698</title>
<path fill="none" stroke="black" d="M111.831,-217.983C95.0472,-207.105 72.287,-192.353 54.5673,-180.868"/>
<polygon fill="black" stroke="black" points="56.1141,-177.699 45.8189,-175.197 52.3068,-183.573 56.1141,-177.699"/>
</g>
<!-- dfb68748&#45;4e44&#45;4094&#45;81ab&#45;3337c652f95a -->
<g id="node3" class="node"><title>dfb68748&#45;4e44&#45;4094&#45;81ab&#45;3337c652f95a</title>
<ellipse fill="none" stroke="black" cx="99" cy="-162" rx="27" ry="18"/>
<text text-anchor="start" x="93.5" y="-158.3" font-family="Times,serif" font-size="14.00">id</text>
</g>
<!-- b7c7a483&#45;a1ca&#45;4741&#45;a811&#45;5a2d813af22b&#45;&gt;dfb68748&#45;4e44&#45;4094&#45;81ab&#45;3337c652f95a -->
<g id="edge2" class="edge"><title>b7c7a483&#45;a1ca&#45;4741&#45;a811&#45;5a2d813af22b&#45;&gt;dfb68748&#45;4e44&#45;4094&#45;81ab&#45;3337c652f95a</title>
<path fill="none" stroke="black" d="M126.285,-216.055C122.023,-207.767 116.803,-197.618 112.075,-188.424"/>
<polygon fill="black" stroke="black" points="115.073,-186.599 107.386,-179.307 108.847,-189.801 115.073,-186.599"/>
</g>
<!-- 828a532a&#45;46e6&#45;44d3&#45;8a50&#45;614cfa8152b9 -->
<g id="node4" class="node"><title>828a532a&#45;46e6&#45;44d3&#45;8a50&#45;614cfa8152b9</title>
<ellipse fill="none" stroke="black" cx="171" cy="-162" rx="27" ry="18"/>
<text text-anchor="middle" x="171" y="-158.3" font-family="Times,serif" font-size="14.00">=</text>
</g>
<!-- b7c7a483&#45;a1ca&#45;4741&#45;a811&#45;5a2d813af22b&#45;&gt;828a532a&#45;46e6&#45;44d3&#45;8a50&#45;614cfa8152b9 -->
<g id="edge3" class="edge"><title>b7c7a483&#45;a1ca&#45;4741&#45;a811&#45;5a2d813af22b&#45;&gt;828a532a&#45;46e6&#45;44d3&#45;8a50&#45;614cfa8152b9</title>
<path fill="none" stroke="black" d="M143.715,-216.055C147.977,-207.767 153.197,-197.618 157.925,-188.424"/>
<polygon fill="black" stroke="black" points="161.153,-189.801 162.614,-179.307 154.927,-186.599 161.153,-189.801"/>
</g>
<!-- 0748ac1b&#45;03f2&#45;4196&#45;92e7&#45;970a0aa81832 -->
<g id="node5" class="node"><title>0748ac1b&#45;03f2&#45;4196&#45;92e7&#45;970a0aa81832</title>
<ellipse fill="none" stroke="black" cx="243" cy="-162" rx="27" ry="18"/>
<text text-anchor="start" x="230.5" y="-158.3" font-family="Times,serif" font-size="14.00">expr</text>
</g>
<!-- b7c7a483&#45;a1ca&#45;4741&#45;a811&#45;5a2d813af22b&#45;&gt;0748ac1b&#45;03f2&#45;4196&#45;92e7&#45;970a0aa81832 -->
<g id="edge4" class="edge"><title>b7c7a483&#45;a1ca&#45;4741&#45;a811&#45;5a2d813af22b&#45;&gt;0748ac1b&#45;03f2&#45;4196&#45;92e7&#45;970a0aa81832</title>
<path fill="none" stroke="black" d="M158.169,-217.983C174.953,-207.105 197.713,-192.353 215.433,-180.868"/>
<polygon fill="black" stroke="black" points="217.693,-183.573 224.181,-175.197 213.886,-177.699 217.693,-183.573"/>
</g>
<!-- 5a32694c&#45;7393&#45;48aa&#45;96c2&#45;cdfc3e4a6952 -->
<g id="node6" class="node"><title>5a32694c&#45;7393&#45;48aa&#45;96c2&#45;cdfc3e4a6952</title>
<ellipse fill="none" stroke="black" cx="171" cy="-90" rx="27.0966" ry="18"/>
<text text-anchor="start" x="158" y="-86.3" font-family="Times,serif" font-size="14.00">term</text>
</g>
<!-- 0748ac1b&#45;03f2&#45;4196&#45;92e7&#45;970a0aa81832&#45;&gt;5a32694c&#45;7393&#45;48aa&#45;96c2&#45;cdfc3e4a6952 -->
<g id="edge5" class="edge"><title>0748ac1b&#45;03f2&#45;4196&#45;92e7&#45;970a0aa81832&#45;&gt;5a32694c&#45;7393&#45;48aa&#45;96c2&#45;cdfc3e4a6952</title>
<path fill="none" stroke="black" d="M228.43,-146.834C218.25,-136.938 204.476,-123.546 192.969,-112.359"/>
<polygon fill="black" stroke="black" points="195.405,-109.846 185.796,-105.385 190.526,-114.865 195.405,-109.846"/>
</g>
<!-- 3d031177&#45;cc56&#45;42c9&#45;844a&#45;ec055da7f71e -->
<g id="node8" class="node"><title>3d031177&#45;cc56&#45;42c9&#45;844a&#45;ec055da7f71e</title>
<ellipse fill="none" stroke="black" cx="243" cy="-90" rx="27" ry="18"/>
<text text-anchor="middle" x="243" y="-86.3" font-family="Times,serif" font-size="14.00">+</text>
</g>
<!-- 0748ac1b&#45;03f2&#45;4196&#45;92e7&#45;970a0aa81832&#45;&gt;3d031177&#45;cc56&#45;42c9&#45;844a&#45;ec055da7f71e -->
<g id="edge7" class="edge"><title>0748ac1b&#45;03f2&#45;4196&#45;92e7&#45;970a0aa81832&#45;&gt;3d031177&#45;cc56&#45;42c9&#45;844a&#45;ec055da7f71e</title>
<path fill="none" stroke="black" d="M243,-143.697C243,-135.983 243,-126.712 243,-118.112"/>
<polygon fill="black" stroke="black" points="246.5,-118.104 243,-108.104 239.5,-118.104 246.5,-118.104"/>
</g>
<!-- 76a03c4b&#45;a02a&#45;48ff&#45;9dbb&#45;7b8b2defe872 -->
<g id="node9" class="node"><title>76a03c4b&#45;a02a&#45;48ff&#45;9dbb&#45;7b8b2defe872</title>
<ellipse fill="none" stroke="black" cx="315" cy="-90" rx="27.0966" ry="18"/>
<text text-anchor="start" x="302" y="-86.3" font-family="Times,serif" font-size="14.00">term</text>
</g>
<!-- 0748ac1b&#45;03f2&#45;4196&#45;92e7&#45;970a0aa81832&#45;&gt;76a03c4b&#45;a02a&#45;48ff&#45;9dbb&#45;7b8b2defe872 -->
<g id="edge8" class="edge"><title>0748ac1b&#45;03f2&#45;4196&#45;92e7&#45;970a0aa81832&#45;&gt;76a03c4b&#45;a02a&#45;48ff&#45;9dbb&#45;7b8b2defe872</title>
<path fill="none" stroke="black" d="M257.57,-146.834C267.75,-136.938 281.524,-123.546 293.031,-112.359"/>
<polygon fill="black" stroke="black" points="295.474,-114.865 300.204,-105.385 290.595,-109.846 295.474,-114.865"/>
</g>
<!-- fcf955b2&#45;dfe3&#45;4215&#45;babe&#45;9947f860a227 -->
<g id="node7" class="node"><title>fcf955b2&#45;dfe3&#45;4215&#45;babe&#45;9947f860a227</title>
<ellipse fill="none" stroke="black" cx="171" cy="-18" rx="27" ry="18"/>
<text text-anchor="start" x="165.5" y="-14.3" font-family="Times,serif" font-size="14.00">id</text>
</g>
<!-- 5a32694c&#45;7393&#45;48aa&#45;96c2&#45;cdfc3e4a6952&#45;&gt;fcf955b2&#45;dfe3&#45;4215&#45;babe&#45;9947f860a227 -->
<g id="edge6" class="edge"><title>5a32694c&#45;7393&#45;48aa&#45;96c2&#45;cdfc3e4a6952&#45;&gt;fcf955b2&#45;dfe3&#45;4215&#45;babe&#45;9947f860a227</title>
<path fill="none" stroke="black" d="M171,-71.6966C171,-63.9827 171,-54.7125 171,-46.1124"/>
<polygon fill="black" stroke="black" points="174.5,-46.1043 171,-36.1043 167.5,-46.1044 174.5,-46.1043"/>
</g>
<!-- e044be4e&#45;58d1&#45;41ff&#45;a841&#45;4524f62eac59 -->
<g id="node10" class="node"><title>e044be4e&#45;58d1&#45;41ff&#45;a841&#45;4524f62eac59</title>
<ellipse fill="none" stroke="black" cx="315" cy="-18" rx="27" ry="18"/>
<text text-anchor="start" x="309.5" y="-14.3" font-family="Times,serif" font-size="14.00">id</text>
</g>
<!-- 76a03c4b&#45;a02a&#45;48ff&#45;9dbb&#45;7b8b2defe872&#45;&gt;e044be4e&#45;58d1&#45;41ff&#45;a841&#45;4524f62eac59 -->
<g id="edge9" class="edge"><title>76a03c4b&#45;a02a&#45;48ff&#45;9dbb&#45;7b8b2defe872&#45;&gt;e044be4e&#45;58d1&#45;41ff&#45;a841&#45;4524f62eac59</title>
<path fill="none" stroke="black" d="M315,-71.6966C315,-63.9827 315,-54.7125 315,-46.1124"/>
<polygon fill="black" stroke="black" points="318.5,-46.1043 315,-36.1043 311.5,-46.1044 318.5,-46.1043"/>
</g>
</g>
</svg>
