<?xml version="1.0" encoding="UTF-8" standalone="no"?>
<!DOCTYPE svg PUBLIC "-//W3C//DTD SVG 1.1//EN"
 "http://www.w3.org/Graphics/SVG/1.1/DTD/svg11.dtd">
<!-- Generated by graphviz version 2.40.1 (20161225.0304)
 -->
<!-- Title: G Pages: 1 -->
<svg width="1737pt" height="555pt"
 viewBox="7.20 7.20 1729.90 547.59" xmlns="http://www.w3.org/2000/svg" xmlns:xlink="http://www.w3.org/1999/xlink">
<g id="graph0" class="graph" transform="scale(1 1) rotate(0) translate(11.2 543.5922)">
<title>G</title>
<polygon fill="#ffffff" stroke="transparent" points="-4,4 -4,-536.3922 1718.699,-536.3922 1718.699,4 -4,4"/>
<!-- start -->
<g id="node1" class="node">
<title>start</title>
</g>
<!-- 140338461217624 -->
<g id="node2" class="node">
<title>140338461217624</title>
<ellipse fill="none" stroke="#000000" stroke-width="2" cx="76.3466" cy="-230.0957" rx="38.1938" ry="38.1938"/>
<text text-anchor="middle" x="76.3466" y="-226.3957" font-family="Times,serif" font-size="14.00" fill="#000000">S&#39; &#45;&gt; .E</text>
</g>
<!-- start&#45;&gt;140338461217624 -->
<g id="edge30" class="edge">
<title>start&#45;&gt;140338461217624</title>
<path fill="none" stroke="#000000" stroke-dasharray="5,2" d="M1.3518,-230.0957C4.3825,-230.0957 15.1292,-230.0957 27.5783,-230.0957"/>
<polygon fill="#000000" stroke="#000000" points="27.8123,-233.5958 37.8123,-230.0957 27.8122,-226.5958 27.8123,-233.5958"/>
</g>
<!-- 140338461217848 -->
<g id="node3" class="node">
<title>140338461217848</title>
<ellipse fill="none" stroke="#000000" stroke-width="2" cx="198.0398" cy="-323.0957" rx="38.1938" ry="38.1938"/>
<text text-anchor="middle" x="198.0398" y="-319.3957" font-family="Times,serif" font-size="14.00" fill="#000000">S&#39; &#45;&gt; E.</text>
</g>
<!-- 140338461217624&#45;&gt;140338461217848 -->
<g id="edge1" class="edge">
<title>140338461217624&#45;&gt;140338461217848</title>
<path fill="none" stroke="#000000" d="M107.0549,-253.5636C122.9085,-265.6791 142.4139,-280.5855 159.2934,-293.4851"/>
<polygon fill="#000000" stroke="#000000" points="157.2706,-296.3442 167.3413,-299.6354 161.521,-290.7824 157.2706,-296.3442"/>
<text text-anchor="middle" x="137.1932" y="-282.8957" font-family="Times,serif" font-size="14.00" fill="#000000">E</text>
</g>
<!-- 140338461217960 -->
<g id="node4" class="node">
<title>140338461217960</title>
<ellipse fill="none" stroke="#000000" stroke-width="2" cx="198.0398" cy="-230.0957" rx="37.0935" ry="37.0935"/>
<text text-anchor="middle" x="198.0398" y="-226.3957" font-family="Times,serif" font-size="14.00" fill="#000000">E &#45;&gt; .T</text>
</g>
<!-- 140338461217624&#45;&gt;140338461217960 -->
<g id="edge28" class="edge">
<title>140338461217624&#45;&gt;140338461217960</title>
<path fill="none" stroke="#000000" d="M114.8511,-230.0957C126.1611,-230.0957 138.667,-230.0957 150.472,-230.0957"/>
<polygon fill="#000000" stroke="#000000" points="150.6179,-233.5958 160.6178,-230.0957 150.6178,-226.5958 150.6179,-233.5958"/>
<text text-anchor="middle" x="137.1932" y="-233.8957" font-family="Times,serif" font-size="14.00" fill="#000000">ε</text>
</g>
<!-- 140338461217904 -->
<g id="node12" class="node">
<title>140338461217904</title>
<ellipse fill="none" stroke="#000000" stroke-width="2" cx="702.5606" cy="-48.0957" rx="48.1917" ry="48.1917"/>
<text text-anchor="middle" x="702.5606" y="-44.3957" font-family="Times,serif" font-size="14.00" fill="#000000">E &#45;&gt; .E+T</text>
</g>
<!-- 140338461217624&#45;&gt;140338461217904 -->
<g id="edge29" class="edge">
<title>140338461217624&#45;&gt;140338461217904</title>
<path fill="none" stroke="#000000" d="M83.8466,-192.3852C96.895,-139.0763 129.242,-48.0957 198.0398,-48.0957 198.0398,-48.0957 198.0398,-48.0957 567.2186,-48.0957 592.3942,-48.0957 620.204,-48.0957 644.033,-48.0957"/>
<polygon fill="#000000" stroke="#000000" points="644.3289,-51.5958 654.3288,-48.0957 644.3288,-44.5958 644.3289,-51.5958"/>
<text text-anchor="middle" x="377.4798" y="-51.8957" font-family="Times,serif" font-size="14.00" fill="#000000">ε</text>
</g>
<!-- 140338461218184 -->
<g id="node5" class="node">
<title>140338461218184</title>
<ellipse fill="none" stroke="#000000" stroke-width="2" cx="318.4331" cy="-405.0957" rx="37.0935" ry="37.0935"/>
<text text-anchor="middle" x="318.4331" y="-401.3957" font-family="Times,serif" font-size="14.00" fill="#000000">E &#45;&gt; T.</text>
</g>
<!-- 140338461217960&#45;&gt;140338461218184 -->
<g id="edge2" class="edge">
<title>140338461217960&#45;&gt;140338461218184</title>
<path fill="none" stroke="#000000" d="M222.8844,-258.119C227.584,-263.9032 232.3019,-270.072 236.3864,-276.0957 259.9362,-310.8261 258.131,-324.1676 281.3864,-359.0957 283.4393,-362.1791 285.6506,-365.3082 287.9346,-368.4089"/>
<polygon fill="#000000" stroke="#000000" points="285.2501,-370.6609 294.0916,-376.4987 290.8204,-366.4215 285.2501,-370.6609"/>
<text text-anchor="middle" x="258.8864" y="-329.8957" font-family="Times,serif" font-size="14.00" fill="#000000">T</text>
</g>
<!-- 140338461218296 -->
<g id="node6" class="node">
<title>140338461218296</title>
<ellipse fill="none" stroke="#000000" stroke-width="2" cx="318.4331" cy="-314.0957" rx="36.2938" ry="36.2938"/>
<text text-anchor="middle" x="318.4331" y="-310.3957" font-family="Times,serif" font-size="14.00" fill="#000000">T &#45;&gt; .F</text>
</g>
<!-- 140338461217960&#45;&gt;140338461218296 -->
<g id="edge26" class="edge">
<title>140338461217960&#45;&gt;140338461218296</title>
<path fill="none" stroke="#000000" d="M228.7316,-251.5098C244.275,-262.3546 263.3052,-275.6322 279.8318,-287.1631"/>
<polygon fill="#000000" stroke="#000000" points="278.0104,-290.16 288.2143,-293.0116 282.0158,-284.4192 278.0104,-290.16"/>
<text text-anchor="middle" x="258.8864" y="-277.8957" font-family="Times,serif" font-size="14.00" fill="#000000">ε</text>
</g>
<!-- 140338461218240 -->
<g id="node16" class="node">
<title>140338461218240</title>
<ellipse fill="none" stroke="#000000" stroke-width="2" cx="1126.1349" cy="-386.0957" rx="46.2923" ry="46.2923"/>
<text text-anchor="middle" x="1126.1349" y="-382.3957" font-family="Times,serif" font-size="14.00" fill="#000000">T &#45;&gt; .T*F</text>
</g>
<!-- 140338461217960&#45;&gt;140338461218240 -->
<g id="edge27" class="edge">
<title>140338461217960&#45;&gt;140338461218240</title>
<path fill="none" stroke="#000000" d="M223.7045,-256.9002C228.448,-262.8791 232.9741,-269.4328 236.3864,-276.0957 284.1444,-369.3507 213.6604,-497.0957 318.4331,-497.0957 318.4331,-497.0957 318.4331,-497.0957 914.3478,-497.0957 979.1463,-497.0957 1043.6633,-455.8277 1084.1511,-423.6172"/>
<polygon fill="#000000" stroke="#000000" points="1086.3623,-426.3302 1091.9212,-417.3108 1081.951,-420.8951 1086.3623,-426.3302"/>
<text text-anchor="middle" x="631.9648" y="-500.8957" font-family="Times,serif" font-size="14.00" fill="#000000">ε</text>
</g>
<!-- 140338461218520 -->
<g id="node7" class="node">
<title>140338461218520</title>
<ellipse fill="none" stroke="#000000" stroke-width="2" cx="441.7261" cy="-314.0957" rx="36.2938" ry="36.2938"/>
<text text-anchor="middle" x="441.7261" y="-310.3957" font-family="Times,serif" font-size="14.00" fill="#000000">T &#45;&gt; F.</text>
</g>
<!-- 140338461218296&#45;&gt;140338461218520 -->
<g id="edge3" class="edge">
<title>140338461218296&#45;&gt;140338461218520</title>
<path fill="none" stroke="#000000" d="M355.0912,-314.0957C367.5255,-314.0957 381.5924,-314.0957 394.7194,-314.0957"/>
<polygon fill="#000000" stroke="#000000" points="394.9963,-317.5958 404.9963,-314.0957 394.9962,-310.5958 394.9963,-317.5958"/>
<text text-anchor="middle" x="377.4798" y="-317.8957" font-family="Times,serif" font-size="14.00" fill="#000000">F</text>
</g>
<!-- 140338461218632 -->
<g id="node8" class="node">
<title>140338461218632</title>
<ellipse fill="none" stroke="#000000" stroke-width="2" cx="441.7261" cy="-217.0957" rx="42.4939" ry="42.4939"/>
<text text-anchor="middle" x="441.7261" y="-213.3957" font-family="Times,serif" font-size="14.00" fill="#000000">F &#45;&gt; .(E)</text>
</g>
<!-- 140338461218296&#45;&gt;140338461218632 -->
<g id="edge24" class="edge">
<title>140338461218296&#45;&gt;140338461218632</title>
<path fill="none" stroke="#000000" d="M347.3398,-291.3535C362.9984,-279.0343 382.627,-263.5916 399.9229,-249.9841"/>
<polygon fill="#000000" stroke="#000000" points="402.5034,-252.4073 408.1986,-243.4733 398.1752,-246.9058 402.5034,-252.4073"/>
<text text-anchor="middle" x="377.4798" y="-271.8957" font-family="Times,serif" font-size="14.00" fill="#000000">ε</text>
</g>
<!-- 140338461218576 -->
<g id="node20" class="node">
<title>140338461218576</title>
<ellipse fill="none" stroke="#000000" stroke-width="2" cx="1536.9602" cy="-492.0957" rx="40.0939" ry="40.0939"/>
<text text-anchor="middle" x="1536.9602" y="-488.3957" font-family="Times,serif" font-size="14.00" fill="#000000">F &#45;&gt; .int</text>
</g>
<!-- 140338461218296&#45;&gt;140338461218576 -->
<g id="edge25" class="edge">
<title>140338461218296&#45;&gt;140338461218576</title>
<path fill="none" stroke="#000000" d="M342.2162,-341.6767C346.7745,-347.3214 351.3952,-353.3084 355.4798,-359.0957 389.3225,-407.0467 383.0351,-459.0957 441.7261,-459.0957 441.7261,-459.0957 441.7261,-459.0957 914.3478,-459.0957 1009.6806,-459.0957 1030.8021,-493.0957 1126.1349,-493.0957 1126.1349,-493.0957 1126.1349,-493.0957 1400.6684,-493.0957 1428.9524,-493.0957 1460.5371,-492.8777 1486.174,-492.6453"/>
<polygon fill="#000000" stroke="#000000" points="1486.4411,-496.143 1496.4076,-492.5489 1486.3751,-489.1433 1486.4411,-496.143"/>
<text text-anchor="middle" x="914.3478" y="-462.8957" font-family="Times,serif" font-size="14.00" fill="#000000">ε</text>
</g>
<!-- 140338461218744 -->
<g id="node9" class="node">
<title>140338461218744</title>
<ellipse fill="none" stroke="#000000" stroke-width="2" cx="567.2186" cy="-223.0957" rx="42.4939" ry="42.4939"/>
<text text-anchor="middle" x="567.2186" y="-219.3957" font-family="Times,serif" font-size="14.00" fill="#000000">F &#45;&gt; (.E)</text>
</g>
<!-- 140338461218632&#45;&gt;140338461218744 -->
<g id="edge23" class="edge">
<title>140338461218632&#45;&gt;140338461218744</title>
<path fill="none" stroke="#000000" d="M484.2121,-219.1271C494.0248,-219.5962 504.5779,-220.1008 514.7596,-220.5876"/>
<polygon fill="#000000" stroke="#000000" points="514.6205,-224.0848 524.7763,-221.0665 514.9549,-217.0928 514.6205,-224.0848"/>
<text text-anchor="middle" x="504.4723" y="-223.8957" font-family="Times,serif" font-size="14.00" fill="#000000">(</text>
</g>
<!-- 140338461218744&#45;&gt;140338461217960 -->
<g id="edge6" class="edge">
<title>140338461218744&#45;&gt;140338461217960</title>
<path fill="none" stroke="#000000" d="M535.6204,-194.7863C520.989,-183.5321 502.7126,-171.8968 483.9723,-166.0957 398.7594,-139.7179 296.1254,-179.5056 239.9186,-207.1909"/>
<polygon fill="#000000" stroke="#000000" points="238.0015,-204.2374 230.6422,-211.8591 241.1482,-210.4903 238.0015,-204.2374"/>
<text text-anchor="middle" x="377.4798" y="-164.8957" font-family="Times,serif" font-size="14.00" fill="#000000">ε</text>
</g>
<!-- 140338461218968 -->
<g id="node10" class="node">
<title>140338461218968</title>
<ellipse fill="none" stroke="#000000" stroke-width="2" cx="702.5606" cy="-227.0957" rx="42.4939" ry="42.4939"/>
<text text-anchor="middle" x="702.5606" y="-223.3957" font-family="Times,serif" font-size="14.00" fill="#000000">F &#45;&gt; (E.)</text>
</g>
<!-- 140338461218744&#45;&gt;140338461218968 -->
<g id="edge5" class="edge">
<title>140338461218744&#45;&gt;140338461218968</title>
<path fill="none" stroke="#000000" d="M609.6703,-224.3504C622.5196,-224.7301 636.7845,-225.1517 650.2018,-225.5483"/>
<polygon fill="#000000" stroke="#000000" points="650.1604,-229.0485 660.2595,-225.8455 650.3673,-222.0515 650.1604,-229.0485"/>
<text text-anchor="middle" x="631.9648" y="-228.8957" font-family="Times,serif" font-size="14.00" fill="#000000">E</text>
</g>
<!-- 140338461218744&#45;&gt;140338461217904 -->
<g id="edge22" class="edge">
<title>140338461218744&#45;&gt;140338461217904</title>
<path fill="none" stroke="#000000" d="M593.3139,-189.354C614.1671,-162.3903 643.6202,-124.3069 666.6906,-94.4763"/>
<polygon fill="#000000" stroke="#000000" points="669.6668,-96.3491 673.016,-86.2975 664.1296,-92.0666 669.6668,-96.3491"/>
<text text-anchor="middle" x="631.9648" y="-144.8957" font-family="Times,serif" font-size="14.00" fill="#000000">ε</text>
</g>
<!-- 140338461218856 -->
<g id="node11" class="node">
<title>140338461218856</title>
<ellipse fill="none" stroke="#000000" stroke-width="2" cx="843.752" cy="-227.0957" rx="42.4939" ry="42.4939"/>
<text text-anchor="middle" x="843.752" y="-223.3957" font-family="Times,serif" font-size="14.00" fill="#000000">F &#45;&gt; (E).</text>
</g>
<!-- 140338461218968&#45;&gt;140338461218856 -->
<g id="edge4" class="edge">
<title>140338461218968&#45;&gt;140338461218856</title>
<path fill="none" stroke="#000000" d="M744.9226,-227.0957C759.4422,-227.0957 775.8694,-227.0957 791.1026,-227.0957"/>
<polygon fill="#000000" stroke="#000000" points="791.4199,-230.5958 801.4198,-227.0957 791.4198,-223.5958 791.4199,-230.5958"/>
<text text-anchor="middle" x="773.1563" y="-230.8957" font-family="Times,serif" font-size="14.00" fill="#000000">)</text>
</g>
<!-- 140338461217904&#45;&gt;140338461217960 -->
<g id="edge20" class="edge">
<title>140338461217904&#45;&gt;140338461217960</title>
<path fill="none" stroke="#000000" d="M659.9218,-70.5567C633.8776,-82.2335 599.4806,-94.0957 567.2186,-94.0957 318.4331,-94.0957 318.4331,-94.0957 318.4331,-94.0957 268.5128,-94.0957 234.2937,-146.1035 215.4467,-185.7965"/>
<polygon fill="#000000" stroke="#000000" points="212.181,-184.5221 211.2101,-195.0724 218.5483,-187.4303 212.181,-184.5221"/>
<text text-anchor="middle" x="441.7261" y="-97.8957" font-family="Times,serif" font-size="14.00" fill="#000000">ε</text>
</g>
<!-- 140338461217904&#45;&gt;140338461217904 -->
<g id="edge21" class="edge">
<title>140338461217904&#45;&gt;140338461217904</title>
<path fill="none" stroke="#000000" d="M689.6406,-94.4241C690.5977,-105.7574 694.9043,-114.1915 702.5606,-114.1915 707.7046,-114.1915 711.3366,-110.3842 713.4565,-104.4483"/>
<polygon fill="#000000" stroke="#000000" points="716.932,-104.919 715.4805,-94.4241 710.0705,-103.5335 716.932,-104.919"/>
<text text-anchor="middle" x="702.5606" y="-117.9915" font-family="Times,serif" font-size="14.00" fill="#000000">ε</text>
</g>
<!-- 140338461219416 -->
<g id="node13" class="node">
<title>140338461219416</title>
<ellipse fill="none" stroke="#000000" stroke-width="2" cx="843.752" cy="-73.0957" rx="48.1917" ry="48.1917"/>
<text text-anchor="middle" x="843.752" y="-69.3957" font-family="Times,serif" font-size="14.00" fill="#000000">E &#45;&gt; E.+T</text>
</g>
<!-- 140338461217904&#45;&gt;140338461219416 -->
<g id="edge19" class="edge">
<title>140338461217904&#45;&gt;140338461219416</title>
<path fill="none" stroke="#000000" d="M749.968,-56.4899C761.6094,-58.5512 774.1971,-60.78 786.2563,-62.9153"/>
<polygon fill="#000000" stroke="#000000" points="785.7722,-66.3839 796.2293,-64.6811 786.9927,-59.4911 785.7722,-66.3839"/>
<text text-anchor="middle" x="773.1563" y="-65.8957" font-family="Times,serif" font-size="14.00" fill="#000000">E</text>
</g>
<!-- 140338461219584 -->
<g id="node14" class="node">
<title>140338461219584</title>
<ellipse fill="none" stroke="#000000" stroke-width="2" cx="984.9435" cy="-326.0957" rx="48.1917" ry="48.1917"/>
<text text-anchor="middle" x="984.9435" y="-322.3957" font-family="Times,serif" font-size="14.00" fill="#000000">E &#45;&gt; E+.T</text>
</g>
<!-- 140338461219416&#45;&gt;140338461219584 -->
<g id="edge18" class="edge">
<title>140338461219416&#45;&gt;140338461219584</title>
<path fill="none" stroke="#000000" d="M867.2254,-115.1575C891.7565,-159.1147 930.2583,-228.1058 956.5,-275.1281"/>
<polygon fill="#000000" stroke="#000000" points="953.4844,-276.9067 961.414,-283.9334 959.597,-273.4955 953.4844,-276.9067"/>
<text text-anchor="middle" x="914.3478" y="-210.8957" font-family="Times,serif" font-size="14.00" fill="#000000">+</text>
</g>
<!-- 140338461219584&#45;&gt;140338461218296 -->
<g id="edge8" class="edge">
<title>140338461219584&#45;&gt;140338461218296</title>
<path fill="none" stroke="#000000" d="M936.9847,-330.3092C847.8518,-337.9051 650.5807,-353.6143 483.9723,-359.0957 446.4404,-360.3305 435.8326,-368.5109 399.4798,-359.0957 384.6691,-355.2598 369.6823,-348.0676 356.6924,-340.5407"/>
<polygon fill="#000000" stroke="#000000" points="358.4137,-337.4915 348.0452,-335.3134 354.7924,-343.482 358.4137,-337.4915"/>
<text text-anchor="middle" x="631.9648" y="-355.8957" font-family="Times,serif" font-size="14.00" fill="#000000">ε</text>
</g>
<!-- 140338461219864 -->
<g id="node15" class="node">
<title>140338461219864</title>
<ellipse fill="none" stroke="#000000" stroke-width="2" cx="1126.1349" cy="-274.0957" rx="48.1917" ry="48.1917"/>
<text text-anchor="middle" x="1126.1349" y="-270.3957" font-family="Times,serif" font-size="14.00" fill="#000000">E &#45;&gt; E+T.</text>
</g>
<!-- 140338461219584&#45;&gt;140338461219864 -->
<g id="edge7" class="edge">
<title>140338461219584&#45;&gt;140338461219864</title>
<path fill="none" stroke="#000000" d="M1030.3945,-309.3564C1043.3685,-304.5781 1057.6457,-299.3199 1071.1251,-294.3556"/>
<polygon fill="#000000" stroke="#000000" points="1072.5949,-297.5441 1080.7691,-290.8037 1070.1756,-290.9755 1072.5949,-297.5441"/>
<text text-anchor="middle" x="1055.5392" y="-304.8957" font-family="Times,serif" font-size="14.00" fill="#000000">T</text>
</g>
<!-- 140338461219584&#45;&gt;140338461218240 -->
<g id="edge17" class="edge">
<title>140338461219584&#45;&gt;140338461218240</title>
<path fill="none" stroke="#000000" d="M1029.23,-344.9155C1043.4269,-350.9485 1059.2804,-357.6856 1073.9855,-363.9346"/>
<polygon fill="#000000" stroke="#000000" points="1072.8818,-367.2684 1083.4541,-367.9583 1075.6195,-360.826 1072.8818,-367.2684"/>
<text text-anchor="middle" x="1055.5392" y="-360.8957" font-family="Times,serif" font-size="14.00" fill="#000000">ε</text>
</g>
<!-- 140338461218240&#45;&gt;140338461218296 -->
<g id="edge15" class="edge">
<title>140338461218240&#45;&gt;140338461218296</title>
<path fill="none" stroke="#000000" d="M1082.13,-400.3928C1054.5269,-408.1197 1018.0222,-416.0957 984.9435,-416.0957 441.7261,-416.0957 441.7261,-416.0957 441.7261,-416.0957 420.0214,-416.0957 378.8782,-378.094 350.1128,-348.4816"/>
<polygon fill="#000000" stroke="#000000" points="352.5359,-345.9518 343.0856,-341.1621 347.4863,-350.7997 352.5359,-345.9518"/>
<text text-anchor="middle" x="702.5606" y="-419.8957" font-family="Times,serif" font-size="14.00" fill="#000000">ε</text>
</g>
<!-- 140338461218240&#45;&gt;140338461218240 -->
<g id="edge16" class="edge">
<title>140338461218240&#45;&gt;140338461218240</title>
<path fill="none" stroke="#000000" d="M1113.167,-430.4655C1114.0193,-441.7614 1118.342,-450.2416 1126.1349,-450.2416 1131.3708,-450.2416 1135.0402,-446.4135 1137.143,-440.4753"/>
<polygon fill="#000000" stroke="#000000" points="1140.6161,-440.9517 1139.1029,-430.4655 1133.7466,-439.6066 1140.6161,-440.9517"/>
<text text-anchor="middle" x="1126.1349" y="-454.0416" font-family="Times,serif" font-size="14.00" fill="#000000">ε</text>
</g>
<!-- 140338461219304 -->
<g id="node17" class="node">
<title>140338461219304</title>
<ellipse fill="none" stroke="#000000" stroke-width="2" cx="1265.3766" cy="-386.0957" rx="46.2923" ry="46.2923"/>
<text text-anchor="middle" x="1265.3766" y="-382.3957" font-family="Times,serif" font-size="14.00" fill="#000000">T &#45;&gt; T.*F</text>
</g>
<!-- 140338461218240&#45;&gt;140338461219304 -->
<g id="edge14" class="edge">
<title>140338461218240&#45;&gt;140338461219304</title>
<path fill="none" stroke="#000000" d="M1172.5004,-386.0957C1184.2436,-386.0957 1196.9841,-386.0957 1209.1567,-386.0957"/>
<polygon fill="#000000" stroke="#000000" points="1209.2136,-389.5958 1219.2136,-386.0957 1209.2136,-382.5958 1209.2136,-389.5958"/>
<text text-anchor="middle" x="1196.7307" y="-389.8957" font-family="Times,serif" font-size="14.00" fill="#000000">T</text>
</g>
<!-- 140338461219192 -->
<g id="node18" class="node">
<title>140338461219192</title>
<ellipse fill="none" stroke="#000000" stroke-width="2" cx="1400.6684" cy="-386.0957" rx="46.2923" ry="46.2923"/>
<text text-anchor="middle" x="1400.6684" y="-382.3957" font-family="Times,serif" font-size="14.00" fill="#000000">T &#45;&gt; T*.F</text>
</g>
<!-- 140338461219304&#45;&gt;140338461219192 -->
<g id="edge13" class="edge">
<title>140338461219304&#45;&gt;140338461219192</title>
<path fill="none" stroke="#000000" d="M1311.558,-386.0957C1321.9997,-386.0957 1333.2026,-386.0957 1344.0201,-386.0957"/>
<polygon fill="#000000" stroke="#000000" points="1344.2359,-389.5958 1354.2358,-386.0957 1344.2358,-382.5958 1344.2359,-389.5958"/>
<text text-anchor="middle" x="1333.0225" y="-389.8957" font-family="Times,serif" font-size="14.00" fill="#000000">*</text>
</g>
<!-- 140338461219192&#45;&gt;140338461218632 -->
<g id="edge10" class="edge">
<title>140338461219192&#45;&gt;140338461218632</title>
<path fill="none" stroke="#000000" d="M1394.4555,-340.3045C1382.5247,-273.4765 1349.6495,-157.0957 1265.3766,-157.0957 702.5606,-157.0957 702.5606,-157.0957 702.5606,-157.0957 623.3514,-157.0957 600.8759,-149.4519 524.9723,-172.0957 511.7996,-176.0255 498.3448,-182.1936 486.1995,-188.7171"/>
<polygon fill="#000000" stroke="#000000" points="484.2197,-185.8138 477.1936,-193.7437 487.6314,-191.9261 484.2197,-185.8138"/>
<text text-anchor="middle" x="914.3478" y="-160.8957" font-family="Times,serif" font-size="14.00" fill="#000000">ε</text>
</g>
<!-- 140338461219528 -->
<g id="node19" class="node">
<title>140338461219528</title>
<ellipse fill="none" stroke="#000000" stroke-width="2" cx="1536.9602" cy="-386.0957" rx="46.2923" ry="46.2923"/>
<text text-anchor="middle" x="1536.9602" y="-382.3957" font-family="Times,serif" font-size="14.00" fill="#000000">T &#45;&gt; T*F.</text>
</g>
<!-- 140338461219192&#45;&gt;140338461219528 -->
<g id="edge9" class="edge">
<title>140338461219192&#45;&gt;140338461219528</title>
<path fill="none" stroke="#000000" d="M1447.1911,-386.0957C1457.9366,-386.0957 1469.4822,-386.0957 1480.5966,-386.0957"/>
<polygon fill="#000000" stroke="#000000" points="1480.6472,-389.5958 1490.6472,-386.0957 1480.6471,-382.5958 1480.6472,-389.5958"/>
<text text-anchor="middle" x="1468.8143" y="-389.8957" font-family="Times,serif" font-size="14.00" fill="#000000">F</text>
</g>
<!-- 140338461219192&#45;&gt;140338461218576 -->
<g id="edge12" class="edge">
<title>140338461219192&#45;&gt;140338461218576</title>
<path fill="none" stroke="#000000" d="M1437.1921,-414.5018C1455.5999,-428.8183 1477.9632,-446.2112 1496.8478,-460.8986"/>
<polygon fill="#000000" stroke="#000000" points="1494.9365,-463.846 1504.9789,-467.2225 1499.234,-458.3205 1494.9365,-463.846"/>
<text text-anchor="middle" x="1468.8143" y="-442.8957" font-family="Times,serif" font-size="14.00" fill="#000000">ε</text>
</g>
<!-- 140338461219080 -->
<g id="node21" class="node">
<title>140338461219080</title>
<ellipse fill="none" stroke="#000000" stroke-width="2" cx="1674.4025" cy="-492.0957" rx="40.0939" ry="40.0939"/>
<text text-anchor="middle" x="1674.4025" y="-488.3957" font-family="Times,serif" font-size="14.00" fill="#000000">F &#45;&gt; int.</text>
</g>
<!-- 140338461218576&#45;&gt;140338461219080 -->
<g id="edge11" class="edge">
<title>140338461218576&#45;&gt;140338461219080</title>
<path fill="none" stroke="#000000" d="M1577.4541,-492.0957C1591.8655,-492.0957 1608.2815,-492.0957 1623.456,-492.0957"/>
<polygon fill="#000000" stroke="#000000" points="1623.7232,-495.5958 1633.7232,-492.0957 1623.7231,-488.5958 1623.7232,-495.5958"/>
<text text-anchor="middle" x="1608.6061" y="-495.8957" font-family="Times,serif" font-size="14.00" fill="#000000">int</text>
</g>
</g>
</svg>
