<?xml version="1.0" encoding="UTF-8" standalone="no"?>
<!DOCTYPE svg PUBLIC "-//W3C//DTD SVG 1.1//EN"
 "http://www.w3.org/Graphics/SVG/1.1/DTD/svg11.dtd">
<!-- Generated by graphviz version 2.40.1 (20161225.0304)
 -->
<!-- Title: G Pages: 1 -->
<svg width="1283pt" height="558pt"
 viewBox="7.20 7.20 1275.85 550.40" xmlns="http://www.w3.org/2000/svg" xmlns:xlink="http://www.w3.org/1999/xlink">
<g id="graph0" class="graph" transform="scale(1 1) rotate(0) translate(11.2 546.4046)">
<title>G</title>
<polygon fill="#ffffff" stroke="transparent" points="-4,4 -4,-539.2046 1264.6484,-539.2046 1264.6484,4 -4,4"/>
<!-- start -->
<g id="node1" class="node">
<title>start</title>
</g>
<!-- 140338339726896 -->
<g id="node2" class="node">
<title>140338339726896</title>
<ellipse fill="none" stroke="#000000" stroke-width="2" cx="117.9031" cy="-284.2046" rx="79.8063" ry="79.8063"/>
<text text-anchor="middle" x="117.9031" y="-325.5046" font-family="Times,serif" font-size="14.00" fill="#000000">E &#45;&gt; .T</text>
<text text-anchor="middle" x="117.9031" y="-310.5046" font-family="Times,serif" font-size="14.00" fill="#000000">F &#45;&gt; .(E)</text>
<text text-anchor="middle" x="117.9031" y="-295.5046" font-family="Times,serif" font-size="14.00" fill="#000000">S&#39; &#45;&gt; .E</text>
<text text-anchor="middle" x="117.9031" y="-280.5046" font-family="Times,serif" font-size="14.00" fill="#000000">E &#45;&gt; .E+T</text>
<text text-anchor="middle" x="117.9031" y="-265.5046" font-family="Times,serif" font-size="14.00" fill="#000000">F &#45;&gt; .int</text>
<text text-anchor="middle" x="117.9031" y="-250.5046" font-family="Times,serif" font-size="14.00" fill="#000000">T &#45;&gt; .F</text>
<text text-anchor="middle" x="117.9031" y="-235.5046" font-family="Times,serif" font-size="14.00" fill="#000000">T &#45;&gt; .T*F</text>
</g>
<!-- start&#45;&gt;140338339726896 -->
<g id="edge23" class="edge">
<title>start&#45;&gt;140338339726896</title>
<path fill="none" stroke="#000000" stroke-dasharray="5,2" d="M1.2497,-284.2046C4.0312,-284.2046 14.2925,-284.2046 27.6568,-284.2046"/>
<polygon fill="#000000" stroke="#000000" points="27.874,-287.7047 37.874,-284.2046 27.8739,-280.7047 27.874,-287.7047"/>
</g>
<!-- 140338460463400 -->
<g id="node3" class="node">
<title>140338460463400</title>
<ellipse fill="none" stroke="#000000" stroke-width="2" cx="913.6215" cy="-364.2046" rx="36.2938" ry="36.2938"/>
<text text-anchor="middle" x="913.6215" y="-360.5046" font-family="Times,serif" font-size="14.00" fill="#000000">T &#45;&gt; F.</text>
</g>
<!-- 140338339726896&#45;&gt;140338460463400 -->
<g id="edge1" class="edge">
<title>140338339726896&#45;&gt;140338460463400</title>
<path fill="none" stroke="#000000" d="M156.3927,-354.4137C191.7619,-408.5377 249.715,-474.2046 322.7092,-474.2046 322.7092,-474.2046 322.7092,-474.2046 751.6057,-474.2046 794.0869,-474.2046 807.6949,-470.383 843.2956,-447.2046 860.5231,-435.9883 875.8142,-419.3058 887.7012,-403.8328"/>
<polygon fill="#000000" stroke="#000000" points="890.8054,-405.5222 893.9456,-395.4034 885.1806,-401.3554 890.8054,-405.5222"/>
<text text-anchor="middle" x="595.59" y="-478.0046" font-family="Times,serif" font-size="14.00" fill="#000000">F</text>
</g>
<!-- 140338460432480 -->
<g id="node4" class="node">
<title>140338460432480</title>
<ellipse fill="none" stroke="#000000" stroke-width="2" cx="1214.5025" cy="-310.2046" rx="40.0939" ry="40.0939"/>
<text text-anchor="middle" x="1214.5025" y="-306.5046" font-family="Times,serif" font-size="14.00" fill="#000000">F &#45;&gt; int.</text>
</g>
<!-- 140338339726896&#45;&gt;140338460432480 -->
<g id="edge2" class="edge">
<title>140338339726896&#45;&gt;140338460432480</title>
<path fill="none" stroke="#000000" d="M146.2346,-359.2007C177.7898,-428.3049 236.0458,-520.2046 322.7092,-520.2046 322.7092,-520.2046 322.7092,-520.2046 1067.152,-520.2046 1145.2022,-520.2046 1185.4435,-421.7975 1203.0651,-359.712"/>
<polygon fill="#000000" stroke="#000000" points="1206.5401,-360.273 1205.8004,-349.704 1199.7877,-358.4274 1206.5401,-360.273"/>
<text text-anchor="middle" x="751.6057" y="-524.0046" font-family="Times,serif" font-size="14.00" fill="#000000">int</text>
</g>
<!-- 140338460432536 -->
<g id="node5" class="node">
<title>140338460432536</title>
<ellipse fill="none" stroke="#000000" stroke-width="2" cx="322.7092" cy="-284.2046" rx="79.8062" ry="79.8063"/>
<text text-anchor="middle" x="322.7092" y="-325.5046" font-family="Times,serif" font-size="14.00" fill="#000000">E &#45;&gt; .T</text>
<text text-anchor="middle" x="322.7092" y="-310.5046" font-family="Times,serif" font-size="14.00" fill="#000000">F &#45;&gt; .(E)</text>
<text text-anchor="middle" x="322.7092" y="-295.5046" font-family="Times,serif" font-size="14.00" fill="#000000">F &#45;&gt; (.E)</text>
<text text-anchor="middle" x="322.7092" y="-280.5046" font-family="Times,serif" font-size="14.00" fill="#000000">E &#45;&gt; .E+T</text>
<text text-anchor="middle" x="322.7092" y="-265.5046" font-family="Times,serif" font-size="14.00" fill="#000000">F &#45;&gt; .int</text>
<text text-anchor="middle" x="322.7092" y="-250.5046" font-family="Times,serif" font-size="14.00" fill="#000000">T &#45;&gt; .F</text>
<text text-anchor="middle" x="322.7092" y="-235.5046" font-family="Times,serif" font-size="14.00" fill="#000000">T &#45;&gt; .T*F</text>
</g>
<!-- 140338339726896&#45;&gt;140338460432536 -->
<g id="edge19" class="edge">
<title>140338339726896&#45;&gt;140338460432536</title>
<path fill="none" stroke="#000000" d="M197.9664,-284.2046C209.3337,-284.2046 221.0871,-284.2046 232.6285,-284.2046"/>
<polygon fill="#000000" stroke="#000000" points="232.7015,-287.7047 242.7015,-284.2046 232.7014,-280.7047 232.7015,-287.7047"/>
<text text-anchor="middle" x="220.3061" y="-288.0046" font-family="Times,serif" font-size="14.00" fill="#000000">(</text>
</g>
<!-- 140338460433096 -->
<g id="node12" class="node">
<title>140338460433096</title>
<ellipse fill="none" stroke="#000000" stroke-width="2" cx="595.59" cy="-50.2046" rx="50.41" ry="50.41"/>
<text text-anchor="middle" x="595.59" y="-54.0046" font-family="Times,serif" font-size="14.00" fill="#000000">E &#45;&gt; T.</text>
<text text-anchor="middle" x="595.59" y="-39.0046" font-family="Times,serif" font-size="14.00" fill="#000000">T &#45;&gt; T.*F</text>
</g>
<!-- 140338339726896&#45;&gt;140338460433096 -->
<g id="edge22" class="edge">
<title>140338339726896&#45;&gt;140338460433096</title>
<path fill="none" stroke="#000000" d="M161.0329,-216.8835C182.8341,-186.6655 211.3324,-152.2604 242.8061,-127.2046 311.3335,-72.6509 335.19,-61.5729 420.6123,-42.2046 458.2396,-33.6731 501.5492,-35.5631 535.6665,-39.6403"/>
<polygon fill="#000000" stroke="#000000" points="535.5772,-43.1577 545.943,-40.9667 536.4734,-36.2153 535.5772,-43.1577"/>
<text text-anchor="middle" x="322.7092" y="-131.0046" font-family="Times,serif" font-size="14.00" fill="#000000">T</text>
</g>
<!-- 140338460432816 -->
<g id="node13" class="node">
<title>140338460432816</title>
<ellipse fill="none" stroke="#000000" stroke-width="2" cx="472.9382" cy="-133.2046" rx="52.1524" ry="52.1524"/>
<text text-anchor="middle" x="472.9382" y="-137.0046" font-family="Times,serif" font-size="14.00" fill="#000000">E &#45;&gt; E.+T</text>
<text text-anchor="middle" x="472.9382" y="-122.0046" font-family="Times,serif" font-size="14.00" fill="#000000">S&#39; &#45;&gt; E.</text>
</g>
<!-- 140338339726896&#45;&gt;140338460432816 -->
<g id="edge21" class="edge">
<title>140338339726896&#45;&gt;140338460432816</title>
<path fill="none" stroke="#000000" d="M180.0136,-233.3767C199.2657,-219.4738 221.1364,-205.4362 242.8061,-195.2046 297.1256,-169.5569 363.8447,-153.0597 411.4318,-143.5828"/>
<polygon fill="#000000" stroke="#000000" points="412.1369,-147.0113 421.2846,-141.6663 410.8003,-140.1401 412.1369,-147.0113"/>
<text text-anchor="middle" x="220.3061" y="-214.0046" font-family="Times,serif" font-size="14.00" fill="#000000">E</text>
</g>
<!-- 140338460432536&#45;&gt;140338460463400 -->
<g id="edge3" class="edge">
<title>140338460432536&#45;&gt;140338460463400</title>
<path fill="none" stroke="#000000" d="M394.1662,-320.3247C436.3648,-339.6148 491.5035,-361.3648 543.2641,-371.2046 658.0423,-393.0242 796.4329,-380.3493 867.1174,-371.15"/>
<polygon fill="#000000" stroke="#000000" points="868.0084,-374.562 877.4554,-369.7659 867.0794,-367.624 868.0084,-374.562"/>
<text text-anchor="middle" x="670.4159" y="-386.0046" font-family="Times,serif" font-size="14.00" fill="#000000">F</text>
</g>
<!-- 140338460432536&#45;&gt;140338460432480 -->
<g id="edge4" class="edge">
<title>140338460432536&#45;&gt;140338460432480</title>
<path fill="none" stroke="#000000" d="M382.4695,-337.4157C434.8313,-378.436 514.9719,-428.2046 595.59,-428.2046 595.59,-428.2046 595.59,-428.2046 1067.152,-428.2046 1117.0036,-428.2046 1159.6354,-386.5451 1186.0271,-352.7323"/>
<polygon fill="#000000" stroke="#000000" points="1189.1382,-354.4213 1192.3815,-344.3351 1183.5563,-350.1973 1189.1382,-354.4213"/>
<text text-anchor="middle" x="835.7956" y="-432.0046" font-family="Times,serif" font-size="14.00" fill="#000000">int</text>
</g>
<!-- 140338460432536&#45;&gt;140338460432536 -->
<g id="edge5" class="edge">
<title>140338460432536&#45;&gt;140338460432536</title>
<path fill="none" stroke="#000000" d="M305.3597,-362.5554C308.0608,-374.219 313.844,-382.1076 322.7092,-382.1076 328.804,-382.1076 333.4421,-378.379 336.6235,-372.2585"/>
<polygon fill="#000000" stroke="#000000" points="340.0206,-373.1502 340.0587,-362.5554 333.422,-370.814 340.0206,-373.1502"/>
<text text-anchor="middle" x="322.7092" y="-385.9076" font-family="Times,serif" font-size="14.00" fill="#000000">(</text>
</g>
<!-- 140338460432704 -->
<g id="node6" class="node">
<title>140338460432704</title>
<ellipse fill="none" stroke="#000000" stroke-width="2" cx="595.59" cy="-310.2046" rx="52.1524" ry="52.1524"/>
<text text-anchor="middle" x="595.59" y="-314.0046" font-family="Times,serif" font-size="14.00" fill="#000000">F &#45;&gt; (E.)</text>
<text text-anchor="middle" x="595.59" y="-299.0046" font-family="Times,serif" font-size="14.00" fill="#000000">E &#45;&gt; E.+T</text>
</g>
<!-- 140338460432536&#45;&gt;140338460432704 -->
<g id="edge16" class="edge">
<title>140338460432536&#45;&gt;140338460432704</title>
<path fill="none" stroke="#000000" d="M402.3712,-291.7948C444.1053,-295.7712 494.4657,-300.5695 533.3081,-304.2704"/>
<polygon fill="#000000" stroke="#000000" points="533.144,-307.7705 543.4309,-305.2349 533.808,-300.8021 533.144,-307.7705"/>
<text text-anchor="middle" x="472.9382" y="-307.0046" font-family="Times,serif" font-size="14.00" fill="#000000">E</text>
</g>
<!-- 140338460432536&#45;&gt;140338460433096 -->
<g id="edge18" class="edge">
<title>140338460432536&#45;&gt;140338460433096</title>
<path fill="none" stroke="#000000" d="M334.8839,-205.0715C347.2436,-153.8496 371.8779,-90.6742 420.6123,-57.2046 438.7093,-44.776 492.0764,-44.1427 535.1589,-45.9517"/>
<polygon fill="#000000" stroke="#000000" points="535.1452,-49.4548 545.2988,-46.429 535.4745,-42.4625 535.1452,-49.4548"/>
<text text-anchor="middle" x="472.9382" y="-61.0046" font-family="Times,serif" font-size="14.00" fill="#000000">T</text>
</g>
<!-- 140338460433320 -->
<g id="node7" class="node">
<title>140338460433320</title>
<ellipse fill="none" stroke="#000000" stroke-width="2" cx="751.6057" cy="-201.2046" rx="58.8803" ry="58.8803"/>
<text text-anchor="middle" x="751.6057" y="-227.5046" font-family="Times,serif" font-size="14.00" fill="#000000">E &#45;&gt; E+.T</text>
<text text-anchor="middle" x="751.6057" y="-212.5046" font-family="Times,serif" font-size="14.00" fill="#000000">F &#45;&gt; .(E)</text>
<text text-anchor="middle" x="751.6057" y="-197.5046" font-family="Times,serif" font-size="14.00" fill="#000000">F &#45;&gt; .int</text>
<text text-anchor="middle" x="751.6057" y="-182.5046" font-family="Times,serif" font-size="14.00" fill="#000000">T &#45;&gt; .F</text>
<text text-anchor="middle" x="751.6057" y="-167.5046" font-family="Times,serif" font-size="14.00" fill="#000000">T &#45;&gt; .T*F</text>
</g>
<!-- 140338460432704&#45;&gt;140338460433320 -->
<g id="edge14" class="edge">
<title>140338460432704&#45;&gt;140338460433320</title>
<path fill="none" stroke="#000000" d="M638.635,-280.1313C656.0771,-267.9454 676.4596,-253.7052 695.073,-240.701"/>
<polygon fill="#000000" stroke="#000000" points="697.2907,-243.4213 703.4837,-234.8249 693.2817,-237.683 697.2907,-243.4213"/>
<text text-anchor="middle" x="670.4159" y="-262.0046" font-family="Times,serif" font-size="14.00" fill="#000000">+</text>
</g>
<!-- 140338460432760 -->
<g id="node11" class="node">
<title>140338460432760</title>
<ellipse fill="none" stroke="#000000" stroke-width="2" cx="751.6057" cy="-320.2046" rx="42.4939" ry="42.4939"/>
<text text-anchor="middle" x="751.6057" y="-316.5046" font-family="Times,serif" font-size="14.00" fill="#000000">F &#45;&gt; (E).</text>
</g>
<!-- 140338460432704&#45;&gt;140338460432760 -->
<g id="edge15" class="edge">
<title>140338460432704&#45;&gt;140338460432760</title>
<path fill="none" stroke="#000000" d="M647.975,-313.5623C664.4695,-314.6195 682.6833,-315.7869 699.1806,-316.8443"/>
<polygon fill="#000000" stroke="#000000" points="698.9965,-320.3396 709.1999,-317.4865 699.4443,-313.354 698.9965,-320.3396"/>
<text text-anchor="middle" x="670.4159" y="-319.0046" font-family="Times,serif" font-size="14.00" fill="#000000">)</text>
</g>
<!-- 140338460433320&#45;&gt;140338460463400 -->
<g id="edge7" class="edge">
<title>140338460433320&#45;&gt;140338460463400</title>
<path fill="none" stroke="#000000" d="M791.5365,-244.7335C798.1041,-252.647 804.6133,-260.9995 810.2956,-269.2046 819.8072,-282.9392 817.2684,-289.6542 828.2956,-302.2046 841.0259,-316.6933 857.7248,-329.7551 872.9717,-340.1114"/>
<polygon fill="#000000" stroke="#000000" points="871.4635,-343.309 881.74,-345.8867 875.314,-337.4631 871.4635,-343.309"/>
<text text-anchor="middle" x="835.7956" y="-320.0046" font-family="Times,serif" font-size="14.00" fill="#000000">F</text>
</g>
<!-- 140338460433320&#45;&gt;140338460432480 -->
<g id="edge6" class="edge">
<title>140338460433320&#45;&gt;140338460432480</title>
<path fill="none" stroke="#000000" d="M803.3936,-229.4436C821.2981,-238.2021 841.7741,-247.1372 861.2956,-253.2046 966.0936,-285.7765 1094.4758,-300.539 1163.9715,-306.5601"/>
<polygon fill="#000000" stroke="#000000" points="1163.9394,-310.0697 1174.1974,-307.4195 1164.5257,-303.0943 1163.9394,-310.0697"/>
<text text-anchor="middle" x="991.4474" y="-288.0046" font-family="Times,serif" font-size="14.00" fill="#000000">int</text>
</g>
<!-- 140338460433320&#45;&gt;140338460432536 -->
<g id="edge8" class="edge">
<title>140338460433320&#45;&gt;140338460432536</title>
<path fill="none" stroke="#000000" d="M693.0532,-209.4265C651.2004,-215.5597 593.6112,-224.5213 543.2641,-234.2046 499.2747,-242.6651 450.6873,-253.5156 410.3378,-262.9454"/>
<polygon fill="#000000" stroke="#000000" points="409.4679,-259.5543 400.5322,-265.2468 411.0674,-266.3692 409.4679,-259.5543"/>
<text text-anchor="middle" x="595.59" y="-238.0046" font-family="Times,serif" font-size="14.00" fill="#000000">(</text>
</g>
<!-- 140338460432648 -->
<g id="node8" class="node">
<title>140338460432648</title>
<ellipse fill="none" stroke="#000000" stroke-width="2" cx="913.6215" cy="-192.2046" rx="52.1524" ry="52.1524"/>
<text text-anchor="middle" x="913.6215" y="-196.0046" font-family="Times,serif" font-size="14.00" fill="#000000">E &#45;&gt; E+T.</text>
<text text-anchor="middle" x="913.6215" y="-181.0046" font-family="Times,serif" font-size="14.00" fill="#000000">T &#45;&gt; T.*F</text>
</g>
<!-- 140338460433320&#45;&gt;140338460432648 -->
<g id="edge13" class="edge">
<title>140338460433320&#45;&gt;140338460432648</title>
<path fill="none" stroke="#000000" d="M810.5555,-197.9299C823.7496,-197.197 837.7888,-196.4171 851.1213,-195.6765"/>
<polygon fill="#000000" stroke="#000000" points="851.3629,-199.1685 861.1534,-195.1192 850.9746,-192.1793 851.3629,-199.1685"/>
<text text-anchor="middle" x="835.7956" y="-201.0046" font-family="Times,serif" font-size="14.00" fill="#000000">T</text>
</g>
<!-- 140338460433152 -->
<g id="node9" class="node">
<title>140338460433152</title>
<ellipse fill="none" stroke="#000000" stroke-width="2" cx="1067.152" cy="-145.2046" rx="50.41" ry="50.41"/>
<text text-anchor="middle" x="1067.152" y="-156.5046" font-family="Times,serif" font-size="14.00" fill="#000000">T &#45;&gt; T*.F</text>
<text text-anchor="middle" x="1067.152" y="-141.5046" font-family="Times,serif" font-size="14.00" fill="#000000">F &#45;&gt; .(E)</text>
<text text-anchor="middle" x="1067.152" y="-126.5046" font-family="Times,serif" font-size="14.00" fill="#000000">F &#45;&gt; .int</text>
</g>
<!-- 140338460432648&#45;&gt;140338460433152 -->
<g id="edge12" class="edge">
<title>140338460432648&#45;&gt;140338460433152</title>
<path fill="none" stroke="#000000" d="M963.8931,-176.815C978.4561,-172.3569 994.469,-167.4549 1009.4482,-162.8693"/>
<polygon fill="#000000" stroke="#000000" points="1010.5794,-166.1835 1019.1168,-159.9095 1008.5303,-159.4901 1010.5794,-166.1835"/>
<text text-anchor="middle" x="991.4474" y="-174.0046" font-family="Times,serif" font-size="14.00" fill="#000000">*</text>
</g>
<!-- 140338460433152&#45;&gt;140338460432480 -->
<g id="edge11" class="edge">
<title>140338460433152&#45;&gt;140338460432480</title>
<path fill="none" stroke="#000000" d="M1100.9572,-183.0589C1124.853,-209.817 1156.7565,-245.5418 1180.6605,-272.3091"/>
<polygon fill="#000000" stroke="#000000" points="1178.2187,-274.8294 1187.4902,-279.9568 1183.4398,-270.1667 1178.2187,-274.8294"/>
<text text-anchor="middle" x="1142.8566" y="-242.0046" font-family="Times,serif" font-size="14.00" fill="#000000">int</text>
</g>
<!-- 140338460433152&#45;&gt;140338460432536 -->
<g id="edge10" class="edge">
<title>140338460433152&#45;&gt;140338460432536</title>
<path fill="none" stroke="#000000" d="M1019.6578,-128.3557C946.2811,-105.2112 802.3967,-71.4558 692.9159,-118.2046 666.3195,-129.5614 672.5566,-150.0658 647.9159,-165.2046 557.961,-220.4711 518.5212,-194.7065 420.6123,-234.2046 414.6885,-236.5943 408.6403,-239.2138 402.6013,-241.9622"/>
<polygon fill="#000000" stroke="#000000" points="400.7239,-238.9757 393.1385,-246.3725 403.681,-245.3204 400.7239,-238.9757"/>
<text text-anchor="middle" x="751.6057" y="-122.0046" font-family="Times,serif" font-size="14.00" fill="#000000">(</text>
</g>
<!-- 140338460433208 -->
<g id="node10" class="node">
<title>140338460433208</title>
<ellipse fill="none" stroke="#000000" stroke-width="2" cx="1214.5025" cy="-145.2046" rx="46.2923" ry="46.2923"/>
<text text-anchor="middle" x="1214.5025" y="-141.5046" font-family="Times,serif" font-size="14.00" fill="#000000">T &#45;&gt; T*F.</text>
</g>
<!-- 140338460433152&#45;&gt;140338460433208 -->
<g id="edge9" class="edge">
<title>140338460433152&#45;&gt;140338460433208</title>
<path fill="none" stroke="#000000" d="M1117.4495,-145.2046C1130.4712,-145.2046 1144.5797,-145.2046 1157.9003,-145.2046"/>
<polygon fill="#000000" stroke="#000000" points="1157.902,-148.7047 1167.902,-145.2046 1157.902,-141.7047 1157.902,-148.7047"/>
<text text-anchor="middle" x="1142.8566" y="-149.0046" font-family="Times,serif" font-size="14.00" fill="#000000">F</text>
</g>
<!-- 140338460433096&#45;&gt;140338460433152 -->
<g id="edge17" class="edge">
<title>140338460433096&#45;&gt;140338460433152</title>
<path fill="none" stroke="#000000" d="M645.975,-47.6663C724.3179,-45.4901 878.8147,-48.3541 998.9474,-95.2046 1006.3531,-98.0927 1013.677,-101.9956 1020.6224,-106.3548"/>
<polygon fill="#000000" stroke="#000000" points="1018.9349,-109.4366 1029.1951,-112.0785 1022.8219,-103.6149 1018.9349,-109.4366"/>
<text text-anchor="middle" x="835.7956" y="-61.0046" font-family="Times,serif" font-size="14.00" fill="#000000">*</text>
</g>
<!-- 140338460432816&#45;&gt;140338460433320 -->
<g id="edge20" class="edge">
<title>140338460432816&#45;&gt;140338460433320</title>
<path fill="none" stroke="#000000" d="M524.0501,-145.6768C569.179,-156.6891 635.2836,-172.8199 684.6297,-184.8612"/>
<polygon fill="#000000" stroke="#000000" points="684.0329,-188.3182 694.5776,-187.2887 685.6924,-181.5177 684.0329,-188.3182"/>
<text text-anchor="middle" x="595.59" y="-180.0046" font-family="Times,serif" font-size="14.00" fill="#000000">+</text>
</g>
</g>
</svg>
